<svg xmlns="http://www.w3.org/2000/svg" xmlns:xlink="http://www.w3.org/1999/xlink" width="292" height="75" version="1.1" viewBox="0 0 292 75"><title>horizontal</title><desc>Created with Sketch.</desc><defs><polygon id="path-1" points="53.3 75 .06 75 .06 .766 53.3 .766 106.541 .766 106.541 75"/></defs><g id="Logos" fill="none" fill-rule="evenodd" stroke="none" stroke-width="1"><g id="Artboard-Copy" transform="translate(-1057.000000, -513.000000)"><g id="Group-3" transform="translate(83.000000, 44.000000)"><g id="Group-2"><g id="horizontal" transform="translate(974.000000, 469.000000)"><polygon id="Fill-1" fill="#099CEC" points="8.35 36.766 19.35 36.766 19.35 26.766 8.35 26.766"/><polygon id="Fill-2" fill="#099CEC" points="21.35 36.766 32.35 36.766 32.35 26.766 21.35 26.766"/><polygon id="Fill-3" fill="#099CEC" points="34.35 36.766 45.35 36.766 45.35 26.766 34.35 26.766"/><polygon id="Fill-4" fill="#099CEC" points="47.35 36.766 58.35 36.766 58.35 26.766 47.35 26.766"/><polygon id="Fill-5" fill="#099CEC" points="60.35 36.766 71.35 36.766 71.35 26.766 60.35 26.766"/><polygon id="Fill-6" fill="#099CEC" points="21.35 24.766 32.35 24.766 32.35 14.766 21.35 14.766"/><polygon id="Fill-7" fill="#099CEC" points="34.35 24.766 45.35 24.766 45.35 14.766 34.35 14.766"/><polygon id="Fill-8" fill="#099CEC" points="47.35 24.766 58.35 24.766 58.35 14.766 47.35 14.766"/><polygon id="Fill-9" fill="#099CEC" points="47.35 12.766 58.35 12.766 58.35 2.766 47.35 2.766"/><g id="Group-13" transform="translate(1.000000, 16.000000)"><path id="Fill-10" fill="#099CEC" d="M103.113,13.853 C100.856,12.333 94.924,11.685 90.611,12.846 C90.38,8.55 88.164,4.93 84.111,1.773 L82.611,0.766 L81.611,2.276 C79.647,5.258 78.818,9.233 79.111,12.846 C79.343,15.072 80.117,17.574 81.611,19.39 C80.467,20.279 76.908,21.998 72.111,21.907 L0.611,21.907 C-0.66,29.457 1.518,58.149 34.611,58.149 C59.181,58.149 79.368,47.1 88.611,23.92 C91.653,23.97 99.683,24.465 103.611,16.873 C103.707,16.745 104.611,14.859 104.611,14.859 L103.113,13.853"/><path id="Fill-12" fill="#FFF" d="M27.028,44.517 C18.87,47.347 10.086,47.756 8.25,47.674 C14.37,52.777 25.274,62.408 43.25,56.909 C39.967,56.018 32.224,53.033 27.028,44.517"/></g><path id="Fill-14" fill="#026FB6" d="M27.117,58.755 C23.192,60.995 18.643,62.253 13.817,62.253 C11.372,62.253 9.004,61.928 6.75,61.319 C8.178,63.718 8.178,63.718 8.178,63.718 C10.002,64.077 11.887,64.267 13.817,64.267 C19.018,64.267 23.867,62.907 28.093,60.517 C27.742,59.938 27.417,59.36 27.117,58.755"/><path id="Fill-15" fill="#FFF" d="M34.727,57.449 C36.646,57.449 38.203,55.883 38.203,53.949 C38.203,52.017 36.646,50.449 34.727,50.449 C32.807,50.449 31.25,52.017 31.25,53.949 C31.25,55.883 32.807,57.449 34.727,57.449"/><path id="Fill-16" fill="#4D5C64" d="M35.25,52.967 C35.25,52.646 35.408,52.372 35.641,52.189 C35.368,52.047 35.064,51.96 34.736,51.96 C33.64,51.96 32.75,52.856 32.75,53.96 C32.75,55.065 33.64,55.96 34.736,55.96 C35.834,55.96 36.724,55.065 36.724,53.96 L36.712,53.845 C36.572,53.92 36.42,53.973 36.25,53.973 C35.697,53.973 35.25,53.523 35.25,52.967"/><path id="Fill-17" fill="#F6F6F6" d="M103.823,29.674 C102.279,28.796 99.462,28.252 96.553,28.252 C94.859,28.252 93.135,28.436 91.611,28.846 C91.606,28.756 91.601,28.665 91.594,28.575 C92.966,28.212 94.542,28.05 96.114,28.05 C99.243,28.05 102.358,28.692 103.823,29.674"/><path id="Fill-18" fill="#F6F6F6" d="M40.585,73.847 C41.773,73.604 42.994,73.294 44.25,72.909 C42.712,72.492 40.196,71.615 37.422,69.926 C60.28,69.369 77.016,57.638 90.395,29.947 L91.313,28.653 C91.405,28.626 91.499,28.6 91.594,28.575 C91.601,28.665 91.606,28.756 91.611,28.846 C93.135,28.436 94.859,28.252 96.553,28.252 C99.462,28.252 102.279,28.796 103.823,29.674 C103.823,29.674 103.824,29.675 103.825,29.675 L105.336,30.699 L104.575,32.309 C101.107,39.338 93.577,39.867 90.052,39.867 C89.765,39.867 89.505,39.863 89.275,39.86 C80.633,61.261 62.679,72.299 40.585,73.847"/><path id="Fill-19" fill="#0996E3" d="M40.585,73.847 C41.773,73.604 42.994,73.294 44.25,72.909 C42.712,72.492 40.196,71.615 37.422,69.926 C60.28,69.369 77.016,57.638 90.395,29.947 L91.313,28.653 C91.405,28.626 91.499,28.6 91.594,28.575 C91.601,28.665 91.606,28.756 91.611,28.846 C93.135,28.436 94.859,28.252 96.553,28.252 C99.462,28.252 102.279,28.796 103.823,29.674 C103.823,29.674 103.824,29.675 103.825,29.675 L105.336,30.699 L104.575,32.309 C101.107,39.338 93.577,39.867 90.052,39.867 C89.765,39.867 89.505,39.863 89.275,39.86 C80.633,61.261 62.679,72.299 40.585,73.847"/><path id="Fill-20" fill="#F6F6F6" d="M23.317,72.663 C16.505,70.907 11.664,67.623 8.239,63.73 C8.584,63.797 8.932,63.858 9.281,63.913 C12.343,67.391 16.51,70.366 22.137,72.198 C22.523,72.359 22.917,72.515 23.317,72.663"/><path id="Fill-21" fill="#F6F6F6" d="M22.137,72.198 C16.51,70.366 12.343,67.391 9.281,63.913 C9.385,63.93 9.489,63.945 9.593,63.961 C12.595,66.47 16.695,69.925 22.137,72.198"/><g id="Group-25" transform="translate(0.000000, 38.000000)"><path id="Fill-22" fill="#0996E3" d="M22.137,34.198 C16.51,32.366 12.343,29.391 9.281,25.913 C9.385,25.93 9.489,25.945 9.593,25.961 C12.595,28.47 16.695,31.925 22.137,34.198"/><path id="Fill-24" fill="#F6F6F6" d="M8.068,25.533 C0.563,16.837 0.007,5.208 0.312,0.72 L1.498,0.72 C0.969,5.358 1.625,15.302 7.365,23.478 C7.159,23.427 6.954,23.374 6.75,23.319 C7.57,24.698 7.919,25.284 8.068,25.533"/></g><path id="Fill-26" fill="#F6F6F6" d="M13.258,62.247 C11.231,62.206 9.26,61.941 7.365,61.478 C1.625,53.302 0.969,43.358 1.498,38.72 L4.313,38.72 C5.259,48.377 7.504,56.65 13.258,62.247"/><path id="Fill-27" fill="#0996E3" d="M13.258,62.247 C11.231,62.206 9.26,61.941 7.365,61.478 C1.625,53.302 0.969,43.358 1.498,38.72 L4.313,38.72 C5.259,48.377 7.504,56.65 13.258,62.247"/><path id="Fill-28" fill="#F6F6F6" d="M35.075,74.037 C30.618,74.037 26.721,73.541 23.317,72.663 C22.917,72.515 22.523,72.359 22.137,72.198 C16.695,69.925 12.595,66.47 9.593,63.961 C10.972,64.162 12.382,64.267 13.817,64.267 C14.41,64.267 14.997,64.249 15.58,64.214 C20.482,67.825 27.433,69.901 37.313,69.929 C37.349,69.928 37.386,69.927 37.422,69.926 C40.196,71.615 42.712,72.492 44.25,72.909 C42.994,73.294 41.773,73.604 40.585,73.847 C38.776,73.974 36.937,74.037 35.075,74.037"/><path id="Fill-29" fill="#F5F5F5" d="M35.075,74.037 C30.618,74.037 26.721,73.541 23.317,72.663 C22.917,72.515 22.523,72.359 22.137,72.198 C16.695,69.925 12.595,66.47 9.593,63.961 C10.972,64.162 12.382,64.267 13.817,64.267 C14.41,64.267 14.997,64.249 15.58,64.214 C20.482,67.825 27.433,69.901 37.313,69.929 C37.349,69.928 37.386,69.927 37.422,69.926 C40.196,71.615 42.712,72.492 44.25,72.909 C42.994,73.294 41.773,73.604 40.585,73.847 C38.776,73.974 36.937,74.037 35.075,74.037"/><path id="Fill-30" fill="#F6F6F6" d="M13.817,64.267 C12.382,64.267 10.972,64.162 9.593,63.961 C9.489,63.945 9.385,63.93 9.281,63.913 C8.932,63.858 8.584,63.797 8.239,63.73 C8.181,63.664 8.125,63.599 8.068,63.533 C7.919,63.284 7.57,62.698 6.75,61.319 C6.954,61.374 7.159,61.427 7.365,61.478 C9.26,61.941 11.231,62.206 13.258,62.247 C13.977,62.946 14.748,63.602 15.58,64.214 C14.997,64.249 14.41,64.267 13.817,64.267"/><path id="Fill-31" fill="#026BAF" d="M13.817,64.267 C12.382,64.267 10.972,64.162 9.593,63.961 C9.489,63.945 9.385,63.93 9.281,63.913 C8.932,63.858 8.584,63.797 8.239,63.73 C8.181,63.664 8.125,63.599 8.068,63.533 C7.919,63.284 7.57,62.698 6.75,61.319 C6.954,61.374 7.159,61.427 7.365,61.478 C9.26,61.941 11.231,62.206 13.258,62.247 C13.977,62.946 14.748,63.602 15.58,64.214 C14.997,64.249 14.41,64.267 13.817,64.267"/><polygon id="Fill-32" fill="#066DA5" points="10.35 34.766 11.35 34.766 11.35 28.766 10.35 28.766"/><polygon id="Fill-33" fill="#066DA5" points="13.35 34.766 14.35 34.766 14.35 28.766 13.35 28.766"/><polygon id="Fill-34" fill="#066DA5" points="16.35 34.766 17.35 34.766 17.35 28.766 16.35 28.766"/><polygon id="Fill-35" fill="#066DA5" points="23.35 34.766 24.35 34.766 24.35 28.766 23.35 28.766"/><polygon id="Fill-36" fill="#066DA5" points="26.35 34.766 27.35 34.766 27.35 28.766 26.35 28.766"/><polygon id="Fill-37" fill="#066DA5" points="29.35 34.766 30.35 34.766 30.35 28.766 29.35 28.766"/><polygon id="Fill-38" fill="#066DA5" points="36.35 34.766 37.35 34.766 37.35 28.766 36.35 28.766"/><polygon id="Fill-39" fill="#066DA5" points="39.35 34.766 40.35 34.766 40.35 28.766 39.35 28.766"/><polygon id="Fill-40" fill="#066DA5" points="42.35 34.766 43.35 34.766 43.35 28.766 42.35 28.766"/><polygon id="Fill-41" fill="#066DA5" points="49.35 34.766 50.35 34.766 50.35 28.766 49.35 28.766"/><polygon id="Fill-42" fill="#066DA5" points="52.35 34.766 53.35 34.766 53.35 28.766 52.35 28.766"/><polygon id="Fill-43" fill="#066DA5" points="55.35 34.766 56.35 34.766 56.35 28.766 55.35 28.766"/><polygon id="Fill-44" fill="#066DA5" points="62.35 34.766 63.35 34.766 63.35 28.766 62.35 28.766"/><polygon id="Fill-45" fill="#066DA5" points="65.35 34.766 66.35 34.766 66.35 28.766 65.35 28.766"/><polygon id="Fill-46" fill="#066DA5" points="68.35 34.766 69.35 34.766 69.35 28.766 68.35 28.766"/><polygon id="Fill-47" fill="#066DA5" points="26.35 22.766 27.35 22.766 27.35 16.766 26.35 16.766"/><polygon id="Fill-48" fill="#066DA5" points="29.35 22.766 30.35 22.766 30.35 16.766 29.35 16.766"/><polygon id="Fill-49" fill="#066DA5" points="36.35 22.766 37.35 22.766 37.35 16.766 36.35 16.766"/><polygon id="Fill-50" fill="#066DA5" points="39.35 22.766 40.35 22.766 40.35 16.766 39.35 16.766"/><polygon id="Fill-51" fill="#066DA5" points="42.35 22.766 43.35 22.766 43.35 16.766 42.35 16.766"/><polygon id="Fill-52" fill="#066DA5" points="49.35 22.766 50.35 22.766 50.35 16.766 49.35 16.766"/><polygon id="Fill-53" fill="#066DA5" points="52.35 22.766 53.35 22.766 53.35 16.766 52.35 16.766"/><polygon id="Fill-54" fill="#066DA5" points="55.35 22.766 56.35 22.766 56.35 16.766 55.35 16.766"/><polygon id="Fill-55" fill="#066DA5" points="52.35 10.766 53.35 10.766 53.35 4.766 52.35 4.766"/><polygon id="Fill-56" fill="#066DA5" points="49.35 10.766 50.35 10.766 50.35 4.766 49.35 4.766"/><polygon id="Fill-57" fill="#066DA5" points="55.35 10.766 56.35 10.766 56.35 4.766 55.35 4.766"/><g id="Group-61"><mask id="mask-2" fill="#fff"><use xlink:href="#path-1"/></mask><polygon id="Fill-58" fill="#066DA5" points="23.35 22.766 24.35 22.766 24.35 16.766 23.35 16.766" mask="url(#mask-2)"/><path id="Fill-60" fill="#066DA5" d="M103.861,31.3 C103.738,31.552 103.633,31.765 103.552,31.925 C103.508,32.011 103.473,32.08 103.376,32.253 C101.892,35.121 99.711,36.917 96.946,37.889 C94.757,38.658 92.773,38.83 89.799,38.769 C89.77,38.768 89.583,38.764 89.279,38.758 L88.591,38.747 L88.335,39.39 C79.586,61.328 60.482,72.986 35.263,72.986 C20.846,72.986 11.438,67.526 6.248,58.211 C4.245,54.617 2.972,50.583 2.375,46.455 C1.961,43.591 1.904,40.812 2.133,38.758 L6.35,38.758 L6.35,38.766 L73.35,38.766 L73.35,38.746 C77.312,38.702 81.015,37.476 82.874,36.032 L83.693,35.395 L83.032,34.592 C81.794,33.088 80.996,30.884 80.757,28.587 C80.474,25.082 81.323,21.369 83.096,18.677 L83.54,18.007 L84.179,18.435 C88.061,21.468 90.053,24.837 90.264,28.746 L90.331,29.985 L91.522,29.664 C95.415,28.615 101.117,29.127 103.209,30.535 L103.981,31.054 C103.946,31.127 103.911,31.2 103.861,31.3 Z M8.35,36.745 L19.35,36.745 L19.35,26.766 L8.35,26.766 L8.35,36.745 Z M21.35,36.745 L32.35,36.745 L32.35,26.766 L21.35,26.766 L21.35,36.745 Z M21.35,24.766 L32.35,24.766 L32.35,14.766 L21.35,14.766 L21.35,24.766 Z M34.35,36.745 L45.35,36.745 L45.35,26.766 L34.35,26.766 L34.35,36.745 Z M34.35,24.766 L45.35,24.766 L45.35,14.766 L34.35,14.766 L34.35,24.766 Z M47.35,36.745 L58.35,36.745 L58.35,26.766 L47.35,26.766 L47.35,36.745 Z M47.35,24.766 L58.35,24.766 L58.35,14.766 L47.35,14.766 L47.35,24.766 Z M47.35,12.766 L58.35,12.766 L58.35,2.766 L47.35,2.766 L47.35,12.766 Z M60.35,36.745 L71.35,36.745 L71.35,26.766 L60.35,26.766 L60.35,36.745 Z M105.671,32.159 C105.779,31.937 105.896,31.699 106.01,31.46 C106.051,31.377 106.088,31.3 106.163,31.143 L106.541,30.354 L104.319,28.86 C101.917,27.244 96.44,26.635 92.149,27.457 C91.596,23.412 89.327,19.901 85.347,16.799 L82.985,15.215 L81.431,17.563 C79.398,20.649 78.445,24.812 78.766,28.773 C79.002,31.045 79.705,33.237 80.831,34.972 C79.13,35.921 76.336,36.697 73.35,36.737 L73.35,24.766 L60.35,24.766 L60.35,0.766 L45.35,0.766 L45.35,12.766 L19.35,12.766 L19.35,24.766 L6.35,24.766 L6.35,36.745 L0.418,36.745 L0.276,37.584 C-0.112,39.896 -0.107,43.27 0.396,46.745 C1.025,51.106 2.373,55.373 4.504,59.196 C10.05,69.151 20.127,75 35.263,75 C61.017,75 80.744,63.109 89.93,40.785 C93.032,40.841 95.177,40.643 97.606,39.79 C100.822,38.658 103.401,36.54 105.131,33.219 C105.228,33.059 105.369,32.775 105.671,32.159 Z" mask="url(#mask-2)"/></g><path id="Fill-62" fill="#066DA5" d="M185.947,43.727 C186.807,42.868 187.81,42.19 188.956,41.692 C190.102,41.195 191.328,40.947 192.635,40.947 C193.817,40.947 194.909,41.146 195.912,41.544 C196.915,41.942 197.873,42.529 198.786,43.306 C199.323,43.74 199.932,43.957 200.612,43.957 C201.418,43.957 202.085,43.686 202.613,43.144 C203.142,42.601 203.405,41.923 203.405,41.109 C203.405,40.26 203.083,39.546 202.438,38.967 C199.682,36.508 196.413,35.279 192.635,35.279 C188.481,35.279 184.936,36.762 181.999,39.727 C179.063,42.692 177.595,46.271 177.595,50.466 C177.595,54.66 179.063,58.239 181.999,61.204 C184.936,64.169 188.481,65.651 192.635,65.651 C196.396,65.651 199.663,64.422 202.438,61.964 C203.029,61.367 203.325,60.671 203.325,59.875 C203.325,59.062 203.061,58.389 202.532,57.856 C202.005,57.322 201.338,57.055 200.531,57.055 C199.852,57.073 199.261,57.273 198.759,57.651 C197.863,58.429 196.915,59.012 195.912,59.401 C194.909,59.79 193.817,59.985 192.635,59.985 C191.328,59.985 190.102,59.735 188.956,59.238 C187.81,58.741 186.807,58.064 185.947,57.204 C185.088,56.346 184.412,55.338 183.92,54.181 C183.428,53.024 183.181,51.785 183.181,50.466 C183.181,49.146 183.428,47.907 183.92,46.75 C184.412,45.593 185.088,44.585 185.947,43.727 Z M232.575,38.1 C232.575,37.72 232.499,37.359 232.347,37.015 C232.194,36.671 231.993,36.368 231.742,36.106 C231.492,35.844 231.196,35.641 230.856,35.496 C230.516,35.352 230.148,35.279 229.755,35.279 C229.2,35.279 228.698,35.424 228.251,35.713 L212.189,46.262 L212.189,25.11 C212.189,24.314 211.916,23.641 211.37,23.089 C210.824,22.538 210.166,22.262 209.396,22.262 C208.608,22.262 207.941,22.538 207.396,23.089 C206.849,23.641 206.576,24.314 206.576,25.11 L206.576,62.805 C206.576,63.582 206.849,64.251 207.396,64.811 C207.941,65.371 208.608,65.651 209.396,65.651 C210.166,65.651 210.824,65.371 211.37,64.811 C211.916,64.251 212.189,63.582 212.189,62.805 L212.189,53.015 L215.466,50.845 L227.875,64.92 C228.376,65.407 229.003,65.651 229.755,65.651 C230.148,65.651 230.516,65.579 230.856,65.435 C231.196,65.29 231.492,65.087 231.742,64.824 C231.993,64.563 232.194,64.26 232.347,63.916 C232.499,63.572 232.575,63.211 232.575,62.831 C232.575,62.09 232.315,61.431 231.796,60.852 L220.247,47.727 L231.501,40.35 C232.217,39.862 232.575,39.112 232.575,38.1 Z M168.099,54.14 C167.606,55.288 166.935,56.296 166.084,57.164 C165.234,58.031 164.235,58.719 163.09,59.225 C161.943,59.731 160.717,59.985 159.41,59.985 C158.085,59.985 156.85,59.731 155.703,59.225 C154.558,58.719 153.563,58.036 152.723,57.177 C151.881,56.318 151.214,55.311 150.722,54.153 C150.229,52.996 149.982,51.768 149.982,50.466 C149.982,49.164 150.229,47.935 150.722,46.777 C151.214,45.62 151.881,44.612 152.723,43.754 C153.563,42.895 154.558,42.213 155.703,41.706 C156.85,41.2 158.085,40.947 159.41,40.947 C160.717,40.947 161.943,41.2 163.09,41.706 C164.235,42.213 165.234,42.9 166.084,43.767 C166.935,44.635 167.606,45.643 168.099,46.791 C168.591,47.939 168.838,49.164 168.838,50.466 C168.838,51.768 168.591,52.992 168.099,54.14 Z M170.046,39.727 C167.074,36.762 163.528,35.279 159.41,35.279 C155.256,35.279 151.711,36.762 148.774,39.727 C145.838,42.692 144.369,46.271 144.369,50.466 C144.369,54.66 145.838,58.239 148.774,61.204 C151.711,64.169 155.256,65.651 159.41,65.651 C163.528,65.651 167.074,64.169 170.046,61.204 C172.982,58.276 174.451,54.696 174.451,50.466 C174.433,48.368 174.062,46.425 173.336,44.635 C172.611,42.845 171.515,41.209 170.046,39.727 Z M241.601,47.646 C241.887,46.651 242.326,45.742 242.917,44.92 C243.508,44.097 244.206,43.392 245.012,42.805 C245.817,42.217 246.704,41.76 247.671,41.435 C248.638,41.109 249.631,40.947 250.652,40.947 C251.673,40.947 252.662,41.109 253.62,41.435 C254.578,41.76 255.455,42.217 256.252,42.805 C257.049,43.392 257.747,44.097 258.347,44.92 C258.947,45.742 259.398,46.651 259.703,47.646 L241.601,47.646 Z M261.288,39.727 C258.315,36.762 254.771,35.279 250.652,35.279 C246.498,35.279 242.952,36.762 240.016,39.727 C237.079,42.692 235.611,46.271 235.611,50.466 C235.611,54.66 237.079,58.239 240.016,61.204 C242.952,64.169 246.498,65.651 250.652,65.651 C254.43,65.651 257.707,64.422 260.482,61.964 C261.02,61.403 261.288,60.726 261.288,59.93 C261.288,59.116 261.023,58.443 260.496,57.909 C259.968,57.376 259.301,57.11 258.495,57.11 C257.796,57.128 257.179,57.362 256.642,57.815 C255.8,58.538 254.887,59.08 253.902,59.442 C252.917,59.803 251.834,59.985 250.652,59.985 C249.613,59.985 248.615,59.821 247.657,59.496 C246.699,59.17 245.822,58.714 245.025,58.126 C244.229,57.539 243.534,56.834 242.943,56.011 C242.353,55.189 241.905,54.28 241.601,53.286 L262.873,53.286 C263.66,53.286 264.327,53.02 264.874,52.485 C265.42,51.952 265.692,51.279 265.692,50.466 C265.692,48.368 265.326,46.421 264.592,44.622 C263.857,42.822 262.756,41.191 261.288,39.727 Z M134.82,54.14 C134.327,55.288 133.656,56.296 132.806,57.164 C131.955,58.031 130.957,58.719 129.811,59.225 C128.665,59.731 127.438,59.985 126.131,59.985 C124.807,59.985 123.57,59.731 122.425,59.225 C121.278,58.719 120.285,58.036 119.443,57.177 C118.602,56.318 117.935,55.311 117.442,54.153 C116.95,52.996 116.704,51.768 116.704,50.466 C116.704,49.164 116.95,47.935 117.442,46.777 C117.935,45.62 118.602,44.612 119.443,43.754 C120.285,42.895 121.278,42.213 122.425,41.706 C123.57,41.2 124.807,40.947 126.131,40.947 C127.438,40.947 128.665,41.2 129.811,41.706 C130.957,42.213 131.955,42.9 132.806,43.767 C133.656,44.635 134.327,45.643 134.82,46.791 C135.313,47.939 135.559,49.164 135.559,50.466 C135.559,51.768 135.313,52.992 134.82,54.14 Z M138.352,22.262 C137.546,22.262 136.879,22.529 136.351,23.063 C135.822,23.596 135.559,24.269 135.559,25.083 L135.559,38.615 C132.837,36.391 129.694,35.279 126.131,35.279 C121.978,35.279 118.432,36.762 115.495,39.727 C112.559,42.692 111.091,46.271 111.091,50.466 C111.091,54.66 112.559,58.239 115.495,61.204 C118.432,64.169 121.978,65.651 126.131,65.651 C130.25,65.651 133.795,64.169 136.768,61.204 C139.704,58.276 141.172,54.696 141.172,50.466 L141.172,25.083 C141.172,24.269 140.899,23.596 140.353,23.063 C139.807,22.529 139.14,22.262 138.352,22.262 Z M290.753,37.177 C290.252,36.689 289.62,36.305 288.859,36.025 C288.099,35.745 287.266,35.55 286.361,35.442 C285.457,35.334 284.611,35.279 283.823,35.279 C282.033,35.279 280.35,35.568 278.774,36.147 C277.198,36.726 275.739,37.557 274.396,38.642 L274.396,38.1 C274.396,37.322 274.123,36.658 273.577,36.106 C273.03,35.555 272.373,35.279 271.603,35.279 C270.814,35.279 270.147,35.555 269.602,36.106 C269.056,36.658 268.782,37.322 268.782,38.1 L268.782,62.831 C268.782,63.609 269.056,64.273 269.602,64.824 C270.147,65.376 270.814,65.651 271.603,65.651 C272.373,65.651 273.03,65.376 273.577,64.824 C274.123,64.273 274.396,63.609 274.396,62.831 L274.396,50.466 C274.396,49.146 274.643,47.907 275.135,46.75 C275.627,45.593 276.299,44.585 277.149,43.727 C278,42.868 278.998,42.19 280.144,41.692 C281.29,41.195 282.517,40.947 283.823,40.947 C285.148,40.947 286.375,41.173 287.503,41.625 C287.951,41.824 288.345,41.923 288.685,41.923 C289.079,41.923 289.445,41.851 289.786,41.706 C290.126,41.562 290.422,41.359 290.672,41.096 C290.923,40.834 291.124,40.531 291.276,40.188 C291.429,39.844 291.505,39.474 291.505,39.076 C291.505,38.298 291.254,37.666 290.753,37.177 Z"/></g></g></g></g></g></svg>