<svg xmlns="http://www.w3.org/2000/svg" viewBox="0 0 2000 1449.69"><title>octopulse-square-logo</title><g id="Calque_2" data-name="Calque 2"><path d="M304.13,1503.9c0,84.7-59.88,149.72-151.85,149.72C59.89,1653.62,0,1588.6,0,1503.9s59.89-149.72,152.28-149.72C244.25,1354.18,304.13,1419.21,304.13,1503.9Zm-83.83,0c0-71.44-24-112.5-68-112.5-44.49,0-68.44,41.06-68.44,112.5s24,112.5,68.44,112.5C196.34,1616.4,220.3,1575.34,220.3,1503.9Z" transform="translate(0 -276.65)" style="fill:#f24d4b"/><path d="M483.33,1568.49l31.66,6c-13.26,51.76-41.92,79.14-98.82,79.14-71.43,0-119.34-44.06-119.34-110.79,0-67.59,49.62-115.5,117.21-115.5,61.16,0,103.09,39.36,103.09,75.72,0,21.81-15.83,36.78-36.36,36.78-21.39,0-37.65-15.39-37.65-35.93,0-7.7,2.57-21.82,13.69-29.94-7.27-9-17.54-12.41-31.23-12.41-42.77,0-54.75,36.79-54.75,72.72,0,54.76,23.1,80.42,57.32,80.42C453.82,1614.69,477.77,1599.72,483.33,1568.49Z" transform="translate(0 -276.65)" style="fill:#f24d4b"/><path d="M547.46,1585.18V1471.82H518.38v-40.21h.85c37.65,0,52.19-23.1,71.87-50h26.09v50h71.44v40.21H617.19V1585.6c0,12.84,9.84,20.54,19.68,20.54,12.83,0,21.82-6.85,23.53-25.67l31.22,5.13c-7.7,49.2-32.08,68-70.57,68C574.84,1653.62,547.46,1621.11,547.46,1585.18Z" transform="translate(0 -276.65)" style="fill:#f24d4b"/><path d="M924.73,1539.41c0,65.44-45.34,114.21-117.21,114.21s-117.2-48.77-117.2-114.21c0-64.17,45.35-112.08,117.2-112.08S924.73,1475.24,924.73,1539.41Zm-75.71,0c0-59.89-11.12-81.71-41.5-81.71-30.79,0-41.49,21.82-41.49,81.71,0,61.59,10.7,83.83,41.49,83.83C837.9,1623.24,849,1601,849,1539.41Z" transform="translate(0 -276.65)" style="fill:#f24d4b"/><path d="M1180.08,1541.11c0,69.3-35.5,112.51-91.54,112.51-31.65,0-56-11.13-69.72-39.79v59c0,8.55,4.7,13.26,13.25,13.26h42.36v40.21H920v-40.21h15.83c8.55,0,13.26-4.71,13.26-13.26V1485.08c0-8.56-4.71-13.26-13.26-13.26H920v-40.21h98.82V1468c13.69-29.09,38.07-40.64,69.72-40.64C1144.58,1427.33,1180.08,1471.39,1180.08,1541.11Zm-74.43,0c0-44.48-17.11-70.15-43.63-70.15-24.81,0-43.2,22.67-43.2,70.15,0,47.06,18.39,70.16,43.2,70.16C1088.54,1611.27,1105.65,1585.6,1105.65,1541.11Z" transform="translate(0 -276.65)" style="fill:#f24d4b"/><path d="M1447,1609.13v40.21h-99.24v-37.21c-15,26.52-38.93,41.49-69.73,41.49-40.63,0-69.29-26.52-69.29-68.44V1483.37c0-9-5.56-11.55-12.4-11.55h-15.83v-40.21h98v137.73c0,26.1,10.69,40.22,29.94,40.22,20.53,0,39.35-12.84,39.35-65.88V1483.8c0-8.56-5.56-12-12.4-12h-15.4v-40.21h97.53v164.26c0,8.55,4.7,13.26,13.26,13.26Z" transform="translate(0 -276.65)" style="fill:#f24d4b"/><path d="M1578.7,1609.13v40.21H1446.52v-40.21h18c8.56,0,13.26-4.71,13.26-13.26V1411.93c0-8.55-4.7-13.26-13.26-13.26h-18v-40.21h101v237.41c0,8.55,4.7,13.26,13.26,13.26Z" transform="translate(0 -276.65)" style="fill:#f24d4b"/><path d="M1771.17,1582.61c0,42.78-35.08,71-96.68,71-52.61,0-93.68-20.54-93.68-55.18,0-19.25,12.41-32.94,34.23-32.94,20.1,0,33.36,12.4,33.36,29.09,0,10.69-5.13,18.82-13.69,24a57.19,57.19,0,0,0,30,8.56c22.24,0,34.21-12.84,34.21-28.66,0-48.34-114.63-23.53-114.63-103.52,0-44.92,36.78-67.59,94.11-67.59,48.76,0,86.4,16.68,86.4,50.05,0,19.68-12.83,31.22-33.37,31.22-21,0-34.21-11.54-34.21-30.37,0-9,3.42-15,9-19.67a45.43,45.43,0,0,0-20.54-4.71c-21.81,0-34.64,12-34.64,27C1651,1527.43,1771.17,1502.62,1771.17,1582.61Z" transform="translate(0 -276.65)" style="fill:#f24d4b"/><path d="M1905.47,1616.83c31.23,0,52.61-20.11,58.18-48.34l32.08,6c-12.84,50-42.78,79.14-101.39,79.14-73.14,0-118.91-44.92-118.91-111.22s44.91-115.07,115.5-115.07c68,0,109.07,46.2,109.07,105.66a97.34,97.34,0,0,1-2.14,20.1h-145C1856.7,1593.3,1872.1,1616.83,1905.47,1616.83ZM1852,1524.44h77.85c-.85-51.77-14.12-66.74-37.21-66.74C1870.39,1457.7,1853.71,1474.81,1852,1524.44Z" transform="translate(0 -276.65)" style="fill:#f24d4b"/><path d="M1221.08,857.14a98.37,98.37,0,0,0-98.26,98.26,24.57,24.57,0,1,0,49.13,0,49.14,49.14,0,0,1,98.28,0,73.78,73.78,0,0,1-73.7,73.7H1179.4a81,81,0,0,1-36.81-8.83,98.63,98.63,0,0,1,4.75,30.33v.08a147.6,147.6,0,0,1-1.82,23.08,130.41,130.41,0,0,0,33.88,4.47h17.13A123,123,0,0,0,1319.37,955.4,98.38,98.38,0,0,0,1221.08,857.14Z" transform="translate(0 -276.65)" style="fill:#f24d4b"/><path d="M778.9,857.14a98.37,98.37,0,0,0-98.27,98.26,123,123,0,0,0,122.84,122.83H820.6a130.33,130.33,0,0,0,33.87-4.47,147.73,147.73,0,0,1-1.82-23.09v-6.2a133.76,133.76,0,0,1,2-22.85,81,81,0,0,1-34,7.48H803.47a73.78,73.78,0,0,1-73.7-73.7,49.14,49.14,0,0,1,98.28,0,24.57,24.57,0,1,0,49.13,0A98.38,98.38,0,0,0,778.9,857.14Z" transform="translate(0 -276.65)" style="fill:#f24d4b"/><path d="M1049.1,976.91a73.76,73.76,0,0,0-73.66,72.86c-.16,13.69,10.9,25.41,24.59,25.39a24.58,24.58,0,0,0,24.54-24.58,24.57,24.57,0,0,1,21.36-24.32h.06a24.57,24.57,0,0,1,24.11,11.58,24,24,0,0,1,3.54,12.76v.09a73.74,73.74,0,0,1-74.38,73.63c-40.54-.4-72.91-34-72.91-74.58v-5.26a61.4,61.4,0,0,1,24.57-49.13l34.39-25.8a98.74,98.74,0,0,0,39.31-78.61V746.59a12.28,12.28,0,0,1,12.28-12.28h0a12.28,12.28,0,0,1,12.28,12.28V890.93q0,1.85-.06,3.69v53.29c0,1.48,0,3,.08,4.44a97.51,97.51,0,0,1,51.27,14.46,81.35,81.35,0,0,1-2.22-18.89V936.73h0V843.92a61.41,61.41,0,0,1,121.58-11.33l1.24,0a122.22,122.22,0,0,1,49.1,10.24A110.49,110.49,0,0,0,1098.29,753h0a202.64,202.64,0,0,1,3.46-37.27l44-234.51A177.3,177.3,0,0,0,1041,285.4l-1.07-.46a103.55,103.55,0,0,0-81.55.15h0a177.33,177.33,0,0,0-104.1,195.64l43.94,233.45a202.44,202.44,0,0,1,3.49,37.41V753a110.49,110.49,0,0,0-171.92,89.85,122.14,122.14,0,0,1,49.11-10.25h1.23a61.42,61.42,0,0,1,121.6,12.12h0l0,95.59c1.61-1.34,3.25-2.65,4.94-3.91l34.39-25.8a24.66,24.66,0,0,0,9.79-18.34l0-145.65a12.27,12.27,0,0,1,12.28-12.28h.07a12.27,12.27,0,0,1,12.28,12.28V890.93a49.37,49.37,0,0,1-19.65,39.31L921.44,956a110.54,110.54,0,0,0-44.22,88.44v5c0,67.86,54.55,123.77,122.41,124a122.91,122.91,0,0,0,123.14-122.76v-.09a73.66,73.66,0,0,0-73.67-73.68ZM950.86,611.47a24.57,24.57,0,1,1,24.57-24.56A24.56,24.56,0,0,1,950.86,611.47Zm98.27-49.13a24.57,24.57,0,1,1-24.57,24.57A24.56,24.56,0,0,1,1049.13,562.34Z" transform="translate(0 -276.65)" style="fill:#f24d4b"/></g></svg>