<svg xmlns="http://www.w3.org/2000/svg" viewBox="0 0 290.26 29.95"><title>Full Logo_Red</title><path fill="#e4211f" d="M29.06,147.6q0,6.85-5.43,8.85l7.22,10.2H23l-6.32-9.1H12.29v9.1H5.93V138.13H16.74q6.65,0,9.49,2.25T29.06,147.6ZM21.39,151a4.29,4.29,0,0,0,1.18-3.36,3.59,3.59,0,0,0-1.22-3.16,7.83,7.83,0,0,0-4.28-.86H12.29V152h4.65C19.12,152,20.6,151.69,21.39,151Z" transform="translate(-5.93 -137.52)"/><path fill="#e4211f" d="M52.35,163.47a12.3,12.3,0,0,1-8.71,3.5,11.54,11.54,0,0,1-8.26-3.08,10.82,10.82,0,0,1-3.26-8.26,10.68,10.68,0,0,1,3.32-8.24,11.23,11.23,0,0,1,7.86-3.06A11.35,11.35,0,0,1,51,147.07a9.39,9.39,0,0,1,3.17,7.5v3.27h-16A4.35,4.35,0,0,0,40,160.77a6,6,0,0,0,3.59,1.15,7,7,0,0,0,5.3-2.17Zm-5.87-13a4.68,4.68,0,0,0-3.08-1.06,5.56,5.56,0,0,0-3.33,1.1,4.24,4.24,0,0,0-1.75,3H48A4.39,4.39,0,0,0,46.48,150.45Z" transform="translate(-5.93 -137.52)"/><path fill="#e4211f" d="M75.07,159.82a6.37,6.37,0,0,1-2.39,5.2A9.25,9.25,0,0,1,66.63,167a16.36,16.36,0,0,1-5.1-.87,15.11,15.11,0,0,1-4.77-2.59l2.69-3.84a11.7,11.7,0,0,0,7.3,2.65,3.27,3.27,0,0,0,1.88-.47,1.43,1.43,0,0,0,.69-1.24,1.8,1.8,0,0,0-1-1.43A11,11,0,0,0,65.59,158c-1.21-.38-2.14-.71-2.78-1a16.25,16.25,0,0,1-2.18-1.18,5.08,5.08,0,0,1-2.49-4.59,6,6,0,0,1,2.45-5,9.94,9.94,0,0,1,6.32-1.92A13.71,13.71,0,0,1,74.66,147L72.38,151a10.06,10.06,0,0,0-5.69-2c-1.89,0-2.84.51-2.84,1.55a1.48,1.48,0,0,0,.9,1.34,18.12,18.12,0,0,0,3,1.15c1.39.43,2.37.76,3,1a16.6,16.6,0,0,1,2.1,1.09A5,5,0,0,1,75.07,159.82Z" transform="translate(-5.93 -137.52)"/><path fill="#e4211f" d="M86.9,149.11v9.83a2.86,2.86,0,0,0,.65,2,2.05,2.05,0,0,0,1.55.71,3.55,3.55,0,0,0,2.9-1.55l2.28,4.28a8.83,8.83,0,0,1-6,2.61,7.3,7.3,0,0,1-7.53-7.75V149.11H78.17V144.7h2.57v-6.57H86.9v6.57h5.3v4.41Z" transform="translate(-5.93 -137.52)"/><path fill="#e4211f" d="M116.19,166.65h-5.75V164a7.22,7.22,0,0,1-5.86,3,8.69,8.69,0,0,1-5.85-2,6.71,6.71,0,0,1-2.37-5.38,5.71,5.71,0,0,1,2.45-5,11.74,11.74,0,0,1,6.69-1.67h4.57v-.12q0-3.51-3.71-3.51a10.13,10.13,0,0,0-3.37.63,11.14,11.14,0,0,0-3,1.57l-2.73-4a16.38,16.38,0,0,1,9.87-3.14,10.23,10.23,0,0,1,6.53,2c1.68,1.34,2.53,3.44,2.53,6.33ZM110,158.29v-1.07h-3.84c-2.44,0-3.67.77-3.67,2.29a2.08,2.08,0,0,0,.88,1.81,4.17,4.17,0,0,0,2.51.64,4.48,4.48,0,0,0,2.87-1A3.26,3.26,0,0,0,110,158.29Z" transform="translate(-5.93 -137.52)"/><path fill="#e4211f" d="M135.93,156.53V144.7h6.16v22h-6.16v-2.9A6.93,6.93,0,0,1,130,167a8.58,8.58,0,0,1-6.06-2.26q-2.45-2.27-2.45-6.71V144.7h6.16v12c0,3.38,1.24,5.06,3.71,5.06a4.37,4.37,0,0,0,3.18-1.32A5.18,5.18,0,0,0,135.93,156.53Z" transform="translate(-5.93 -137.52)"/><path fill="#e4211f" d="M159.43,150.09a4.62,4.62,0,0,0-4.08,1.93,8.81,8.81,0,0,0-1.35,5.12v9.51h-6.12v-22H154v2.9a10.4,10.4,0,0,1,3-2.29,8.11,8.11,0,0,1,3.61-1l0,5.76Z" transform="translate(-5.93 -137.52)"/><path fill="#e4211f" d="M183.08,166.65h-5.75V164a7.19,7.19,0,0,1-5.85,3,8.67,8.67,0,0,1-5.85-2,6.71,6.71,0,0,1-2.37-5.38,5.71,5.71,0,0,1,2.45-5,11.74,11.74,0,0,1,6.69-1.67H177v-.12q0-3.51-3.72-3.51a10,10,0,0,0-3.36.63,11.14,11.14,0,0,0-3,1.57l-2.73-4a16.38,16.38,0,0,1,9.87-3.14,10.25,10.25,0,0,1,6.53,2c1.68,1.34,2.52,3.44,2.52,6.33Zm-6.15-8.36v-1.07h-3.84c-2.45,0-3.67.77-3.67,2.29a2.08,2.08,0,0,0,.88,1.81,4.17,4.17,0,0,0,2.51.64,4.5,4.5,0,0,0,2.87-1A3.26,3.26,0,0,0,176.93,158.29Z" transform="translate(-5.93 -137.52)"/><path fill="#e4211f" d="M194.79,154.41v12.24h-6.12v-22h6.12v2.45a8.56,8.56,0,0,1,6.24-2.82,7.75,7.75,0,0,1,5.82,2.45,9.06,9.06,0,0,1,2.34,6.53v13.34h-6.12v-12.4c0-3.38-1.23-5.06-3.71-5.06a4.46,4.46,0,0,0-3.2,1.32A5.22,5.22,0,0,0,194.79,154.41Z" transform="translate(-5.93 -137.52)"/><path fill="#e4211f" d="M221.71,149.11v9.83a2.82,2.82,0,0,0,.66,2,2,2,0,0,0,1.55.71,3.54,3.54,0,0,0,2.89-1.55l2.29,4.28a8.85,8.85,0,0,1-6,2.61,7.32,7.32,0,0,1-7.53-7.75V149.11H213V144.7h2.56v-6.57h6.16v6.57H227v4.41Z" transform="translate(-5.93 -137.52)"/><path fill="#e4211f" d="M246.6,151.69l.17-.1a7.1,7.1,0,0,0,1.91-1.56,6.6,6.6,0,0,0,1.21-2.11,7.7,7.7,0,0,0,.41-2.52,7.37,7.37,0,0,0-.67-3.18,7.59,7.59,0,0,0-1.87-2.48,8.37,8.37,0,0,0-2.8-1.59,11.4,11.4,0,0,0-6.35-.19,10.4,10.4,0,0,0-2.54,1,8.92,8.92,0,0,0-2,1.63,7.52,7.52,0,0,0-1.41,2.13l-.23.5,2.49,2.05.39-.87a5.7,5.7,0,0,1,2.31-2.6,7.67,7.67,0,0,1,6-.64,5,5,0,0,1,1.72.94,4.39,4.39,0,0,1,1.12,1.47,4.77,4.77,0,0,1,.4,2,4.06,4.06,0,0,1-1.44,3.29,6.68,6.68,0,0,1-4.41,1.26h-1.74v3.17h1.66a7,7,0,0,1,4.81,1.51,5.1,5.1,0,0,1,1.63,4,5,5,0,0,1-1.57,3.94,6.45,6.45,0,0,1-4.43,1.43,7.74,7.74,0,0,1-4.07-1,5.5,5.5,0,0,1-2.31-2.65l-.37-.89-2.64,2.14.24.51a8.3,8.3,0,0,0,3.56,3.79,11.15,11.15,0,0,0,5.55,1.35,11.64,11.64,0,0,0,3.82-.61,9,9,0,0,0,3-1.73,7.94,7.94,0,0,0,2-2.7,8.38,8.38,0,0,0,.72-3.51,8.11,8.11,0,0,0-1.78-5.29A7.26,7.26,0,0,0,246.6,151.69Z" transform="translate(-5.93 -137.52)"/><path fill="#e4211f" d="M271.6,150a10.37,10.37,0,0,0-3.25-2.2,10.25,10.25,0,0,0-7-.36,9.6,9.6,0,0,0-2.57,1.26,9.88,9.88,0,0,0-1.89,1.71,20,20,0,0,1,.44-2.52,14.06,14.06,0,0,1,1.58-4,6.89,6.89,0,0,1,2.33-2.35,5.87,5.87,0,0,1,3-.79,6.56,6.56,0,0,1,3.8,1.17,6.28,6.28,0,0,1,2.4,3.08l.34.92,2.6-2-.22-.51a9.4,9.4,0,0,0-3.51-4.29,9.55,9.55,0,0,0-5.41-1.58,9.16,9.16,0,0,0-4.46,1.11,9.62,9.62,0,0,0-3.47,3.4,18.13,18.13,0,0,0-2.17,5.56,34.87,34.87,0,0,0-.77,7.8,15,15,0,0,0,.79,5,11.17,11.17,0,0,0,2.21,3.81,9.74,9.74,0,0,0,3.4,2.42,10.82,10.82,0,0,0,11.73-2.15,10,10,0,0,0,3.05-7.29,10.07,10.07,0,0,0-.8-4A10.37,10.37,0,0,0,271.6,150Zm-10.23.7a7,7,0,0,1,5.52,0,7.39,7.39,0,0,1,2.28,1.54,7.6,7.6,0,0,1,1.54,2.26,7,7,0,0,1,0,5.47,7.6,7.6,0,0,1-1.54,2.26,7.16,7.16,0,0,1-7.8,1.52,6.91,6.91,0,0,1-2.27-1.52,7.2,7.2,0,0,1-1.54-2.26,6.66,6.66,0,0,1-.57-2.74,6.58,6.58,0,0,1,.57-2.73,7.32,7.32,0,0,1,3.81-3.8Z" transform="translate(-5.93 -137.52)"/><path fill="#e4211f" d="M295.42,153.7a9.07,9.07,0,0,0-2.11-3,9.48,9.48,0,0,0-3.12-2,10.49,10.49,0,0,0-7.62,0,10,10,0,0,0-1.45.76l1.69-8.47h12v-3.29H280.13l-.11.58c-.53,2.62-1,5-1.46,7.15L278,148.2c-.18.93-.35,1.77-.49,2.53s-.27,1.4-.39,2-.2.95-.23,1.15l-.12.82h3.1l.22-.31a6.88,6.88,0,0,1,2.64-2.3,7.69,7.69,0,0,1,6-.35,6.17,6.17,0,0,1,2.06,1.3,6.39,6.39,0,0,1,1.39,2,6.32,6.32,0,0,1,.51,2.58,6.62,6.62,0,0,1-.52,2.69,6.76,6.76,0,0,1-1.44,2.1,6.31,6.31,0,0,1-2.14,1.36,7.43,7.43,0,0,1-2.69.48,7.56,7.56,0,0,1-4-1.13,7.78,7.78,0,0,1-2.81-3l-.34-.67L276.09,161l.29.6a10.26,10.26,0,0,0,3.82,4.29,10.54,10.54,0,0,0,5.75,1.63,10.88,10.88,0,0,0,3.91-.7,9.69,9.69,0,0,0,3.27-2,10.11,10.11,0,0,0,2.23-3.12,10.25,10.25,0,0,0,.06-7.94Z" transform="translate(-5.93 -137.52)"/></svg>