<?xml version="1.0" encoding="UTF-8"?>
<svg width="244px" height="40px" viewBox="0 0 244 40" version="1.1" xmlns="http://www.w3.org/2000/svg" xmlns:xlink="http://www.w3.org/1999/xlink">
    <!-- Generator: Sketch 57.1 (83088) - https://sketch.com -->
    <title>Logo / Horizontal</title>
    <desc>Created with Sketch.</desc>
    <defs>
        <path d="M234.945112,13.6122314 C239.982954,13.6122314 244,17.5628648 244,22.48975 C244,27.4032371 239.982954,31.4056524 234.945112,31.4056524 C233.183339,31.4056524 231.573104,30.9432364 230.193994,29.841694 L230.193994,40 L225.771028,40 L225.771028,13.9319756 L230.193994,13.9319756 L230.193994,15.1961059 C231.573104,14.0746474 233.183339,13.6122314 234.945112,13.6122314 Z M12.7235602,10.5178555 L12.884782,10.6723953 L25.7815564,23.5132211 L25.9663593,23.6904209 C28.1621402,25.6986853 31.5767789,25.6396187 33.7026302,23.5132211 C34.3580621,22.8685907 34.8201023,22.0954905 35.0768295,21.2746981 L35.1547847,20.9994451 L45.4648634,31.2645738 C44.9117655,32.0065397 44.2968893,32.7340212 43.6187812,33.3829245 C36.0566809,40.9342697 23.8181663,41.0227835 16.1220495,33.6463682 L15.852323,33.3829245 L0,17.5785804 L6.9417054,10.6723953 C8.53621969,9.0754848 11.0806086,9.02397156 12.7235602,10.5178555 Z M213.659929,13.6122314 C215.390086,13.6122314 217.006498,14.0746474 218.391786,15.1961059 L218.391786,13.9319756 L222.821294,13.9319756 L222.821294,30.9432364 L218.391786,30.9432364 L218.391786,29.841694 C217.034116,30.9432364 215.41189,31.4056524 213.659929,31.4056524 C208.622813,31.4056524 204.599953,27.4032371 204.599953,22.48975 C204.599953,17.5628648 208.622813,13.6122314 213.659929,13.6122314 Z M168.503812,13.6119779 C170.025012,13.6119779 172.782507,13.9668469 174.729252,15.7650912 L172.388579,18.9136482 C170.879734,17.8823555 169.477366,17.6339472 168.540879,17.6339472 C167.067283,17.6339472 166.780923,18.2727114 166.780923,18.7028995 C166.780923,21.1036969 175.335043,19.9467515 175.335043,26.0150113 C175.335043,29.1262709 173.067051,31.405761 168.764371,31.405761 C165.590781,31.405761 163.551369,30.1966717 162.00582,29.0216208 L164.3494,25.642761 C165.925838,27.0086445 167.828611,27.4029836 169.049278,27.4029836 C170.632984,27.4029836 171.132298,26.7602362 171.132298,26.1569589 C171.132298,23.6131276 162.469521,25.180345 162.469521,19.0574064 C162.469521,15.9432499 164.706987,13.6119779 168.503812,13.6119779 Z M155.227464,8.16955496 L155.227464,13.9321929 L159.753273,13.9321929 L159.753273,18.1663593 L155.227464,18.1663593 L155.227464,24.9631869 C155.227464,26.1570676 155.547621,27.2571614 157.129873,27.2571614 C158.243701,27.2571614 159.276126,27.0797269 159.276126,27.0797269 L159.276126,30.9785784 C159.276126,30.9785784 157.984958,31.4058696 155.868142,31.4058696 C152.532111,31.4058696 150.795776,29.2335645 150.795776,25.8898295 L150.795776,18.1663593 L148.09897,18.1663593 L148.09897,13.9321929 L150.795776,13.9321929 L150.795776,8.16955496 L155.227464,8.16955496 Z M138.799876,13.6119779 C143.821365,13.6119779 147.385975,17.704921 147.385975,22.4898586 C147.385975,22.9740013 147.352542,23.4693695 147.279862,23.897747 L134.271886,23.897747 C134.773018,25.9795244 136.45884,27.4370221 139.013919,27.4370221 C140.57146,27.4370221 142.219125,26.8666969 143.2163,25.5359382 L146.237261,27.9356492 C144.691349,30.1256979 141.954932,31.405761 139.046262,31.405761 C133.903397,31.405761 129.948129,27.5818666 129.948129,22.5963193 C129.948129,17.7758948 133.371376,13.6119779 138.799876,13.6119779 Z M81.0744457,8.16955496 L81.0744457,13.9321929 L85.6002545,13.9321929 L85.6002545,18.1663593 L81.0744457,18.1663593 L81.0744457,24.9631869 C81.0744457,26.1570676 81.3913323,27.2571614 82.9757651,27.2571614 C84.079417,27.2571614 85.123471,27.0797269 85.123471,27.0797269 L85.123471,30.9785784 L85.0990664,30.9863449 C84.9128281,31.0442103 83.6706188,31.4058696 81.7151235,31.4058696 C78.3776393,31.4058696 76.6405777,29.2335645 76.6405777,25.8898295 L76.6405777,18.1663593 L73.9452249,18.1663593 L73.9452249,13.9321929 L76.6405777,13.9321929 L76.6405777,8.16955496 L81.0744457,8.16955496 Z M104.766622,13.6120141 C107.996176,13.6120141 110.812905,15.2324618 112.427864,17.6694703 L108.647392,19.8403271 C107.782132,18.6315998 106.379764,17.8469048 104.766622,17.8469048 C102.188285,17.8469048 100.062746,19.9822747 100.062746,22.4898948 C100.062746,25.0355367 102.188285,27.1875637 104.766622,27.1875637 C106.451717,27.1875637 107.924586,26.3333433 108.758957,25.000774 L112.500181,27.2241369 C110.905209,29.7357403 108.034333,31.4057972 104.766622,31.4057972 C99.7273264,31.4057972 95.7011954,27.4030198 95.7011954,22.4898948 C95.7011954,17.5626475 99.7273264,13.6120141 104.766622,13.6120141 Z M93.655351,13.9322291 L93.655351,30.9434898 L89.221483,30.9434898 L89.221483,13.9322291 L93.655351,13.9322291 Z M118.713338,4.45009338 L118.713338,20.5343494 L124.889355,13.9319756 L130.565695,13.9319756 L123.09851,21.7090382 L131.293589,30.9432364 L125.459169,30.9432364 L118.713338,23.3649728 L118.713338,30.9432364 L114.291462,30.9432364 L114.291462,4.45009338 L118.713338,4.45009338 Z M180.867257,13.9319756 L184.315216,25.1081762 L188.341346,13.9319756 L192.223207,13.9319756 L196.169389,25.1081762 L199.664227,13.9319756 L204.649376,13.9319756 L198.511515,30.9432364 L194.110717,30.9432364 L190.275009,20.0885905 L186.583208,30.9432364 L181.985809,30.9432364 L175.904639,13.9319756 L180.867257,13.9319756 Z M15.8523593,5.72769418 C23.5295904,-1.90923139 35.9677513,-1.90923139 43.6188175,5.72769418 L43.6188175,5.72769418 L59.4831327,21.5316761 L52.5465149,28.4577774 C50.908662,30.0901747 48.23475,30.0901747 46.5958068,28.4577774 L46.5958068,28.4577774 L33.7026666,15.5999323 C31.5160766,13.4294377 27.9660023,13.4290755 25.7815927,15.5999323 C25.0551521,16.3328454 24.5772784,17.1903248 24.3290748,18.1100872 L24.3290748,18.1100872 L14.0208131,7.84604479 C14.5735476,7.10806213 15.1898774,6.39868626 15.8523593,5.72769418 Z M213.659929,17.84676 C211.074687,17.84676 208.954599,19.9821298 208.954599,22.48975 C208.954599,25.035754 211.074687,27.1877809 213.659929,27.1877809 C216.287325,27.1877809 218.391786,25.035754 218.391786,22.48975 C218.391786,19.9821298 216.287325,17.84676 213.659929,17.84676 Z M234.945112,17.84676 C232.390759,17.84676 230.306285,19.911156 230.193994,22.3123155 L230.193994,22.7052062 C230.306285,25.1440252 232.390759,27.1877809 234.945112,27.1877809 C237.532534,27.1877809 239.643173,25.035754 239.643173,22.48975 C239.643173,19.9821298 237.532534,17.84676 234.945112,17.84676 Z M138.760992,17.6339472 C136.707407,17.6339472 135.058288,18.8433987 134.415794,20.677492 L142.931393,20.677492 C142.681736,18.9498594 140.877808,17.6339472 138.760992,17.6339472 Z M91.4593126,5.5526134 C93.0350238,5.5526134 94.2251654,6.74504564 94.2251654,8.31117665 C94.2251654,9.89215423 93.0350238,11.1041405 91.4593126,11.1041405 C89.8621607,11.1041405 88.6516686,9.89215423 88.6516686,8.31117665 C88.6516686,6.74504564 89.8621607,5.5526134 91.4593126,5.5526134 Z" id="path-1"></path>
    </defs>
    <g id="3rd-iteration" stroke="none" stroke-width="1" fill="none" fill-rule="evenodd">
        <g id="Logo-/-Horizontal">
            <mask id="mask-2" fill="white">
                <use xlink:href="#path-1"></use>
            </mask>
            <use id="Mask" fill="#00B6F0" fill-rule="evenodd" xlink:href="#path-1"></use>
        </g>
    </g>
</svg>