<?xml version="1.0" encoding="UTF-8" standalone="no"?>
<svg xmlns:dc="http://purl.org/dc/elements/1.1/" xmlns:cc="http://creativecommons.org/ns#" xmlns:rdf="http://www.w3.org/1999/02/22-rdf-syntax-ns#" xmlns:svg="http://www.w3.org/2000/svg" xmlns="http://www.w3.org/2000/svg" id="svg3760" version="1.1" viewBox="0 0 264.5833272454602 92.4657652597997" height="349.4768981933594" width="1000">
 <defs id="defs3754" />
 <metadata id="metadata3757">
  <rdf:RDF>
   <cc:Work rdf:about="">
    <dc:format>image/svg+xml</dc:format>
    <dc:type rdf:resource="http://purl.org/dc/dcmitype/StillImage" />
    <dc:title></dc:title>
   </cc:Work>
  </rdf:RDF>
 </metadata>
 <g transform="translate(-2.679623058150513,-51.54648560789554)" id="layer1">
  <g transform="matrix(0.6571838053725235,0,0,0.657183805372523,2.679623058150515,51.54648560789556)" id="g3730">
   <path style="fill:#5a2149" class="a" d="M 442,247.8 A 4.160000000000001,4.160000000000001 0 0 1 437.8,243.6 4.200297608503463,4.200297608503463 0 0 1 446.2,243.5 4.18,4.18 0 0 1 442,247.8 Z M 442.1,239.8 A 3.8,3.8 0 1 0 445.9,243.6 3.86,3.86 0 0 0 442.1,239.8 Z M 443.1,246.2 442,243.9 H 441.1 V 246.2 H 440.5 V 241 H 442.1 A 1.32,1.32 0 0 1 443.7000000000001,242.5 1.26,1.26 0 0 1 442.7000000000001,243.9 L 443.8000000000001,246.3 H 443.1000000000001 Z M 441.1,243.4 H 442 A 0.8299999999999998,0.8299999999999998 0 0 0 443,242.5 C 443,241.8 442.7,241.6 441.9,241.6 H 441.1 Z" transform="translate(-43.6,-176.9)" id="path3685" />
   <path style="fill:#5a2149" class="a" d="M 64.29999999999998,297.8 48.1,248.3 H 43.6 V 240.7 H 69.2 V 248.3 H 62.2 L 72,277.6 86.2,240.7 H 94 L 107.4,277.6 117.2,248.3 H 110.2 V 240.7 H 129.6 V 248.3 H 125.1 L 108.5,297.8 H 101 L 87.09999999999999,259.4 72.2,297.8 Z" transform="translate(-43.6,-176.9)" id="path3687" />
   <path style="fill:#5a2149" class="a" d="M 168.5,290.7 A 31.07,31.07 0 0 1 160.2,296.6 20.49,20.49 0 0 1 151.5,298.6 17.63,17.63 0 0 1 139,293.9 15.4,15.4 0 0 1 134.1,282.1 C 134.1,275.6 136.5,270.9 141.2,267.9 145.9,264.9 153.5,263.4 163.7,263.4 H 166.3 V 256.7 C 166.3,250.2 163.2,247 156.9,247 A 15,15 0 0 0 147.4,250.4 L 146.7,255.3 H 138.4 V 244.1 A 49.33,49.33 0 0 1 159.4,239.4 Q 181.6,239.4 181.6,256.5 V 281.3 C 181.6,286.8 183.1,289.6 186,289.6 A 8.789999999999999,8.789999999999999 0 0 0 188,289.3 L 188.7,297.1 A 24.07,24.07 0 0 1 180.9,298.4 C 175.3,298.5 171.1,295.9 168.5,290.7 Z M 166.4,284.8 V 270.3 H 164.3 C 159.2,270.3 155.4,271.1 152.9,272.8 A 8.589999999999999,8.589999999999999 0 0 0 149.1,280.4 8.71,8.71 0 0 0 151.4,286.5000000000001 7.51,7.51 0 0 0 157,289 10,10 0 0 0 161.6,287.9 22.67,22.67 0 0 0 166.4,284.8 Z" transform="translate(-43.6,-176.9)" id="path3689" />
   <path style="fill:#5a2149" class="a" d="M 196.8,317.6 213.7,296.6 192.1,248.3 H 187.6 V 240.7 H 215 V 248.3 H 208.7 L 222.3,278.9 236,248.3 H 229.7 V 240.7 H 248.3 V 248.3 H 244 L 212.8,317.6 Z" transform="translate(-43.6,-176.9)" id="path3691" />
   <path style="fill:#5a2149" class="a" d="M 257.6,248.3 H 247.6 V 240.7 H 257.6 V 238.4 C 257.6,230.5 259.2000000000001,224.5 262.5,220.6 265.8,216.7 270.7,214.7 277.3,214.7 A 38.21,38.21 0 0 1 285.8,215.6 34,34 0 0 1 293.2,218.2 V 229.9 H 284.3 V 224.4 A 9.519999999999999,9.519999999999999 0 0 0 281.5,222.6 6.6,6.6 0 0 0 278.8,222 C 276.6,222 275,222.8 274.2,224.4 273.4,226 272.9,229 272.9,233.2 V 240.6 H 287.2 V 248.2 H 272.9 V 289.5 H 281.8 V 297.1 H 250 V 289.5 H 257.6 Z" transform="translate(-43.6,-176.9)" id="path3693" />
   <path style="fill:#5a2149" class="a" d="M 328.1,290.7 A 31.07,31.07 0 0 1 319.8,296.6 20.49,20.49 0 0 1 311.1,298.6 17.63,17.63 0 0 1 298.6,293.9 15.4,15.4 0 0 1 293.7000000000001,282.1 C 293.7000000000001,275.6 296.1,270.9 300.8000000000001,267.9 305.5000000000001,264.9 313.1000000000001,263.4 323.3000000000001,263.4 H 325.9000000000001 V 256.7 C 325.9000000000001,250.2 322.8000000000001,247 316.5000000000001,247 A 15,15 0 0 0 307.0000000000001,250.4 L 306.3000000000001,255.3 H 298 V 244.1 A 49.33,49.33 0 0 1 319,239.4 Q 341.2,239.4 341.2,256.5 V 281.3 C 341.2,286.8 342.7,289.6 345.6,289.6 A 8.789999999999999,8.789999999999999 0 0 0 347.6,289.3 L 348.3,297.1 A 24.52,24.52 0 0 1 340.5,298.4 C 334.9,298.5 330.8,295.9 328.1,290.7 Z M 326,284.8 V 270.3 H 323.9 C 318.8,270.3 315,271.1 312.5,272.8 A 8.589999999999999,8.589999999999999 0 0 0 308.7,280.4 8.71,8.71 0 0 0 311,286.5000000000001 7.51,7.51 0 0 0 316.6,289.0000000000001 10,10 0 0 0 321.2000000000001,287.9 22.67,22.67 0 0 0 326,284.8 Z" transform="translate(-43.6,-176.9)" id="path3695" />
   <path style="fill:#5a2149" class="a" d="M 376.2,240.7 V 289.6 H 383.8 V 297.2 H 353.3 V 289.6 H 360.9 V 248.3 H 353.3 V 240.7 Z" transform="translate(-43.6,-176.9)" id="path3697" />
   <path style="fill:#5a2149" class="a" d="M 411,258.6 V 289.5 H 418.6 V 297.1 H 388.1 V 289.5 H 395.7000000000001 V 248.2 H 388.1 V 240.6 H 411 V 251.3 C 415.4,243.3 421.3,239.4 429,239.4 A 9.22,9.22 0 0 1 432.6,240.1 V 256.6 H 423.7000000000001 V 251.4 C 418.9,251.3 414.6,253.8 411,258.6 Z" transform="translate(-43.6,-176.9)" id="path3699" />
   <polygon style="fill:#a8d491" class="b" points="352.4,18.2 348.6,3.8 334.2,0 324.9,9.199999999999999 343.2,27.5 " id="polygon3701" />
   <polygon style="fill:#ffd400" class="c" points="297.4,36.7 301.2,51.2 315.7,55 324.9,45.8 306.7,27.5 " id="polygon3703" />
   <polygon style="fill:#adbb37" class="d" points="315.7,0 301.2,3.8 297.4,18.2 306.7,27.5 324.9,9.199999999999999 " id="polygon3705" />
   <polygon style="fill:#995ba2" class="e" points="352.4,36.7 343.2,27.5 324.9,45.8 334.2,55 348.6,51.2 " id="polygon3707" />
   <rect style="fill:#5a2149" class="a" x="355.6099853515625" y="191.5" width="25.79999923706055" height="25.79999923706055" transform="rotate(-45,133.168107371517,168.5799638511611)" id="rect3709" />
  </g>
 </g>
</svg>
