<svg xmlns="http://www.w3.org/2000/svg" fill-rule="evenodd" stroke-linejoin="round" stroke-miterlimit="1.414" clip-rule="evenodd" viewBox="0 0 1012 222"><path fill="#7f187f" fill-rule="nonzero" d="M355.174 53.866h-44.551c-4.025.008-7.333 3.32-7.337 7.344v9.954c.08 2.63 2.268 4.749 4.899 4.743h7.345c.22.001.426.109.553.289a.885.885 0 0 1 .124.779l-17.454 52.315a.919.919 0 0 1-.864.507.65.65 0 0 1-.67-.507l-26.053-70.767v-.039a4.943 4.943 0 0 0-4.237-3.06h-15.733a4.942 4.942 0 0 0-4.252 3.06v.039l-26.1 70.767a.671.671 0 0 1-.685.553.92.92 0 0 1-.865-.506l-17.446-52.355a.864.864 0 0 1 .14-.779.648.648 0 0 1 .545-.288h7.353c2.629.006 4.815-2.114 4.891-4.743V61.21c0-4.026-3.311-7.34-7.337-7.344h-44.551a4.854 4.854 0 0 0-3.964 2.048 4.608 4.608 0 0 0-.701 4.097c.631 1.815 1.371 4.011 2.134 6.231s1.48 4.369 2.157 6.316a4.823 4.823 0 0 0 4.51 3.326h7.5a.93.93 0 0 1 .881.6l34.557 101.874a4.8 4.8 0 0 0 4.51 3.334h10.717a4.838 4.838 0 0 0 4.494-3.115c9.541-27.549 27.743-80.067 28.46-81.858a.904.904 0 0 1 .88-.67.89.89 0 0 1 .864.607c.732 1.854 18.942 54.372 28.467 81.889a4.853 4.853 0 0 0 4.502 3.17h10.717a4.815 4.815 0 0 0 4.518-3.341l34.55-101.828c.335-.6.716-.6.888-.6h7.492a4.798 4.798 0 0 0 4.494-3.286 808.105 808.105 0 0 0 2.158-6.317c.724-2.15 1.519-4.463 2.142-6.231a4.568 4.568 0 0 0-.694-4.12 4.846 4.846 0 0 0-3.948-2.126zm521.507 107.303h-8.115a2.346 2.346 0 0 1-2.29-2.298V58.461a3.287 3.287 0 0 0-3.271-3.218l-.102.001h-23.568a3.498 3.498 0 0 0-2.601 1.223l-9.798 12.244a3.307 3.307 0 0 0-.713 2.052 3.323 3.323 0 0 0 3.158 3.306h3.061a2.48 2.48 0 0 1 2.337 2.337v82.154a3.619 3.619 0 0 1-.608 1.838c-2.609 3.372-8.271 10.413-11.021 13.934a3.318 3.318 0 0 0-.824 2.189 3.333 3.333 0 0 0 3.27 3.317h41.287a2.883 2.883 0 0 0 2.337-.919l9.642-12.088c2.103-2.453.576-5.662-2.181-5.662z"/><circle cx="850.356" cy="24.02" r="17.758" fill="#7f187f"/><g fill-rule="nonzero"><path fill="#7f187f" d="M1006.63 65.65c0-1.682-.919-3.365-3.217-3.365h-4.128V73.15h1.558v-3.98h1.378l2.757 3.98h1.831l-2.905-4.128c1.962-.155 2.726-1.838 2.726-3.372zm-5.818 1.994v-3.98h2.757a1.775 1.775 0 0 1 1.682 1.986 1.807 1.807 0 0 1-1.788 1.994h-.05z"/><path fill="#7f187f" d="M1002.65 58.305c-5.128 0-9.347 4.219-9.347 9.347 0 5.127 4.219 9.346 9.347 9.346 5.127 0 9.346-4.219 9.346-9.346 0-5.128-4.219-9.347-9.346-9.347zm0 17.299h-.055c-4.337 0-7.905-3.569-7.905-7.905v-.055c-.002-.058-.002-.116-.002-.173 0-4.273 3.516-7.789 7.788-7.789l.174.002c4.366 0 7.96 3.593 7.96 7.96 0 4.366-3.594 7.96-7.96 7.96zm-531.162 86.025c-6.885.303-10.257-2.913-10.257-10.718V94.584c0-24.643-20.663-40.259-43.928-40.259-36.123 0-49.13 17.135-50.626 36.28a3.35 3.35 0 0 0 3.329 3.52H387.8a3.331 3.331 0 0 0 3.217-3.061c.919-9.954 7.648-17.298 18.825-17.298 12.399 0 19.9 6.277 19.9 20.507v12.251h-6.434c-22.19 0-37.494 2.906-47.752 9.347-10.257 6.441-15.46 18.373-15.46 32.299 0 10.257 3.52 18.692 10.561 25.406s15.305 9.65 26.178 9.65a42.607 42.607 0 0 0 18.692-4.291 61.98 61.98 0 0 0 15.764-10.125 2.335 2.335 0 0 1 3.677.615c5.054 8.879 10.561 11.784 21.122 11.784 9.495 0 14.082-8.879 18.218-14.237 1.464-2.135-.218-5.499-2.82-5.343zm-41.637-9.035h-.148c0 .779-1.223 1.838-1.683 2.297a45.163 45.163 0 0 1-9.494 6.122 23.151 23.151 0 0 1-9.798 1.838c-4.891 0-9.79-1.838-13.007-5.358a18.93 18.93 0 0 1-4.899-13.163c0-7.352 2.757-12.244 8.264-15.92 5.506-3.676 14.541-5.35 25.406-5.35h5.351zm380.246 9.035c-6.885.303-10.258-2.913-10.258-10.718V94.584c0-24.643-20.663-40.259-43.927-40.259-36.124 0-49.131 17.135-50.626 36.28a3.349 3.349 0 0 0 3.328 3.52h17.794a3.33 3.33 0 0 0 3.217-3.061c.919-9.954 7.656-17.298 18.825-17.298 12.4 0 19.9 6.277 19.9 20.507v12.251h-6.426c-22.197 0-37.502 2.906-47.759 9.347-10.258 6.441-15.515 18.357-15.515 32.283 0 10.258 3.52 18.693 10.561 25.407 7.041 6.713 15.305 9.65 26.178 9.65a42.622 42.622 0 0 0 18.692-4.292 61.926 61.926 0 0 0 15.764-10.125 2.34 2.34 0 0 1 3.677.615c5.054 8.879 10.561 11.784 21.122 11.784 9.494 0 14.082-8.879 18.218-14.237 1.518-2.119-.164-5.483-2.765-5.327zm-41.63-9.035h-.156c0 .779-1.223 1.838-1.682 2.297a45.144 45.144 0 0 1-9.495 6.122 23.115 23.115 0 0 1-9.79 1.838c-4.899 0-9.798-1.838-13.015-5.358a18.94 18.94 0 0 1-4.899-13.163c0-7.352 2.758-12.244 8.264-15.92 5.507-3.676 14.541-5.358 25.414-5.358h5.359zm209.481-97.786c-1.643-.872-5.771-1.269-9.346-1.269-5.802 0-10.367.779-14.362 2.492l-.319.14a25.15 25.15 0 0 0-4.292 2.461 56.955 56.955 0 0 0-13.365 11.528c-3.829 4.513-1.721 1.292-2.017-.881V58.111a3.35 3.35 0 0 0-3.303-3.303h-23.716a3.117 3.117 0 0 0-2.438 1.169c-.592.739-7.438 9.307-9.883 12.461-1.449 1.854-.569 5.374 2.601 5.374h2.96a2.387 2.387 0 0 1 2.336 2.337v82.559a3.306 3.306 0 0 1-.545 1.838c-2.337 2.866-8.264 10.335-11.161 14.019a3.323 3.323 0 0 0-.697 2.034 3.333 3.333 0 0 0 3.236 3.317h51.132a3.318 3.318 0 0 0 3.302-3.302v-12.275a3.317 3.317 0 0 0-3.302-3.302h-8.116a2.347 2.347 0 0 1-2.336-2.337v-48.048c.927-22.859 14.564-29.83 21.115-31.871l.942-.28.257-.062a22.448 22.448 0 0 1 5.452-.725c7.789 0 10.686 1.161 14.923 2.251 1.76.452 3.302-1.48 3.302-3.302V57.97c-.046-1.441-1.207-2.554-2.36-3.162zm-278.309.436h-37.097a2.347 2.347 0 0 1-2.298-2.336V34.581c0-8.879 4.596-17.758 14.082-17.758 10.717 0 12.4 9.035 12.859 15.92a3.464 3.464 0 0 0 3.217 3.217h15.304a3.215 3.215 0 0 0 3.069-3.248C708.464 9.782 693.922 0 670.502 0c-14.237 0-23.568 4.439-30.609 13.015-7.041 8.575-10.561 18.046-10.561 35.189v4.595a2.348 2.348 0 0 1-2.29 2.29l-63.306.155-.101-.001a3.286 3.286 0 0 0-3.271 3.218v12.415a3.419 3.419 0 0 0 3.372 3.365h6.792a2.347 2.347 0 0 1 2.314 2.336c0 .302-.059.601-.172.88-.114.28-17.447 40.563-24.488 56.787a2.34 2.34 0 0 1-2.141 1.403 2.34 2.34 0 0 1-2.142-1.403c-7.197-16.356-24.799-56.787-24.799-56.787a2.326 2.326 0 0 1-.172-.88 2.347 2.347 0 0 1 2.314-2.336h4.743a3.419 3.419 0 0 0 3.372-3.365V58.461a3.285 3.285 0 0 0-3.27-3.218l-.102.001h-57.254a3.357 3.357 0 0 0-3.291 3.341c0 .543.133 1.078.386 1.558 1.682 3.061 5.507 10.258 6.581 12.4a3.375 3.375 0 0 0 2.758 1.682h11.02c.922-.004 1.764.538 2.142 1.379s40.711 91.445 42.245 94.654a17.579 17.579 0 0 1-.046 12.68c-1.862 7.462-14.409 20.842-21.31 18.459-4.782-1.651-5.397-10.258-11.06-11.363a5.55 5.55 0 0 0-3.115.366c-.989.389-10.242 12.282-12.275 14.369a3.533 3.533 0 0 0 0 4.432c5.078 5.211 13.583 12.252 25.819 12.711 15.079.608 30.002-1.41 43.733-27.587 0 0 43.85-107.14 49.068-118.721a2.47 2.47 0 0 1 2.142-1.223h23.14a2.347 2.347 0 0 1 2.336 2.29v82.348a2.918 2.918 0 0 1-.607 1.838c-2.757 3.521-8.271 10.414-11.021 13.934a3.282 3.282 0 0 0-.738 2.073 3.295 3.295 0 0 0 3.279 3.279l.061-.001h51.731a3.412 3.412 0 0 0 3.373-3.365v-12.243a3.412 3.412 0 0 0-3.373-3.365h-8.887a2.346 2.346 0 0 1-2.289-2.298V76.523a2.346 2.346 0 0 1 2.289-2.298h27.307a3.514 3.514 0 0 0 2.602-1.223c2.336-3.061 7.009-9.182 9.494-12.399.45-.582.694-1.298.694-2.033a3.342 3.342 0 0 0-3.28-3.326z"/><path fill="#82d170" d="M141.424 94.865l-8.926-33.686a3.258 3.258 0 0 0-2.336-2.336l-33.686-8.926a3.266 3.266 0 0 0-3.115.841L70.774 73.345l47.237 47.238 22.587-22.587a3.275 3.275 0 0 0 .826-3.131z"/><path fill="#f8cf1c" d="M.108 146.316l8.933 33.678a3.261 3.261 0 0 0 2.337 2.337l33.693 8.933a3.273 3.273 0 0 0 3.116-.849l22.587-22.587-47.23-47.245L.957 143.17a3.273 3.273 0 0 0-.849 3.146z"/><path fill="#c6d636" d="M45.04 49.917L11.355 58.85a3.261 3.261 0 0 0-2.337 2.337L.108 94.849a3.273 3.273 0 0 0 .849 3.116l22.587 22.587 47.23-47.23-22.587-22.587a3.275 3.275 0 0 0-3.147-.818z"/><path fill="#d57dea" d="M140.263 142.85l-22.252-22.259-47.237 47.222 22.26 22.267a4.062 4.062 0 0 0 3.894 1.052l32.798-8.692a4.07 4.07 0 0 0 2.881-2.882l8.7-32.798a4.06 4.06 0 0 0-1.044-3.91z"/><path fill="#7f187f" d="M70.766 73.361l-47.222 47.214 47.23 47.238 47.237-47.222z"/><path fill="#82d170" d="M141.424 94.865l-8.926-33.686a3.258 3.258 0 0 0-2.336-2.336l-33.686-8.926a3.266 3.266 0 0 0-3.115.841L70.774 73.345l47.237 47.238 22.587-22.587a3.275 3.275 0 0 0 .826-3.131z"/><path fill="#f8cf1c" d="M.108 146.316l8.933 33.678a3.261 3.261 0 0 0 2.337 2.337l33.693 8.933a3.273 3.273 0 0 0 3.116-.849l22.587-22.587-47.23-47.245L.957 143.17a3.273 3.273 0 0 0-.849 3.146z"/><path fill="#c6d636" d="M45.04 49.917L11.355 58.85a3.261 3.261 0 0 0-2.337 2.337L.108 94.849a3.273 3.273 0 0 0 .849 3.116l22.587 22.587 47.23-47.23-22.587-22.587a3.275 3.275 0 0 0-3.147-.818z"/><path fill="#d57dea" d="M140.263 142.85l-22.252-22.259-47.237 47.222 22.26 22.267a4.062 4.062 0 0 0 3.894 1.052l32.798-8.692a4.07 4.07 0 0 0 2.881-2.882l8.7-32.798a4.06 4.06 0 0 0-1.044-3.91z"/><path fill="#7f187f" d="M70.766 73.361l-47.222 47.214 47.23 47.238 47.237-47.222z"/></g></svg>