<?xml version="1.0" encoding="UTF-8" standalone="no"?>
<svg xmlns:rdf="http://www.w3.org/1999/02/22-rdf-syntax-ns#" 
  xmlns="http://www.w3.org/2000/svg" xml:space="preserve" height="238.51" viewBox="0 0 178.96326 238.51363" width="178.96" version="1.1" 
  xmlns:cc="http://creativecommons.org/ns#" 
  xmlns:xlink="http://www.w3.org/1999/xlink" 
  xmlns:dc="http://purl.org/dc/elements/1.1/">
  <g transform="matrix(1.25 0 0 -1.25 -367.5 703.5)">
    <g>
      <path d="m12.291 1.1328c-5.8275 0-10.562 4.7416-10.562 10.601l-0.0005 148.06c0 5.85 4.735 10.6 10.562 10.6h155.41c5.83 0 10.56-4.75 10.56-10.6v-148.06c0-5.8556-4.73-10.597-10.56-10.597l-155.41-0.0002zm-0.098 174.8c-6.0184 0-10.892 5.92-10.892 13.21l-0.0002 35.28c0 7.31 4.8738 13.23 10.892 13.23h155.17c6.02 0 10.88-5.92 10.88-13.23v-35.28c0-7.29-4.86-13.21-10.88-13.21h-155.17z" transform="matrix(.8 0 0 -.8 294 562.8)"/>
      <path d="m425.94 558.61h-120.22c-4.103 0-7.418-3.32-7.418-7.421v-113.16c0-4.097 3.315-7.421 7.418-7.421h120.22c4.107 0 7.42 3.324 7.42 7.421v113.16c0 4.101-3.313 7.421-7.42 7.421" fill="#ffcb05"/>
      <path d="m421.57 554.01h-111.62c-4.094 0-7.418-3.322-7.418-7.42v-104.33c0-4.098 3.324-7.422 7.418-7.422h111.62c4.102 0 7.416 3.324 7.416 7.422v104.33c0 4.098-3.314 7.42-7.416 7.42"/>
      <path d="m90.168 18.984l-15.281 48.891-52.225 0.277 42.231 29.159-15.567 48.889 40.561-29.16 41.953 29.44-15.84-49.169 40.56-29.159h-50.57l-15.822-49.168zm-75.352 161.35c-5.1183 0-9.2652 4.15-9.2652 9.27v34.07c0 5.12 4.1469 9.26 9.2652 9.26h150.52c5.11 0 9.26-4.14 9.26-9.26v-34.07c0-5.12-4.15-9.27-9.26-9.27h-150.52z" transform="matrix(.8 0 0 -.8 294 562.8)" fill="#ffcb05"/>
      <path d="m89.887 35.926l-10.283 38.054-37.221-0.277 29.445 21.111-11.394 36.386 28.896-22.22 32.23 23.06-13.34-35.837 30.56-22.223h-38.34l-10.553-38.054zm-74.321 148.93c-3.071 0-5.562 2.49-5.562 5.56v32.88c0 3.07 2.491 5.55 5.562 5.55h148.39c3.08 0 5.55-2.48 5.55-5.55v-32.88c0-3.07-2.47-5.56-5.55-5.56h-148.39z" transform="matrix(.8 0 0 -.8 294 562.8)"/>
      <path d="m89.996 49.379l-7.689 28.445-27.83-0.205 22.017 15.772-8.515 27.199 21.599-16.61 24.082 17.24-9.97-26.788 22.85-16.608h-28.667l-7.877-28.445zm-7.293 143.98l-3.724 27.83h6.261l0.338-5.07h3.471l0.506 5.07h6.175l-3.974-27.83h-9.053zm-49.41 0v22.59h-2.451v-22.51l-6.348-0.07v24.01l4.063 3.9h7.189l3.893-4.07v-23.85h-6.346zm104.28 0.04l5.11 16.03 0.13 11.8h6.26v-11.8l5.21-16.03h-6.09l-2.25 9.73-2.2-9.73h-6.17zm-40.062 0.04l0.084 27.92 6.088-0.08v-11.17h2.63l0.08 11.17 5.76 0.08v-11.25l-2.88-2.71 2.88-2.62v-7.45l-4.07-3.89h-10.572zm-40.778 0l-3.767 3.77v8.67l3.998 4h4.674v5.98h-2.539v-3.55h-6.26v4.99l3.978 3.98h6.936l4.062-4.07v-8.54l-4.146-4.14h-4.48v-5.84h2.281l0.084 3.63h6.008v-4.99l-4.231-3.89h-6.598zm71.32 0l-2.2 13.37-2.29-13.28h-7.27l-0.08 27.75h5.67v-17.69l2.7 17.69h2.45l2.71-17.69v17.69h5.76l-0.17-27.84h-7.28zm-57.023 22.51l0.082 5.24h6.094v-5.24h-6.176zm-27.836 0.08l-0.082 5.25h6.176v-5.25h-6.094z" transform="matrix(.8 0 0 -.8 294 562.8)" fill="#fff"/>
      <path d="m103.68 198.77v6.09l2.63-0.08v-6.01h-2.63zm-16.494 0.59l-1.102 11.43h2.541l-1.439-11.43z" transform="matrix(.8 0 0 -.8 294 562.8)"/>
    </g>
  </g>
</svg>
