<svg xmlns="http://www.w3.org/2000/svg" viewBox="0 0 291 46"><g fill="#EF3742"><path d="M34.68 30.646c-2.463 5.439-7.44 8.672-13.239 8.672-8.313 0-15.035-7.286-15.035-16.266S13.179 6.785 21.441 6.785c6.004 0 10.827 3.181 13.239 8.672l.103.257h6.26l-.205-.616C38.066 6.374 30.626.987 21.441.987 9.844.987.454 10.839.454 23s9.39 22.065 20.987 22.065c9.082 0 16.523-5.439 19.396-14.162l.205-.616h-6.209l-.153.359zm24.784 8.826c-5.439 0-9.852-4.823-9.852-10.776 0-6.055 4.413-10.93 9.852-10.93s10.006 5.029 10.006 10.93c-.051 5.85-4.618 10.776-10.006 10.776m10.16-22.578a13.35 13.35 0 0 0-10.16-4.875c-8.877 0-15.856 7.286-15.856 16.626 0 9.288 6.979 16.574 15.856 16.574a13.297 13.297 0 0 0 10.16-4.926v4.156h5.798v-31.66h-5.798v4.105zm25.451-4.875a11.691 11.691 0 0 0-8.467 3.489v-2.72H80.81v31.66h6.004V25.206c0-4.413 3.181-7.594 7.594-7.594 3.746 0 6.312 2.206 6.927 5.901v.103l5.952-.051v-.154c-.82-6.979-5.438-11.392-12.212-11.392"/><path d="M20.107 18.228h3.9v11.443h-3.9V18.228z"/><circle cx="29.292" cy="19.973" r="2.258"/><circle cx="14.77" cy="19.973" r="2.258"/></g><g fill="#00A0DD"><path d="M231.262 44.928c-7.532 0-12.999-5.467-12.999-12.999V13.131h5.267v18.797c0 4.686 3.108 7.835 7.732 7.835 4.594 0 7.68-3.149 7.68-7.835V13.131h5.319v18.797c-.001 7.534-5.468 13-12.999 13zm-61.269 0c-7.532 0-12.999-5.467-12.999-12.999V13.131h5.267v18.797c0 4.686 3.108 7.835 7.732 7.835 4.594 0 7.68-3.149 7.68-7.835V13.131h5.319v18.797c0 7.534-5.467 13-12.999 13zm92.98-20.543c-6.26-.975-7.389-1.796-7.389-3.489 0-2.155 2.874-3.848 6.517-3.848 3.797 0 6.312 1.693 6.927 4.567l.103.359h6.055l-.051-.513c-.667-6.158-5.644-10.006-12.982-10.006-8.621 0-12.52 4.977-12.52 9.596 0 6.106 4.721 8.005 12.367 9.082 7.389.975 7.954 2.463 7.954 4.31 0 2.258-2.463 4.567-7.235 4.567-4.362 0-7.543-2.104-8.159-5.439l-.051-.359h-6.004l.051.513c.872 6.619 6.414 10.93 14.162 10.93 7.8 0 13.034-4.208 13.034-10.468.049-7.185-5.492-8.673-12.779-9.802m-132.953-.718v5.285h13.188l.154-.257c.38-.817.656-1.679.821-2.566.168-.812.271-1.635.308-2.463H130.02z"/><path d="M146.851 23.667c-.308 8.826-6.671 15.497-14.727 15.497-8.415 0-15.291-7.286-15.291-16.164 0-8.929 6.876-16.215 15.291-16.215 5.696 0 10.571 3.233 13.085 8.672l.103.257h6.414l-.205-.616C148.494 6.375 140.899.782 132.125.782c-11.751 0-21.295 9.955-21.295 22.167s9.544 22.167 21.295 22.167a19.909 19.909 0 0 0 14.265-5.952 21.58 21.58 0 0 0 6.158-15.497h-5.697zM202.679 12.019a11.691 11.691 0 0 0-8.467 3.489v-2.72h-5.798v31.66h6.004V25.206c0-4.413 3.181-7.594 7.594-7.594 3.746 0 6.312 2.206 6.927 5.901v.103l5.952-.051v-.154c-.82-6.979-5.438-11.392-12.212-11.392M285.705 12.276a1.89 1.89 0 0 0-.192-.287 1.047 1.047 0 0 0-.242-.213 2.24 2.24 0 0 0 1.303-.737c.294-.373.447-.837.434-1.312a1.781 1.781 0 0 0-.676-1.513 3.47 3.47 0 0 0-2.095-.513h-2.353v7.312h1.279v-2.9h.648a.673.673 0 0 1 .316.057c.07.041.13.097.176.164l1.656 2.475a.422.422 0 0 0 .393.205h1.221l-1.869-2.736v-.002zm-1.598-1.099h-.943V8.685h1.074c.242-.005.483.02.718.073.17.038.33.113.467.221.119.099.208.23.257.377.055.172.081.352.078.533a1.22 1.22 0 0 1-.369.955 1.904 1.904 0 0 1-1.282.333z"/><circle cx="131.867" cy="17.663" r="2.36"/><circle cx="140.847" cy="17.663" r="2.36"/><path d="M284.457 17.445a6.088 6.088 0 1 1 6.089-6.089 6.094 6.094 0 0 1-6.089 6.089zm0-11.19a5.102 5.102 0 1 0 5.104 5.101 5.106 5.106 0 0 0-5.104-5.101z"/></g></svg>