<svg xmlns="http://www.w3.org/2000/svg" width="150mm" height="116mm" viewBox="0 0 566.93 438.425">
  <defs>
    <clipPath clipPathUnits="userSpaceOnUse" id="prefix__a">
      <path d="M0 792h612V0H0z" />
    </clipPath>
  </defs>
  <g clip-path="url(#prefix__a)" transform="matrix(1.33333 0 0 -1.33333 -123.093 745.813)">
    <path
      d="M177.04 437.188V328.994c0-10.564-1.966-20.395-5.9-29.5s-9.326-17.141-16.183-24.11c-6.856-6.968-14.887-12.418-24.108-16.351a72.868 72.868 0 00-12.85-4.133v31.228c.464.176.926.36 1.388.555 5.619 2.357 10.51 5.617 14.668 9.776 4.157 4.157 7.414 9.045 9.778 14.668 2.36 5.617 3.535 11.576 3.535 17.867v108.194zM264.03 325.81c6.295 0 12.194 1.178 17.702 3.54 5.508 2.358 10.34 5.62 14.497 9.777 4.157 4.16 7.419 9.047 9.78 14.664 2.359 5.622 3.54 11.578 3.54 17.872v45.52H264.03c-6.292 0-12.253-1.182-17.87-3.546-5.618-2.353-10.506-5.617-14.663-9.774-4.16-4.16-7.421-8.993-9.78-14.5-2.36-5.503-3.542-11.405-3.542-17.7 0-6.294 1.182-12.25 3.542-17.872 2.359-5.617 5.62-10.504 9.78-14.664 4.157-4.157 9.045-7.419 14.663-9.777 5.617-2.362 11.578-3.54 17.87-3.54m75.525 162.745V371.663c0-10.337-1.966-20.116-5.9-29.333-3.933-9.217-9.326-17.31-16.187-24.276-6.855-6.968-14.888-12.417-24.106-16.35-9.216-3.935-18.99-5.903-29.332-5.903-10.34 0-20.114 1.968-29.332 5.903-9.216 3.933-17.31 9.382-24.275 16.35-6.967 6.965-12.42 15.06-16.354 24.276-3.933 9.217-5.901 18.996-5.901 29.333 0 10.567 1.968 20.398 5.9 29.503 3.936 9.105 9.388 17.083 16.355 23.94 6.965 6.854 15.059 12.25 24.275 16.182 9.218 3.932 18.992 5.898 29.332 5.898h45.518v41.37zM353.244 488.554h30.008V382.16h-.334v-27.228c0-6.292 1.174-12.252 3.532-17.87 2.365-5.623 5.624-10.507 9.78-14.668 4.157-4.159 9.048-7.418 14.668-9.772.462-.196.925-.382 1.387-.558v-31.228a73.098 73.098 0 00-12.85 4.133c-9.22 3.933-17.253 9.384-24.107 16.351-6.855 6.97-12.25 15.005-16.184 24.11-3.933 9.106-5.9 18.936-5.9 29.502V463.124z"
      fill="#474747" />
    <path
      d="M491.837 325.81v-30.009h-14.838c-10.333 0-20.113 1.968-29.33 5.903-9.218 3.933-17.31 9.382-24.276 16.35-6.968 6.966-12.418 15.06-16.351 24.277-3.934 9.217-5.9 18.996-5.9 29.333v116.892h30.003V444.84h33.637v-30.011h-33.637v-43.166c0-6.29 1.188-12.25 3.546-17.872 2.356-5.612 5.618-10.504 9.775-14.664 4.159-4.157 9.047-7.419 14.664-9.777 5.623-2.362 11.577-3.54 17.869-3.54z"
      fill="#474747" />
    <path
      d="M213.916 517.507c-4.11 9.288-14.972 13.485-24.26 9.375-9.288-4.11-13.485-14.972-9.375-24.259 4.11-9.288 14.971-13.485 24.26-9.375 9.288 4.11 13.485 14.972 9.375 24.26"
      fill="#a4c400" />
    <path
      d="M240.982 474.176c-3.342 7.552-12.174 10.965-19.726 7.623-7.551-3.342-10.964-12.174-7.622-19.726 3.342-7.55 12.174-10.964 19.725-7.622 7.552 3.342 10.965 12.173 7.623 19.725"
      fill="#d80073" />
    <path
      d="M295.336 497.63c-4.41 9.965-16.063 14.468-26.028 10.059-9.965-4.41-14.468-16.064-10.058-26.028 4.409-9.965 16.063-14.468 26.027-10.06 9.965 4.41 14.469 16.065 10.059 26.029"
      fill="#00aba9" />
    <path
      d="M163.894 491.154c-10.717 0-19.405-8.688-19.405-19.405s8.688-19.406 19.405-19.406 19.405 8.689 19.405 19.406c0 10.717-8.688 19.405-19.405 19.405"
      fill="#1ba1e2" />
    <path
      d="M338.506 525.85c-3.434 7.76-12.51 11.266-20.27 7.832-7.758-3.434-11.265-12.509-7.832-20.269 3.435-7.759 12.509-11.266 20.269-7.833 7.76 3.435 11.267 12.51 7.833 20.27"
      fill="#f58a2e" />
  </g>
</svg>