<svg xmlns="http://www.w3.org/2000/svg" xmlns:xlink="http://www.w3.org/1999/xlink" width="58" height="64" version="1.1" viewBox="0 0 1163 1442"><g id="Final" fill="none" fill-rule="evenodd" stroke="none" stroke-width="1"><g id="light_lockup" transform="translate(-440.000000, -291.000000)"><g id="Group" transform="translate(440.000000, 320.000000)"><path id="PALMER" fill="#09091A" d="M0,1412.04553 L0,1250.53804 L65.835428,1250.53804 C75.4973309,1250.53804 84.1292504,1251.88955 91.7314453,1254.59262 C99.3336403,1257.29569 105.774812,1261.1062 111.055155,1266.02429 C116.335497,1270.94237 120.398678,1276.8177 123.24482,1283.65045 C126.090962,1290.48321 127.514012,1298.0667 127.514012,1306.40116 L127.514012,1306.85167 C127.514012,1316.23732 125.828821,1324.45903 122.45839,1331.51704 C119.087959,1338.57505 114.444323,1344.48792 108.527344,1349.25583 C102.610364,1354.02374 95.701084,1357.60901 87.7992952,1360.01174 C79.8975063,1362.41446 71.4153816,1363.61581 62.3526664,1363.61581 L35.3893512,1363.61581 L35.3893512,1412.04553 L0,1412.04553 Z M35.3893512,1331.96755 L63.4761379,1331.96755 C72.3890561,1331.96755 79.2983365,1329.62117 84.2041865,1324.92834 C89.1100364,1320.23552 91.5629246,1314.43527 91.5629246,1307.52743 L91.5629246,1307.07692 C91.5629246,1299.11789 88.9976904,1293.05485 83.867145,1288.88762 C78.7365997,1284.72039 71.7149732,1282.63681 62.802055,1282.63681 L35.3893512,1282.63681 L35.3893512,1331.96755 Z M178.220024,1412.04553 L247.313519,1249.41176 L279.894192,1249.41176 L348.987687,1412.04553 L311.913128,1412.04553 L297.195652,1375.77955 L229.113281,1375.77955 L214.395805,1412.04553 L178.220024,1412.04553 Z M241.696162,1344.46917 L284.500425,1344.46917 L263.154467,1292.0975 L241.696162,1344.46917 Z M412.051885,1412.04553 L412.051885,1250.53804 L447.441236,1250.53804 L447.441236,1379.72151 L527.769446,1379.72151 L527.769446,1412.04553 L412.051885,1412.04553 Z M592.743546,1412.04553 L592.743546,1250.53804 L630.941576,1250.53804 L673.29645,1318.90279 L715.651325,1250.53804 L753.849355,1250.53804 L753.849355,1412.04553 L718.572351,1412.04553 L718.572351,1306.62641 L673.29645,1375.5543 L672.397673,1375.5543 L627.458815,1307.30218 L627.458815,1412.04553 L592.743546,1412.04553 Z M830.732252,1412.04553 L830.732252,1250.53804 L952.179518,1250.53804 L952.179518,1282.1863 L865.896909,1282.1863 L865.896909,1314.96083 L941.84358,1314.96083 L941.84358,1346.49646 L865.896909,1346.49646 L865.896909,1380.39727 L953.415336,1380.39727 L953.415336,1412.04553 L830.732252,1412.04553 Z M1023.22036,1412.04553 L1023.22036,1250.53804 L1096.80774,1250.53804 C1117.18013,1250.53804 1132.83367,1256.01918 1143.76885,1266.98162 C1152.98136,1276.2171 1157.58755,1288.49335 1157.58755,1303.81073 L1157.58755,1304.37387 C1157.58755,1317.4387 1154.40441,1328.08187 1148.03804,1336.3037 C1141.67167,1344.52553 1133.35807,1350.55103 1123.09698,1354.38037 L1162.41848,1412.04553 L1120.96238,1412.04553 L1086.47181,1360.34962 L1086.02242,1360.34962 L1058.60971,1360.34962 L1058.60971,1412.04553 L1023.22036,1412.04553 Z M1058.60971,1329.03924 L1094.5608,1329.03924 C1103.32392,1329.03924 1110.04596,1326.95566 1114.72711,1322.78843 C1119.40827,1318.6212 1121.74881,1313.08374 1121.74881,1306.1759 L1121.74881,1305.7254 C1121.74881,1298.0667 1119.29592,1292.304 1114.39007,1288.43711 C1109.48422,1284.57022 1102.64984,1282.63681 1093.88672,1282.63681 L1058.60971,1282.63681 L1058.60971,1329.03924 Z"/><path id="P" stroke="#09091A" stroke-width="57.6" d="M575.351448,442.521827 C575.351448,442.521827 645.58302,442.457963 692.888064,403.326902 C716.909241,383.456417 735.018725,353.512304 735.018725,308.387605 C735.018725,273.700026 724.317699,247.992496 708.45629,228.940227 C663.049232,174.398574 601.885388,175.680679 575.351448,174.398574 C548.817508,173.116469 428.811691,174.398574 428.811691,174.398574 L428.811691,442.690857 L236.478261,442.521827 L236.478261,0 L594.2795,0 C646.789842,0 693.702448,7.34468717 735.018725,22.0342818 C776.335001,36.7238765 811.341371,57.431814 840.038883,84.1587154 C868.736396,110.885617 890.818902,142.814604 906.287065,179.946635 C921.755228,217.078666 929.489193,258.290522 929.489193,303.583439 C929.489193,357.037229 920.33055,401.71741 902.012989,440.073574 C883.695428,478.429737 858.458278,510.562744 826.300781,536.473557 C794.143285,562.384369 756.592848,581.868192 713.648343,594.92561 C670.703839,607.983027 624.605335,614.511638 575.351448,614.511638 L428.811691,614.511638 L428.192968,981.399379 L236.478261,851.796998 L236.478261,614.511638 L428.192968,614.511638 L428.192968,442.690857 L575.351448,442.521827 Z"/></g></g></g></svg>