<svg width="241" height="60" xmlns="http://www.w3.org/2000/svg" xmlns:xlink="http://www.w3.org/1999/xlink"><defs><path id="a" d="M0 .274h240.419V59.94H0z"/></defs><g fill="none" fill-rule="evenodd"><path fill="#1B2022" d="M131.051 20.479l-.047-.006.047.006M107.693 25.212c-.275-.346-.72-.518-1.34-.518h-1.51v4.615h1.432c.637 0 1.099-.179 1.391-.533.292-.352.438-.949.438-1.8 0-.831-.137-1.421-.411-1.764zm4.363 4.453c-.301.77-.72 1.395-1.26 1.872a5.01 5.01 0 0 1-1.922 1.046 8.553 8.553 0 0 1-2.438.334h-1.593v6.734h-4.348V21.087h6.257a8.15 8.15 0 0 1 2.294.305 4.722 4.722 0 0 1 1.816.982c.512.45.916 1.044 1.205 1.776.293.733.44 1.639.44 2.72 0 1.097-.151 2.029-.451 2.795zM124.492 27.598c-.092-.747-.223-1.342-.398-1.784-.178-.443-.399-.761-.662-.946a1.549 1.549 0 0 0-.904-.28c-.353 0-.659.088-.916.267-.254.179-.471.483-.649.919-.175.434-.302 1.026-.387 1.772-.078.745-.114 1.678-.114 2.797 0 1.119.043 2.052.13 2.795.089.748.223 1.341.398 1.786.177.446.395.762.649.947.258.186.561.279.916.279.336 0 .636-.09.902-.268.266-.175.481-.482.65-.918.167-.434.293-1.023.385-1.769.087-.747.132-1.68.132-2.799s-.045-2.05-.132-2.798zm4.24 7.015c-.297 1.199-.736 2.197-1.312 2.981a5.446 5.446 0 0 1-2.107 1.765c-.832.385-1.767.583-2.811.583-2.085 0-3.709-.772-4.866-2.322-1.157-1.548-1.736-3.954-1.736-7.224 0-3.268.587-5.689 1.761-7.251 1.176-1.566 2.807-2.349 4.894-2.349 2.088 0 3.714.78 4.879 2.337 1.167 1.555 1.75 3.957 1.75 7.21 0 1.644-.152 3.067-.452 4.27zM144.141 36.799a4.728 4.728 0 0 1-1.26 1.713 5.814 5.814 0 0 1-1.906 1.059 7.504 7.504 0 0 1-2.405.371 8.618 8.618 0 0 1-1.963-.213 6.003 6.003 0 0 1-1.602-.635 6.725 6.725 0 0 1-1.34-1.024 12.148 12.148 0 0 1-1.192-1.363l3.025-2.731c.615.741 1.182 1.304 1.694 1.684.512.381.997.569 1.457.569.461 0 .843-.118 1.143-.358.3-.238.449-.613.449-1.126 0-.266-.026-.504-.079-.718a1.595 1.595 0 0 0-.331-.622 3.166 3.166 0 0 0-.718-.609c-.308-.204-.727-.421-1.258-.651a18.401 18.401 0 0 1-2.344-1.207c-.647-.397-1.171-.823-1.565-1.286a4.296 4.296 0 0 1-.865-1.521c-.174-.559-.262-1.199-.262-1.925 0-.76.131-1.468.396-2.122a5.025 5.025 0 0 1 1.14-1.71c.494-.487 1.1-.87 1.817-1.152.716-.284 1.515-.426 2.398-.426.707 0 1.34.063 1.897.186a5.283 5.283 0 0 1 1.51.573 6.49 6.49 0 0 1 1.264.928c.385.36.776.779 1.163 1.257l-3.076 2.756a86.791 86.791 0 0 0-.819-.941 4.95 4.95 0 0 0-.665-.622 2.007 2.007 0 0 0-.648-.332 2.901 2.901 0 0 0-.757-.092c-.425 0-.752.132-.982.398a1.382 1.382 0 0 0-.344.926c0 .25.035.469.108.663.07.198.192.386.368.572.177.184.416.366.72.545.298.176.687.369 1.164.584.936.406 1.725.815 2.373 1.232.646.414 1.171.87 1.578 1.366.408.495.701 1.036.89 1.628.184.592.279 1.28.279 2.056 0 .866-.152 1.64-.452 2.32M155.883 24.96v14.691h-4.422V24.96h-3.768v-3.873h11.957v3.873h-3.767M174.473 39.651v-4.109c0-1.01.009-1.962.028-2.852.017-.894.046-1.738.082-2.534-.11.371-.228.782-.359 1.235-.137.449-.28.919-.438 1.405-.159.487-.325.966-.492 1.445-.167.476-.324.927-.464 1.352l-1.75 4.64-1.752-4.64-.461-1.339a60.475 60.475 0 0 1-1.285-4.098c.032.779.059 1.618.077 2.52.019.902.028 1.856.028 2.866v4.109h-4.029V21.087h4.029l1.641 4.563c.411 1.113.77 2.177 1.091 3.196.319 1.017.538 1.849.661 2.506.14-.657.372-1.487.69-2.493.319-1.008.681-2.089 1.085-3.237l1.618-4.535h4.006v18.564h-4.006M190.331 31.987c-.212-1.221-.41-2.338-.598-3.354a37.56 37.56 0 0 1-.41-2.8c-.089.85-.218 1.784-.382 2.8-.17 1.016-.372 2.145-.6 3.38l-.105.583h2.2l-.105-.609zm1.537 7.664l-.69-3.449h-3.66l-.661 3.449h-4.562l4.801-18.564h4.562l4.773 18.564h-4.563zM205.977 24.96v14.691h-4.431V24.96h-3.766v-3.873h11.96v3.873h-3.763M213.744 39.651V21.087h10.874v3.793h-6.473v3.156h4.217v3.791h-4.217v4.031h6.656v3.793h-11.057"/><mask id="b" fill="#fff"><use xlink:href="#a"/></mask><path d="M239.969 36.799a4.74 4.74 0 0 1-1.26 1.713 5.774 5.774 0 0 1-1.908 1.059 7.464 7.464 0 0 1-2.4.371 8.54 8.54 0 0 1-1.96-.213 5.997 5.997 0 0 1-1.609-.635 6.829 6.829 0 0 1-1.338-1.024 12.349 12.349 0 0 1-1.191-1.363l3.021-2.731c.617.741 1.186 1.304 1.699 1.684.51.381.997.569 1.456.569.463 0 .839-.118 1.143-.358.298-.238.451-.613.451-1.126a2.93 2.93 0 0 0-.081-.718 1.622 1.622 0 0 0-.331-.622 3.312 3.312 0 0 0-.716-.609 8.657 8.657 0 0 0-1.259-.651 18.371 18.371 0 0 1-2.346-1.207c-.648-.397-1.169-.823-1.567-1.286a4.329 4.329 0 0 1-.86-1.521c-.179-.559-.268-1.199-.268-1.925a5.6 5.6 0 0 1 .399-2.122 5.04 5.04 0 0 1 1.14-1.71 5.349 5.349 0 0 1 1.818-1.152c.715-.284 1.515-.426 2.399-.426.707 0 1.34.063 1.896.186.558.124 1.06.313 1.512.573.449.254.872.563 1.257.928.388.36.78.779 1.17 1.257l-3.079 2.756c-.318-.368-.589-.682-.821-.941a4.824 4.824 0 0 0-.662-.622 2.057 2.057 0 0 0-.65-.332 2.877 2.877 0 0 0-.756-.092c-.423 0-.751.132-.983.398a1.371 1.371 0 0 0-.343.926c0 .25.036.469.107.663.071.198.193.386.371.572.177.184.417.366.714.545.304.176.688.369 1.169.584.935.406 1.727.815 2.371 1.232.646.414 1.173.87 1.58 1.366.404.495.703 1.036.887 1.628.187.592.278 1.28.278 2.056 0 .866-.149 1.64-.45 2.32M55.579 12.896c.62-.031 2.02-.072 3.586.018l6.677-5.985-2.934-.294-7.363 6.257.005.006c.01-.002.02-.002.029-.002zM7.024 43.628l-2.168-3.859-.517 4.397-4.339.87 4.023 1.844-.515 4.398 3.003-3.256 4.022 1.85-2.168-3.861 2.998-3.253-4.339.87zm14.504 6.675l-2.166-3.859-.514 4.396-4.34.868 4.023 1.85-.514 4.398 2.999-3.258 4.022 1.85-2.168-3.862 3-3.252-4.342.869zm1.945-18.624l-2.17-3.859-.514 4.396-4.34.871 4.024 1.849-.515 4.396 2.999-3.257 4.023 1.85-2.168-3.859 3.001-3.258-4.34.871zm53.801 5.556a8.75 8.75 0 0 1-3.415 1.489 8.866 8.866 0 0 1-8.926-3.511c-2.216-3.087-2.143-7.125-.134-10.105l7.124 5.291a.667.667 0 0 0 .48.128.666.666 0 0 0 .464-.26.674.674 0 0 0-.131-.945l-6.923-5.455a8.728 8.728 0 0 1 4.562-2.485 8.87 8.87 0 0 1 8.925 3.512c2.844 3.96 1.936 9.494-2.026 12.341zm-23.582-12.75c-2.116-1.527-6.492-.79-9.34-.315.968-2.036 2.677-4.146 3.249-6.602.304 1.549 5.421 3.31 5.421 3.31s2.325-.516 4.334-1.304c.022.02.046.041.068.057l.766.57-4.498 4.284zm3.081 7.823l-2-4.61c.065-.732.024-1.39-.14-1.937l3.487-3.322-1.347 9.869zm-.834 6.088c-.365.01-.732.111-1.072.29-.19-.223-.484-.447-1.016-.789-.403-.26-2.231-1.354-2.162-1.584.265-.795.862-1.979 1.724-3.657.904.998 1.815 2.698 2.71 4.411l-.184 1.329zm-2.789 3.858a11.116 11.116 0 0 0-7.389-4.325l.295-3.175 2.513 1.775c-.276 1.01-.158 1.543.663 1.874l4.394 1.702.024.017a2.477 2.477 0 0 0 .081 1.756l-.581.376zM49.447 56.09a8.765 8.765 0 0 1-3.415 1.497 8.874 8.874 0 0 1-8.923-3.514c-2.845-3.961-1.935-9.497 2.023-12.342a8.809 8.809 0 0 1 3.415-1.491 8.738 8.738 0 0 1 1.433-.163l-.837 8.994a.789.789 0 0 0 .936.844.757.757 0 0 0 .27-.111l7.759-5.004c2.022 3.84.962 8.691-2.661 11.29zm-3.896-15.926a8.86 8.86 0 0 1 5.706 3.313l-6.399 4.132.693-7.445zm5.602-11.092c-.805 2.787-1.606 4.747-2.132 6.128l-2.472-1.748 4.604-4.38zm-9.655.81c.33-.004.676-.029 1.057-.101 2.975-.294 5.055-.6 6.439-.826l-3.753 3.573-3.743-2.646zm10.738-13.444c1.642.146 3.327.009 4.814-.22l.542 1.197a35.054 35.054 0 0 0-3.459.379c-.865.143-3.111-2.082-1.897-1.356zm28.886 7.147a11.116 11.116 0 0 0-11.19-4.404 10.989 10.989 0 0 0-4.286 1.867c-.592.427-1.129.904-1.611 1.418l-3.226-2.542c.939-.351 3.869-1.529 2.655-2.167-.324-.173-.986-.289-1.845-.354l2.289-1.991.5-.433 4.288-3.732-1.995-3.883-6.572 5.895s-.006-.009-.644.575l-.018-.002.005.014-.005.004-.004-.006a17.67 17.67 0 0 0-3.427.132l-.002-.003c-1.473.264-2.72.454-3.313.338-2.157-.419-2.667-2.714-3.645-4.048-.555-.756-1.672-.844-1.767-1.494.309-.056.601-.145.861-.269 1.184-.565 1.595-1.096 1.916-1.813.407-.91-.028-2.408-.636-3.65.489-.355 2.323-1.785 2.252-2.03-.024-.09-2.306.226-3.265.411a2.441 2.441 0 0 0-.386-.386c-.782-.575-1.422-1.159-3.267-.388-3.153 1.316-2.989 3.775-1.943 5.966.481 1.014 1.325 1.652 2.245 1.974-.068.129-.104.202-.139.267l.087-.219c-4.979 4.492-16.603 12.055-19.664 12.206 2.533.988 9.831 1.124 12.889-.702-.858 3.492-.911 6.937.564 8.645-1.133.84-2.302 1.745-2.866 2.295-.442.429-.309.65.072 1.137 0 0 2.96.057 3.837-.778.236-.224.44-.426.626-.615l4.085 2.886-.386 4.124c-.693.005-1.389.069-2.086.209-1.548.31-2.991.939-4.284 1.868-4.964 3.569-6.101 10.508-2.537 15.474a11.126 11.126 0 0 0 11.193 4.405c1.548-.312 2.99-.94 4.281-1.869 4.598-3.304 5.906-9.498 3.243-14.34l.812-.523a2.483 2.483 0 0 0 2.65-.15 2.489 2.489 0 0 0 .985-2.494c1.107-.319 2.269-.696 3.567-1.079 1.345-.398 1.543-.801 1.212-1.465-.453-.906-3.863-.088-4.303-.601l-.944-2.176 1.866-13.659 3.15 2.339c-2.576 3.746-2.684 8.856.114 12.755a11.12 11.12 0 0 0 11.191 4.403c1.55-.312 2.992-.94 4.282-1.868 4.968-3.568 6.104-10.511 2.539-15.474z" fill="#1B2022" mask="url(#b)"/></g></svg>