<?xml version="1.0" encoding="UTF-8"?>
<svg width="582px" height="708px" viewBox="0 0 582 708" version="1.1" xmlns="http://www.w3.org/2000/svg" xmlns:xlink="http://www.w3.org/1999/xlink">
    <!-- Generator: Sketch 40.1 (33804) - http://www.bohemiancoding.com/sketch -->
    <title>Group</title>
    <desc>Created with Sketch.</desc>
    <defs>
        <linearGradient x1="50%" y1="-2.48949813e-15%" x2="50%" y2="100%" id="linearGradient-1">
            <stop stop-color="#D8D8D8" offset="0%"></stop>
            <stop stop-color="#FFFFFF" offset="100%"></stop>
        </linearGradient>
        <linearGradient x1="3.061617e-15%" y1="50%" x2="100%" y2="50%" id="linearGradient-2">
            <stop stop-color="#FFFFFF" offset="0%"></stop>
            <stop stop-color="#FFFFFF" offset="100%"></stop>
        </linearGradient>
        <linearGradient x1="50%" y1="6.123234e-15%" x2="50%" y2="100%" id="linearGradient-3">
            <stop stop-color="#D8D8D8" offset="0%"></stop>
            <stop stop-color="#FFFFFF" offset="100%"></stop>
        </linearGradient>
    </defs>
    <g id="Final" stroke="none" stroke-width="1" fill="none" fill-rule="evenodd">
        <g id="escher_black_lockup" transform="translate(-220.000000, -159.000000)">
            <g id="Group" transform="translate(220.000000, 159.000000)">
                <path d="M0,707.022766 L0,626.269019 L32.917714,626.269019 C37.7486655,626.269019 42.0646252,626.944775 45.8657227,628.296309 C49.6668201,629.647843 52.8874061,631.553102 55.5275773,634.012143 C58.1677484,636.471184 60.199339,639.408849 61.62241,642.825226 C63.045481,646.241604 63.7570058,650.03335 63.7570058,654.20058 L63.7570058,654.425834 C63.7570058,659.11866 62.9144106,663.229514 61.229195,666.75852 C59.5439793,670.287525 57.2221615,673.243961 54.2636719,675.627916 C51.3051822,678.011872 47.850542,679.804505 43.8996476,681.005868 C39.9487532,682.207232 35.7076908,682.807904 31.1763332,682.807904 L17.6946756,682.807904 L17.6946756,707.022766 L0,707.022766 Z M17.6946756,666.983774 L31.738069,666.983774 C36.1945281,666.983774 39.6491683,665.810585 42.1020932,663.464172 C44.5550182,661.117759 45.7814623,658.217636 45.7814623,654.763716 L45.7814623,654.538462 C45.7814623,650.558945 44.4988452,647.527425 41.9335725,645.44381 C39.3682998,643.360195 35.8574866,642.318404 31.4010275,642.318404 L17.6946756,642.318404 L17.6946756,666.983774 Z M89.1100119,707.022766 L123.65676,625.705882 L139.947096,625.705882 L174.493843,707.022766 L155.956564,707.022766 L148.597826,688.889777 L114.556641,688.889777 L107.197903,707.022766 L89.1100119,707.022766 Z M120.848081,673.234587 L142.250212,673.234587 L131.577233,647.048749 L120.848081,673.234587 Z M206.025943,707.022766 L206.025943,626.269019 L223.720618,626.269019 L223.720618,690.860754 L263.884723,690.860754 L263.884723,707.022766 L206.025943,707.022766 Z M296.371773,707.022766 L296.371773,626.269019 L315.470788,626.269019 L336.648225,660.451393 L357.825662,626.269019 L376.924677,626.269019 L376.924677,707.022766 L359.286175,707.022766 L359.286175,654.313207 L336.648225,688.777149 L336.198837,688.777149 L313.729407,654.651089 L313.729407,707.022766 L296.371773,707.022766 Z M415.366126,707.022766 L415.366126,626.269019 L476.089759,626.269019 L476.089759,642.093149 L432.948454,642.093149 L432.948454,658.480416 L470.92179,658.480416 L470.92179,674.248232 L432.948454,674.248232 L432.948454,691.198635 L476.707668,691.198635 L476.707668,707.022766 L415.366126,707.022766 Z M511.610182,707.022766 L511.610182,626.269019 L548.403872,626.269019 C558.590065,626.269019 566.416837,629.009588 571.884426,634.490809 C576.490682,639.10855 578.793775,645.246674 578.793775,652.905366 L578.793775,653.186934 C578.793775,659.719348 577.202207,665.040933 574.019022,669.151849 C570.835837,673.262764 566.679034,676.275514 561.548488,678.190187 L581.209239,707.022766 L560.481191,707.022766 L543.235904,681.174809 L543.011209,681.174809 L529.304857,681.174809 L529.304857,707.022766 L511.610182,707.022766 Z M529.304857,665.51962 L547.280401,665.51962 C551.661961,665.51962 555.02298,664.477828 557.363557,662.394213 C559.704134,660.310598 560.874406,657.541872 560.874406,654.087952 L560.874406,653.862698 C560.874406,650.033352 559.647961,647.152 557.195037,645.218556 C554.742112,643.285111 551.32492,642.318404 546.943359,642.318404 L529.304857,642.318404 L529.304857,665.51962 Z" id="PALMER" fill="#FFFFFF"></path>
                <path d="M286.396042,223.784178 C286.396042,223.784178 319.634774,223.754005 342.022991,205.266004 C353.391574,195.877924 361.96231,181.730422 361.96231,160.410646 C361.96231,144.022028 356.897799,131.876157 349.391017,122.874654 C327.901067,97.1057101 298.953849,97.711458 286.396042,97.1057101 C273.838236,96.4999621 217.042681,97.1057101 217.042681,97.1057101 L217.042681,223.864039 L126.016393,223.784178 L126.016393,14.7087379 L295.354185,14.7087379 C320.205931,14.7087379 342.408417,18.178835 361.96231,25.1191332 C381.516202,32.0594315 398.083784,41.8431775 411.665552,54.4706647 C425.24732,67.0981518 435.698382,82.183435 443.019051,99.7269668 C450.33972,117.270499 454,136.741599 454,158.140852 C454,183.395821 449.665458,204.505578 440.996245,222.627468 C432.327031,240.749358 420.38296,255.931033 405.163674,268.172948 C389.944388,280.414863 372.172767,289.620259 351.848278,295.789413 C331.523788,301.958567 309.706594,305.043098 286.396042,305.043098 L217.042681,305.043098 L216.749855,478.384189 L126.016393,417.151785 L126.016393,305.043098 L216.749855,305.043098 L216.749855,223.864039 L286.396042,223.784178 Z" id="P" stroke="#FFFFFF" stroke-width="27.2159995"></path>
                <polygon id="Rectangle" fill="url(#linearGradient-1)" points="112.323034 291.373093 140.032787 318.254296 140.032787 419.613019 112.323034 423.842022"></polygon>
                <rect id="Rectangle-2" fill="url(#linearGradient-2)" x="112.70082" y="209.424411" width="181.512295" height="27.3162275"></rect>
                <polygon id="Rectangle-Copy" fill="url(#linearGradient-3)" points="203.106557 84.0581387 230.81631 109.38803 230.81631 504.830368 203.106557 453.357993"></polygon>
                <polygon id="Rectangle-2-Copy" fill="#FFFFFF" points="112.219006 291.373093 286.140001 291.373093 286.140001 318.68932 140.032787 318.68932"></polygon>
                <polygon id="Rectangle-Copy-2" fill="url(#linearGradient-1)" points="112.70082 0.366624046 140.410572 28.1151396 140.410572 208.762298 112.70082 237.068958"></polygon>
                <polygon id="Rectangle-3" fill="#6B6B76" points="203.106557 318.68932 231.139344 318.68932 203.106557 332.697642"></polygon>
                <polygon id="Rectangle-3-Copy-2" fill="#6B6B76" transform="translate(237.795009, 223.435014) scale(-1, 1) translate(-237.795009, -223.435014) " points="230.790009 209.420013 244.800009 209.420013 244.800009 237.450014"></polygon>
            </g>
        </g>
    </g>
</svg>