<?xml version="1.0" encoding="UTF-8"?>
<svg width="48px" height="48px" viewBox="0 0 48 48" version="1.1" xmlns="http://www.w3.org/2000/svg" xmlns:xlink="http://www.w3.org/1999/xlink">
    <!-- Generator: Sketch 53.2 (72643) - https://sketchapp.com -->
    <title>g14</title>
    <desc>Created with Sketch.</desc>
    <g id="Page-1" stroke="none" stroke-width="1" fill="none" fill-rule="evenodd">
        <g id="1f615" transform="translate(0.000000, 0.000000)" fill-rule="nonzero">
            <g id="g14" transform="translate(23.750000, 24.250000) scale(-1, 1) rotate(-180.000000) translate(-23.750000, -24.250000) translate(0.000000, 0.500000)">
                <g id="g20" fill="#FFCC4D">
                    <path d="M47.5,23.75 C47.5,10.6330147 36.8669853,0 23.75,0 C10.6344118,0 0,10.6330147 0,23.75 C0,36.8655882 10.6344118,47.5 23.75,47.5 C36.8669853,47.5 47.5,36.8655882 47.5,23.75" id="path22"></path>
                </g>
                <g id="g24" transform="translate(11.176471, 20.257353)" fill="#664500">
                    <path d="M6.98529412,5.58823529 C6.98529412,2.88632353 5.42198529,0.698529412 3.49264706,0.698529412 C1.56330882,0.698529412 0,2.88632353 0,5.58823529 C0,8.28875 1.56330882,10.4779412 3.49264706,10.4779412 C5.42198529,10.4779412 6.98529412,8.28875 6.98529412,5.58823529" id="path26"></path>
                </g>
                <g id="g28" transform="translate(29.338235, 20.257353)" fill="#664500">
                    <path d="M6.98529412,5.58823529 C6.98529412,2.88632353 5.42198529,0.698529412 3.49264706,0.698529412 C1.56330882,0.698529412 0,2.88632353 0,5.58823529 C0,8.28875 1.56330882,10.4779412 3.49264706,10.4779412 C5.42198529,10.4779412 6.98529412,8.28875 6.98529412,5.58823529" id="path30"></path>
                </g>
                <g id="g32" transform="translate(15.367647, 9.779412)" fill="#664500">
                    <path d="M0,0 C2.79411765,6.98529412 18.1617647,6.98529412 18.1617647,4.19117647 C18.1617647,2.79411765 6.98529412,5.58823529 0,0" id="path34"></path>
                </g>
            </g>
        </g>
    </g>
</svg>