<svg xmlns="http://www.w3.org/2000/svg" baseProfile="tiny" viewBox="0 0 202.49 40"><path fill="none" d="M117.127 16.46c0-1.62-1.073-2.588-2.872-2.588h-2.95v5.126h2.95c1.798 0 2.872-.948 2.872-2.537zM91.54 14.99l-2.393 6.428h4.788z"/><path fill="#FFD300" d="M19.783 20.217L14.52 25.48V14.52H5.48A5.48 5.48 0 0 0 0 19.998v.005a5.48 5.48 0 0 0 5.48 5.48h9.037l5.263-5.266z"/><path fill="#99BFBC" d="M19.783 20.217l5.698-5.698v10.96h9.04a5.48 5.48 0 1 0 0-10.96H25.49l-5.7 5.69z"/><path fill="#0F3C6C" d="M25.48 34.52V14.518l-5.697 5.697-5.264 5.264v9.032a5.48 5.48 0 1 0 10.96 0z"/><path fill="#EF4931" d="M19.783 20.217l5.698-5.698V5.48a5.48 5.48 0 0 0-10.96 0v20.002l5.27-5.263z"/><path fill="#0F3C6C" d="M151.796 10.608h-3.063a.268.268 0 0 0-.268.268v11.89c0 4.26 2.773 7.012 7.063 7.012 4.306 0 7.09-2.752 7.09-7.01V10.875a.268.268 0 0 0-.27-.268h-3.088a.268.268 0 0 0-.268.268v11.71c0 2.4-1.23 3.722-3.464 3.722-2.2 0-3.464-1.356-3.464-3.72V10.875a.268.268 0 0 0-.268-.268zm50.426 0H190.95a.268.268 0 0 0-.27.268v18.25c0 .147.12.267.27.267h11.272c.148 0 .268-.12.268-.268v-2.883a.268.268 0 0 0-.268-.268h-7.917V21.67h7.145c.148 0 .268-.12.268-.267v-2.805a.268.268 0 0 0-.268-.268h-7.145v-4.302h7.917c.148 0 .268-.12.268-.268v-2.883c0-.15-.12-.27-.268-.27zM134.19 26.462c-2.644 0-3.755-1.838-3.904-3.412a.267.267 0 0 0-.116-.196.272.272 0 0 0-.225-.037l-2.883.824a.27.27 0 0 0-.193.29c.31 2.91 2.692 5.85 7.312 5.85 4.417 0 6.73-2.92 6.73-5.8 0-2.804-1.93-4.87-5.157-5.51l-2.62-.54c-1.243-.27-1.927-1.01-1.927-2.08 0-1.323 1.262-2.358 2.872-2.358 2.142 0 3.123 1.39 3.313 2.58a.27.27 0 0 0 .345.214l2.78-.874c.13-.04.21-.176.18-.31-.23-1.145-1.392-4.875-6.643-4.875-3.567 0-6.47 2.626-6.47 5.853 0 2.752 1.812 4.765 4.846 5.383l2.573.54c1.398.3 2.233 1.126 2.233 2.21 0 1.39-1.168 2.254-3.05 2.254zm40.557-15.854h-3.09a.268.268 0 0 0-.267.268v18.25c0 .147.12.267.268.267h11.454c.148 0 .268-.12.268-.268V26.19a.268.268 0 0 0-.268-.268h-8.097V10.876a.268.268 0 0 0-.268-.268zm-106.18 3.058c2.616 0 4.453 1.38 5.04 3.785a.27.27 0 0 0 .345.19l2.91-.97a.268.268 0 0 0 .173-.32c-1.165-4.515-5.14-6.123-8.47-6.123-2.477 0-4.806.927-6.556 2.608-1.9 1.824-2.908 4.308-2.908 7.186 0 6.41 4.77 9.766 9.482 9.766 5.06 0 7.752-3.366 8.52-6.25a.268.268 0 0 0-.176-.322l-2.83-.927a.27.27 0 0 0-.34.18c-.27.896-1.44 3.823-5.176 3.823-2.785 0-5.78-1.964-5.78-6.27 0-4.36 2.984-6.348 5.756-6.348zM85.98 29.392c.113 0 .214-.07.252-.175l1.634-4.406h7.35l1.66 4.41a.265.265 0 0 0 .25.18h3.377a.268.268 0 0 0 .226-.413l-7.09-18.2a.268.268 0 0 0-.25-.172h-3.58a.27.27 0 0 0-.25.17l-7.1 18.247a.27.27 0 0 0 .25.367h3.27zm5.56-14.402l2.395 6.428h-4.787l2.393-6.428zm19.498 14.402c.148 0 .268-.12.268-.268v-6.86h3.412c3.583 0 6.085-2.397 6.085-5.83 0-3.43-2.502-5.827-6.085-5.827h-6.77a.268.268 0 0 0-.267.268v18.25c0 .147.12.267.27.267h3.09zm.268-15.52h2.95c1.798 0 2.87.968 2.87 2.59 0 1.588-1.072 2.536-2.87 2.536h-2.95v-5.126z"/></svg>