<svg width="269" height="82" viewBox="0 0 269 82" xmlns="http://www.w3.org/2000/svg"><path d="M86.507 43.516h5.401c.202.024.408.024.604.007 6.938-.023 10.536.012 17.476-.018.866.065 1.706-.662 1.627-1.565-.241-3.566-1.876-7.038-4.502-9.467-2.707-2.576-6.493-3.934-10.21-3.772-4.074.09-8.052 2.055-10.628 5.213-2.025 2.41-3.142 5.518-3.275 8.655v.544c.026 4.218 1.985 8.38 5.277 11.024 2.496 2.05 5.694 3.188 8.918 3.247H98c3.362-.2 6.685-1.523 9.14-3.86.916-.83.619-2.59-.617-2.927-.86-.326-1.66.286-2.288.802-2.187 1.774-5.038 2.792-7.864 2.49-3.379-.294-6.553-2.283-8.295-5.197a10.845 10.845 0 0 1-1.569-5.176zm7.317-3.38h-6.942a10.5 10.5 0 0 1 .325-.995c.932-2.492 2.83-4.603 5.195-5.816 2.346-1.236 5.168-1.523 7.734-.86 3.04.794 5.67 3.002 7.021 5.848.197.462.515.934.447 1.46-.17.386-.585.358-.936.36-5.334 0-8.047-.009-12.779 0h-.065v.003zm21.097-11.008c.639-.605 1.741-.575 2.31.115 2.475 2.473 6.334 6.344 8.806 8.821l-2.362 2.35c-2.468-2.477-6.364-6.305-8.785-8.818-.648-.657-.681-1.851.03-2.468zm141.863-4.406c-.044-1.013.941-1.912 1.946-1.684.936.098 1.46 1.067 1.418 1.937.007 7.77.005 10.412 0 18.182-.025 3.935-1.718 7.843-4.652 10.471-2.54 2.353-5.958 3.686-9.41 3.756h-.603c-2.971-.094-5.9-1.093-8.272-2.888-3.008-2.24-5.073-5.727-5.565-9.452-.524-3.688.445-7.576 2.68-10.558 2.494-3.41 6.57-5.614 10.79-5.778 2.881-.16 5.808.577 8.257 2.118.995.59 1.821 1.418 2.788 2.058.78-.39.602-1.29.618-2.01-.004-3.764-.016-2.394.005-6.152zm-80.49 15.416h-6.944c.091-.338.201-.669.328-.997.93-2.492 2.83-4.603 5.195-5.816 2.346-1.236 5.165-1.523 7.73-.86 3.044.794 5.674 3.002 7.02 5.848.199.464.517.934.452 1.46-.174.386-.586.358-.941.363-5.33 0-8.043-.012-12.777 0h-.063v.002zm-7.319 3.38h5.402c.203.022.407.022.606.005 6.935-.023 10.536.012 17.47-.016.87.066 1.707-.664 1.63-1.565-.241-3.566-1.875-7.038-4.502-9.469-2.707-2.573-6.49-3.932-10.21-3.772-4.074.09-8.05 2.055-10.625 5.215-2.028 2.41-3.144 5.518-3.273 8.653v.546c.023 4.218 1.985 8.383 5.275 11.022 2.495 2.053 5.694 3.19 8.922 3.247h.8c3.365-.197 6.685-1.52 9.141-3.857.916-.83.618-2.59-.616-2.928-.861-.328-1.66.284-2.287.803-2.189 1.77-5.04 2.789-7.864 2.486-3.379-.29-6.556-2.282-8.295-5.196-.963-1.55-1.49-3.355-1.574-5.173zm74.981-11.18c-4.15.675-7.73 3.992-8.693 8.096-.702 2.79-.243 5.85 1.283 8.298 1.665 2.756 4.594 4.741 7.797 5.15 3.06.457 6.286-.521 8.601-2.57 2.388-2.055 3.814-5.19 3.763-8.35.004-3.319-1.623-6.594-4.285-8.577-2.364-1.836-5.525-2.573-8.466-2.048zm-89.78-7.689c-.025-.844.703-1.588 1.534-1.635.927-.134 1.856.706 1.814 1.65.04 2.751-.009.377.017 3.129-.005.328.105.805.515.826 1.52.134 3.057.023 4.586.05.897.032 1.995-.212 2.67.555.94.89.325 2.705-.956 2.853-2.107.124-4.23-.05-6.338.075-.384-.026-.487.45-.475.744-.016 7.563.01 15.127-.012 22.689.059.86-.578 1.602-1.39 1.799h-.637c-.759-.253-1.412-.924-1.332-1.774-.02-7.563.004-15.13-.012-22.695.023-.32-.094-.833-.517-.777-2.049-.087-4.1.037-6.146-.05-.876-.046-1.595-.877-1.557-1.745 0-.85.73-1.637 1.587-1.656 2.035-.075 4.081.054 6.12-.05.426 0 .53-.52.513-.853.026-2.755-.026-.378.016-3.135zm112.046-1.468c1.322-.664 2.823.954 2.165 2.247-.414 1.17-2.098 1.323-2.85.418-.725-.826-.374-2.313.685-2.665zm-63.383 9.375c2.707-2.544 6.434-3.963 10.147-3.864 3.718.037 7.382 1.623 9.967 4.302 2.557 2.61 4.018 6.231 4.046 9.887.025 4.234.007 8.464.009 12.699.06.877-.602 1.66-1.456 1.806h-.42c-.85-.138-1.547-.91-1.498-1.79-.011-3.523 0-7.05-.004-10.578-.007-1.3.056-2.607-.167-3.892-.562-3.308-2.762-6.283-5.752-7.787-2.379-1.25-5.221-1.532-7.813-.859-3.727.986-6.801 4.092-7.742 7.841-.39 1.448-.384 2.956-.37 4.446 0 3.601.011 7.205-.005 10.804.08.891-.602 1.628-1.43 1.815h-.656c-.735-.276-1.41-.929-1.332-1.783a1971.9 1971.9 0 0 1 0-12.891c.007-3.817 1.678-7.571 4.476-10.156zm62.315-1.973c-.096-.92.613-1.847 1.557-1.89 1.04-.147 1.943.897 1.819 1.906-.002 8.33.012 16.662-.007 24.993.056.851-.574 1.58-1.374 1.792h-.649c-.768-.249-1.41-.929-1.339-1.78-.014-8.34-.002-16.681-.007-25.021zm-136.017 9.654l-6.71 6.648a4508.874 4508.874 0 0 0-7.457 7.52c-.735.668-.773 1.959.033 2.583.671.581 1.732.45 2.315-.19 2.337-2.309 4.657-4.632 6.975-6.961l.103-.106.154-.155.157-.157.155-.157 2.505-2.522c.262-.244.498-.544.782-.777l3.256-3.27a.616.616 0 0 1 .167-.164l.859-.864.168-.169.169-.168.166-.17.169-.168.168-.172.167-.166 2.025-2.034.117-.115c2.27-2.276 4.542-4.547 6.81-6.825.757-.645.79-1.994-.046-2.59-.61-.547-1.646-.525-2.18.12-3.599 3.603-7.197 7.214-10.798 10.82a.756.756 0 0 1-.23.209zm13.321 16.718c-.639.605-1.741.575-2.308-.113-2.475-2.473-6.333-6.346-8.808-8.821l2.365-2.35c2.467 2.474 6.361 6.305 8.789 8.818.644.655.674 1.851-.038 2.466zM21.694 59.384h28.767a3.15 3.15 0 0 1 3.137 3.144 3.148 3.148 0 0 1-3.137 3.14H21.694a3.148 3.148 0 0 1-3.137-3.14 3.15 3.15 0 0 1 3.137-3.144zm2.32 7.486h24.13a3.15 3.15 0 0 1 3.136 3.144 3.15 3.15 0 0 1-3.137 3.141H24.014a3.15 3.15 0 0 1-3.137-3.141 3.15 3.15 0 0 1 3.137-3.144zm24.13 7.597a2.587 2.587 0 0 1-2.576 2.58h-2.574c-.283 2.23-3.272 3.984-6.915 3.984-3.646 0-6.633-1.755-6.916-3.984H26.59a2.587 2.587 0 0 1-2.576-2.58h24.13zM16.362 50.802c-1.885-1.954-3.732-3.665-5.39-6.041-3.179-4.547-4.502-9.568-4.502-15.09C6.471 13.29 19.734 0 36.083 0c16.347 0 29.61 13.29 29.61 29.67 0 5.523-1.323 10.544-4.502 15.09-1.971 2.82-4.205 4.7-6.45 7.166-1.424 1.562-1.936 2.547-1.936 4.708v1.687H19.357v-1.687c0-.894-.086-1.586-.292-2.203-5.132 1.258-10.222 1.858-14.584-.52 1.19-1.385 1.419-2.225 1.82-3.841C3.857 48.073.884 43.212 0 40.573c3.334 3.716 6.949 5.133 10.737 5.462.894.886 3.23 3.127 5.626 4.767zm4.814-34.173c-13.25 1.445-14.273 22.928 0 20.624 4.949-.8 9.931-1.302 14.897-1.318 4.966.016 9.946.518 14.897 1.318 14.275 2.302 13.252-19.181 0-20.624-4.958-.544-9.931-.899-14.897-.917-4.966.018-9.939.375-14.897.917zm8.414 9.926c1.157.643 2.138 1.333 2.805 2.107-1.454-1.02-2.547-1.494-3.442-1.668.94.943 1.037 2.02.525 2.794-.623.939-1.457 1.187-2.292 1.07-4.158-.587-3.224-5.8-10.979-7.09 5.755-.333 10.185 1.312 13.383 2.787zm12.975 0c3.196-1.473 7.628-3.12 13.383-2.785-7.752 1.288-6.82 6.501-10.98 7.088-.836.117-1.67-.131-2.29-1.07-.513-.774-.412-1.851.524-2.794-.894.174-1.988.647-3.442 1.668.668-.774 1.649-1.464 2.805-2.107z" fill="#231F20" fill-rule="evenodd"/></svg>