<svg xmlns="http://www.w3.org/2000/svg" width="69" height="27" fill="none" viewBox="0 0 69 27"><path fill="#F45D48" d="M61.2695 3.83575C57.0067 3.83575 53.5383 7.32027 53.5383 11.6029C53.5383 15.8856 57.0067 19.3701 61.2695 19.3701C65.5323 19.3701 69.0007 15.8856 69.0007 11.6029C69.0007 7.32027 65.5323 3.83575 61.2695 3.83575ZM61.2695 15.6891C59.0284 15.6891 57.2023 13.8545 57.2023 11.6029C57.2023 9.35141 59.0284 7.51683 61.2695 7.51683C63.5106 7.51683 65.3367 9.35141 65.3367 11.6029C65.3367 13.8545 63.5106 15.6891 61.2695 15.6891Z"/><path fill="#F45D48" d="M38.5016 10.0308L37.1498 9.35181C36.5628 9.05995 36.1953 8.8336 36.047 8.66683C35.8988 8.50005 35.8217 8.3154 35.8217 8.11883C35.8217 7.85675 35.9403 7.63636 36.1715 7.46363C36.4028 7.28493 36.7289 7.20154 37.1439 7.20154C37.9028 7.20154 38.7447 7.66019 39.6696 8.58344L41.9522 6.29021C41.3652 5.50396 40.6538 4.90236 39.8119 4.47945C38.97 4.05655 38.0688 3.84807 37.1202 3.84807C35.7269 3.84807 34.5767 4.25907 33.6814 5.08701C32.7862 5.91495 32.3356 6.90968 32.3356 8.07714C32.3356 9.88789 33.5213 11.3949 35.8988 12.5921L37.1439 13.2175C38.217 13.7596 38.7506 14.3135 38.7506 14.8853C38.7506 15.1951 38.6024 15.4631 38.3059 15.7014C38.0095 15.9396 37.6182 16.0528 37.132 16.0528C36.6814 16.0528 36.1656 15.8979 35.5846 15.5822C35.0036 15.2725 34.4996 14.8615 34.0668 14.3552L31.7961 16.8391C33.0767 18.5188 34.7842 19.3646 36.9304 19.3646C38.5431 19.3646 39.8296 18.9238 40.7842 18.0482C41.7447 17.1726 42.2249 16.0766 42.2249 14.7662C42.2249 13.7834 41.9581 12.9197 41.4304 12.1871C40.8968 11.4544 39.9186 10.7397 38.5016 10.0308Z"/><path fill="#F45D48" d="M15.5455 17.6784V4.14536H11.8755V5.05073C10.6779 4.28235 9.25494 3.83562 7.73122 3.83562C3.46838 3.83562 0 7.32014 0 11.6028C0 15.8855 3.46838 19.37 7.73122 19.37C9.23715 19.37 10.6482 18.9352 11.834 18.1847C11.834 18.3038 11.8281 18.411 11.8281 18.4825C11.8281 20.734 10.002 22.5686 7.76087 22.5686C6.97233 22.5686 6.23715 22.3363 5.6087 21.9432L3.79447 25.1358C4.95652 25.8387 6.31423 26.2556 7.7668 26.2556C12.0296 26.2556 15.5455 22.7711 15.5455 18.4884C15.5455 18.3217 15.5573 17.8332 15.5455 17.6784ZM7.73122 15.6889C5.49012 15.6889 3.66403 13.8543 3.66403 11.6028C3.66403 9.35128 5.49012 7.5167 7.73122 7.5167C9.97233 7.5167 11.7984 9.35128 11.7984 11.6028C11.7984 13.8543 9.97233 15.6889 7.73122 15.6889Z"/><path fill="#F45D48" d="M30.1653 4.13933H26.4775V11.2096C26.4775 11.3109 26.4775 11.4121 26.4775 11.5253C26.4835 12.5736 26.4835 14.3844 25.7127 15.1587C25.3451 15.528 24.942 15.8616 24.0941 15.8616C23.2404 15.8616 22.8372 15.528 22.4696 15.1587C21.6989 14.3844 21.7048 12.5677 21.7107 11.5253C21.7107 11.4121 21.7107 11.3109 21.7107 11.2096V4.13933H18.023V11.5015C18.0111 13.0204 17.9934 15.8378 19.8432 17.7081C20.9281 18.8041 22.2206 19.364 24.0882 19.364C25.9558 19.364 27.2483 18.81 28.3333 17.7081C30.1831 15.8378 30.1653 13.0144 30.1534 11.5015L30.1653 4.13933Z"/><path fill="#F45D48" d="M51.0643 15.0281C50.7679 15.2544 50.0505 15.7548 49.2383 15.6416C48.5742 15.5522 48.0347 15.0638 47.9517 13.4318V7.30854H52.2857V4.12781H47.9517V0H44.2758V0.810075H44.2699V12.9493C44.2699 14.8792 44.756 19.3644 49.2323 19.3644C51.4971 19.3286 52.8726 18.0956 53.4477 17.6132L53.5248 17.5536L51.3193 14.8256C51.3133 14.8315 51.1592 14.9566 51.0643 15.0281Z"/></svg>