<svg xmlns="http://www.w3.org/2000/svg" xmlns:xlink="http://www.w3.org/1999/xlink" width="347" height="78" version="1.1" viewBox="0 0 347 78"><title>Logo_horizontal_PMS</title><desc>Created with Sketch.</desc><g id="Logos" fill="none" fill-rule="evenodd" stroke="none" stroke-width="1"><g id="Artboard-Copy" transform="translate(-433.000000, -352.000000)"><g id="Group-3" transform="translate(83.000000, 44.000000)"><g id="Group-2"><g id="Logo_horizontal_PMS" transform="translate(350.000000, 308.000000)"><path id="Fill-1" fill="#CA2437" d="M0,39.11919 C0,33.80802 4.30451389,29.50125 9.61365741,29.50125 C14.9228009,29.50125 19.2289352,33.80802 19.2289352,39.11919 C19.2289352,44.43198 14.9228009,48.73875 9.61365741,48.73875 C4.30451389,48.73875 0,44.43198 0,39.11919 Z M67.5329861,48.73875 C62.2230324,48.73875 57.9193287,44.43198 57.9193287,39.11919 C57.9193287,33.80802 62.2230324,29.50125 67.5329861,29.50125 C72.8421296,29.50125 77.1482639,33.80802 77.1482639,39.11919 C77.1482639,44.43198 72.8421296,48.73875 67.5329861,48.73875 Z M67.5337963,0.645 C46.2939815,0.645 29.0759259,17.87127 29.0759259,39.11919 C29.0759259,60.36954 46.2939815,77.595 67.5337963,77.595 C88.7744213,77.595 105.991667,60.36954 105.991667,39.11919 C105.991667,17.87127 88.7744213,0.645 67.5337963,0.645 Z"/><path id="Fill-2" fill="#1C1D1B" d="M342.396412,36.14244 C343.003241,36.14244 343.362963,35.87028 343.362963,35.37537 C343.362963,34.92744 343.115856,34.63341 342.440162,34.63341 L341.810648,34.63341 L341.810648,36.14244 L342.396412,36.14244 Z M340.887847,33.86958 L342.596528,33.86958 C343.542014,33.86958 344.352199,34.25109 344.352199,35.33163 C344.352199,35.87028 344.014352,36.3903 343.520139,36.5685 L344.555556,38.43798 L343.520139,38.43798 L342.731019,36.86253 L341.810648,36.86253 L341.810648,38.43798 L340.887847,38.43798 L340.887847,33.86958 Z M345.858333,36.20886 C345.858333,34.09476 344.395949,32.58573 342.509028,32.58573 C340.618056,32.58573 339.178356,34.09476 339.178356,36.20886 C339.178356,38.34726 340.618056,39.80931 342.509028,39.80931 C344.395949,39.80931 345.858333,38.34726 345.858333,36.20886 Z M338.277431,36.20886 C338.277431,33.57555 340.189468,31.77492 342.509028,31.77492 C344.847222,31.77492 346.759259,33.57555 346.759259,36.20886 C346.759259,38.84217 344.847222,40.6428 342.509028,40.6428 C340.189468,40.6428 338.277431,38.84217 338.277431,36.20886 Z M310.05544,54.20706 C310.625,54.20706 311.10625,53.73159 311.10625,53.16216 L311.10625,49.30008 C311.10625,48.72984 310.631481,48.25518 310.061921,48.25518 L309.893403,48.25518 C309.421875,48.25518 308.950347,47.78619 308.950347,47.31396 L308.951157,47.14386 L308.951157,24.42984 C308.951157,23.90739 308.428588,23.38494 307.906829,23.38494 L304.06169,23.38494 C303.539931,23.38494 303.018171,23.90739 303.018171,24.42984 L303.018171,49.7796 L303.033565,50.43975 C303.033565,52.32705 304.919676,54.21273 306.804977,54.21273 L310.05544,54.20706 Z M140.860417,29.43078 C146.089352,29.43078 150.504051,33.86229 150.504051,39.11757 C150.504051,44.41983 146.176042,48.72579 140.860417,48.72579 C135.568287,48.72579 131.264583,44.41983 131.264583,39.11757 C131.264583,33.77562 135.568287,29.43078 140.860417,29.43078 Z M140.860417,23.32824 C132.206019,23.32824 125.165509,30.41169 125.165509,39.11757 C125.165509,47.92632 132.055324,54.82752 140.860417,54.82752 C149.689005,54.82752 156.603125,47.92632 156.603125,39.11757 C156.603125,30.41169 149.53831,23.32824 140.860417,23.32824 Z M266.103704,47.94981 C265.819329,48.75738 264.110648,50.27694 262.164583,50.27694 C260.123727,50.27694 258.984606,49.04169 258.984606,47.19003 C258.984606,45.2436 260.361111,44.05614 262.876736,44.05614 C264.632407,44.05614 266.103704,44.72115 266.103704,44.72115 L266.103704,47.94981 Z M263.541088,31.7571 C259.981134,31.7571 256.515972,32.65944 256.041204,32.84979 C255.567245,32.99154 255.139468,33.37143 255.329861,34.179 L255.80463,36.64869 C255.899421,37.31289 256.326389,37.83534 257.038542,37.59801 C258.320255,37.21812 261.215046,36.79044 263.208912,36.79044 C265.534144,36.79044 266.341088,38.12046 266.246296,40.92225 C266.246296,40.92225 264.253241,40.30503 262.021991,40.30503 C256.468981,40.30503 253.289005,43.29636 253.289005,47.19003 C253.289005,51.89127 256.326389,54.69306 260.693287,54.69306 C264.110648,54.69306 266.294097,53.1735 267.57581,51.93906 L267.57581,53.11761 C267.57581,53.68785 268.050579,54.16251 268.620139,54.16251 L269.007407,54.16251 C269.047106,54.17061 269.094097,54.17061 269.141898,54.17061 L270.755787,54.17061 C271.325347,54.17061 271.800116,53.69595 271.800116,53.12571 L271.800116,41.30214 C271.800116,35.31867 270.37581,31.7571 263.541088,31.7571 Z M223.69456,31.7571 C219.49375,31.7571 217.452894,34.01295 216.637847,34.92339 L216.637847,33.27666 C216.637847,32.70723 216.163079,32.23176 215.593519,32.23176 L213.110301,32.23176 C212.587731,32.23176 212.065972,32.65944 212.065972,33.27666 L212.065972,53.12571 C212.065972,53.69595 212.587731,54.17061 213.110301,54.17061 L216.622454,54.17061 C217.666782,54.17061 217.998958,53.93328 217.998958,53.12571 L217.998958,40.58934 C218.520718,39.06978 219.897222,37.17033 222.745023,37.17033 C225.403241,37.17033 226.542361,38.92803 226.542361,41.7768 L226.542361,53.12571 C226.542361,53.69595 227.01713,54.17061 227.58669,54.17061 L231.431019,54.17061 C231.953588,54.17061 232.475347,53.69595 232.475347,53.12571 L232.475347,41.7768 C232.475347,36.45834 230.671875,31.7571 223.69456,31.7571 Z M171.435995,49.27983 C168.682986,49.27983 166.879514,48.04458 166.879514,48.04458 L166.879514,40.20945 C167.354282,38.97501 168.872569,37.17033 171.721181,37.17033 C175.138542,37.17033 176.894213,40.16247 176.894213,43.24857 C176.894213,46.33548 175.04375,49.27983 171.435995,49.27983 Z M172.528125,31.7571 C168.018634,31.7571 165.518403,34.83591 165.368519,35.02545 L165.368519,33.27666 C165.368519,32.70723 164.89375,32.23176 164.32419,32.23176 L161.990856,32.23176 C161.421296,32.23176 160.946528,32.70723 160.946528,33.27666 L160.946528,62.05272 C160.946528,62.57517 161.421296,63.09762 161.990856,63.09762 L165.835185,63.09762 C166.357755,63.09762 166.879514,62.57517 166.879514,62.05272 L166.879514,53.79072 C167.876042,54.17061 169.964699,54.69306 172.148148,54.69306 C178.698495,54.69306 183.017593,49.65972 183.017593,43.24857 C183.017593,36.6009 178.508102,31.7571 172.528125,31.7571 Z M329.055093,40.44516 C328.960301,38.30919 327.252431,36.64707 324.830787,36.64707 C322.17338,36.64707 320.464699,38.2614 320.180324,40.44516 L329.055093,40.44516 Z M324.97419,31.75629 C330.668981,31.75629 335.03588,35.98287 335.03588,41.91774 C335.03588,42.24984 334.988079,43.00962 334.941088,43.34253 C334.893287,43.91277 334.371528,44.33964 333.896759,44.33964 L319.847338,44.33964 C319.895139,47.04585 322.125579,49.41996 325.306366,49.41996 C327.489005,49.41996 329.008102,48.6132 330.00463,47.80644 C330.527199,47.37795 331.095949,47.33097 331.428935,47.80644 L333.279398,50.27451 C333.659375,50.70219 333.706366,51.22464 333.184606,51.6993 C331.286343,53.31363 328.581134,54.69144 325.021181,54.69144 C318.471644,54.69144 313.915162,49.46775 313.915162,43.19997 C313.915162,37.02696 318.471644,31.75629 324.97419,31.75629 Z M287.827199,49.27983 C284.979398,49.27983 283.460301,47.47515 282.985532,46.24071 L282.985532,38.40558 C282.985532,38.40558 284.789005,37.17033 287.542014,37.17033 C291.149769,37.17033 293.001042,40.11468 293.001042,43.20159 C293.001042,46.28769 291.24456,49.27983 287.827199,49.27983 Z M288.348958,31.7571 C286.165509,31.7571 283.98287,32.27955 282.985532,32.70723 L282.985532,24.34965 C282.985532,23.8272 282.510764,23.30475 281.941204,23.30475 L278.096875,23.30475 C277.574306,23.30475 277.052546,23.8272 277.052546,24.34965 L277.052546,53.12571 C277.052546,53.69595 277.574306,54.17061 278.096875,54.17061 L279.757755,54.17061 C279.789352,54.17061 279.821759,54.17061 279.853356,54.16251 L280.296528,54.16251 C280.87338,54.16251 281.348148,53.68785 281.348148,53.11761 L281.348148,51.49518 L281.371644,51.41661 C281.371644,51.41661 283.887269,54.69306 288.681134,54.69306 C294.661921,54.69306 298.981019,49.46937 298.981019,43.20159 C298.981019,36.79044 294.851505,31.7571 288.348958,31.7571 Z M254.767593,23.30475 L232.44294,23.30475 C231.921181,23.30475 231.541204,23.73243 231.541204,24.20709 L231.541204,28.10076 C231.541204,28.57542 231.921181,29.0031 232.44294,29.0031 L240.496181,29.0031 L240.496181,53.26827 C240.496181,53.74293 240.923148,54.17061 241.397917,54.17061 L245.812616,54.17061 C246.286574,54.17061 246.714352,53.74293 246.714352,53.26827 L246.714352,29.0031 L254.767593,29.0031 C255.289352,29.0031 255.669329,28.57542 255.669329,28.10076 L255.669329,24.20709 C255.669329,23.73243 255.289352,23.30475 254.767593,23.30475 Z M201.622685,40.44516 C201.527083,38.30919 199.819213,36.64707 197.39838,36.64707 C194.740972,36.64707 193.031481,38.2614 192.747917,40.44516 L201.622685,40.44516 Z M197.540972,31.75629 C203.236574,31.75629 207.602662,35.98287 207.602662,41.91774 C207.602662,42.24984 207.555671,43.00962 207.508681,43.34253 C207.460069,43.91277 206.93831,44.33964 206.463542,44.33964 L192.414931,44.33964 C192.462731,47.04585 194.693171,49.41996 197.873148,49.41996 C200.056597,49.41996 201.575694,48.6132 202.572222,47.80644 C203.093981,47.37795 203.663542,47.33097 203.995718,47.80644 L205.846991,50.27451 C206.226968,50.70219 206.273958,51.22464 205.751389,51.6993 C203.853125,53.31363 201.147917,54.69144 197.587963,54.69144 C191.038426,54.69144 186.481944,49.46775 186.481944,43.19997 C186.481944,37.02696 191.038426,31.75629 197.540972,31.75629 Z"/></g></g></g></g></g></svg>