<svg xmlns="http://www.w3.org/2000/svg" xmlns:svg="http://www.w3.org/2000/svg" id="svg2" width="1000" height="758.995" version="1.1"><metadata id="metadata2892"/><defs id="defs4"><clipPath id="clipPath2940"><path id="path2942" d="m 104.072,244.53 13.958,0 0,-16.389 -13.958,0 0,16.389 z"/></clipPath><clipPath id="clipPath2926"><path id="path2928" d="m 104.072,254.114 34.584,0 0,-25.973 -34.584,0 0,25.973 z"/></clipPath><clipPath id="clipPath2912"><path id="path2914" d="m 104.072,263.695 21.122,0 0,-35.554 -21.122,0 0,35.554 z"/></clipPath><clipPath id="clipPath2898"><path id="path2900" d="m 104.072,259.95 24.884,0 0,-31.809 -24.884,0 0,31.809 z"/></clipPath><clipPath id="clipPath2884"><path id="path2886" d="m 104.072,239.726 39.448,0 0,-11.585 -39.448,0 0,11.585 z"/></clipPath><clipPath id="clipPath2872"><path id="path2874" d="m 0,0 595.276,0 0,841.89 L 0,841.89 0,0 z"/></clipPath><clipPath id="clipPath2852"><path id="path2854" d="m 39.118,37.134 28.126,0 0,26.954 -28.126,0 0,-26.954 z"/></clipPath><clipPath id="clipPath4109"><path id="path4111" d="m 104.072,244.53 13.958,0 0,-16.389 -13.958,0 0,16.389 z"/></clipPath><clipPath id="clipPath4095"><path id="path4097" d="m 104.072,254.114 34.584,0 0,-25.973 -34.584,0 0,25.973 z"/></clipPath><clipPath id="clipPath4081"><path id="path4083" d="m 104.072,263.695 21.122,0 0,-35.554 -21.122,0 0,35.554 z"/></clipPath><clipPath id="clipPath4067"><path id="path4069" d="m 104.072,259.95 24.884,0 0,-31.809 -24.884,0 0,31.809 z"/></clipPath><clipPath id="clipPath4053"><path id="path4055" d="m 104.072,239.726 39.448,0 0,-11.585 -39.448,0 0,11.585 z"/></clipPath><clipPath id="clipPath4041"><path id="path4043" d="m 0,0 595.276,0 0,841.89 L 0,841.89 0,0 z"/></clipPath><clipPath id="clipPath4021"><path id="path4023" d="m 39.118,37.134 28.126,0 0,26.954 -28.126,0 0,-26.954 z"/></clipPath><clipPath id="clipPath4041-7"><path id="path4043-1" d="m 0,0 595.276,0 0,841.89 L 0,841.89 0,0 z"/></clipPath><clipPath id="clipPath4053-7"><path id="path4055-7" d="m 104.072,239.726 39.448,0 0,-11.585 -39.448,0 0,11.585 z"/></clipPath><clipPath id="clipPath4067-7"><path id="path4069-7" d="m 104.072,259.95 24.884,0 0,-31.809 -24.884,0 0,31.809 z"/></clipPath><clipPath id="clipPath4081-3"><path id="path4083-3" d="m 104.072,263.695 21.122,0 0,-35.554 -21.122,0 0,35.554 z"/></clipPath><clipPath id="clipPath4095-5"><path id="path4097-9" d="m 104.072,254.114 34.584,0 0,-25.973 -34.584,0 0,25.973 z"/></clipPath><clipPath id="clipPath4109-9"><path id="path4111-8" d="m 104.072,244.53 13.958,0 0,-16.389 -13.958,0 0,16.389 z"/></clipPath></defs><path id="path4061" fill="#e669a2" fill-opacity="1" fill-rule="nonzero" stroke="none" d="m 1000,325.90288 -363.73536,0 0,-93.09988 363.73536,0 0,93.09988 z" color="#000" display="inline" enable-background="accumulate" overflow="visible" visibility="visible" style="marker:none"/><path id="path4103" fill="#f3be26" fill-opacity="1" fill-rule="nonzero" stroke="none" d="m 952.75557,325.90288 -316.49093,0 0,-232.851606 316.49093,0 0,232.851606 z" color="#000" display="inline" enable-background="accumulate" overflow="visible" visibility="visible" style="marker:none"/><path id="path4089" fill="#ee9c34" fill-opacity="1" fill-rule="nonzero" stroke="none" d="m 821.99817,325.90288 -185.73353,0 0,-325.902841381168 185.73353,0 0,325.902841381168 z" color="#000" display="inline" enable-background="accumulate" overflow="visible" visibility="visible" style="marker:none"/><path id="path4075" fill="#f3bc87" fill-opacity="1" fill-rule="nonzero" stroke="none" d="m 858.53875,325.90288 -222.27411,0 0,-289.537091 222.27411,0 0,289.537091 z" color="#000" display="inline" enable-background="accumulate" overflow="visible" visibility="visible" style="marker:none"/><path id="path4688" fill="#e3721c" fill-opacity="1" fill-rule="nonzero" stroke="none" d="m 636.21316,36.420649 0,289.452701 185.76453,0 0,-289.452701 -185.76453,0 z" color="#000" display="inline" enable-background="accumulate" overflow="visible" visibility="visible" style="marker:none"/><path id="path4119" fill="#ad1b02" fill-opacity="1" fill-rule="nonzero" stroke="none" d="m 450.0164,325.90296 186.24824,0 0,46.55479 -186.24824,0 0,-46.55479 z" color="#000" display="inline" enable-background="accumulate" overflow="visible" visibility="visible" style="marker:none"/><path id="path4698" fill="#e88d14" fill-opacity="1" fill-rule="nonzero" stroke="none" d="m 636.21316,92.99991 0,232.87344 222.43178,0 0,-232.87344 -222.43178,0 z" color="#000" display="inline" enable-background="accumulate" overflow="visible" visibility="visible" style="marker:none"/><path id="path4693" fill="#d85604" fill-opacity="1" fill-rule="nonzero" stroke="none" d="m 636.21316,92.99991 0,232.87344 185.76453,0 0,-232.87344 -185.76453,0 z" color="#000" display="inline" enable-background="accumulate" overflow="visible" visibility="visible" style="marker:none"/><path id="path4117" fill="#c14303" fill-opacity="1" fill-rule="nonzero" stroke="none" d="m 752.41366,325.90288 -116.14902,0 0,-139.76144 116.14902,0 0,139.76144 z" color="#000" display="inline" enable-background="accumulate" overflow="visible" visibility="visible" style="marker:none"/><path id="path4713" fill="#db4e18" fill-opacity="1" fill-rule="nonzero" stroke="none" d="m 636.21316,232.86967 0,93.00368 316.6496,0 0,-93.00368 -316.6496,0 z" color="#000" display="inline" enable-background="accumulate" overflow="visible" visibility="visible" style="marker:none"/><path id="path4708" fill="#d1390d" fill-opacity="1" fill-rule="nonzero" stroke="none" d="m 636.21316,232.86967 0,93.00368 222.43178,0 0,-93.00368 -222.43178,0 z" color="#000" display="inline" enable-background="accumulate" overflow="visible" visibility="visible" style="marker:none"/><path id="path4703" fill="#c22303" fill-opacity="1" fill-rule="nonzero" stroke="none" d="m 636.21316,232.86967 0,93.00368 185.76453,0 0,-93.00368 -185.76453,0 z" color="#000" display="inline" enable-background="accumulate" overflow="visible" visibility="visible" style="marker:none"/><path id="path4625" fill="#ad1b02" fill-opacity="1" fill-rule="nonzero" stroke="none" d="m 636.21316,232.86967 0,93.00368 116.31531,0 0,-93.00368 -116.31531,0 z" color="#000" display="inline" enable-background="accumulate" overflow="visible" visibility="visible" style="marker:none"/><g id="g2925" transform="translate(-128.49892,323.79178)"><path id="path2850" fill="#000" fill-opacity="1" fill-rule="nonzero" stroke="none" d="m 805.25948,177.45637 c -31.69014,5.6338 -48.59155,29.57747 -48.59155,71.12676 0,42.25352 22.53522,70.42254 55.63381,70.42254 16.19718,0 30.28169,-5.63381 59.85915,-20.42254 0,34.50704 0,34.50704 0,34.50704 -35.91549,16.90141 -57.04225,21.12676 -85.21127,21.12676 -31.69014,0 -54.22535,-7.74647 -71.83098,-26.76056 -18.30986,-18.30986 -28.16902,-42.25352 -28.16902,-69.71831 0,-59.85915 45.07043,-101.40845 110.56338,-101.40845 42.95775,0 73.23944,20.42254 73.23944,49.29578 0,19.01408 -14.08451,32.39436 -34.50704,32.39436 -10.56338,0 -19.01409,-3.52113 -30.98592,-9.85915"/><path id="path2852" fill="#000" fill-opacity="1" fill-rule="nonzero" stroke="none" d="m 646.80878,257.73806 c 28.87324,-35.91549 39.43662,-50.70422 39.43662,-68.30986 0,-17.60563 -14.08451,-33.09859 -33.80282,-33.09859 -11.2676,0 -21.83098,6.33803 -26.76056,11.97183 0,73.94366 0,73.94366 0,73.94366 -47.1831,63.38029 -47.1831,63.38029 -47.1831,63.38029 0,-143.66198 0,-143.66198 0,-143.66198 -45.07042,0 -45.07042,0 -45.07042,0 -74.64789,123.23944 -74.64789,123.23944 -74.64789,123.23944 0,-123.23944 0,-123.23944 0,-123.23944 -25.35211,0 -25.35211,0 -25.35211,0 -68.30986,15.49296 -68.30986,15.49296 -68.30986,15.49296 0,17.60563 0,17.60563 0,17.60563 37.32394,3.52113 37.32394,3.52113 37.32394,3.52113 0,152.8169 0,152.8169 0,152.8169 47.1831,0 47.1831,0 47.1831,0 71.83099,-118.30986 71.83099,-118.30986 71.83099,-118.30986 0,118.30986 0,118.30986 0,118.30986 52.8169,0 52.8169,0 52.8169,0"/><path id="path2862" fill="#000" fill-opacity="1" fill-rule="nonzero" stroke="none" d="m 222.16089,327.45637 c 5.6338,0 7.04226,0 10.56338,0 38.02817,0 59.15493,-23.23944 59.15493,-69.71831 0,-38.73239 -16.90141,-59.85915 -48.59155,-59.85915 -4.22535,0 -10.56338,0.70422 -21.12676,2.8169 l 0,126.76056 z m 0,83.09859 c 30.98592,7.04226 30.98592,7.04226 30.98592,7.04226 0,17.60563 0,17.60563 0,17.60563 -121.83099,0 -121.83099,0 -121.83099,0 0,-17.60563 0,-17.60563 0,-17.60563 28.16902,-7.04226 28.16902,-7.04226 28.16902,-7.04226 0,-212.67605 0,-212.67605 0,-212.67605 -30.98592,0 -30.98592,0 -30.98592,0 0,-17.60564 0,-17.60564 0,-17.60564 73.94366,-22.53521 73.94366,-22.53521 73.94366,-22.53521 19.71831,0 19.71831,0 19.71831,0 0,25.35211 0,25.35211 0,25.35211 34.50704,-21.12676 46.47888,-24.64788 64.78873,-24.64788 40.84507,0 71.83099,38.02817 71.83099,90.84507 0,60.56338 -41.5493,102.11267 -104.92958,102.11267 -7.04225,0 -19.01408,-0.70422 -31.69014,-1.40845"/></g></svg>