<svg xmlns="http://www.w3.org/2000/svg" viewBox="0 0 1167.506 180.332" height="192.355" width="1245.34"><defs><clipPath id="a"><path d="M0 0h720v540H0V0z" clip-rule="evenodd"/></clipPath><clipPath id="b"><path d="M0 0h368.63v56.843H0V0z"/></clipPath><clipPath id="c"><path d="M0 56.843V-.637h369.24v57.48" clip-rule="evenodd"/></clipPath></defs><g clip-path="url(#a)" transform="matrix(1.82015 0 0 -1.82015 -96.588 840.174)"><g clip-path="url(#b)" transform="matrix(1.74 0 0 1.743 53.066 362.52)"><g clip-path="url(#c)"><path d="M70.142 56.318V7.242c0-3.827 2.251-6.604 7.202-6.604h7.802v55.68H70.142zM329.41 16.397s-9.46 27.089-11.26 32.192c-1.12 3.452-2.77 7.729-10.5 7.729h-17.63V.638h5.93c4.57 0 7.42 2.027 7.42 6.754v38.871h.23L320.78.638h16.05l17.18 45.625h.23V7.317c0-3.902 2.1-6.679 7.42-6.679h7.43v55.68h-16.58c-5.85 0-9.45-1.651-11.25-6.829-1.2-3.452-11.55-33.092-11.55-33.092h-.3zm-297.377-.525S19.13 49.639 18.379 51.59c-.975 2.627-2.325 4.728-7.276 4.728H0L22.881.638h16.654l23.705 55.68h-9.827c-4.201 0-5.851-1.801-6.902-4.503L32.258 15.872h-.225zm164.137 28.74h7.65c5.48 0 8.71 2.026 8.71 6.978v4.728h-21.76c-18.15 0-26.86-10.731-26.86-27.84 0-21.311 13.28-27.84 26.86-27.84h21.76v4.803c0 4.878-3.38 6.904-8.33 6.904h-8.03c-8.62 0-16.65 3.076-16.65 16.133 0 11.331 6.08 16.134 16.65 16.134zm-58.29-23.113c0-5.552-2.55-9.905-10.05-9.905h-7.8c-5.48 0-8.7 1.501-8.7 5.928 0 4.278 3 6.004 8.7 6.004h17.85v-2.027zm-7.27 34.819H99.924v-4.277c0-3.752 1.946-7.429 7.276-7.429h19.58c8.25 0 11.1-2.702 11.1-9.23v-.976h-20.7c-15.46 0-21.082-7.128-21.082-16.809 0-11.78 7.882-16.959 21.082-16.959h13.8c18.08 0 21.98 9.08 21.98 21.012v13.807c0 12.907-4.8 20.861-22.35 20.861zm117.03-44.574c9.75 0 15.45 6.754 15.45 16.734 0 10.581-6.08 16.734-15.45 16.734-9.98 0-15.61-6.679-15.61-16.734 0-9.605 5.48-16.734 15.61-16.734zm0 45.174c18.22 0 31.2-9.905 31.2-28.44 0-17.709-12-28.515-31.2-28.515-18.76 0-31.29 10.356-31.29 28.515 0 17.935 12.38 28.44 31.29 28.44z" fill="#24b5e9"/></g></g></g></svg>