<svg width="411" height="51" viewBox="0 0 411 51" xmlns="http://www.w3.org/2000/svg"><title>New Project</title><g fill="none"><path d="M82.65 22.01l-18.82 21.3h19.53v6.39h-28.4v-6.39l18.81-21.3h-18.1v-6.39h26.98v6.39zm26.48 27.68v-3.55s-3.9 4.26-10.3 4.26c-7.1 0-12.07-4.97-12.07-9.94 0-5.68 3.9-9.58 9.94-10.65l12.43-2.13c0-3.55-2.84-6.39-7.1-6.39-6.04 0-8.88 4.61-8.88 4.61l-4.61-4.61s4.61-6.39 13.49-6.39c8.52 0 14.2 5.68 14.2 12.78v22.01h-7.1zm0-15.62v-.71l-11.01 1.78c-2.48.43-4.26 2.13-4.26 4.62 0 2.13 2.13 4.26 6.04 4.26 5.68 0 9.23-3.55 9.23-9.94v-.01zm38.91 12.08s-3.9 4.26-10.3 4.26c-8.16 0-13.84-5.68-13.84-14.91V15.62h7.1V35.5c0 4.97 3.55 8.52 8.17 8.52 5.33 0 8.88-3.55 8.88-9.94V15.62h7.1V49.7h-7.1l-.01-3.55zm50.62-13.5c0 9.94-7.81 17.75-16.68 17.75-6.74 0-11.01-4.61-11.01-4.61v3.91h-7.1V0h7.1v19.52s4.26-4.61 11.01-4.61c8.88 0 16.68 7.81 16.68 17.75v-.01zm-7.1 0c0-6.39-4.97-11.36-10.3-11.36-5.32 0-10.3 4.97-10.3 11.36s4.97 11.36 10.3 11.36c5.33 0 10.3-4.97 10.3-11.36zm17.61 2.49c.71 4.61 4.97 8.88 10.65 8.88 6.75 0 10.3-5.32 10.3-5.32l4.61 4.61s-5.32 7.1-14.91 7.1c-9.58 0-17.75-8.16-17.75-18.1 0-9.58 7.81-17.39 17.39-17.39 9.59 0 16.68 7.1 16.68 16.68 0 2.13-.35 3.55-.35 3.55l-26.62-.01zm.29-6.04h19.74c-.85-4.61-4.4-8.16-9.73-8.16-5.32 0-8.87 3.55-10.01 8.16zm48.2-7.8c-5.32 0-8.87 3.55-8.87 9.94V49.7h-7.1V15.62h7.1v3.55s3.91-4.26 10.29-4.26h1.77v6.74s-1.42-.35-3.19-.35zm34.94-5.69l8.52 26.27 8.87-26.27h5.32L303.6 49.69h-4.62l-8.52-25.92-8.52 25.92h-4.62l-11.71-34.08h5.33l8.87 26.27 8.52-26.27h4.27zm49.63 12.43c0-4.97-3.55-8.52-8.52-8.52-6.03 0-9.58 4.97-9.58 4.97l-3.19-3.2s4.61-6.39 12.78-6.39c7.81 0 13.49 5.68 13.49 13.13v21.66h-4.97v-4.62s-3.55 5.33-11.01 5.33c-7.1 0-12.07-4.97-12.07-9.94 0-5.68 3.55-9.23 9.94-10.3l13.13-2.12zm0 6.39V32.3l-11.72 2.13c-4.26.78-6.39 2.84-6.39 6.03 0 2.84 2.48 5.32 7.1 5.32 6.39 0 11.01-4.61 11.01-11.36v.01zm33.65-14.55h-2.13c-5.68 0-10.65 4.26-10.65 11.01V49.7h-4.97V15.62h4.97v4.62s3.55-5.33 11.36-5.33h1.42v4.97zm6.96 14.55c.35 6.03 5.68 11.36 12.07 11.36 7.17 0 11.01-5.68 11.01-5.68l3.19 3.2s-4.97 7.1-14.2 7.1-17.04-7.81-17.04-17.75c0-9.94 7.81-17.75 16.68-17.75 9.23 0 16.33 7.1 16.33 17.04 0 1.42-.35 2.56-.35 2.56l-27.69-.08zm0-4.26h23.08c-.71-6.03-5.33-10.65-11.36-10.65-6.03 0-11.01 4.97-11.72 10.65z" fill="#0F0F0F"/><path d="M27.56 41.76l-.02 7.99c0 .56.45 1.02 1.01 1.02l7.99.02c.56 0 1.02-.45 1.02-1.01l.02-7.99c0-.56-.45-1.02-1.01-1.02l-7.99-.02c-.56 0-1.02.45-1.02 1.01z" fill="#FDDCA9"/><path d="M11.56 15.76l-.02 7.99c0 .56.45 1.02 1.01 1.02l7.99.02c.56 0 1.02-.45 1.02-1.01l.02-7.99c0-.56-.45-1.02-1.01-1.02l-7.99-.02c-.56 0-1.02.45-1.02 1.01z" fill="#DC2D71"/><path d="M27.56 16.78l-.05 15.91c0 1.14.92 2.07 2.06 2.07l15.91.05c1.14 0 2.07-.92 2.07-2.06l.05-15.91c0-1.14-.92-2.07-2.06-2.07l-15.92-.05c-1.14 0-2.07.92-2.07 2.06h.01z" fill="#4CBCD0"/><path d="M.56 31.33L.51 48.14c0 .89.72 1.62 1.61 1.62l16.82.05c.89 0 1.62-.72 1.62-1.61l.05-16.81c0-.89-.72-1.62-1.61-1.62l-16.81-.05c-.89 0-1.62.72-1.62 1.61H.56z" fill="#103970"/></g></svg>