<svg xmlns="http://www.w3.org/2000/svg" xmlns:svg="http://www.w3.org/2000/svg" id="Layer_1" width="467.669" height="467.721" version="1.1" viewBox="0 0 467.03 469.963" xml:space="preserve"><path id="path3758" fill="#007ec6" d="M 413.82461,144.80789 C 413.93497,144.76248 438.57461,193.55789 434.20254,245.43289 L 434.20254,245.43289 C 431.82461,332.55789 354.82461,431.39188 240.07462,434.60184 L 224.07462,434.26883 C 105.82461,428.39188 33.158108,328.05789 33.491116,237.39188 L 33.491116,237.39188 C 33.783108,220.5369 33.715237,201.6951 40.824612,178.39139 L 48.074612,180.55789 C 78.379788,192.01199 111.07461,280.55789 217.3671,285.59793 C 221.98136,285.81668 230.84464,286.02078 230.82462,286.05789 C 223.94425,292.92215 184.82462,309.05789 167.07462,313.30789 C 171.71622,312.19656 166.71182,313.19363 167.07462,313.30789 L 167.07462,313.30789 C 209.82462,339.80789 252.57462,288.80789 308.07461,281.30789 L 325.07461,280.30789 C 321.82461,270.05789 307.19278,270.92313 305.82461,271.05789 C 267.4252,274.83817 277.01798,270.43387 275.82461,270.80789 C 334.82461,252.30789 368.82461,205.05789 411.28751,147.59793 L 413.82461,144.80789 z"/><path id="path3766" fill="#263f78" fill-opacity="1" fill-rule="evenodd" d="M 328.07461,56.557892 C 323.95157,54.365021 289.32461,33.557892 236.1586,32.724396 C 120.90421,33.139435 70.158108,117.7244 70.158108,117.7244 C 95.658108,130.2244 122.11856,167.86844 122.49111,168.39139 C 151.02872,208.43094 190.79825,270.49149 242.32657,271.67801 C 258.82461,272.05789 269.79825,262.18875 282.32461,250.05789 C 328.06876,205.75516 334.47305,123.84842 393.07461,112.30789 C 393.07461,112.30789 371.32461,79.557892 328.07461,56.557892 z M 200.37753,110.73465 L 214.07491,110.73465 C 219.60068,110.73465 224.04922,115.18319 224.04922,120.70896 L 224.04922,153.67734 C 224.04922,159.20311 219.60068,163.65165 214.07491,163.65165 L 200.37753,163.65165 C 194.85176,163.65165 190.40322,159.20311 190.40322,153.67734 L 190.40322,120.70896 C 190.40322,115.18319 194.85176,110.73465 200.37753,110.73465 z M 204.02692,119.81465 L 210.42553,119.81465 C 211.69956,119.81465 212.72523,120.84031 212.72523,122.11434 L 212.72523,152.27196 C 212.72523,153.54599 211.69956,154.57165 210.42553,154.57165 L 204.02692,154.57165 C 202.75289,154.57165 201.72723,153.54599 201.72723,152.27196 L 201.72723,122.11434 C 201.72723,120.84031 202.75289,119.81465 204.02692,119.81465 z M 243.70254,110.74588 C 238.17677,110.74588 233.7338,115.18886 233.73379,120.71463 L 233.73379,163.65213 L 245.04629,163.65213 L 245.04629,142.40213 L 256.04629,142.40213 L 256.04629,163.65213 L 267.35879,163.65213 L 267.35879,120.71463 C 267.35879,115.18886 262.9158,110.74588 257.39004,110.74588 L 243.70254,110.74588 z M 247.35879,119.80838 L 253.73379,119.80838 C 255.00781,119.80838 256.04629,120.84685 256.04629,122.12088 L 256.04629,133.33963 L 245.04629,133.33963 L 245.04629,122.12088 C 245.04629,120.84685 246.08476,119.80838 247.35879,119.80838 z M 287.01211,110.74588 C 281.48634,110.74588 277.04337,115.18886 277.04336,120.71463 L 277.04336,163.65213 L 288.35586,163.65213 L 288.35586,142.40213 L 299.35586,142.40213 L 299.35586,163.65213 L 310.66836,163.65213 L 310.66836,120.71463 C 310.66836,115.18886 306.22537,110.74588 300.69961,110.74588 L 287.01211,110.74588 z M 290.66836,119.80838 L 297.04336,119.80838 C 298.31738,119.80838 299.35586,120.84685 299.35586,122.12088 L 299.35586,133.33963 L 288.35586,133.33963 L 288.35586,122.12088 C 288.35586,120.84685 289.39433,119.80838 290.66836,119.80838 z M 147.0624,110.74588 L 147.0624,163.65213 L 158.40615,163.65213 L 158.40615,122.12088 C 158.40614,120.84685 159.41337,119.80838 160.6874,119.80838 L 167.09365,119.80838 C 168.36768,119.80838 169.40615,120.84685 169.40615,122.12088 L 169.40615,163.65213 L 180.71865,163.65213 L 180.71865,120.71463 C 180.71865,115.18886 176.27567,110.74588 170.7499,110.74588 L 147.0624,110.74588 z"/><path font-family="Swis721 BT" style="text-align:center;line-height:125%;-inkscape-font-specification:Swis721 BT" id="text4662" fill="#263f78" fill-opacity="1" stroke="none" stroke-linecap="butt" stroke-linejoin="miter" stroke-opacity="1" stroke-width="1" d="M 33.805435,305.00217 L 13.622094,311.30846 L 12.684498,308.30768 L 24.400345,294.29962 C 24.654427,293.98963 24.898792,293.71275 25.13344,293.46897 C 25.368107,293.22521 25.594485,293.01912 25.812574,292.85069 L 9.4521466,297.96252 L 8.634426,295.3454 L 28.817767,289.0391 L 29.7468,292.01248 L 17.889639,306.29029 C 17.706952,306.50781 17.511547,306.71675 17.303421,306.91713 C 17.095331,307.11752 16.87138,307.31533 16.631568,307.51057 L 32.991995,302.39875 L 33.805435,305.00217 z M 18.365312,282.80262 L 17.003436,276.35573 L 8.5503484,281.48669 L 18.365312,282.80262 z M 28.225122,286.97017 L 5.9131232,283.65774 L 5.2574051,280.55369 L 24.317517,268.47224 L 24.961367,271.52012 L 19.244207,275.01672 L 20.965096,283.16311 L 27.610943,284.06275 L 28.225122,286.97017 z M 23.518069,261.67335 L 5.0855311,263.97736 L 5.9134788,270.6011 L 3.3636919,270.91982 L 1.3499094,254.80915 L 3.8996963,254.49044 L 4.727644,261.11419 L 23.160181,258.81018 L 23.518069,261.67335 z M 22.273144,249.57955 L 1.1752839,250.99974 L 0.98245474,248.13513 L 22.080315,246.71494 L 22.273144,249.57955 z M 11.117146,239.98417 C 13.825539,239.99289 15.944966,239.37524 17.475434,238.13122 C 19.00591,236.88722 19.774702,235.15985 19.78181,232.94911 C 19.788892,230.74797 19.031197,229.02526 17.508724,227.78098 C 15.986259,226.53674 13.870833,225.91026 11.162441,225.90153 C 8.4444998,225.89281 6.3226956,226.50566 4.7970223,227.7401 C 3.2713827,228.97457 2.5050146,230.69237 2.4979157,232.89352 C 2.4908244,235.10426 3.2460958,236.83653 4.7637323,238.09034 C 6.2814025,239.34416 8.3992051,239.97543 11.117146,239.98417 L 11.117146,239.98417 z M 11.107589,242.95574 C 7.614457,242.9445 4.8873972,242.04808 2.9264013,240.26647 C 0.96544293,238.48487 -0.0099974997,236.02454 7.7120327e-05,232.88549 C 0.01016427,229.75603 0.99898755,227.31159 2.96655,225.55217 C 4.9341497,223.79279 7.6692966,222.91872 11.171999,222.92996 C 14.665152,222.94122 17.392227,223.83285 19.353233,225.60487 C 21.314243,227.37693 22.289714,229.82768 22.279649,232.95715 C 22.269552,236.0962 21.278306,238.5502 19.305906,240.31915 C 17.333512,242.08811 14.600742,242.96697 11.107589,242.95574 L 11.107589,242.95574 z M 22.000438,219.35598 L 0.97272017,217.12625 L 1.3042275,213.99993 L 17.620392,205.79812 C 17.9767,205.61457 18.310943,205.45753 18.62312,205.32701 C 18.935305,205.19652 19.22492,205.09731 19.491966,205.02937 L 2.447095,203.22198 L 2.7362178,200.49537 L 23.763936,202.72509 L 23.435456,205.82286 L 6.8824539,214.2161 C 6.6283987,214.34315 6.366073,214.45728 6.0954761,214.55851 C 5.8249106,214.65975 5.5408109,214.75233 5.2431761,214.83625 L 22.288048,216.64365 L 22.000438,219.35598 z M 16.642188,192.85338 L 17.949921,186.39529 L 8.1548911,187.75132 L 16.642188,192.85338 z M 24.039255,200.5908 L 4.8727417,188.69785 L 5.5023909,185.5884 L 27.791508,182.06074 L 27.173256,185.1139 L 20.53804,186.05521 L 18.885567,194.21575 L 24.629017,197.67833 L 24.039255,200.5908 z M 28.462683,179.98549 L 8.1492889,174.11159 L 8.9548061,171.32591 L 26.703169,176.45809 L 29.630147,166.33587 L 32.195178,167.07758 L 28.462683,179.98549 z M 26.778329,151.21607 C 29.261365,152.29773 31.451994,152.57087 33.350223,152.03549 C 35.248454,151.50013 36.639022,150.21905 37.521932,148.19225 C 38.401014,146.17426 38.388315,144.29233 37.483835,142.54646 C 36.579351,140.80062 34.885596,139.38687 32.402565,138.30519 C 29.910766,137.21973 27.719855,136.94125 25.829825,137.46974 C 23.939813,137.99827 22.55526,139.27153 21.676163,141.28952 C 20.793269,143.31632 20.799952,145.20607 21.696212,146.95877 C 22.592498,148.7115 24.286536,150.1306 26.778329,151.21607 L 26.778329,151.21607 z M 25.591564,153.94038 C 22.389082,152.54532 20.240813,150.64128 19.146751,148.22826 C 18.052721,145.81526 18.132524,143.16982 19.38616,140.29195 C 20.636004,137.42289 22.512838,135.57072 25.016666,134.73543 C 27.520514,133.90019 30.378066,134.18201 33.589331,135.58087 C 36.791824,136.97597 38.942003,138.87562 40.039877,141.27984 C 41.137739,143.68409 41.061759,146.32075 39.811935,149.18982 C 38.558279,152.06769 36.675429,153.92768 34.163381,154.7698 C 31.651334,155.61193 28.794065,155.33546 25.591564,153.94038 L 25.591564,153.94038 z M 45.406207,119.83682 L 46.775582,117.41178 C 48.956106,118.78598 50.309798,120.55879 50.836662,122.73019 C 51.363513,124.90163 50.991665,127.11236 49.721119,129.36239 C 48.257625,131.9541 46.227252,133.48658 43.629992,133.95981 C 41.032733,134.43305 38.171579,133.78734 35.046522,132.02268 C 32.163152,130.3945 30.308814,128.33075 29.483504,125.83142 C 28.658222,123.33213 28.984376,120.77412 30.461968,118.15739 C 31.638419,116.07404 33.139429,114.67129 34.965004,113.94912 C 36.790597,113.227 38.691392,113.28644 40.667395,114.12747 L 39.283903,116.57751 C 37.935461,116.12383 36.687097,116.14978 35.538808,116.65537 C 34.390536,117.16101 33.421113,118.11382 32.630536,119.51383 C 31.576459,121.38054 31.413012,123.19788 32.140195,124.96585 C 32.8674,126.73385 34.422682,128.29077 36.806046,129.6366 C 39.056088,130.90716 41.162628,131.39053 43.12567,131.08671 C 45.088714,130.78291 46.569046,129.74765 47.566668,127.98095 C 48.418405,126.4726 48.647275,124.97247 48.253279,123.48054 C 47.859273,121.98864 46.910251,120.77407 45.406207,119.83682 L 45.406207,119.83682 z M 55.510098,118.45085 L 38.147624,106.381 L 46.751382,94.004495 L 48.90843,95.504007 L 41.927096,105.54666 L 47.113442,109.15204 L 53.562164,99.875556 L 55.589554,101.28493 L 49.140832,110.56142 L 54.963685,114.60928 L 62.084319,104.36625 L 64.253155,105.87396 L 55.510098,118.45085 z M 62.05866,94.629266 L 66.279889,89.569794 L 57.018239,86.105221 L 62.05866,94.629266 z M 64.886882,104.95329 L 53.680802,85.377253 L 55.713245,82.941211 L 76.998773,90.436242 L 75.003116,92.828193 L 68.718411,90.501259 L 63.384397,96.894492 L 66.790573,102.67157 L 64.886882,104.95329 z M 78.490541,88.885558 L 63.586728,73.885126 L 65.816935,71.669284 L 83.649506,75.604545 C 84.041734,75.687034 84.400111,75.776167 84.724638,75.871942 C 85.049149,75.967747 85.336416,76.073568 85.586439,76.189405 L 73.505548,64.030194 L 75.450614,62.097657 L 90.354427,77.098089 L 88.144587,79.293695 L 70.007492,75.35745 C 69.730241,75.295664 69.454724,75.218642 69.18094,75.126384 C 68.907172,75.034157 68.628369,74.926672 68.344532,74.803928 L 80.425423,86.963139 L 78.490541,88.885558 z M 93.848672,74.169106 L 79.986557,58.201064 L 82.154655,56.318903 L 96.01677,72.286946 L 93.848672,74.169106 z M 106.53528,53.992169 L 108.75552,52.310938 C 110.21045,54.438449 110.74824,56.603187 110.36889,58.805161 C 109.98951,61.007157 108.76982,62.888102 106.70982,64.447999 C 104.33698,66.244783 101.86483,66.844282 99.293387,66.246499 C 96.721933,65.648725 94.35294,63.919269 92.186402,61.058128 C 90.18742,58.418266 89.30582,55.787598 89.541599,53.166117 C 89.777394,50.54467 91.093148,48.326883 93.488865,46.512749 C 95.396291,45.068418 97.331113,44.377606 99.293337,44.440311 C 101.25555,44.503068 102.97622,45.312926 104.45533,46.869887 L 102.2122,48.56845 C 101.15506,47.616306 99.999177,47.144072 98.744533,47.151747 C 97.489888,47.159469 96.221672,47.648622 94.939882,48.619207 C 93.230835,49.913371 92.358704,51.516128 92.323488,53.427483 C 92.288282,55.338872 93.096847,57.385603 94.749187,59.567683 C 96.309093,61.627709 98.050112,62.908337 99.972248,63.40957 C 101.89438,63.910817 103.66419,63.549031 105.28169,62.32421 C 106.66266,61.278505 107.46878,59.992832 107.70006,58.467188 C 107.93131,56.941569 107.54306,55.449897 106.53528,53.992169 L 106.53528,53.992169 z M 122.05674,42.901278 L 127.78428,39.64362 L 120.32599,33.150911 L 122.05674,42.901278 z M 121.08453,53.561444 L 117.45585,31.298692 L 120.21355,29.73019 L 137.51845,44.214306 L 134.81066,45.754419 L 129.74123,41.371147 L 122.50382,45.487578 L 123.66754,52.092304 L 121.08453,53.561444 z M 139.45961,43.285452 L 130.78116,24.002791 L 133.64803,22.712512 L 148.95857,32.666122 C 149.29675,32.881245 149.60091,33.090685 149.87105,33.294443 C 150.14116,33.498223 150.37288,33.698286 150.56621,33.894631 L 143.53154,18.264287 L 146.03187,17.138974 L 154.71033,36.421635 L 151.86964,37.700131 L 136.27436,27.638535 C 136.03654,27.483217 135.80569,27.314246 135.58182,27.131621 C 135.35795,26.94903 135.13474,26.750386 134.91218,26.535687 L 141.94686,42.166031 L 139.45961,43.285452 z M 160.36888,14.572549 L 155.68665,16.142056 L 160.81036,31.427356 L 165.49259,29.85785 C 167.49795,29.185645 168.79508,28.02662 169.38399,26.380771 C 169.97286,24.73494 169.83995,22.637113 168.98525,20.087281 C 168.16703,17.646369 167.01869,15.952006 165.54022,15.004185 C 164.06173,14.056405 162.33795,13.912527 160.36888,14.572549 L 160.36888,14.572549 z M 158.90939,34.789864 L 152.1888,14.740668 L 159.82464,12.181094 C 162.61945,11.244281 165.0385,11.362021 167.08179,12.534315 C 169.12506,13.706654 170.67443,15.867165 171.72991,19.015853 C 172.82186,22.273464 172.90222,25.065182 171.97099,27.391017 C 171.03973,29.716868 169.19485,31.342124 166.43634,32.266791 L 158.90939,34.789864 z M 188.52705,17.144643 L 194.99561,15.889752 L 190.00539,7.3528256 L 188.52705,17.144643 z M 184.19673,26.934062 L 187.87832,4.6799971 L 190.99281,4.0757901 L 202.75685,23.333425 L 199.69873,23.926696 L 196.29732,18.152396 L 188.12354,19.738098 L 187.11393,26.36813 L 184.19673,26.934062 z M 209.56828,22.646047 L 207.56787,4.1780944 L 200.93139,4.8969423 L 200.65468,2.3422565 L 216.79629,0.59383279 L 217.07301,3.1485186 L 210.43654,3.8673666 L 212.43695,22.335319 L 209.56828,22.646047 z M 224.04508,3.3335841 L 224.25875,21.34843 L 221.61753,21.379757 L 221.36674,0.23563952 L 225.47212,0.18694582 L 230.90337,16.302277 C 231.06193,16.759808 231.1786,17.114943 231.25339,17.367683 C 231.32816,17.620431 231.38582,17.842272 231.42638,18.033207 C 231.49873,17.678226 231.57154,17.361521 231.64482,17.083089 C 231.71807,16.804666 231.79629,16.540536 231.87948,16.290699 L 237.11358,0.048866837 L 241.23331,2.8870895e-06 L 241.4841,21.144121 L 238.69934,21.177151 L 238.48566,3.1623049 C 238.42229,3.4693458 238.34939,3.7788744 238.26697,4.0908916 C 238.18452,4.4029434 238.09727,4.7126423 238.00522,5.0199891 L 232.75659,21.247637 L 230.0436,21.279816 L 224.54074,5.1796908 C 224.44186,4.9128925 224.35233,4.6268251 224.27214,4.3214879 C 224.19195,4.0161849 224.11626,3.6868839 224.04508,3.3335841 L 224.04508,3.3335841 z M 249.1065,11.081766 C 248.84164,13.77719 249.25604,15.945538 250.34971,17.586815 C 251.44337,19.228099 253.09027,20.156835 255.29043,20.373024 C 257.48103,20.58828 259.26769,19.996933 260.65039,18.598981 C 262.03306,17.201034 262.85684,15.154353 263.12171,12.45893 C 263.38749,9.7539997 262.97808,7.5837391 261.89349,5.9481414 C 260.80886,4.3125742 259.17125,3.3871556 256.98065,3.1718829 C 254.78049,2.9557103 252.98454,3.5437406 251.59281,4.9359754 C 250.20105,6.3282427 249.37229,8.3768376 249.1065,11.081766 L 249.1065,11.081766 z M 246.14916,10.791172 C 246.49076,7.3147647 247.64111,4.6847243 249.60022,2.9010428 C 251.55932,1.1173979 254.10089,0.37905228 257.22491,0.68600372 C 260.33939,0.99206022 262.67933,2.2076683 264.24475,4.3328318 C 265.81013,6.4580289 266.42157,9.2635901 266.07905,12.749524 C 265.73743,16.22595 264.59184,18.856458 262.64227,20.641057 C 260.69267,22.425656 258.16064,23.164938 255.04616,22.858904 C 251.92213,22.55193 249.5729,21.333005 247.99845,19.202124 C 246.42398,17.071248 245.80756,14.2676 246.14916,10.791172 L 246.14916,10.791172 z M 269.03351,16.898054 L 271.75087,17.438644 C 271.48025,18.94607 271.74199,20.242266 272.53609,21.327236 C 273.33018,22.41221 274.53914,23.116219 276.163,23.439265 C 277.76805,23.758577 279.10009,23.672289 280.15911,23.180401 C 281.2181,22.688515 281.86337,21.860616 282.09494,20.696705 C 282.4105,19.110412 280.91397,17.55881 277.60535,16.041895 C 277.40818,15.953889 277.25608,15.8846 277.14905,15.834025 C 274.46571,14.607405 272.75285,13.49334 272.01046,12.491826 C 271.26807,11.490334 271.04719,10.23398 271.34783,8.7227607 C 271.71569,6.8736619 272.68701,5.5227169 274.2618,4.6699216 C 275.83657,3.817164 277.74563,3.6139204 279.98899,4.0601902 C 282.27925,4.5158355 283.96425,5.4633551 285.04401,6.9027518 C 286.12374,8.3421816 286.46852,10.091562 286.07837,12.150899 L 283.38638,11.629991 C 283.56886,10.222148 283.30914,9.0629632 282.6072,8.1524328 C 281.90524,7.241933 280.81744,6.6400909 279.34379,6.3469047 C 277.96398,6.0724259 276.80086,6.1557261 275.85443,6.5968056 C 274.90798,7.0379188 274.33486,7.7606374 274.13506,8.7649636 C 273.81574,10.370046 275.28598,11.90666 278.54577,13.374808 C 279.02835,13.597676 279.39921,13.769034 279.65835,13.888881 C 279.71279,13.909481 279.80668,13.952554 279.94002,14.018099 C 282.06752,14.997553 283.43573,15.869851 284.04464,16.634995 C 284.50505,17.214492 284.814,17.868743 284.97148,18.59775 C 285.12893,19.326767 285.1255,20.104273 284.96119,20.93027 C 284.56343,22.929568 283.53121,24.378173 281.86453,25.276091 C 280.19781,26.174005 278.14423,26.380211 275.70378,25.89471 C 273.18823,25.394267 271.35534,24.368538 270.2051,22.81752 C 269.05486,21.266505 268.66433,19.293351 269.03351,16.898054 L 269.03351,16.898054 z M 293.21983,17.636473 L 297.84813,18.994553 C 299.45516,19.466116 300.65325,19.538404 301.44239,19.211416 C 302.2315,18.884443 302.80929,18.0965 303.17578,16.847585 C 303.52875,15.644605 303.46523,14.688428 302.9852,13.979049 C 302.50514,13.269696 301.52588,12.698098 300.04741,12.264252 L 295.21249,10.845544 L 293.21983,17.636473 z M 287.2354,27.83408 L 293.18913,7.5439411 L 300.65502,9.7346539 C 301.86718,10.090359 302.77257,10.420856 303.37119,10.726148 C 303.96978,11.031473 304.47661,11.394628 304.89168,11.815615 C 305.5861,12.508117 306.02438,13.359822 306.20651,14.37073 C 306.3886,15.381664 306.30585,16.479436 305.95827,17.66405 C 305.62681,18.793584 305.11405,19.725283 304.41999,20.459149 C 303.72589,21.193029 302.88097,21.693141 301.88524,21.959488 C 301.31229,22.110539 300.67934,22.151717 299.98639,22.08302 C 299.2934,22.014333 298.1939,21.75903 296.68788,21.317109 L 292.50037,20.08837 L 289.99034,28.642461 L 287.2354,27.83408 z M 304.99707,33.203495 L 312.8366,13.564798 L 315.50309,14.629229 L 312.28319,22.69536 L 322.46918,26.761484 L 325.68908,18.695353 L 328.3689,19.765106 L 320.52937,39.403802 L 317.84955,38.334049 L 321.52183,29.13466 L 311.33584,25.068536 L 307.66356,34.267925 L 304.99707,33.203495 z M 324.62921,41.335828 L 334.29018,22.526198 L 347.69827,29.41284 L 346.49803,31.749678 L 335.61832,26.16166 L 332.73249,31.780287 L 342.78217,36.941989 L 341.65407,39.138361 L 331.60439,33.976659 L 328.36439,40.284845 L 339.46118,45.984361 L 338.25438,48.333968 L 324.62921,41.335828 z M 353.61369,35.825883 L 349.78008,41.877119 L 353.92742,44.504561 C 355.42303,45.452082 356.63373,45.879212 357.55951,45.785951 C 358.48526,45.692697 359.30666,45.080155 360.02372,43.948323 C 360.69465,42.889262 360.87736,41.957066 360.57188,41.151733 C 360.26635,40.346416 359.3294,39.446947 357.76103,38.453325 L 353.61369,35.825883 z M 352.56593,32.222174 L 359.49029,36.608926 C 360.61402,37.320856 361.40992,37.893059 361.87802,38.325534 C 362.34607,38.75803 362.7186,39.220621 362.99561,39.713306 C 363.48623,40.601943 363.69457,41.538302 363.62061,42.522386 C 363.54661,43.506482 363.19463,44.495723 362.56469,45.49011 C 361.95518,46.452166 361.22789,47.144158 360.38282,47.566087 C 359.5377,47.988019 358.58397,48.134366 357.52162,48.005127 C 358.09394,48.639622 358.38169,49.280748 358.38485,49.928507 C 358.38798,50.576264 358.07765,51.472935 357.45388,52.618523 L 355.79317,55.695921 C 355.43408,56.352112 355.21861,56.87553 355.14674,57.266177 C 355.07485,57.656808 355.12325,57.996189 355.29194,58.284324 L 354.97695,58.781519 L 352.17568,57.006844 C 352.1849,56.491542 352.53174,55.595348 353.2162,54.318258 C 353.23668,54.285915 353.25204,54.261662 353.2623,54.245498 L 354.59183,51.824976 C 355.26899,50.577253 355.50601,49.63981 355.3029,49.012642 C 355.09977,48.385474 354.14125,47.528989 352.42735,46.443183 L 348.4983,43.954028 L 343.65059,51.605992 L 341.2495,50.084842 L 352.56593,32.222174 z M 357.6041,60.846305 L 370.03357,43.739438 L 372.3563,45.427078 L 359.92683,62.533945 L 357.6041,60.846305 z M 380.12241,68.655047 L 382.26111,70.43885 C 380.5166,72.336168 378.52896,73.348378 376.29816,73.475484 C 374.06734,73.602571 371.95976,72.838583 369.9754,71.183518 C 367.6897,69.277112 366.54803,67.003903 366.55039,64.363884 C 366.55274,61.723864 367.70327,59.025824 370.00199,56.269757 C 372.12293,53.72684 374.48695,52.274583 377.09405,51.91298 C 379.70113,51.551402 382.15854,52.333001 384.46631,54.257779 C 386.30366,55.790264 387.41309,57.519403 387.7946,59.445202 C 388.17606,61.371009 387.77519,63.230003 386.59198,65.022189 L 384.43123,63.219997 C 385.12039,61.975334 385.31973,60.742715 385.02925,59.522137 C 384.73873,58.301566 383.97612,57.176368 382.74143,56.146537 C 381.09512,54.773447 379.33695,54.285313 377.46691,54.682131 C 375.59684,55.078968 373.78523,56.328359 372.03209,58.430309 C 370.37701,60.414677 369.52209,62.399688 369.46734,64.385348 C 369.41256,66.371007 370.16423,68.013606 371.72233,69.31315 C 373.05258,70.422656 374.48695,70.918004 376.02544,70.799197 C 377.56391,70.680375 378.92956,69.965659 380.12241,68.655047 L 380.12241,68.655047 z M 394.42772,81.267937 L 398.89633,86.110313 L 403.53402,77.376861 L 394.42772,81.267937 z M 383.82389,82.731844 L 404.68913,74.162184 L 406.84068,76.493699 L 396.64557,96.625983 L 394.53296,94.336667 L 397.65615,88.407263 L 392.00955,82.288356 L 385.83914,84.915661 L 383.82389,82.731844 z M 417.60362,93.174735 L 414.60389,89.251953 L 401.79783,99.044686 L 404.79756,102.96747 C 406.08232,104.64757 407.59863,105.50003 409.34648,105.52487 C 411.09432,105.5497 413.03636,104.74532 415.17262,103.11176 C 417.21762,101.54794 418.44941,99.91324 418.86802,98.207658 C 419.28658,96.502074 418.86511,94.824434 417.60362,93.174735 L 417.60362,93.174735 z M 398.00118,98.333626 L 414.79844,85.488839 L 419.69045,91.886167 C 421.48096,94.227675 422.15207,96.55475 421.70377,98.867396 C 421.25542,101.18004 419.71226,103.34499 417.07429,105.36226 C 414.34505,107.44927 411.72942,108.42838 409.2274,108.29958 C 406.72536,108.17076 404.5907,106.95081 402.82342,104.63973 L 398.00118,98.333626 z M 427.28467,107.83365 L 411.89502,117.20056 L 410.52171,114.94423 L 428.58462,103.95023 L 430.71923,107.45736 L 419.62344,120.34479 C 419.31064,120.71443 419.06458,120.99583 418.88527,121.18901 C 418.70594,121.38217 418.54448,121.54487 418.40089,121.67709 C 418.74317,121.55838 419.05275,121.45958 419.32965,121.38069 C 419.60652,121.30179 419.87363,121.23444 420.13097,121.17866 L 436.77227,117.40238 L 438.91435,120.92176 L 420.85144,131.91576 L 419.40348,129.5368 L 434.79313,120.16989 C 434.49667,120.27188 434.19322,120.36695 433.88277,120.45509 C 433.57227,120.54322 433.26136,120.62603 432.95002,120.70351 L 416.31352,124.46006 L 414.90289,122.14242 L 425.94909,109.20113 C 426.12822,108.98006 426.32869,108.75721 426.5505,108.53258 C 426.77228,108.30796 427.017,108.07498 427.28467,107.83365 L 427.28467,107.83365 z M 422.81428,136.08595 L 441.65363,126.48306 L 442.95748,129.04102 L 424.11813,138.64391 L 422.81428,136.08595 z M 426.29164,142.73356 L 445.74028,134.43374 L 446.97427,137.32529 L 436.72324,152.43831 C 436.50154,152.77222 436.2862,153.07223 436.0772,153.33833 C 435.86817,153.6044 435.66362,153.83217 435.46353,154.02163 L 451.22842,147.29387 L 452.30463,149.81573 L 432.85599,158.11555 L 431.63328,155.2504 L 441.99784,139.85482 C 442.15778,139.62007 442.33123,139.39257 442.5182,139.17232 C 442.70513,138.95206 442.9081,138.73278 443.12711,138.51445 L 427.36222,145.24221 L 426.29164,142.73356 z M 434.28033,162.44704 L 454.24923,155.49151 L 455.19364,158.20284 L 435.22473,165.15837 L 434.28033,162.44704 z M 443.23535,166.73254 L 443.97992,169.40122 C 442.51271,169.84038 441.47434,170.65917 440.8648,171.85759 C 440.25526,173.05601 440.17296,174.4526 440.61791,176.04736 C 441.0577,177.62367 441.73612,178.77324 442.65318,179.49607 C 443.57022,180.21888 444.60027,180.42083 445.74334,180.10192 C 447.30122,179.66726 448.00996,177.63139 447.86956,173.99432 C 447.85906,173.77865 447.85221,173.61165 447.84901,173.49333 C 447.73192,170.54524 447.95258,168.5139 448.511,167.3993 C 449.0694,166.28469 450.09067,165.52035 451.57482,165.10627 C 453.3908,164.59961 455.03476,164.85631 456.50672,165.87639 C 457.97863,166.89648 459.02194,168.5081 459.63666,170.71126 C 460.26418,172.96051 460.17955,174.8918 459.38275,176.50514 C 458.5859,178.11846 457.18067,179.21596 455.16704,179.79766 L 454.41635,177.16049 C 455.75492,176.68766 456.67195,175.93253 457.16745,174.8951 C 457.66291,173.85766 457.70876,172.61532 457.30499,171.16806 C 456.92689,169.81297 456.32741,168.81277 455.50652,168.16746 C 454.6856,167.52214 453.78197,167.33708 452.79563,167.61228 C 451.2193,168.05207 450.51206,170.05771 450.67392,173.6292 C 450.69295,174.16041 450.70751,174.56869 450.71758,174.85403 C 450.72378,174.9119 450.72774,175.01512 450.72946,175.16369 C 450.81612,177.50422 450.65556,179.11888 450.24778,180.00766 C 449.9386,180.68012 449.49433,181.25119 448.91496,181.72086 C 448.33558,182.1905 447.64029,182.53849 446.82909,182.76484 C 444.8656,183.31264 443.107,183.04569 441.55329,181.96399 C 439.99957,180.88225 438.88836,179.14302 438.21966,176.74629 C 437.53038,174.27579 437.61803,172.17724 438.4826,170.45062 C 439.34717,168.72399 440.93142,167.48463 443.23535,166.73254 L 443.23535,166.73254 z M 442.53647,192.50037 L 460.78761,189.04166 L 459.54472,182.48309 L 462.06941,182.00465 L 465.09244,197.95677 L 462.56775,198.43521 L 461.32486,191.87665 L 443.07372,195.33536 L 442.53647,192.50037 z M 463.50745,205.32512 L 456.38111,206.05256 L 456.87967,210.93675 C 457.05945,212.6981 457.47215,213.91379 458.11776,214.58383 C 458.76334,215.25385 459.7526,215.52084 461.08553,215.38479 C 462.33274,215.25746 463.17843,214.82482 463.6226,214.08685 C 464.06674,213.34885 464.19454,212.05634 464.00602,210.20931 L 463.50745,205.32512 z M 465.69238,202.2738 L 466.52478,210.42839 C 466.65985,211.75178 466.7021,212.73112 466.65153,213.36641 C 466.60091,214.00167 466.46759,214.58046 466.25157,215.10276 C 465.85637,216.03775 465.24915,216.78035 464.42991,217.33057 C 463.61063,217.88075 462.61547,218.21562 461.44442,218.33518 C 460.31143,218.45081 459.3179,218.30692 458.46384,217.9035 C 457.60975,217.50004 456.90513,216.84084 456.34999,215.9259 C 456.20505,216.768 455.87899,217.39052 455.37178,217.79344 C 454.86456,218.19633 453.96791,218.50671 452.68183,218.72459 L 449.23627,219.32161 C 448.4985,219.44501 447.95387,219.59921 447.60239,219.78421 C 447.2509,219.96918 447.01405,220.21703 446.89185,220.52774 L 446.30631,220.58751 L 445.96956,217.28854 C 446.38031,216.97724 447.29916,216.69585 448.72612,216.44439 C 448.7642,216.44048 448.79276,216.43757 448.8118,216.43564 L 451.53631,215.98437 C 452.93567,215.74531 453.81906,215.3521 454.18647,214.80475 C 454.55387,214.25737 454.63456,212.97448 454.42853,210.95608 L 453.95621,206.32895 L 444.94473,207.24882 L 444.65609,204.42113 L 465.69238,202.2738 z M 455.24869,227.51983 L 455.33126,234.10847 L 464.62057,230.71875 L 455.24869,227.51983 z M 446.3872,221.51496 L 467.62955,229.10182 L 467.6693,232.27413 L 446.62411,240.41963 L 446.58508,237.30474 L 452.87292,234.98631 L 452.76859,226.6608 L 446.42444,224.48631 L 446.3872,221.51496 z M 446.09956,247.24495 L 464.63014,248.54287 L 465.09655,241.88389 L 467.6599,242.06344 L 466.52546,258.25979 L 463.96211,258.08025 L 464.42853,251.42127 L 445.89795,250.12334 L 446.09956,247.24495 z M 444.98769,259.3518 L 465.96291,262.03079 L 465.59916,264.87875 L 444.62395,262.19976 L 444.98769,259.3518 z M 454.0804,270.93267 C 451.42527,270.3981 449.22624,270.59237 447.48331,271.51545 C 445.74037,272.43852 444.65074,273.98369 444.2144,276.15096 C 443.77996,278.30881 444.18865,280.14588 445.44047,281.66215 C 446.6923,283.17838 448.64577,284.20379 451.3009,284.73836 C 453.96539,285.27479 456.16582,285.08569 457.90219,284.17107 C 459.63853,283.2564 460.72393,281.72015 461.15839,279.56229 C 461.59471,277.39502 461.19025,275.54905 459.94502,274.02437 C 458.69976,272.49967 456.74489,271.4691 454.0804,270.93267 L 454.0804,270.93267 z M 454.6669,268.01954 C 458.09134,268.70898 460.59237,270.11797 462.17001,272.24651 C 463.74761,274.37504 464.22665,276.97797 463.60711,280.05529 C 462.98942,283.12321 461.54468,285.32905 459.27288,286.67284 C 457.00104,288.01658 454.14822,288.3428 450.7144,287.65149 C 447.28994,286.96202 444.78796,285.55772 443.20845,283.43859 C 441.62894,281.31941 441.14802,278.72587 441.76568,275.65795 C 442.38524,272.58063 443.83422,270.36588 446.11262,269.01368 C 448.39102,267.66147 451.24244,267.33009 454.6669,268.01954 L 454.6669,268.01954 z M 439.39027,289.05283 L 459.57361,295.35912 L 458.63601,298.3599 L 441.02915,303.20607 C 440.64379,303.31626 440.28526,303.40477 439.95356,303.47159 C 439.62186,303.53839 439.31842,303.57894 439.04324,303.59324 L 455.40366,308.70507 L 454.58594,311.32219 L 434.4026,305.01589 L 435.33163,302.04251 L 453.20825,297.05503 C 453.48227,296.98022 453.76187,296.91969 454.04706,296.87344 C 454.33222,296.82718 454.62895,296.79205 454.93726,296.76807 L 438.57683,291.65624 L 439.39027,289.05283 z" font-size="29.4" font-stretch="normal" font-style="normal" font-variant="normal" font-weight="normal" text-anchor="middle" writing-mode="lr-tb"/><path font-family="Swis721 BT" style="text-align:center;line-height:125%;-inkscape-font-specification:Swis721 BT" id="text4682" fill="#263f78" fill-opacity="1" stroke="none" stroke-linecap="butt" stroke-linejoin="miter" stroke-opacity="1" stroke-width="1" d="M 35.524733,341.7269 L 46.804539,335.02436 L 48.271176,337.49259 L 36.966687,344.20979 C 35.263602,345.22177 34.228468,346.34616 33.861283,347.58296 C 33.494086,348.81976 33.779814,350.22799 34.718468,351.80766 C 35.64733,353.37086 36.753744,354.29144 38.037711,354.56939 C 39.321658,354.84732 40.802834,354.48764 42.481243,353.49033 L 53.785732,346.77313 L 55.259702,349.25371 L 43.979896,355.95624 C 41.544562,357.40331 39.32885,357.87105 37.332752,357.35948 C 35.336634,356.84788 33.61504,355.37443 32.167964,352.93912 C 30.818654,350.66834 30.423732,348.59861 30.983197,346.72991 C 31.542654,344.8612 33.056498,343.19353 35.524733,341.7269 L 35.524733,341.7269 z M 40.210369,364.54063 L 42.850542,362.73021 L 44.514828,365.15728 L 41.874655,366.96769 L 40.210369,364.54063 z M 49.918987,366.52436 L 51.621862,368.70988 C 50.431618,369.67366 49.782309,370.82563 49.673934,372.16578 C 49.565547,373.50593 50.02016,374.82902 51.037774,376.13505 C 52.043608,377.42596 53.107997,378.23147 54.230943,378.55157 C 55.353868,378.87165 56.38339,378.66701 57.319513,377.93763 C 58.595325,376.94355 58.477214,374.79108 56.965179,371.48023 C 56.873505,371.28473 56.803706,371.13287 56.755782,371.02463 C 55.527131,368.34222 54.959281,366.37942 55.052228,365.13622 C 55.145153,363.89304 55.799337,362.79793 57.014782,361.85091 C 58.501974,360.69214 60.120157,360.30484 61.869338,360.68901 C 63.618481,361.0732 65.195975,362.16743 66.601824,363.9717 C 68.037038,365.81372 68.692688,367.63228 68.568777,369.42739 C 68.444816,371.22249 67.562085,372.77168 65.920583,374.07497 L 64.224031,371.92093 C 65.28248,370.97488 65.843745,369.92791 65.907828,368.78001 C 65.971866,367.63212 65.54215,366.46555 64.618678,365.28031 C 63.753986,364.17057 62.819373,363.47323 61.814838,363.18829 C 60.810266,362.90336 59.904103,363.07558 59.096347,363.70496 C 57.805408,364.71081 57.913422,366.83475 59.42039,370.07678 C 59.639868,370.5609 59.808483,370.93302 59.926236,371.19312 C 59.953963,371.2443 59.996852,371.33827 60.054904,371.47504 C 61.024523,373.60705 61.489618,375.16158 61.450189,376.13865 C 61.419753,376.87815 61.225831,377.57521 60.868421,378.22982 C 60.510977,378.88441 60.000096,379.47052 59.335776,379.98816 C 57.727767,381.24104 55.999656,381.66242 54.151436,381.25232 C 52.303195,380.84219 50.614405,379.65573 49.08506,377.69293 C 47.508647,375.66972 46.792218,373.6953 46.93577,371.76966 C 47.079315,369.84401 48.07372,368.09558 49.918987,366.52436 L 49.918987,366.52436 z M 57.625507,387.1816 L 60.026666,385.0644 L 61.972976,387.27174 L 59.571817,389.38895 L 57.625507,387.1816 z M 87.814164,391.48639 L 84.188572,388.13353 L 73.243029,399.9694 L 76.868621,403.32227 C 78.421432,404.75827 80.061046,405.33927 81.78747,405.06525 C 83.513865,404.79121 85.290009,403.667 87.115908,401.6926 C 88.863795,399.80251 89.798326,397.98146 89.919505,396.22945 C 90.040638,394.47744 89.338859,392.89642 87.814164,391.48639 L 87.814164,391.48639 z M 69.38072,399.91718 L 83.737608,384.39247 L 89.650275,389.86037 C 91.814364,391.8617 92.873026,394.03998 92.826262,396.39521 C 92.779449,398.75045 91.628688,401.14713 89.373976,403.58528 C 87.041246,406.10773 84.631256,407.51914 82.143997,407.81953 C 79.656709,408.1199 77.345069,407.28242 75.209071,405.3071 L 69.38072,399.91718 z M 85.393177,414.35025 L 98.341712,397.63283 L 110.2584,406.86294 L 108.64972,408.93985 L 98.980182,401.45027 L 95.112324,406.44394 L 104.04416,413.36213 L 102.53218,415.3142 L 93.600343,408.396 L 89.257793,414.00252 L 99.120275,421.64154 L 97.502807,423.7298 L 85.393177,414.35025 z M 109.64081,418.08943 L 113.68527,420.71772 C 115.08958,421.63032 116.21662,422.04315 117.06639,421.95619 C 117.91612,421.86925 118.6956,421.28009 119.40484,420.18872 C 120.08797,419.13749 120.30131,418.20326 120.04488,417.38602 C 119.7884,416.56879 119.01418,415.74038 117.72222,414.90078 L 113.4972,412.15515 L 109.64081,418.08943 z M 100.98339,426.1426 L 112.50562,408.41198 L 119.02972,412.65166 C 120.08896,413.34004 120.86155,413.91629 121.34748,414.38043 C 121.83337,414.84458 122.21477,415.33783 122.49168,415.86016 C 122.95836,416.72272 123.13398,417.66434 123.01857,418.68501 C 122.9031,419.70571 122.50903,420.73364 121.83633,421.76883 C 121.19488,422.75587 120.43648,423.50139 119.56112,424.0054 C 118.68571,424.50941 117.73287,424.74623 116.70258,424.71584 C 116.11038,424.69625 115.4922,424.55419 114.84805,424.28966 C 114.20387,424.02513 113.22376,423.46525 111.90772,422.61001 L 108.24845,420.23203 L 103.3908,427.70706 L 100.98339,426.1426 z M 124.77155,430.53065 L 130.57502,433.65103 L 132.11109,423.88261 L 124.77155,430.53065 z M 115.22481,435.37257 L 132.1547,420.46699 L 134.94896,421.96939 L 131.8766,444.32582 L 129.13291,442.8506 L 130.1517,436.22684 L 122.81834,432.28388 L 117.84207,436.7798 L 115.22481,435.37257 z M 144.55047,429.51947 L 141.7084,436.09493 L 146.21502,438.0428 C 147.84021,438.74525 149.10273,438.97817 150.00261,438.74154 C 150.90246,438.50493 151.61818,437.77168 152.14978,436.5418 C 152.64717,435.39099 152.68214,434.4417 152.25469,433.69393 C 151.8272,432.94617 150.76134,432.20398 149.0571,431.46734 L 144.55047,429.51947 z M 142.95305,426.12348 L 150.47727,429.37563 C 151.69835,429.90343 152.57381,430.34438 153.10368,430.69849 C 153.6335,431.05263 154.07367,431.4514 154.42419,431.89481 C 155.04751,432.69597 155.39944,433.58833 155.48,434.5719 C 155.56052,435.55548 155.36727,436.58754 154.90026,437.66806 C 154.44839,438.71347 153.83803,439.5105 153.06917,440.05917 C 152.30028,440.60784 151.38108,440.90126 150.31157,440.93943 C 150.97592,441.47682 151.36021,442.06517 151.46445,442.70449 C 151.56865,443.34382 151.40209,444.27794 150.96478,445.50685 L 149.80478,448.80575 C 149.55251,449.50995 149.42138,450.06059 149.41138,450.45766 C 149.40134,450.85473 149.50212,451.1824 149.71372,451.44067 L 149.4802,451.98094 L 146.43625,450.66527 C 146.36492,450.15484 146.56763,449.21549 147.04436,447.84722 C 147.05953,447.81208 147.07092,447.78572 147.07853,447.76816 L 148.01395,445.16977 C 148.48804,443.83165 148.57583,442.8687 148.27732,442.28092 C 147.97878,441.69315 146.89832,440.99678 145.03595,440.1918 L 140.76651,438.34645 L 137.17263,446.66131 L 134.56353,445.53359 L 142.95305,426.12348 z M 157.71556,454.83108 L 163.67449,437.23682 L 157.35198,435.09547 L 158.17628,432.66164 L 173.55426,437.86995 L 172.72996,440.30378 L 166.40745,438.16243 L 160.44851,455.7567 L 157.71556,454.83108 z M 176.69433,441.98883 L 172.50718,459.51162 L 169.9381,458.89772 L 174.85259,438.33114 L 178.84583,439.28534 L 180.182,456.23872 C 180.22415,456.72111 180.25067,457.09398 180.26155,457.35733 C 180.27241,457.62068 180.27422,457.84988 180.26698,458.04494 C 180.42373,457.71833 180.57159,457.42896 180.71058,457.17681 C 180.84953,456.92467 180.98982,456.6876 181.13144,456.4656 L 190.16932,441.99115 L 194.17652,442.94869 L 189.26203,463.51527 L 186.55333,462.86802 L 190.74049,445.34523 C 190.60413,445.62754 190.45793,445.90993 190.30189,446.19242 C 190.14581,446.47493 189.98565,446.75399 189.82141,447.0296 L 180.77291,461.48675 L 178.13402,460.85618 L 176.7247,443.90008 C 176.69389,443.61722 176.67684,443.31795 176.67356,443.00228 C 176.67026,442.68664 176.67719,442.34882 176.69433,441.98883 L 176.69433,441.98883 z M 194.51025,464.36678 L 197.42974,443.42368 L 212.35862,445.50478 L 211.99592,448.10667 L 199.88219,446.41801 L 199.01011,452.67392 L 210.19967,454.23376 L 209.85877,456.67925 L 198.66921,455.11942 L 197.6901,462.1431 L 210.04553,463.86546 L 209.68085,466.48157 L 194.51025,464.36678 z M 213.86977,466.88225 L 214.93007,445.76325 L 218.06997,445.92089 L 227.16389,461.75716 C 227.36692,462.10274 227.54225,462.42776 227.68988,462.73222 C 227.83748,463.03669 227.9526,463.32035 228.03524,463.58322 L 228.89471,446.46435 L 231.63316,446.60184 L 230.57285,467.72085 L 227.46164,467.56464 L 218.16345,451.50252 C 218.0225,451.2559 217.894,451.00031 217.77792,450.73574 C 217.66184,450.4712 217.55365,450.19267 217.45335,449.90015 L 216.59388,467.01902 L 213.86977,466.88225 z M 240.50448,467.51723 L 239.89084,448.95139 L 233.21919,449.1719 L 233.1343,446.60368 L 249.36147,446.06733 L 249.44636,448.63556 L 242.77471,448.85607 L 243.38835,467.42191 L 240.50448,467.51723 z M 262.50882,455.36975 C 262.93476,458.04445 263.88445,460.03733 265.3579,461.34838 C 266.83134,462.65944 268.65968,463.14113 270.84292,462.79345 C 273.01669,462.44728 274.59551,461.42301 275.5794,459.72062 C 276.56325,458.01825 276.84222,455.82972 276.4163,453.15501 C 275.98884,450.47088 275.04349,448.47489 273.58027,447.16704 C 272.11701,445.85922 270.2985,445.37839 268.12473,445.72454 C 265.94149,446.07224 264.35284,447.09565 263.35877,448.79479 C 262.36469,450.49397 262.08138,452.68562 262.50882,455.36975 L 262.50882,455.36975 z M 259.57422,455.83708 C 259.02486,452.3874 259.47214,449.55184 260.91604,447.33041 C 262.35995,445.10901 264.6319,443.75146 267.7319,443.25777 C 270.82244,442.76563 273.39386,443.34946 275.44617,445.00924 C 277.49844,446.66908 278.80002,449.22855 279.3509,452.68768 C 279.90024,456.13739 279.45769,458.97219 278.02326,461.1921 C 276.58878,463.41202 274.32628,464.76805 271.23575,465.26022 C 268.13574,465.75389 265.55449,465.16921 263.492,463.50617 C 261.4295,461.84314 260.12358,459.28678 259.57422,455.83708 L 259.57422,455.83708 z M 285.29642,462.06121 L 280.12627,441.5574 L 293.89291,438.08607 L 294.54225,440.66122 L 283.55956,443.43057 L 285.11095,449.5831 L 294.70167,447.16475 L 295.33346,449.67031 L 285.74274,452.08866 L 288.08037,461.35922 L 285.29642,462.06121 z M 321.97489,442.12129 L 324.571,441.11319 C 325.38689,443.55807 325.31058,445.7873 324.34206,447.8009 C 323.37351,449.81451 321.68487,451.28899 319.27613,452.22433 C 316.50159,453.30172 313.95981,453.20047 311.65078,451.92059 C 309.34175,450.64072 307.53768,448.32804 306.23859,444.98254 C 305.03996,441.89578 304.91337,439.12421 305.85883,436.66782 C 306.8043,434.21147 308.67768,432.43939 311.47897,431.35159 C 313.70929,430.48555 315.75937,430.35167 317.62922,430.94994 C 319.49905,431.54827 320.93175,432.79884 321.92732,434.70166 L 319.30446,435.72015 C 318.54887,434.51466 317.56674,433.74362 316.35807,433.40702 C 315.14938,433.07047 313.79565,433.19318 312.29687,433.77515 C 310.2985,434.55117 309.02036,435.8534 308.46247,437.68187 C 307.90458,439.51036 308.12102,441.70035 309.1118,444.25183 C 310.04715,446.66059 311.37035,448.36948 313.08142,449.37849 C 314.79247,450.38751 316.59366,450.5248 318.48499,449.79038 C 320.09973,449.16335 321.22745,448.14795 321.86815,446.74418 C 322.50882,445.34042 322.5444,443.79946 321.97489,442.12129 L 321.97489,442.12129 z M 328.29253,436.38088 C 329.51326,438.79858 331.02507,440.40728 332.82796,441.20697 C 334.63084,442.00668 336.519,441.90831 338.49246,440.91187 C 340.45735,439.91976 341.64896,438.46309 342.06729,436.54186 C 342.4856,434.62064 342.08438,432.45119 340.86366,430.03348 C 339.6386,427.60727 338.12999,425.99428 336.33781,425.19452 C 334.54562,424.3948 332.66708,424.49099 330.70217,425.48308 C 328.72873,426.47954 327.52749,427.93838 327.09848,429.85963 C 326.66946,431.78092 327.06748,433.95466 328.29253,436.38088 L 328.29253,436.38088 z M 325.6399,437.72024 C 324.06546,434.60203 323.62739,431.76504 324.32569,429.20926 C 325.024,426.65351 326.77421,424.66821 329.57634,423.25334 C 332.36992,421.84283 334.99695,421.61531 337.45743,422.57076 C 339.91789,423.52626 341.93751,425.56738 343.51629,428.69412 C 345.09072,431.81236 345.53306,434.6472 344.84332,437.19864 C 344.15354,439.7501 342.41187,441.73109 339.6183,443.14162 C 336.81616,444.55647 334.17951,444.78617 331.70834,443.83073 C 329.23716,442.8753 327.21435,440.83847 325.6399,437.72024 L 325.6399,437.72024 z M 344.57579,419.33521 L 354.32356,434.48649 L 352.10218,435.91564 L 340.66116,418.13251 L 344.11396,415.91111 L 357.27409,426.68206 C 357.65141,426.98555 357.93886,427.22451 358.13645,427.39895 C 358.33403,427.57341 358.5007,427.73076 358.63646,427.87101 C 358.50925,427.5318 358.40276,427.22478 358.317,426.94994 C 358.23121,426.67512 358.15722,426.40977 358.09504,426.15389 L 353.90495,409.61194 L 357.36982,407.38277 L 368.81084,425.1659 L 366.46873,426.67273 L 356.72095,411.52145 C 356.8303,411.81528 356.93291,412.11627 357.02877,412.42442 C 357.12461,412.73262 357.21515,413.04138 357.30037,413.35069 L 361.47062,429.88833 L 359.18887,431.35632 L 345.97615,420.63628 C 345.75068,420.46272 345.5229,420.26787 345.29281,420.05172 C 345.06273,419.83561 344.82372,419.59678 344.57579,419.33521 L 344.57579,419.33521 z M 363.86671,406.37057 L 375.17959,420.39195 L 373.12387,422.05057 L 359.84588,405.59361 L 363.04119,403.01553 L 377.27818,412.31664 C 377.6858,412.57802 377.99717,412.78485 378.21229,412.93715 C 378.4274,413.08947 378.60995,413.22809 378.75994,413.353 C 378.59717,413.02935 378.45844,412.73548 378.34376,412.4714 C 378.22906,412.20733 378.12711,411.95142 378.0379,411.70367 L 372.10201,395.70498 L 375.3085,393.11789 L 388.58649,409.57485 L 386.41904,411.32361 L 375.10616,397.30224 C 375.24632,397.58267 375.38054,397.87096 375.50882,398.16709 C 375.63709,398.46327 375.76013,398.76056 375.87796,399.05898 L 381.79366,415.05551 L 379.68208,416.75921 L 365.39824,407.51434 C 365.1555,407.3659 364.90818,407.19654 364.65628,407.00626 C 364.4044,406.816 364.14121,406.60411 363.86671,406.37057 L 363.86671,406.37057 z M 392.47081,405.94483 L 377.69229,390.82093 L 388.47307,380.28635 L 390.3091,382.16529 L 381.56127,390.71335 L 385.97576,395.23101 L 394.05621,387.33509 L 395.78187,389.10108 L 387.70142,396.997 L 392.6577,402.0691 L 401.58007,393.35048 L 403.42613,395.23968 L 392.47081,405.94483 z M 394.02167,377.80617 L 399.44293,382.48847 L 402.65204,378.7729 C 403.80932,377.43299 404.40995,376.29833 404.45394,375.3689 C 404.49792,374.43951 404.01291,373.53691 402.99891,372.66111 C 402.05011,371.84165 401.15494,371.52375 400.31343,371.70741 C 399.47192,371.89111 398.44437,372.68551 397.23078,374.0906 L 394.02167,377.80617 z M 390.30301,378.31224 L 395.66092,372.10875 C 396.53045,371.10202 397.21354,370.39898 397.71019,369.99962 C 398.20685,369.6003 398.71922,369.2999 399.2473,369.0984 C 400.19846,368.74388 401.15528,368.67559 402.11777,368.89355 C 403.08027,369.11156 404.00695,369.60526 404.89781,370.37468 C 405.75971,371.11911 406.33715,371.94031 406.63014,372.83827 C 406.92312,373.73627 406.92753,374.70116 406.64338,375.73293 C 407.35518,375.2602 408.03167,375.06993 408.67284,375.16211 C 409.31401,375.25434 410.15526,375.69322 411.19659,376.47878 L 413.99612,378.57425 C 414.59232,379.02598 415.07834,379.31613 415.45416,379.44469 C 415.82996,379.57328 416.17277,379.57535 416.48259,379.4509 L 416.92802,379.83562 L 414.76046,382.34526 C 414.25213,382.26031 413.41673,381.78537 412.25426,380.92044 C 412.22528,380.89543 412.20355,380.87666 412.18907,380.86414 L 409.99053,379.1929 C 408.85604,378.33952 407.96367,377.96713 407.31345,378.07574 C 406.66321,378.18438 405.67501,379.00644 404.34883,380.5419 L 401.30861,384.06192 L 408.16395,389.98282 L 406.30605,392.13394 L 390.30301,378.31224 z M 421.6685,360.0503 L 423.29357,357.78862 C 425.31165,359.39189 426.46445,361.30144 426.75196,363.51728 C 427.03945,365.73314 426.4293,367.8903 424.92152,369.98875 C 423.18476,372.40587 420.99971,373.70836 418.36639,373.89622 C 415.73306,374.0841 412.95913,373.13096 410.0446,371.03679 C 407.35548,369.10459 405.73666,366.85136 405.18815,364.27708 C 404.63967,361.70284 405.24217,359.19549 406.99567,356.75504 C 408.39179,354.81205 410.03649,353.58091 411.9298,353.06163 C 413.82312,352.54241 415.70616,352.80829 417.57894,353.85929 L 415.93712,356.14428 C 414.64604,355.54659 413.40226,355.43658 412.20578,355.81425 C 411.00932,356.19196 409.94199,357.03366 409.0038,358.33935 C 407.7529,360.08031 407.39271,361.86908 407.92324,363.70567 C 408.45379,365.54229 409.83046,367.25916 412.05327,368.8563 C 414.15173,370.3641 416.19318,371.07377 418.17762,370.98532 C 420.16207,370.89687 421.74624,370.02881 422.93014,368.38112 C 423.94092,366.97439 424.33163,365.50806 424.10228,363.98212 C 423.87291,362.45622 423.06166,361.14561 421.6685,360.0503 L 421.6685,360.0503 z M 431.86785,358.83123 L 413.6771,348.05006 L 421.36225,335.08314 L 423.6222,336.42255 L 417.38625,346.94428 L 422.82001,350.16472 L 428.58021,340.44571 L 430.70432,341.70461 L 424.94412,351.42363 L 431.04475,355.0393 L 437.40512,344.30763 L 439.67742,345.65436 L 431.86785,358.83123 z" font-size="29.4" font-stretch="normal" font-style="normal" font-variant="normal" font-weight="normal" text-anchor="middle" writing-mode="lr-tb"/></svg>