<svg xmlns="http://www.w3.org/2000/svg" width="654" height="782" fill="none" viewBox="0 0 654 782"><g clip-path="url(#clip0)"><path fill="url(#paint0_linear)" fill-opacity=".1" d="M188.369 0V107.998C188.369 109.996 187.575 111.913 186.162 113.326C184.749 114.739 182.832 115.533 180.834 115.533H20.0926C18.0943 115.533 16.1778 114.739 14.7647 113.326C13.3517 111.913 12.5579 109.996 12.5579 107.998V0H15.0694V107.998C15.0694 109.33 15.5987 110.608 16.5407 111.55C17.4827 112.492 18.7604 113.021 20.0926 113.021H180.834C182.166 113.021 183.444 112.492 184.386 111.55C185.328 110.608 185.857 109.33 185.857 107.998V0H188.369ZM50.2316 41.4411H77.859C78.1921 41.4411 78.5115 41.5734 78.747 41.8089C78.9825 42.0444 79.1148 42.3638 79.1148 42.6969C79.1148 43.0299 78.9825 43.3494 78.747 43.5849C78.5115 43.8204 78.1921 43.9527 77.859 43.9527H50.2316C49.8985 43.9527 49.5791 43.8204 49.3436 43.5849C49.1081 43.3494 48.9758 43.0299 48.9758 42.6969C48.9758 42.3638 49.1081 42.0444 49.3436 41.8089C49.5791 41.5734 49.8985 41.4411 50.2316 41.4411ZM125.579 41.4411H165.764C166.097 41.4411 166.417 41.5734 166.652 41.8089C166.888 42.0444 167.02 42.3638 167.02 42.6969C167.02 43.0299 166.888 43.3494 166.652 43.5849C166.417 43.8204 166.097 43.9527 165.764 43.9527H125.579C125.246 43.9527 124.927 43.8204 124.691 43.5849C124.456 43.3494 124.323 43.0299 124.323 42.6969C124.323 42.3638 124.456 42.0444 124.691 41.8089C124.927 41.5734 125.246 41.4411 125.579 41.4411ZM62.7895 87.9054H140.649C140.982 87.9054 141.301 88.0377 141.537 88.2732C141.772 88.5087 141.904 88.8281 141.904 89.1612C141.904 89.4942 141.772 89.8136 141.537 90.0491C141.301 90.2846 140.982 90.4169 140.649 90.4169H62.7895C62.4564 90.4169 62.137 90.2846 61.9015 90.0491C61.666 89.8136 61.5337 89.4942 61.5337 89.1612C61.5337 88.8281 61.666 88.5087 61.9015 88.2732C62.137 88.0377 62.4564 87.9054 62.7895 87.9054ZM36.4179 5.02316H164.509C165.175 5.02316 165.814 5.28778 166.285 5.75879C166.756 6.2298 167.02 6.86863 167.02 7.53475V22.6042C167.02 23.2704 166.756 23.9092 166.285 24.3802C165.814 24.8512 165.175 25.1158 164.509 25.1158H36.4179C35.7518 25.1158 35.1129 24.8512 34.6419 24.3802C34.1709 23.9092 33.9063 23.2704 33.9063 22.6042V7.53475C33.9063 6.15338 35.0365 5.02316 36.4179 5.02316ZM36.4179 55.2548H164.509C165.175 55.2548 165.814 55.5194 166.285 55.9904C166.756 56.4614 167.02 57.1003 167.02 57.7664V72.8359C167.02 73.502 166.756 74.1408 166.285 74.6118C165.814 75.0828 165.175 75.3475 164.509 75.3475H36.4179C35.7518 75.3475 35.1129 75.0828 34.6419 74.6118C34.1709 74.1408 33.9063 73.502 33.9063 72.8359V57.7664C33.9063 56.385 35.0365 55.2548 36.4179 55.2548ZM36.4179 37.6737H41.4411C42.1072 37.6737 42.746 37.9383 43.217 38.4094C43.688 38.8804 43.9526 39.5192 43.9526 40.1853V45.2085C43.9526 45.8746 43.688 46.5134 43.217 46.9844C42.746 47.4554 42.1072 47.7201 41.4411 47.7201H36.4179C35.7518 47.7201 35.1129 47.4554 34.6419 46.9844C34.1709 46.5134 33.9063 45.8746 33.9063 45.2085V40.1853C33.9063 38.8039 35.0365 37.6737 36.4179 37.6737ZM36.4179 7.53475V22.6042H164.509V7.53475H36.4179ZM81.6264 64.0453C81.2933 64.0453 80.9739 64.1776 80.7384 64.4132C80.5029 64.6487 80.3706 64.9681 80.3706 65.3011C80.3706 65.6342 80.5029 65.9536 80.7384 66.1891C80.9739 66.4246 81.2933 66.5569 81.6264 66.5569H121.812C122.145 66.5569 122.464 66.4246 122.7 66.1891C122.935 65.9536 123.067 65.6342 123.067 65.3011C123.067 64.9681 122.935 64.6487 122.7 64.4132C122.464 64.1776 122.145 64.0453 121.812 64.0453H81.6264ZM36.4179 40.1853V45.2085H41.4411V40.1853H36.4179ZM188.369 781.102H185.857V700.731C185.857 699.399 185.328 698.121 184.386 697.179C183.444 696.237 182.166 695.708 180.834 695.708H20.0926C18.7604 695.708 17.4827 696.237 16.5407 697.179C15.5987 698.121 15.0694 699.399 15.0694 700.731V781.102H12.5579V700.731C12.5579 698.733 13.3517 696.817 14.7647 695.404C16.1778 693.99 18.0943 693.197 20.0926 693.197H180.834C182.832 693.197 184.749 693.99 186.162 695.404C187.575 696.817 188.369 698.733 188.369 700.731V781.102ZM36.4179 745.94H164.509C165.175 745.94 165.814 746.204 166.285 746.675C166.756 747.146 167.02 747.785 167.02 748.451V763.521C167.02 764.187 166.756 764.826 166.285 765.297C165.814 765.768 165.175 766.032 164.509 766.032H36.4179C35.7518 766.032 35.1129 765.768 34.6419 765.297C34.1709 764.826 33.9063 764.187 33.9063 763.521V748.451C33.9063 747.07 35.0365 745.94 36.4179 745.94ZM36.4179 748.451V763.521H164.509V748.451H36.4179ZM35.1621 738.405H62.7895C63.1226 738.405 63.442 738.537 63.6775 738.773C63.913 739.008 64.0453 739.328 64.0453 739.661C64.0453 739.994 63.913 740.313 63.6775 740.549C63.442 740.784 63.1226 740.917 62.7895 740.917H35.1621C34.829 740.917 34.5096 740.784 34.2741 740.549C34.0386 740.313 33.9063 739.994 33.9063 739.661C33.9063 739.328 34.0386 739.008 34.2741 738.773C34.5096 738.537 34.829 738.405 35.1621 738.405ZM35.1621 778.59H62.7895C63.1226 778.59 63.442 778.723 63.6775 778.958C63.913 779.194 64.0453 779.513 64.0453 779.846C64.0453 780.179 63.913 780.499 63.6775 780.734C63.442 780.97 63.1226 781.102 62.7895 781.102H35.1621C34.829 781.102 34.5096 780.97 34.2741 780.734C34.0386 780.499 33.9063 780.179 33.9063 779.846C33.9063 779.513 34.0386 779.194 34.2741 778.958C34.5096 778.723 34.829 778.59 35.1621 778.59ZM61.5337 718.312H139.393C139.726 718.312 140.045 718.445 140.281 718.68C140.516 718.916 140.649 719.235 140.649 719.568C140.649 719.901 140.516 720.221 140.281 720.456C140.045 720.692 139.726 720.824 139.393 720.824H61.5337C61.2007 720.824 60.8812 720.692 60.6457 720.456C60.4102 720.221 60.2779 719.901 60.2779 719.568C60.2779 719.235 60.4102 718.916 60.6457 718.68C60.8812 718.445 61.2007 718.312 61.5337 718.312ZM573.896 75.3475H463.387V90.4169H573.896V75.3475ZM447.062 12.5579H632.919C634.917 12.5579 636.833 13.3517 638.247 14.7648C639.66 16.1778 640.453 18.0943 640.453 20.0927V102.975C640.453 104.973 639.66 106.89 638.247 108.303C636.833 109.716 634.917 110.51 632.919 110.51H447.062C445.063 110.51 443.147 109.716 441.734 108.303C440.321 106.89 439.527 104.973 439.527 102.975V20.0927C439.527 18.0943 440.321 16.1778 441.734 14.7648C443.147 13.3517 445.063 12.5579 447.062 12.5579ZM447.062 15.0695C445.729 15.0695 444.452 15.5987 443.51 16.5407C442.568 17.4828 442.038 18.7604 442.038 20.0927V102.975C442.038 104.307 442.568 105.585 443.51 106.527C444.452 107.469 445.729 107.998 447.062 107.998H632.919C634.251 107.998 635.529 107.469 636.471 106.527C637.413 105.585 637.942 104.307 637.942 102.975V20.0927C637.942 18.7604 637.413 17.4828 636.471 16.5407C635.529 15.5987 634.251 15.0695 632.919 15.0695H447.062ZM463.387 72.8359H616.593C617.259 72.8359 617.898 73.1005 618.369 73.5715C618.84 74.0425 619.105 74.6813 619.105 75.3475V90.4169C619.105 91.0831 618.84 91.7219 618.369 92.1929C617.898 92.6639 617.259 92.9285 616.593 92.9285H463.387C462.721 92.9285 462.082 92.6639 461.611 92.1929C461.14 91.7219 460.875 91.0831 460.875 90.4169V75.3475C460.875 73.9661 462.005 72.8359 463.387 72.8359ZM586.454 81.6264C586.121 81.6264 585.802 81.7587 585.566 81.9942C585.331 82.2297 585.199 82.5491 585.199 82.8822C585.199 83.2153 585.331 83.5347 585.566 83.7702C585.802 84.0057 586.121 84.138 586.454 84.138H606.547C606.88 84.138 607.199 84.0057 607.435 83.7702C607.671 83.5347 607.803 83.2153 607.803 82.8822C607.803 82.5491 607.671 82.2297 607.435 81.9942C607.199 81.7587 606.88 81.6264 606.547 81.6264H586.454ZM462.131 65.3011H489.758C490.092 65.3011 490.411 65.4334 490.646 65.6689C490.882 65.9044 491.014 66.2239 491.014 66.5569C491.014 66.89 490.882 67.2094 490.646 67.4449C490.411 67.6804 490.092 67.8127 489.758 67.8127H462.131C461.798 67.8127 461.479 67.6804 461.243 67.4449C461.008 67.2094 460.875 66.89 460.875 66.5569C460.875 66.2239 461.008 65.9044 461.243 65.6689C461.479 65.4334 461.798 65.3011 462.131 65.3011ZM501.061 32.6506H578.92C579.253 32.6506 579.572 32.7829 579.808 33.0184C580.043 33.2539 580.175 33.5733 580.175 33.9064C580.175 34.2394 580.043 34.5588 579.808 34.7943C579.572 35.0298 579.253 35.1621 578.92 35.1621H501.061C500.728 35.1621 500.408 35.0298 500.173 34.7943C499.937 34.5588 499.805 34.2394 499.805 33.9064C499.805 33.5733 499.937 33.2539 500.173 33.0184C500.408 32.7829 500.728 32.6506 501.061 32.6506ZM488.503 45.2085H591.478C591.811 45.2085 592.13 45.3408 592.366 45.5763C592.601 45.8118 592.733 46.1312 592.733 46.4643C592.733 46.7973 592.601 47.1167 592.366 47.3522C592.13 47.5878 591.811 47.7201 591.478 47.7201H488.503C488.17 47.7201 487.85 47.5878 487.615 47.3522C487.379 47.1167 487.247 46.7973 487.247 46.4643C487.247 46.1312 487.379 45.8118 487.615 45.5763C487.85 45.3408 488.17 45.2085 488.503 45.2085ZM501.061 52.7432H578.92C579.253 52.7432 579.572 52.8755 579.808 53.111C580.043 53.3465 580.175 53.666 580.175 53.999C580.175 54.3321 580.043 54.6515 579.808 54.887C579.572 55.1225 579.253 55.2548 578.92 55.2548H501.061C500.728 55.2548 500.408 55.1225 500.173 54.887C499.937 54.6515 499.805 54.3321 499.805 53.999C499.805 53.666 499.937 53.3465 500.173 53.111C500.408 52.8755 500.728 52.7432 501.061 52.7432ZM221.019 272.507H406.876C408.875 272.507 410.791 273.3 412.204 274.714C413.617 276.127 414.411 278.043 414.411 280.041V468.41C414.411 470.408 413.617 472.325 412.204 473.738C410.791 475.151 408.875 475.945 406.876 475.945H221.019C219.021 475.945 217.104 475.151 215.691 473.738C214.278 472.325 213.484 470.408 213.484 468.41V280.041C213.484 278.043 214.278 276.127 215.691 274.714C217.104 273.3 219.021 272.507 221.019 272.507ZM221.019 275.018C219.687 275.018 218.409 275.547 217.467 276.489C216.525 277.431 215.996 278.709 215.996 280.041V468.41C215.996 469.742 216.525 471.02 217.467 471.962C218.409 472.904 219.687 473.433 221.019 473.433H406.876C408.208 473.433 409.486 472.904 410.428 471.962C411.37 471.02 411.899 469.742 411.899 468.41V280.041C411.899 278.709 411.37 277.431 410.428 276.489C409.486 275.547 408.208 275.018 406.876 275.018H221.019ZM282.553 311.436H390.551C391.217 311.436 391.856 311.701 392.327 312.172C392.798 312.643 393.063 313.282 393.063 313.948V326.506C393.063 327.172 392.798 327.811 392.327 328.282C391.856 328.753 391.217 329.017 390.551 329.017H282.553C281.887 329.017 281.248 328.753 280.777 328.282C280.306 327.811 280.041 327.172 280.041 326.506V313.948C280.041 312.566 281.172 311.436 282.553 311.436ZM282.553 313.948V326.506H390.551V313.948H282.553ZM236.089 318.971H263.716C264.049 318.971 264.369 319.103 264.604 319.339C264.84 319.574 264.972 319.894 264.972 320.227C264.972 320.56 264.84 320.879 264.604 321.115C264.369 321.35 264.049 321.482 263.716 321.482H236.089C235.756 321.482 235.436 321.35 235.201 321.115C234.965 320.879 234.833 320.56 234.833 320.227C234.833 319.894 234.965 319.574 235.201 319.339C235.436 319.103 235.756 318.971 236.089 318.971ZM282.553 341.575H390.551C391.217 341.575 391.856 341.84 392.327 342.311C392.798 342.782 393.063 343.421 393.063 344.087V356.645C393.063 357.311 392.798 357.95 392.327 358.421C391.856 358.892 391.217 359.156 390.551 359.156H282.553C281.887 359.156 281.248 358.892 280.777 358.421C280.306 357.95 280.041 357.311 280.041 356.645V344.087C280.041 342.705 281.172 341.575 282.553 341.575ZM282.553 344.087V356.645H390.551V344.087H282.553ZM236.089 349.11H263.716C264.049 349.11 264.369 349.242 264.604 349.478C264.84 349.713 264.972 350.033 264.972 350.366C264.972 350.699 264.84 351.018 264.604 351.254C264.369 351.489 264.049 351.621 263.716 351.621H236.089C235.756 351.621 235.436 351.489 235.201 351.254C234.965 351.018 234.833 350.699 234.833 350.366C234.833 350.033 234.965 349.713 235.201 349.478C235.436 349.242 235.756 349.11 236.089 349.11ZM282.553 371.714H390.551C391.217 371.714 391.856 371.979 392.327 372.45C392.798 372.921 393.063 373.56 393.063 374.226V386.784C393.063 387.45 392.798 388.089 392.327 388.56C391.856 389.031 391.217 389.295 390.551 389.295H282.553C281.887 389.295 281.248 389.031 280.777 388.56C280.306 388.089 280.041 387.45 280.041 386.784V374.226C280.041 372.844 281.172 371.714 282.553 371.714ZM282.553 374.226V386.784H390.551V374.226H282.553ZM282.553 401.853H327.761C328.428 401.853 329.066 402.118 329.537 402.589C330.008 403.06 330.273 403.699 330.273 404.365V416.923C330.273 417.589 330.008 418.228 329.537 418.699C329.066 419.17 328.428 419.434 327.761 419.434H282.553C281.887 419.434 281.248 419.17 280.777 418.699C280.306 418.228 280.041 417.589 280.041 416.923V404.365C280.041 402.983 281.172 401.853 282.553 401.853ZM282.553 404.365V416.923H327.761V404.365H282.553ZM345.342 401.853H390.551C391.217 401.853 391.856 402.118 392.327 402.589C392.798 403.06 393.063 403.699 393.063 404.365V416.923C393.063 417.589 392.798 418.228 392.327 418.699C391.856 419.17 391.217 419.434 390.551 419.434H345.342C344.676 419.434 344.038 419.17 343.567 418.699C343.096 418.228 342.831 417.589 342.831 416.923V404.365C342.831 402.983 343.961 401.853 345.342 401.853ZM345.342 404.365V416.923H390.551V404.365H345.342ZM236.089 379.249H263.716C264.049 379.249 264.369 379.381 264.604 379.617C264.84 379.852 264.972 380.172 264.972 380.505C264.972 380.838 264.84 381.157 264.604 381.393C264.369 381.628 264.049 381.76 263.716 381.76H236.089C235.756 381.76 235.436 381.628 235.201 381.393C234.965 381.157 234.833 380.838 234.833 380.505C234.833 380.172 234.965 379.852 235.201 379.617C235.436 379.381 235.756 379.249 236.089 379.249ZM236.089 409.388H263.716C264.049 409.388 264.369 409.52 264.604 409.756C264.84 409.991 264.972 410.311 264.972 410.644C264.972 410.977 264.84 411.296 264.604 411.532C264.369 411.767 264.049 411.899 263.716 411.899H236.089C235.756 411.899 235.436 411.767 235.201 411.532C234.965 411.296 234.833 410.977 234.833 410.644C234.833 410.311 234.965 409.991 235.201 409.756C235.436 409.52 235.756 409.388 236.089 409.388ZM282.553 434.504H330.273C330.939 434.504 331.578 434.768 332.049 435.239C332.52 435.71 332.785 436.349 332.785 437.015V452.085C332.785 452.751 332.52 453.39 332.049 453.861C331.578 454.332 330.939 454.596 330.273 454.596H282.553C281.887 454.596 281.248 454.332 280.777 453.861C280.306 453.39 280.041 452.751 280.041 452.085V437.015C280.041 435.634 281.172 434.504 282.553 434.504ZM296.367 443.294C296.034 443.294 295.714 443.427 295.479 443.662C295.243 443.898 295.111 444.217 295.111 444.55C295.111 444.883 295.243 445.202 295.479 445.438C295.714 445.673 296.034 445.806 296.367 445.806H316.459C316.792 445.806 317.112 445.673 317.347 445.438C317.583 445.202 317.715 444.883 317.715 444.55C317.715 444.217 317.583 443.898 317.347 443.662C317.112 443.427 316.792 443.294 316.459 443.294H296.367ZM236.089 293.855H313.948C314.281 293.855 314.6 293.987 314.836 294.223C315.071 294.458 315.204 294.778 315.204 295.111C315.204 295.444 315.071 295.763 314.836 295.999C314.6 296.234 314.281 296.367 313.948 296.367H236.089C235.756 296.367 235.436 296.234 235.201 295.999C234.965 295.763 234.833 295.444 234.833 295.111C234.833 294.778 234.965 294.458 235.201 294.223C235.436 293.987 235.756 293.855 236.089 293.855ZM619.105 227.298V247.391C619.105 248.057 618.84 248.696 618.369 249.167C617.898 249.638 617.259 249.902 616.593 249.902H463.387C462.721 249.902 462.082 249.638 461.611 249.167C461.14 248.696 460.875 248.057 460.875 247.391V204.694C460.875 203.313 462.005 202.182 463.387 202.182H616.593C617.259 202.182 617.898 202.447 618.369 202.918C618.84 203.389 619.105 204.028 619.105 204.694V227.298ZM616.593 224.787V204.694H463.387V224.787H616.593ZM447.062 135.625H632.919C634.917 135.625 636.833 136.419 638.247 137.832C639.66 139.245 640.453 141.162 640.453 143.16V329.017C640.453 331.016 639.66 332.932 638.247 334.345C636.833 335.758 634.917 336.552 632.919 336.552H447.062C445.063 336.552 443.147 335.758 441.734 334.345C440.321 332.932 439.527 331.016 439.527 329.017V143.16C439.527 141.162 440.321 139.245 441.734 137.832C443.147 136.419 445.063 135.625 447.062 135.625ZM447.062 138.137C445.729 138.137 444.452 138.666 443.51 139.608C442.568 140.55 442.038 141.828 442.038 143.16V329.017C442.038 330.349 442.568 331.627 443.51 332.569C444.452 333.511 445.729 334.04 447.062 334.04H632.919C634.251 334.04 635.529 333.511 636.471 332.569C637.413 331.627 637.942 330.349 637.942 329.017V143.16C637.942 141.828 637.413 140.55 636.471 139.608C635.529 138.666 634.251 138.137 632.919 138.137H447.062ZM463.387 227.298V247.391H616.593V227.298H463.387ZM474.689 213.484H514.874C515.207 213.484 515.527 213.617 515.762 213.852C515.998 214.088 516.13 214.407 516.13 214.74C516.13 215.073 515.998 215.393 515.762 215.628C515.527 215.864 515.207 215.996 514.874 215.996H474.689C474.356 215.996 474.037 215.864 473.801 215.628C473.566 215.393 473.433 215.073 473.433 214.74C473.433 214.407 473.566 214.088 473.801 213.852C474.037 213.617 474.356 213.484 474.689 213.484ZM474.689 236.089H527.432C527.765 236.089 528.085 236.221 528.32 236.457C528.556 236.692 528.688 237.011 528.688 237.344C528.688 237.678 528.556 237.997 528.32 238.232C528.085 238.468 527.765 238.6 527.432 238.6H474.689C474.356 238.6 474.037 238.468 473.801 238.232C473.566 237.997 473.433 237.678 473.433 237.344C473.433 237.011 473.566 236.692 473.801 236.457C474.037 236.221 474.356 236.089 474.689 236.089ZM482.224 267.483H522.409C522.742 267.483 523.061 267.616 523.297 267.851C523.533 268.087 523.665 268.406 523.665 268.739C523.665 269.072 523.533 269.392 523.297 269.627C523.061 269.863 522.742 269.995 522.409 269.995H482.224C481.891 269.995 481.571 269.863 481.336 269.627C481.1 269.392 480.968 269.072 480.968 268.739C480.968 268.406 481.1 268.087 481.336 267.851C481.571 267.616 481.891 267.483 482.224 267.483ZM565.106 267.483H617.849C618.182 267.483 618.502 267.616 618.737 267.851C618.973 268.087 619.105 268.406 619.105 268.739C619.105 269.072 618.973 269.392 618.737 269.627C618.502 269.863 618.182 269.995 617.849 269.995H565.106C564.773 269.995 564.453 269.863 564.218 269.627C563.982 269.392 563.85 269.072 563.85 268.739C563.85 268.406 563.982 268.087 564.218 267.851C564.453 267.616 564.773 267.483 565.106 267.483ZM463.387 262.46H473.433C474.099 262.46 474.738 262.725 475.209 263.196C475.68 263.667 475.945 264.306 475.945 264.972V275.018C475.945 275.684 475.68 276.323 475.209 276.794C474.738 277.265 474.099 277.53 473.433 277.53H463.387C462.721 277.53 462.082 277.265 461.611 276.794C461.14 276.323 460.875 275.684 460.875 275.018V264.972C460.875 263.591 462.005 262.46 463.387 262.46ZM463.387 264.972V275.018H473.433V264.972H463.387ZM463.387 290.088H616.593C617.259 290.088 617.898 290.352 618.369 290.823C618.84 291.294 619.105 291.933 619.105 292.599V312.692C619.105 313.358 618.84 313.997 618.369 314.468C617.898 314.939 617.259 315.204 616.593 315.204H463.387C462.721 315.204 462.082 314.939 461.611 314.468C461.14 313.997 460.875 313.358 460.875 312.692V292.599C460.875 291.218 462.005 290.088 463.387 290.088ZM517.386 301.39C517.053 301.39 516.733 301.522 516.498 301.758C516.262 301.993 516.13 302.313 516.13 302.646C516.13 302.979 516.262 303.298 516.498 303.534C516.733 303.769 517.053 303.901 517.386 303.901H562.594C562.927 303.901 563.247 303.769 563.482 303.534C563.718 303.298 563.85 302.979 563.85 302.646C563.85 302.313 563.718 301.993 563.482 301.758C563.247 301.522 562.927 301.39 562.594 301.39H517.386ZM462.131 156.974H527.432C527.765 156.974 528.085 157.106 528.32 157.342C528.556 157.577 528.688 157.897 528.688 158.23C528.688 158.563 528.556 158.882 528.32 159.118C528.085 159.353 527.765 159.485 527.432 159.485H462.131C461.798 159.485 461.479 159.353 461.243 159.118C461.008 158.882 460.875 158.563 460.875 158.23C460.875 157.897 461.008 157.577 461.243 157.342C461.479 157.106 461.798 156.974 462.131 156.974ZM462.131 169.532H590.222C590.555 169.532 590.874 169.664 591.11 169.9C591.345 170.135 591.478 170.455 591.478 170.788C591.478 171.121 591.345 171.44 591.11 171.676C590.874 171.911 590.555 172.043 590.222 172.043H462.131C461.798 172.043 461.479 171.911 461.243 171.676C461.008 171.44 460.875 171.121 460.875 170.788C460.875 170.455 461.008 170.135 461.243 169.9C461.479 169.664 461.798 169.532 462.131 169.532ZM462.131 177.067H539.99C540.323 177.067 540.643 177.199 540.878 177.434C541.114 177.67 541.246 177.989 541.246 178.322C541.246 178.655 541.114 178.975 540.878 179.21C540.643 179.446 540.323 179.578 539.99 179.578H462.131C461.798 179.578 461.479 179.446 461.243 179.21C461.008 178.975 460.875 178.655 460.875 178.322C460.875 177.989 461.008 177.67 461.243 177.434C461.479 177.199 461.798 177.067 462.131 177.067ZM447.062 585.199H632.919C634.917 585.199 636.833 585.992 638.247 587.405C639.66 588.818 640.453 590.735 640.453 592.733V761.009C640.453 763.008 639.66 764.924 638.247 766.337C636.833 767.75 634.917 768.544 632.919 768.544H447.062C445.063 768.544 443.147 767.75 441.734 766.337C440.321 764.924 439.527 763.008 439.527 761.009V592.733C439.527 590.735 440.321 588.818 441.734 587.405C443.147 585.992 445.063 585.199 447.062 585.199ZM447.062 587.71C445.729 587.71 444.452 588.239 443.51 589.181C442.568 590.123 442.038 591.401 442.038 592.733V761.009C442.038 762.342 442.568 763.619 443.51 764.561C444.452 765.503 445.729 766.032 447.062 766.032H632.919C634.251 766.032 635.529 765.503 636.471 764.561C637.413 763.619 637.942 762.342 637.942 761.009V592.733C637.942 591.401 637.413 590.123 636.471 589.181C635.529 588.239 634.251 587.71 632.919 587.71H447.062ZM463.387 627.895H533.711C534.377 627.895 535.016 628.16 535.487 628.631C535.958 629.102 536.223 629.741 536.223 630.407V645.477C536.223 646.143 535.958 646.781 535.487 647.252C535.016 647.723 534.377 647.988 533.711 647.988H463.387C462.721 647.988 462.082 647.723 461.611 647.252C461.14 646.781 460.875 646.143 460.875 645.477V630.407C460.875 629.026 462.005 627.895 463.387 627.895ZM463.387 630.407V645.477H533.711V630.407H463.387ZM462.131 620.361H489.758C490.092 620.361 490.411 620.493 490.646 620.729C490.882 620.964 491.014 621.283 491.014 621.617C491.014 621.95 490.882 622.269 490.646 622.504C490.411 622.74 490.092 622.872 489.758 622.872H462.131C461.798 622.872 461.479 622.74 461.243 622.504C461.008 622.269 460.875 621.95 460.875 621.617C460.875 621.283 461.008 620.964 461.243 620.729C461.479 620.493 461.798 620.361 462.131 620.361ZM577.664 629.151H605.291C605.624 629.151 605.944 629.284 606.179 629.519C606.415 629.755 606.547 630.074 606.547 630.407C606.547 630.74 606.415 631.06 606.179 631.295C605.944 631.531 605.624 631.663 605.291 631.663H577.664C577.331 631.663 577.011 631.531 576.776 631.295C576.54 631.06 576.408 630.74 576.408 630.407C576.408 630.074 576.54 629.755 576.776 629.519C577.011 629.284 577.331 629.151 577.664 629.151ZM577.664 636.686H592.733C593.066 636.686 593.386 636.818 593.621 637.054C593.857 637.289 593.989 637.609 593.989 637.942C593.989 638.275 593.857 638.594 593.621 638.83C593.386 639.065 593.066 639.198 592.733 639.198H577.664C577.331 639.198 577.011 639.065 576.776 638.83C576.54 638.594 576.408 638.275 576.408 637.942C576.408 637.609 576.54 637.289 576.776 637.054C577.011 636.818 577.331 636.686 577.664 636.686ZM463.387 665.569H533.711C534.377 665.569 535.016 665.834 535.487 666.305C535.958 666.776 536.223 667.415 536.223 668.081V683.15C536.223 683.816 535.958 684.455 535.487 684.926C535.016 685.397 534.377 685.662 533.711 685.662H463.387C462.721 685.662 462.082 685.397 461.611 684.926C461.14 684.455 460.875 683.816 460.875 683.15V668.081C460.875 666.699 462.005 665.569 463.387 665.569ZM463.387 668.081V683.15H533.711V668.081H463.387ZM462.131 658.034H489.758C490.092 658.034 490.411 658.167 490.646 658.402C490.882 658.638 491.014 658.957 491.014 659.29C491.014 659.623 490.882 659.943 490.646 660.178C490.411 660.414 490.092 660.546 489.758 660.546H462.131C461.798 660.546 461.479 660.414 461.243 660.178C461.008 659.943 460.875 659.623 460.875 659.29C460.875 658.957 461.008 658.638 461.243 658.402C461.479 658.167 461.798 658.034 462.131 658.034ZM462.131 695.708H527.432C527.765 695.708 528.085 695.841 528.32 696.076C528.556 696.312 528.688 696.631 528.688 696.964C528.688 697.297 528.556 697.616 528.32 697.852C528.085 698.087 527.765 698.22 527.432 698.22H462.131C461.798 698.22 461.479 698.087 461.243 697.852C461.008 697.616 460.875 697.297 460.875 696.964C460.875 696.631 461.008 696.312 461.243 696.076C461.479 695.841 461.798 695.708 462.131 695.708ZM546.269 665.569H616.593C617.259 665.569 617.898 665.834 618.369 666.305C618.84 666.776 619.105 667.415 619.105 668.081V683.15C619.105 683.816 618.84 684.455 618.369 684.926C617.898 685.397 617.259 685.662 616.593 685.662H546.269C545.603 685.662 544.964 685.397 544.493 684.926C544.022 684.455 543.757 683.816 543.757 683.15V668.081C543.757 666.699 544.888 665.569 546.269 665.569ZM546.269 668.081V683.15H616.593V668.081H546.269ZM545.013 658.034H572.641C572.974 658.034 573.293 658.167 573.529 658.402C573.764 658.638 573.896 658.957 573.896 659.29C573.896 659.623 573.764 659.943 573.529 660.178C573.293 660.414 572.974 660.546 572.641 660.546H545.013C544.68 660.546 544.361 660.414 544.125 660.178C543.89 659.943 543.757 659.623 543.757 659.29C543.757 658.957 543.89 658.638 544.125 658.402C544.361 658.167 544.68 658.034 545.013 658.034ZM467.154 703.243C468.82 703.243 470.417 703.904 471.594 705.082C472.772 706.26 473.433 707.857 473.433 709.522C473.433 711.187 472.772 712.784 471.594 713.962C470.417 715.139 468.82 715.801 467.154 715.801C465.489 715.801 463.892 715.139 462.714 713.962C461.537 712.784 460.875 711.187 460.875 709.522C460.875 707.857 461.537 706.26 462.714 705.082C463.892 703.904 465.489 703.243 467.154 703.243ZM467.154 705.755C466.155 705.755 465.197 706.151 464.49 706.858C463.784 707.564 463.387 708.523 463.387 709.522C463.387 710.521 463.784 711.479 464.49 712.186C465.197 712.892 466.155 713.289 467.154 713.289C468.153 713.289 469.112 712.892 469.818 712.186C470.525 711.479 470.922 710.521 470.922 709.522C470.922 708.523 470.525 707.564 469.818 706.858C469.112 706.151 468.153 705.755 467.154 705.755ZM479.712 708.266H499.805C500.138 708.266 500.457 708.398 500.693 708.634C500.928 708.869 501.061 709.189 501.061 709.522C501.061 709.855 500.928 710.174 500.693 710.41C500.457 710.645 500.138 710.778 499.805 710.778H479.712C479.379 710.778 479.06 710.645 478.824 710.41C478.589 710.174 478.456 709.855 478.456 709.522C478.456 709.189 478.589 708.869 478.824 708.634C479.06 708.398 479.379 708.266 479.712 708.266ZM519.897 703.243C521.563 703.243 523.16 703.904 524.337 705.082C525.515 706.26 526.176 707.857 526.176 709.522C526.176 711.187 525.515 712.784 524.337 713.962C523.16 715.139 521.563 715.801 519.897 715.801C518.232 715.801 516.635 715.139 515.458 713.962C514.28 712.784 513.618 711.187 513.618 709.522C513.618 707.857 514.28 706.26 515.458 705.082C516.635 703.904 518.232 703.243 519.897 703.243ZM519.897 705.755C518.898 705.755 517.94 706.151 517.234 706.858C516.527 707.564 516.13 708.523 516.13 709.522C516.13 710.521 516.527 711.479 517.234 712.186C517.94 712.892 518.898 713.289 519.897 713.289C520.897 713.289 521.855 712.892 522.561 712.186C523.268 711.479 523.665 710.521 523.665 709.522C523.665 708.523 523.268 707.564 522.561 706.858C521.855 706.151 520.897 705.755 519.897 705.755ZM532.455 708.266H552.548C552.881 708.266 553.2 708.398 553.436 708.634C553.671 708.869 553.804 709.189 553.804 709.522C553.804 709.855 553.671 710.174 553.436 710.41C553.2 710.645 552.881 710.778 552.548 710.778H532.455C532.122 710.778 531.803 710.645 531.567 710.41C531.332 710.174 531.2 709.855 531.2 709.522C531.2 709.189 531.332 708.869 531.567 708.634C531.803 708.398 532.122 708.266 532.455 708.266ZM572.641 703.243C574.306 703.243 575.903 703.904 577.081 705.082C578.258 706.26 578.92 707.857 578.92 709.522C578.92 711.187 578.258 712.784 577.081 713.962C575.903 715.139 574.306 715.801 572.641 715.801C570.975 715.801 569.378 715.139 568.201 713.962C567.023 712.784 566.362 711.187 566.362 709.522C566.362 707.857 567.023 706.26 568.201 705.082C569.378 703.904 570.975 703.243 572.641 703.243ZM572.641 705.755C571.642 705.755 570.683 706.151 569.977 706.858C569.27 707.564 568.873 708.523 568.873 709.522C568.873 710.521 569.27 711.479 569.977 712.186C570.683 712.892 571.642 713.289 572.641 713.289C573.64 713.289 574.598 712.892 575.305 712.186C576.011 711.479 576.408 710.521 576.408 709.522C576.408 708.523 576.011 707.564 575.305 706.858C574.598 706.151 573.64 705.755 572.641 705.755ZM585.199 708.266H609.059C609.392 708.266 609.711 708.398 609.947 708.634C610.182 708.869 610.314 709.189 610.314 709.522C610.314 709.855 610.182 710.174 609.947 710.41C609.711 710.645 609.392 710.778 609.059 710.778H585.199C584.866 710.778 584.546 710.645 584.311 710.41C584.075 710.174 583.943 709.855 583.943 709.522C583.943 709.189 584.075 708.869 584.311 708.634C584.546 708.398 584.866 708.266 585.199 708.266ZM463.387 725.847H616.593C617.259 725.847 617.898 726.112 618.369 726.583C618.84 727.054 619.105 727.693 619.105 728.359V745.94C619.105 746.606 618.84 747.245 618.369 747.716C617.898 748.187 617.259 748.451 616.593 748.451H463.387C462.721 748.451 462.082 748.187 461.611 747.716C461.14 747.245 460.875 746.606 460.875 745.94V728.359C460.875 726.977 462.005 725.847 463.387 725.847ZM517.386 735.893C517.053 735.893 516.733 736.026 516.498 736.261C516.262 736.497 516.13 736.816 516.13 737.149C516.13 737.482 516.262 737.802 516.498 738.037C516.733 738.273 517.053 738.405 517.386 738.405H562.594C562.927 738.405 563.247 738.273 563.482 738.037C563.718 737.802 563.85 737.482 563.85 737.149C563.85 736.816 563.718 736.497 563.482 736.261C563.247 736.026 562.927 735.893 562.594 735.893H517.386ZM462.131 605.291H590.222C590.555 605.291 590.874 605.424 591.11 605.659C591.345 605.895 591.478 606.214 591.478 606.547C591.478 606.88 591.345 607.199 591.11 607.435C590.874 607.67 590.555 607.803 590.222 607.803H462.131C461.798 607.803 461.479 607.67 461.243 607.435C461.008 607.199 460.875 606.88 460.875 606.547C460.875 606.214 461.008 605.895 461.243 605.659C461.479 605.424 461.798 605.291 462.131 605.291ZM557.571 647.988C553.908 647.988 550.394 646.533 547.803 643.942C545.213 641.352 543.757 637.838 543.757 634.174C543.757 630.511 545.213 626.997 547.803 624.407C550.394 621.816 553.908 620.361 557.571 620.361C561.235 620.361 564.748 621.816 567.339 624.407C569.93 626.997 571.385 630.511 571.385 634.174C571.385 637.838 569.93 641.352 567.339 643.942C564.748 646.533 561.235 647.988 557.571 647.988ZM557.571 645.477C560.569 645.477 563.443 644.286 565.563 642.166C567.683 640.047 568.873 637.172 568.873 634.174C568.873 631.177 567.683 628.302 565.563 626.183C563.443 624.063 560.569 622.872 557.571 622.872C554.574 622.872 551.699 624.063 549.579 626.183C547.46 628.302 546.269 631.177 546.269 634.174C546.269 637.172 547.46 640.047 549.579 642.166C551.699 644.286 554.574 645.477 557.571 645.477ZM20.0926 396.83H180.834C182.832 396.83 184.749 397.624 186.162 399.037C187.575 400.45 188.369 402.366 188.369 404.365V660.546C188.369 662.544 187.575 664.461 186.162 665.874C184.749 667.287 182.832 668.081 180.834 668.081H20.0926C18.0943 668.081 16.1778 667.287 14.7647 665.874C13.3517 664.461 12.5579 662.544 12.5579 660.546V404.365C12.5579 402.366 13.3517 400.45 14.7647 399.037C16.1778 397.624 18.0943 396.83 20.0926 396.83ZM20.0926 399.342C18.7604 399.342 17.4827 399.871 16.5407 400.813C15.5987 401.755 15.0694 403.032 15.0694 404.365V660.546C15.0694 661.878 15.5987 663.156 16.5407 664.098C17.4827 665.04 18.7604 665.569 20.0926 665.569H180.834C182.166 665.569 183.444 665.04 184.386 664.098C185.328 663.156 185.857 661.878 185.857 660.546V404.365C185.857 403.032 185.328 401.755 184.386 400.813C183.444 399.871 182.166 399.342 180.834 399.342H20.0926ZM116.789 635.43H164.509C165.175 635.43 165.814 635.695 166.285 636.166C166.756 636.637 167.02 637.276 167.02 637.942V653.011C167.02 653.677 166.756 654.316 166.285 654.787C165.814 655.258 165.175 655.523 164.509 655.523H116.789C116.122 655.523 115.484 655.258 115.013 654.787C114.542 654.316 114.277 653.677 114.277 653.011V637.942C114.277 636.56 115.407 635.43 116.789 635.43ZM130.602 644.221C130.269 644.221 129.95 644.353 129.714 644.589C129.479 644.824 129.346 645.143 129.346 645.477C129.346 645.81 129.479 646.129 129.714 646.365C129.95 646.6 130.269 646.732 130.602 646.732H150.695C151.028 646.732 151.347 646.6 151.583 646.365C151.818 646.129 151.951 645.81 151.951 645.477C151.951 645.143 151.818 644.824 151.583 644.589C151.347 644.353 151.028 644.221 150.695 644.221H130.602ZM36.4179 442.038H164.509C165.175 442.038 165.814 442.303 166.285 442.774C166.756 443.245 167.02 443.884 167.02 444.55V457.108C167.02 457.774 166.756 458.413 166.285 458.884C165.814 459.355 165.175 459.619 164.509 459.619H36.4179C35.7518 459.619 35.1129 459.355 34.6419 458.884C34.1709 458.413 33.9063 457.774 33.9063 457.108V444.55C33.9063 443.169 35.0365 442.038 36.4179 442.038ZM36.4179 444.55V457.108H164.509V444.55H36.4179ZM35.1621 434.504H62.7895C63.1226 434.504 63.442 434.636 63.6775 434.871C63.913 435.107 64.0453 435.426 64.0453 435.759C64.0453 436.093 63.913 436.412 63.6775 436.647C63.442 436.883 63.1226 437.015 62.7895 437.015H35.1621C34.829 437.015 34.5096 436.883 34.2741 436.647C34.0386 436.412 33.9063 436.093 33.9063 435.759C33.9063 435.426 34.0386 435.107 34.2741 434.871C34.5096 434.636 34.829 434.504 35.1621 434.504ZM35.1621 419.434H87.9053C88.2384 419.434 88.5578 419.567 88.7933 419.802C89.0288 420.038 89.1611 420.357 89.1611 420.69C89.1611 421.023 89.0288 421.342 88.7933 421.578C88.5578 421.813 88.2384 421.946 87.9053 421.946H35.1621C34.829 421.946 34.5096 421.813 34.2741 421.578C34.0386 421.342 33.9063 421.023 33.9063 420.69C33.9063 420.357 34.0386 420.038 34.2741 419.802C34.5096 419.567 34.829 419.434 35.1621 419.434ZM35.1621 469.666H62.7895C63.1226 469.666 63.442 469.798 63.6775 470.034C63.913 470.269 64.0453 470.589 64.0453 470.922C64.0453 471.255 63.913 471.574 63.6775 471.81C63.442 472.045 63.1226 472.177 62.7895 472.177H35.1621C34.829 472.177 34.5096 472.045 34.2741 471.81C34.0386 471.574 33.9063 471.255 33.9063 470.922C33.9063 470.589 34.0386 470.269 34.2741 470.034C34.5096 469.798 34.829 469.666 35.1621 469.666ZM36.4179 477.201H164.509C165.175 477.201 165.814 477.465 166.285 477.936C166.756 478.407 167.02 479.046 167.02 479.712V492.27C167.02 492.936 166.756 493.575 166.285 494.046C165.814 494.517 165.175 494.782 164.509 494.782H36.4179C35.7518 494.782 35.1129 494.517 34.6419 494.046C34.1709 493.575 33.9063 492.936 33.9063 492.27V479.712C33.9063 478.331 35.0365 477.201 36.4179 477.201ZM36.4179 479.712V492.27H164.509V479.712H36.4179ZM35.1621 504.828H62.7895C63.1226 504.828 63.442 504.96 63.6775 505.196C63.913 505.431 64.0453 505.751 64.0453 506.084C64.0453 506.417 63.913 506.736 63.6775 506.972C63.442 507.207 63.1226 507.34 62.7895 507.34H35.1621C34.829 507.34 34.5096 507.207 34.2741 506.972C34.0386 506.736 33.9063 506.417 33.9063 506.084C33.9063 505.751 34.0386 505.431 34.2741 505.196C34.5096 504.96 34.829 504.828 35.1621 504.828ZM35.1621 557.571H113.021C113.354 557.571 113.674 557.704 113.909 557.939C114.145 558.175 114.277 558.494 114.277 558.827C114.277 559.16 114.145 559.479 113.909 559.715C113.674 559.95 113.354 560.083 113.021 560.083H35.1621C34.829 560.083 34.5096 559.95 34.2741 559.715C34.0386 559.479 33.9063 559.16 33.9063 558.827C33.9063 558.494 34.0386 558.175 34.2741 557.939C34.5096 557.704 34.829 557.571 35.1621 557.571ZM47.72 568.873H55.2548C55.5878 568.873 55.9072 569.006 56.1427 569.241C56.3782 569.477 56.5105 569.796 56.5105 570.129C56.5105 570.462 56.3782 570.782 56.1427 571.017C55.9072 571.253 55.5878 571.385 55.2548 571.385H47.72C47.387 571.385 47.0675 571.253 46.832 571.017C46.5965 570.782 46.4642 570.462 46.4642 570.129C46.4642 569.796 46.5965 569.477 46.832 569.241C47.0675 569.006 47.387 568.873 47.72 568.873ZM69.0685 565.106C70.4007 565.106 71.6783 565.635 72.6204 566.577C73.5624 567.519 74.0916 568.797 74.0916 570.129C74.0916 571.461 73.5624 572.739 72.6204 573.681C71.6783 574.623 70.4007 575.152 69.0685 575.152C67.7362 575.152 66.4586 574.623 65.5165 573.681C64.5745 572.739 64.0453 571.461 64.0453 570.129C64.0453 568.797 64.5745 567.519 65.5165 566.577C66.4586 565.635 67.7362 565.106 69.0685 565.106ZM69.0685 567.618C68.4023 567.618 67.7635 567.882 67.2925 568.353C66.8215 568.824 66.5569 569.463 66.5569 570.129C66.5569 570.795 66.8215 571.434 67.2925 571.905C67.7635 572.376 68.4023 572.641 69.0685 572.641C69.7346 572.641 70.3734 572.376 70.8444 571.905C71.3154 571.434 71.58 570.795 71.58 570.129C71.58 569.463 71.3154 568.824 70.8444 568.353C70.3734 567.882 69.7346 567.618 69.0685 567.618ZM77.859 568.873H85.3937C85.7268 568.873 86.0462 569.006 86.2817 569.241C86.5172 569.477 86.6495 569.796 86.6495 570.129C86.6495 570.462 86.5172 570.782 86.2817 571.017C86.0462 571.253 85.7268 571.385 85.3937 571.385H77.859C77.5259 571.385 77.2065 571.253 76.971 571.017C76.7355 570.782 76.6032 570.462 76.6032 570.129C76.6032 569.796 76.7355 569.477 76.971 569.241C77.2065 569.006 77.5259 568.873 77.859 568.873ZM99.2074 565.106C100.54 565.106 101.817 565.635 102.759 566.577C103.701 567.519 104.231 568.797 104.231 570.129C104.231 571.461 103.701 572.739 102.759 573.681C101.817 574.623 100.54 575.152 99.2074 575.152C97.8752 575.152 96.5976 574.623 95.6555 573.681C94.7135 572.739 94.1843 571.461 94.1843 570.129C94.1843 568.797 94.7135 567.519 95.6555 566.577C96.5976 565.635 97.8752 565.106 99.2074 565.106ZM99.2074 567.618C98.5413 567.618 97.9025 567.882 97.4315 568.353C96.9605 568.824 96.6959 569.463 96.6959 570.129C96.6959 570.795 96.9605 571.434 97.4315 571.905C97.9025 572.376 98.5413 572.641 99.2074 572.641C99.8736 572.641 100.512 572.376 100.983 571.905C101.454 571.434 101.719 570.795 101.719 570.129C101.719 569.463 101.454 568.824 100.983 568.353C100.512 567.882 99.8736 567.618 99.2074 567.618ZM107.998 568.873H115.533C115.866 568.873 116.185 569.006 116.421 569.241C116.656 569.477 116.789 569.796 116.789 570.129C116.789 570.462 116.656 570.782 116.421 571.017C116.185 571.253 115.866 571.385 115.533 571.385H107.998C107.665 571.385 107.346 571.253 107.11 571.017C106.874 570.782 106.742 570.462 106.742 570.129C106.742 569.796 106.874 569.477 107.11 569.241C107.346 569.006 107.665 568.873 107.998 568.873ZM129.346 565.106C130.679 565.106 131.956 565.635 132.898 566.577C133.84 567.519 134.37 568.797 134.37 570.129C134.37 571.461 133.84 572.739 132.898 573.681C131.956 574.623 130.679 575.152 129.346 575.152C128.014 575.152 126.737 574.623 125.795 573.681C124.852 572.739 124.323 571.461 124.323 570.129C124.323 568.797 124.852 567.519 125.795 566.577C126.737 565.635 128.014 565.106 129.346 565.106ZM129.346 567.618C128.68 567.618 128.041 567.882 127.57 568.353C127.099 568.824 126.835 569.463 126.835 570.129C126.835 570.795 127.099 571.434 127.57 571.905C128.041 572.376 128.68 572.641 129.346 572.641C130.013 572.641 130.651 572.376 131.122 571.905C131.593 571.434 131.858 570.795 131.858 570.129C131.858 569.463 131.593 568.824 131.122 568.353C130.651 567.882 130.013 567.618 129.346 567.618ZM138.137 568.873H145.672C146.005 568.873 146.324 569.006 146.56 569.241C146.795 569.477 146.928 569.796 146.928 570.129C146.928 570.462 146.795 570.782 146.56 571.017C146.324 571.253 146.005 571.385 145.672 571.385H138.137C137.804 571.385 137.484 571.253 137.249 571.017C137.013 570.782 136.881 570.462 136.881 570.129C136.881 569.796 137.013 569.477 137.249 569.241C137.484 569.006 137.804 568.873 138.137 568.873ZM36.4179 512.363H164.509C165.175 512.363 165.814 512.627 166.285 513.098C166.756 513.569 167.02 514.208 167.02 514.874V545.013C167.02 545.679 166.756 546.318 166.285 546.789C165.814 547.26 165.175 547.525 164.509 547.525H36.4179C35.7518 547.525 35.1129 547.26 34.6419 546.789C34.1709 546.318 33.9063 545.679 33.9063 545.013V514.874C33.9063 513.493 35.0365 512.363 36.4179 512.363ZM36.4179 514.874V545.013H164.509V514.874H36.4179ZM35.1621 582.687H62.7895C63.1226 582.687 63.442 582.819 63.6775 583.055C63.913 583.29 64.0453 583.61 64.0453 583.943C64.0453 584.276 63.913 584.595 63.6775 584.831C63.442 585.066 63.1226 585.199 62.7895 585.199H35.1621C34.829 585.199 34.5096 585.066 34.2741 584.831C34.0386 584.595 33.9063 584.276 33.9063 583.943C33.9063 583.61 34.0386 583.29 34.2741 583.055C34.5096 582.819 34.829 582.687 35.1621 582.687ZM36.4179 590.222H164.509C165.175 590.222 165.814 590.486 166.285 590.957C166.756 591.428 167.02 592.067 167.02 592.733V622.872C167.02 623.538 166.756 624.177 166.285 624.648C165.814 625.119 165.175 625.384 164.509 625.384H36.4179C35.7518 625.384 35.1129 625.119 34.6419 624.648C34.1709 624.177 33.9063 623.538 33.9063 622.872V592.733C33.9063 591.352 35.0365 590.222 36.4179 590.222ZM36.4179 592.733V622.872H164.509V592.733H36.4179ZM20.0926 140.649H180.834C182.832 140.649 184.749 141.442 186.162 142.855C187.575 144.269 188.369 146.185 188.369 148.183V364.179C188.369 366.178 187.575 368.094 186.162 369.507C184.749 370.92 182.832 371.714 180.834 371.714H20.0926C18.0943 371.714 16.1778 370.92 14.7647 369.507C13.3517 368.094 12.5579 366.178 12.5579 364.179V148.183C12.5579 146.185 13.3517 144.269 14.7647 142.855C16.1778 141.442 18.0943 140.649 20.0926 140.649ZM20.0926 143.16C18.7604 143.16 17.4827 143.689 16.5407 144.631C15.5987 145.573 15.0694 146.851 15.0694 148.183V364.179C15.0694 365.512 15.5987 366.789 16.5407 367.731C17.4827 368.673 18.7604 369.203 20.0926 369.203H180.834C182.166 369.203 183.444 368.673 184.386 367.731C185.328 366.789 185.857 365.512 185.857 364.179V148.183C185.857 146.851 185.328 145.573 184.386 144.631C183.444 143.689 182.166 143.16 180.834 143.16H20.0926ZM36.4179 336.552H84.138C84.8041 336.552 85.4429 336.817 85.9139 337.288C86.3849 337.759 86.6495 338.397 86.6495 339.064V354.133C86.6495 354.799 86.3849 355.438 85.9139 355.909C85.4429 356.38 84.8041 356.645 84.138 356.645H36.4179C35.7518 356.645 35.1129 356.38 34.6419 355.909C34.1709 355.438 33.9063 354.799 33.9063 354.133V339.064C33.9063 337.682 35.0365 336.552 36.4179 336.552ZM50.2316 345.343C49.8985 345.343 49.5791 345.475 49.3436 345.71C49.1081 345.946 48.9758 346.265 48.9758 346.598C48.9758 346.931 49.1081 347.251 49.3436 347.486C49.5791 347.722 49.8985 347.854 50.2316 347.854H70.3243C70.6573 347.854 70.9767 347.722 71.2122 347.486C71.4477 347.251 71.58 346.931 71.58 346.598C71.58 346.265 71.4477 345.946 71.2122 345.71C70.9767 345.475 70.6573 345.343 70.3243 345.343H50.2316ZM36.4179 185.857H164.509C165.175 185.857 165.814 186.122 166.285 186.593C166.756 187.064 167.02 187.703 167.02 188.369V200.927C167.02 201.593 166.756 202.231 166.285 202.703C165.814 203.174 165.175 203.438 164.509 203.438H36.4179C35.7518 203.438 35.1129 203.174 34.6419 202.703C34.1709 202.231 33.9063 201.593 33.9063 200.927V188.369C33.9063 186.987 35.0365 185.857 36.4179 185.857ZM36.4179 188.369V200.927H164.509V188.369H36.4179ZM35.1621 178.322H62.7895C63.1226 178.322 63.442 178.455 63.6775 178.69C63.913 178.926 64.0453 179.245 64.0453 179.578C64.0453 179.911 63.913 180.231 63.6775 180.466C63.442 180.702 63.1226 180.834 62.7895 180.834H35.1621C34.829 180.834 34.5096 180.702 34.2741 180.466C34.0386 180.231 33.9063 179.911 33.9063 179.578C33.9063 179.245 34.0386 178.926 34.2741 178.69C34.5096 178.455 34.829 178.322 35.1621 178.322ZM35.1621 163.253H87.9053C88.2384 163.253 88.5578 163.385 88.7933 163.621C89.0288 163.856 89.1611 164.176 89.1611 164.509C89.1611 164.842 89.0288 165.161 88.7933 165.397C88.5578 165.632 88.2384 165.764 87.9053 165.764H35.1621C34.829 165.764 34.5096 165.632 34.2741 165.397C34.0386 165.161 33.9063 164.842 33.9063 164.509C33.9063 164.176 34.0386 163.856 34.2741 163.621C34.5096 163.385 34.829 163.253 35.1621 163.253ZM35.1621 213.484H62.7895C63.1226 213.484 63.442 213.617 63.6775 213.852C63.913 214.088 64.0453 214.407 64.0453 214.74C64.0453 215.073 63.913 215.393 63.6775 215.628C63.442 215.864 63.1226 215.996 62.7895 215.996H35.1621C34.829 215.996 34.5096 215.864 34.2741 215.628C34.0386 215.393 33.9063 215.073 33.9063 214.74C33.9063 214.407 34.0386 214.088 34.2741 213.852C34.5096 213.617 34.829 213.484 35.1621 213.484ZM36.4179 221.019H164.509C165.175 221.019 165.814 221.284 166.285 221.755C166.756 222.226 167.02 222.865 167.02 223.531V236.089C167.02 236.755 166.756 237.394 166.285 237.865C165.814 238.336 165.175 238.6 164.509 238.6H36.4179C35.7518 238.6 35.1129 238.336 34.6419 237.865C34.1709 237.394 33.9063 236.755 33.9063 236.089V223.531C33.9063 222.149 35.0365 221.019 36.4179 221.019ZM36.4179 223.531V236.089H164.509V223.531H36.4179ZM35.1621 248.647H62.7895C63.1226 248.647 63.442 248.779 63.6775 249.014C63.913 249.25 64.0453 249.569 64.0453 249.902C64.0453 250.235 63.913 250.555 63.6775 250.79C63.442 251.026 63.1226 251.158 62.7895 251.158H35.1621C34.829 251.158 34.5096 251.026 34.2741 250.79C34.0386 250.555 33.9063 250.235 33.9063 249.902C33.9063 249.569 34.0386 249.25 34.2741 249.014C34.5096 248.779 34.829 248.647 35.1621 248.647ZM36.4179 256.181H164.509C165.175 256.181 165.814 256.446 166.285 256.917C166.756 257.388 167.02 258.027 167.02 258.693V271.251C167.02 271.917 166.756 272.556 166.285 273.027C165.814 273.498 165.175 273.762 164.509 273.762H36.4179C35.7518 273.762 35.1129 273.498 34.6419 273.027C34.1709 272.556 33.9063 271.917 33.9063 271.251V258.693C33.9063 257.312 35.0365 256.181 36.4179 256.181ZM36.4179 258.693V271.251H164.509V258.693H36.4179ZM35.1621 283.809H62.7895C63.1226 283.809 63.442 283.941 63.6775 284.177C63.913 284.412 64.0453 284.731 64.0453 285.065C64.0453 285.398 63.913 285.717 63.6775 285.953C63.442 286.188 63.1226 286.32 62.7895 286.32H35.1621C34.829 286.32 34.5096 286.188 34.2741 285.953C34.0386 285.717 33.9063 285.398 33.9063 285.065C33.9063 284.731 34.0386 284.412 34.2741 284.177C34.5096 283.941 34.829 283.809 35.1621 283.809ZM36.4179 291.344H164.509C165.175 291.344 165.814 291.608 166.285 292.079C166.756 292.55 167.02 293.189 167.02 293.855V323.994C167.02 324.66 166.756 325.299 166.285 325.77C165.814 326.241 165.175 326.506 164.509 326.506H36.4179C35.7518 326.506 35.1129 326.241 34.6419 325.77C34.1709 325.299 33.9063 324.66 33.9063 323.994V293.855C33.9063 292.474 35.0365 291.344 36.4179 291.344ZM36.4179 293.855V323.994H164.509V293.855H36.4179ZM637.942 517.386V369.203C637.942 367.87 637.413 366.593 636.471 365.651C635.529 364.709 634.251 364.179 632.919 364.179H447.062C445.729 364.179 444.452 364.709 443.51 365.651C442.568 366.593 442.038 367.87 442.038 369.203V517.386H637.942ZM637.942 519.897H442.038V552.548C442.038 553.88 442.568 555.158 443.51 556.1C444.452 557.042 445.729 557.571 447.062 557.571H632.919C634.251 557.571 635.529 557.042 636.471 556.1C637.413 555.158 637.942 553.88 637.942 552.548V519.897ZM447.062 361.668H632.919C634.917 361.668 636.833 362.462 638.247 363.875C639.66 365.288 640.453 367.204 640.453 369.203V552.548C640.453 554.546 639.66 556.463 638.247 557.876C636.833 559.289 634.917 560.083 632.919 560.083H447.062C445.063 560.083 443.147 559.289 441.734 557.876C440.321 556.463 439.527 554.546 439.527 552.548V369.203C439.527 367.204 440.321 365.288 441.734 363.875C443.147 362.462 445.063 361.668 447.062 361.668ZM512.363 489.758C514.028 489.758 515.625 490.42 516.803 491.598C517.98 492.775 518.642 494.372 518.642 496.037C518.642 497.703 517.98 499.3 516.803 500.477C515.625 501.655 514.028 502.316 512.363 502.316C510.697 502.316 509.1 501.655 507.923 500.477C506.745 499.3 506.084 497.703 506.084 496.037C506.084 494.372 506.745 492.775 507.923 491.598C509.1 490.42 510.697 489.758 512.363 489.758ZM512.363 492.27C511.364 492.27 510.405 492.667 509.699 493.374C508.992 494.08 508.595 495.038 508.595 496.037C508.595 497.037 508.992 497.995 509.699 498.701C510.405 499.408 511.364 499.805 512.363 499.805C513.362 499.805 514.32 499.408 515.027 498.701C515.733 497.995 516.13 497.037 516.13 496.037C516.13 495.038 515.733 494.08 515.027 493.374C514.32 492.667 513.362 492.27 512.363 492.27ZM524.921 494.782H545.013C545.346 494.782 545.666 494.914 545.901 495.149C546.137 495.385 546.269 495.704 546.269 496.037C546.269 496.37 546.137 496.69 545.901 496.925C545.666 497.161 545.346 497.293 545.013 497.293H524.921C524.588 497.293 524.268 497.161 524.033 496.925C523.797 496.69 523.665 496.37 523.665 496.037C523.665 495.704 523.797 495.385 524.033 495.149C524.268 494.914 524.588 494.782 524.921 494.782ZM565.106 489.758C566.771 489.758 568.368 490.42 569.546 491.598C570.723 492.775 571.385 494.372 571.385 496.037C571.385 497.703 570.723 499.3 569.546 500.477C568.368 501.655 566.771 502.316 565.106 502.316C563.441 502.316 561.844 501.655 560.666 500.477C559.489 499.3 558.827 497.703 558.827 496.037C558.827 494.372 559.489 492.775 560.666 491.598C561.844 490.42 563.441 489.758 565.106 489.758ZM565.106 492.27C564.107 492.27 563.149 492.667 562.442 493.374C561.735 494.08 561.339 495.038 561.339 496.037C561.339 497.037 561.735 497.995 562.442 498.701C563.149 499.408 564.107 499.805 565.106 499.805C566.105 499.805 567.063 499.408 567.77 498.701C568.476 497.995 568.873 497.037 568.873 496.037C568.873 495.038 568.476 494.08 567.77 493.374C567.063 492.667 566.105 492.27 565.106 492.27ZM577.664 494.782H610.314C610.647 494.782 610.967 494.914 611.202 495.149C611.438 495.385 611.57 495.704 611.57 496.037C611.57 496.37 611.438 496.69 611.202 496.925C610.967 497.161 610.647 497.293 610.314 497.293H577.664C577.331 497.293 577.011 497.161 576.776 496.925C576.54 496.69 576.408 496.37 576.408 496.037C576.408 495.704 576.54 495.385 576.776 495.149C577.011 494.914 577.331 494.782 577.664 494.782ZM508.595 399.342H616.593C617.259 399.342 617.898 399.606 618.369 400.077C618.84 400.548 619.105 401.187 619.105 401.853V416.923C619.105 417.589 618.84 418.228 618.369 418.699C617.898 419.17 617.259 419.434 616.593 419.434H508.595C507.929 419.434 507.29 419.17 506.819 418.699C506.348 418.228 506.084 417.589 506.084 416.923V401.853C506.084 400.472 507.214 399.342 508.595 399.342ZM508.595 401.853V416.923H616.593V401.853H508.595ZM462.131 408.132H489.758C490.092 408.132 490.411 408.264 490.646 408.5C490.882 408.735 491.014 409.055 491.014 409.388C491.014 409.721 490.882 410.04 490.646 410.276C490.411 410.511 490.092 410.644 489.758 410.644H462.131C461.798 410.644 461.479 410.511 461.243 410.276C461.008 410.04 460.875 409.721 460.875 409.388C460.875 409.055 461.008 408.735 461.243 408.5C461.479 408.264 461.798 408.132 462.131 408.132ZM508.595 429.481H616.593C617.259 429.481 617.898 429.745 618.369 430.216C618.84 430.687 619.105 431.326 619.105 431.992V447.062C619.105 447.728 618.84 448.367 618.369 448.838C617.898 449.309 617.259 449.573 616.593 449.573H508.595C507.929 449.573 507.29 449.309 506.819 448.838C506.348 448.367 506.084 447.728 506.084 447.062V431.992C506.084 430.611 507.214 429.481 508.595 429.481ZM508.595 431.992V447.062H616.593V431.992H508.595ZM462.131 438.271H489.758C490.092 438.271 490.411 438.403 490.646 438.639C490.882 438.874 491.014 439.194 491.014 439.527C491.014 439.86 490.882 440.179 490.646 440.415C490.411 440.65 490.092 440.783 489.758 440.783H462.131C461.798 440.783 461.479 440.65 461.243 440.415C461.008 440.179 460.875 439.86 460.875 439.527C460.875 439.194 461.008 438.874 461.243 438.639C461.479 438.403 461.798 438.271 462.131 438.271ZM508.595 459.619H616.593C617.259 459.619 617.898 459.884 618.369 460.355C618.84 460.826 619.105 461.465 619.105 462.131V477.201C619.105 477.867 618.84 478.506 618.369 478.977C617.898 479.448 617.259 479.712 616.593 479.712H508.595C507.929 479.712 507.29 479.448 506.819 478.977C506.348 478.506 506.084 477.867 506.084 477.201V462.131C506.084 460.75 507.214 459.619 508.595 459.619ZM508.595 462.131V477.201H616.593V462.131H508.595ZM462.131 468.41H489.758C490.092 468.41 490.411 468.542 490.646 468.778C490.882 469.013 491.014 469.333 491.014 469.666C491.014 469.999 490.882 470.318 490.646 470.554C490.411 470.789 490.092 470.922 489.758 470.922H462.131C461.798 470.922 461.479 470.789 461.243 470.554C461.008 470.318 460.875 469.999 460.875 469.666C460.875 469.333 461.008 469.013 461.243 468.778C461.479 468.542 461.798 468.41 462.131 468.41ZM462.131 494.782H489.758C490.092 494.782 490.411 494.914 490.646 495.149C490.882 495.385 491.014 495.704 491.014 496.037C491.014 496.37 490.882 496.69 490.646 496.925C490.411 497.161 490.092 497.293 489.758 497.293H462.131C461.798 497.293 461.479 497.161 461.243 496.925C461.008 496.69 460.875 496.37 460.875 496.037C460.875 495.704 461.008 495.385 461.243 495.149C461.479 494.914 461.798 494.782 462.131 494.782ZM568.873 527.432H616.593C617.259 527.432 617.898 527.697 618.369 528.168C618.84 528.639 619.105 529.278 619.105 529.944V547.525C619.105 548.191 618.84 548.83 618.369 549.301C617.898 549.772 617.259 550.036 616.593 550.036H568.873C568.207 550.036 567.568 549.772 567.097 549.301C566.626 548.83 566.362 548.191 566.362 547.525V529.944C566.362 528.562 567.492 527.432 568.873 527.432ZM582.687 537.479C582.354 537.479 582.035 537.611 581.799 537.846C581.564 538.082 581.431 538.401 581.431 538.734C581.431 539.067 581.564 539.387 581.799 539.622C582.035 539.858 582.354 539.99 582.687 539.99H602.78C603.113 539.99 603.432 539.858 603.668 539.622C603.903 539.387 604.035 539.067 604.035 538.734C604.035 538.401 603.903 538.082 603.668 537.846C603.432 537.611 603.113 537.479 602.78 537.479H582.687ZM508.595 527.432H556.315C556.982 527.432 557.62 527.697 558.091 528.168C558.562 528.639 558.827 529.278 558.827 529.944V547.525C558.827 548.191 558.562 548.83 558.091 549.301C557.62 549.772 556.982 550.036 556.315 550.036H508.595C507.929 550.036 507.29 549.772 506.819 549.301C506.348 548.83 506.084 548.191 506.084 547.525V529.944C506.084 528.562 507.214 527.432 508.595 527.432ZM508.595 529.944V547.525H556.315V529.944H508.595ZM522.409 537.479H542.502C542.835 537.479 543.154 537.611 543.39 537.846C543.625 538.082 543.757 538.401 543.757 538.734C543.757 539.067 543.625 539.387 543.39 539.622C543.154 539.858 542.835 539.99 542.502 539.99H522.409C522.076 539.99 521.757 539.858 521.521 539.622C521.286 539.387 521.153 539.067 521.153 538.734C521.153 538.401 521.286 538.082 521.521 537.846C521.757 537.611 522.076 537.479 522.409 537.479ZM462.131 383.016H539.99C540.323 383.016 540.643 383.149 540.878 383.384C541.114 383.62 541.246 383.939 541.246 384.272C541.246 384.605 541.114 384.924 540.878 385.16C540.643 385.395 540.323 385.528 539.99 385.528H462.131C461.798 385.528 461.479 385.395 461.243 385.16C461.008 384.924 460.875 384.605 460.875 384.272C460.875 383.939 461.008 383.62 461.243 383.384C461.479 383.149 461.798 383.016 462.131 383.016ZM221.019 501.061H406.876C408.875 501.061 410.791 501.854 412.204 503.267C413.617 504.68 414.411 506.597 414.411 508.595V723.336C414.411 725.334 413.617 727.25 412.204 728.663C410.791 730.076 408.875 730.87 406.876 730.87H221.019C219.021 730.87 217.104 730.076 215.691 728.663C214.278 727.25 213.484 725.334 213.484 723.336V508.595C213.484 506.597 214.278 504.68 215.691 503.267C217.104 501.854 219.021 501.061 221.019 501.061ZM221.019 503.572C219.687 503.572 218.409 504.101 217.467 505.043C216.525 505.985 215.996 507.263 215.996 508.595V723.336C215.996 724.668 216.525 725.945 217.467 726.888C218.409 727.83 219.687 728.359 221.019 728.359H406.876C408.208 728.359 409.486 727.83 410.428 726.888C411.37 725.945 411.899 724.668 411.899 723.336V508.595C411.899 507.263 411.37 505.985 410.428 505.043C409.486 504.101 408.208 503.572 406.876 503.572H221.019ZM237.344 629.151H242.368C243.034 629.151 243.673 629.416 244.144 629.887C244.615 630.358 244.879 630.997 244.879 631.663V636.686C244.879 637.352 244.615 637.991 244.144 638.462C243.673 638.933 243.034 639.198 242.368 639.198H237.344C236.678 639.198 236.04 638.933 235.569 638.462C235.097 637.991 234.833 637.352 234.833 636.686V631.663C234.833 630.281 235.963 629.151 237.344 629.151ZM237.344 631.663V636.686H242.368V631.663H237.344ZM237.344 689.429H390.551C391.217 689.429 391.856 689.694 392.327 690.165C392.798 690.636 393.063 691.275 393.063 691.941V707.01C393.063 707.676 392.798 708.315 392.327 708.786C391.856 709.257 391.217 709.522 390.551 709.522H237.344C236.678 709.522 236.04 709.257 235.569 708.786C235.097 708.315 234.833 707.676 234.833 707.01V691.941C234.833 690.559 235.963 689.429 237.344 689.429ZM303.901 698.22C303.568 698.22 303.249 698.352 303.013 698.588C302.778 698.823 302.646 699.143 302.646 699.476C302.646 699.809 302.778 700.128 303.013 700.364C303.249 700.599 303.568 700.731 303.901 700.731H323.994C324.327 700.731 324.646 700.599 324.882 700.364C325.118 700.128 325.25 699.809 325.25 699.476C325.25 699.143 325.118 698.823 324.882 698.588C324.646 698.352 324.327 698.22 323.994 698.22H303.901ZM237.344 546.269H390.551C391.217 546.269 391.856 546.534 392.327 547.005C392.798 547.476 393.063 548.115 393.063 548.781V561.339C393.063 562.005 392.798 562.643 392.327 563.115C391.856 563.586 391.217 563.85 390.551 563.85H237.344C236.678 563.85 236.04 563.586 235.569 563.115C235.097 562.643 234.833 562.005 234.833 561.339V548.781C234.833 547.399 235.963 546.269 237.344 546.269ZM237.344 548.781V561.339H390.551V548.781H237.344ZM236.089 538.734H263.716C264.049 538.734 264.369 538.867 264.604 539.102C264.84 539.338 264.972 539.657 264.972 539.99C264.972 540.323 264.84 540.643 264.604 540.878C264.369 541.114 264.049 541.246 263.716 541.246H236.089C235.756 541.246 235.436 541.114 235.201 540.878C234.965 540.643 234.833 540.323 234.833 539.99C234.833 539.657 234.965 539.338 235.201 539.102C235.436 538.867 235.756 538.734 236.089 538.734ZM236.089 523.665H351.621C351.955 523.665 352.274 523.797 352.509 524.033C352.745 524.268 352.877 524.588 352.877 524.921C352.877 525.254 352.745 525.573 352.509 525.809C352.274 526.044 351.955 526.176 351.621 526.176H236.089C235.756 526.176 235.436 526.044 235.201 525.809C234.965 525.573 234.833 525.254 234.833 524.921C234.833 524.588 234.965 524.268 235.201 524.033C235.436 523.797 235.756 523.665 236.089 523.665ZM236.089 573.896H263.716C264.049 573.896 264.369 574.029 264.604 574.264C264.84 574.5 264.972 574.819 264.972 575.152C264.972 575.485 264.84 575.805 264.604 576.04C264.369 576.276 264.049 576.408 263.716 576.408H236.089C235.756 576.408 235.436 576.276 235.201 576.04C234.965 575.805 234.833 575.485 234.833 575.152C234.833 574.819 234.965 574.5 235.201 574.264C235.436 574.029 235.756 573.896 236.089 573.896ZM237.344 581.431H390.551C391.217 581.431 391.856 581.696 392.327 582.167C392.798 582.638 393.063 583.277 393.063 583.943V596.501C393.063 597.167 392.798 597.806 392.327 598.277C391.856 598.748 391.217 599.012 390.551 599.012H237.344C236.678 599.012 236.04 598.748 235.569 598.277C235.097 597.806 234.833 597.167 234.833 596.501V583.943C234.833 582.561 235.963 581.431 237.344 581.431ZM237.344 583.943V596.501H390.551V583.943H237.344ZM236.089 609.059H391.807C392.14 609.059 392.459 609.191 392.695 609.426C392.93 609.662 393.063 609.981 393.063 610.314C393.063 610.647 392.93 610.967 392.695 611.202C392.459 611.438 392.14 611.57 391.807 611.57H236.089C235.756 611.57 235.436 611.438 235.201 611.202C234.965 610.967 234.833 610.647 234.833 610.314C234.833 609.981 234.965 609.662 235.201 609.426C235.436 609.191 235.756 609.059 236.089 609.059ZM236.089 616.593H329.017C329.35 616.593 329.67 616.726 329.905 616.961C330.141 617.197 330.273 617.516 330.273 617.849C330.273 618.182 330.141 618.502 329.905 618.737C329.67 618.973 329.35 619.105 329.017 619.105H236.089C235.756 619.105 235.436 618.973 235.201 618.737C234.965 618.502 234.833 618.182 234.833 617.849C234.833 617.516 234.965 617.197 235.201 616.961C235.436 616.726 235.756 616.593 236.089 616.593ZM248.647 632.919H318.971C319.304 632.919 319.623 633.051 319.859 633.286C320.094 633.522 320.227 633.841 320.227 634.174C320.227 634.507 320.094 634.827 319.859 635.062C319.623 635.298 319.304 635.43 318.971 635.43H248.647C248.314 635.43 247.994 635.298 247.759 635.062C247.523 634.827 247.391 634.507 247.391 634.174C247.391 633.841 247.523 633.522 247.759 633.286C247.994 633.051 248.314 632.919 248.647 632.919ZM237.344 669.337H242.368C243.034 669.337 243.673 669.601 244.144 670.072C244.615 670.543 244.879 671.182 244.879 671.848V676.871C244.879 677.537 244.615 678.176 244.144 678.647C243.673 679.118 243.034 679.383 242.368 679.383H237.344C236.678 679.383 236.04 679.118 235.569 678.647C235.097 678.176 234.833 677.537 234.833 676.871V671.848C234.833 670.467 235.963 669.337 237.344 669.337ZM237.344 671.848V676.871H242.368V671.848H237.344ZM248.647 673.104H293.855C294.188 673.104 294.508 673.236 294.743 673.472C294.979 673.707 295.111 674.027 295.111 674.36C295.111 674.693 294.979 675.012 294.743 675.248C294.508 675.483 294.188 675.616 293.855 675.616H248.647C248.314 675.616 247.994 675.483 247.759 675.248C247.523 675.012 247.391 674.693 247.391 674.36C247.391 674.027 247.523 673.707 247.759 673.472C247.994 673.236 248.314 673.104 248.647 673.104ZM237.344 649.244H242.368C243.034 649.244 243.673 649.509 244.144 649.98C244.615 650.451 244.879 651.089 244.879 651.756V656.779C244.879 657.445 244.615 658.084 244.144 658.555C243.673 659.026 243.034 659.29 242.368 659.29H237.344C236.678 659.29 236.04 659.026 235.569 658.555C235.097 658.084 234.833 657.445 234.833 656.779V651.756C234.833 650.374 235.963 649.244 237.344 649.244ZM237.344 651.756V656.779H242.368V651.756H237.344ZM248.647 653.011H344.087C344.42 653.011 344.739 653.144 344.975 653.379C345.21 653.615 345.342 653.934 345.342 654.267C345.342 654.6 345.21 654.92 344.975 655.155C344.739 655.391 344.42 655.523 344.087 655.523H248.647C248.314 655.523 247.994 655.391 247.759 655.155C247.523 654.92 247.391 654.6 247.391 654.267C247.391 653.934 247.523 653.615 247.759 653.379C247.994 653.144 248.314 653.011 248.647 653.011Z"/><path fill="url(#paint1_linear)" fill-opacity=".1" d="M414.411 0V239.856C414.411 241.854 413.617 243.771 412.204 245.184C410.791 246.597 408.875 247.391 406.876 247.391H221.019C219.021 247.391 217.104 246.597 215.691 245.184C214.278 243.771 213.484 241.854 213.484 239.856V0H215.996V239.856C215.996 241.188 216.525 242.466 217.467 243.408C218.409 244.35 219.687 244.879 221.019 244.879H406.876C408.208 244.879 409.486 244.35 410.428 243.408C411.37 242.466 411.899 241.188 411.899 239.856V0H414.411ZM244.879 205.95H383.016C385.681 205.95 388.236 207.008 390.12 208.892C392.004 210.776 393.062 213.332 393.062 215.996C393.062 218.66 392.004 221.216 390.12 223.1C388.236 224.984 385.681 226.042 383.016 226.042H244.879C242.215 226.042 239.659 224.984 237.775 223.1C235.891 221.216 234.833 218.66 234.833 215.996C234.833 213.332 235.891 210.776 237.775 208.892C239.659 207.008 242.215 205.95 244.879 205.95ZM303.901 214.74C303.568 214.74 303.249 214.873 303.013 215.108C302.778 215.344 302.646 215.663 302.646 215.996C302.646 216.329 302.778 216.649 303.013 216.884C303.249 217.12 303.568 217.252 303.901 217.252H323.994C324.327 217.252 324.646 217.12 324.882 216.884C325.117 216.649 325.25 216.329 325.25 215.996C325.25 215.663 325.117 215.344 324.882 215.108C324.646 214.873 324.327 214.74 323.994 214.74H303.901ZM237.344 20.0927H390.551C391.217 20.0927 391.856 20.3573 392.327 20.8283C392.798 21.2993 393.062 21.9381 393.062 22.6042V35.1621C393.062 35.8283 392.798 36.4671 392.327 36.9381C391.856 37.4091 391.217 37.6737 390.551 37.6737H237.344C236.678 37.6737 236.039 37.4091 235.568 36.9381C235.097 36.4671 234.833 35.8283 234.833 35.1621V22.6042C234.833 21.2229 235.963 20.0927 237.344 20.0927ZM237.344 22.6042V35.1621H390.551V22.6042H237.344ZM236.089 12.5579H263.716C264.049 12.5579 264.368 12.6902 264.604 12.9257C264.839 13.1612 264.972 13.4806 264.972 13.8137C264.972 14.1468 264.839 14.4662 264.604 14.7017C264.368 14.9372 264.049 15.0695 263.716 15.0695H236.089C235.756 15.0695 235.436 14.9372 235.201 14.7017C234.965 14.4662 234.833 14.1468 234.833 13.8137C234.833 13.4806 234.965 13.1612 235.201 12.9257C235.436 12.6902 235.756 12.5579 236.089 12.5579ZM236.089 47.7201H263.716C264.049 47.7201 264.368 47.8524 264.604 48.0879C264.839 48.3234 264.972 48.6428 264.972 48.9758C264.972 49.3089 264.839 49.6283 264.604 49.8638C264.368 50.0993 264.049 50.2316 263.716 50.2316H236.089C235.756 50.2316 235.436 50.0993 235.201 49.8638C234.965 49.6283 234.833 49.3089 234.833 48.9758C234.833 48.6428 234.965 48.3234 235.201 48.0879C235.436 47.8524 235.756 47.7201 236.089 47.7201ZM237.344 55.2548H390.551C391.217 55.2548 391.856 55.5194 392.327 55.9904C392.798 56.4614 393.062 57.1003 393.062 57.7664V70.3243C393.062 70.9904 392.798 71.6292 392.327 72.1003C391.856 72.5713 391.217 72.8359 390.551 72.8359H237.344C236.678 72.8359 236.039 72.5713 235.568 72.1003C235.097 71.6292 234.833 70.9904 234.833 70.3243V57.7664C234.833 56.385 235.963 55.2548 237.344 55.2548ZM237.344 57.7664V70.3243H390.551V57.7664H237.344ZM236.089 82.8822H263.716C264.049 82.8822 264.368 83.0145 264.604 83.25C264.839 83.4855 264.972 83.8049 264.972 84.138C264.972 84.4711 264.839 84.7905 264.604 85.026C264.368 85.2615 264.049 85.3938 263.716 85.3938H236.089C235.756 85.3938 235.436 85.2615 235.201 85.026C234.965 84.7905 234.833 84.4711 234.833 84.138C234.833 83.8049 234.965 83.4855 235.201 83.25C235.436 83.0145 235.756 82.8822 236.089 82.8822ZM291.343 82.8822H318.971C319.304 82.8822 319.623 83.0145 319.859 83.25C320.094 83.4855 320.227 83.8049 320.227 84.138C320.227 84.4711 320.094 84.7905 319.859 85.026C319.623 85.2615 319.304 85.3938 318.971 85.3938H291.343C291.01 85.3938 290.691 85.2615 290.455 85.026C290.22 84.7905 290.088 84.4711 290.088 84.138C290.088 83.8049 290.22 83.4855 290.455 83.25C290.691 83.0145 291.01 82.8822 291.343 82.8822ZM346.598 82.8822H374.226C374.559 82.8822 374.878 83.0145 375.114 83.25C375.349 83.4855 375.481 83.8049 375.481 84.138C375.481 84.4711 375.349 84.7905 375.114 85.026C374.878 85.2615 374.559 85.3938 374.226 85.3938H346.598C346.265 85.3938 345.946 85.2615 345.71 85.026C345.475 84.7905 345.342 84.4711 345.342 84.138C345.342 83.8049 345.475 83.4855 345.71 83.25C345.946 83.0145 346.265 82.8822 346.598 82.8822ZM237.344 90.4169H280.041C280.707 90.4169 281.346 90.6816 281.817 91.1526C282.288 91.6236 282.553 92.2624 282.553 92.9285V105.486C282.553 106.153 282.288 106.791 281.817 107.262C281.346 107.733 280.707 107.998 280.041 107.998H237.344C236.678 107.998 236.039 107.733 235.568 107.262C235.097 106.791 234.833 106.153 234.833 105.486V92.9285C234.833 91.5472 235.963 90.4169 237.344 90.4169ZM237.344 92.9285V105.486H280.041V92.9285H237.344ZM236.089 118.044H263.716C264.049 118.044 264.368 118.177 264.604 118.412C264.839 118.648 264.972 118.967 264.972 119.3C264.972 119.633 264.839 119.953 264.604 120.188C264.368 120.424 264.049 120.556 263.716 120.556H236.089C235.756 120.556 235.436 120.424 235.201 120.188C234.965 119.953 234.833 119.633 234.833 119.3C234.833 118.967 234.965 118.648 235.201 118.412C235.436 118.177 235.756 118.044 236.089 118.044ZM237.344 125.579H335.296C335.962 125.579 336.601 125.844 337.072 126.315C337.543 126.786 337.808 127.425 337.808 128.091V140.649C337.808 141.315 337.543 141.954 337.072 142.425C336.601 142.896 335.962 143.16 335.296 143.16H237.344C236.678 143.16 236.039 142.896 235.568 142.425C235.097 141.954 234.833 141.315 234.833 140.649V128.091C234.833 126.709 235.963 125.579 237.344 125.579ZM237.344 128.091V140.649H335.296V128.091H237.344ZM236.089 153.206H263.716C264.049 153.206 264.368 153.339 264.604 153.574C264.839 153.81 264.972 154.129 264.972 154.462C264.972 154.795 264.839 155.115 264.604 155.35C264.368 155.586 264.049 155.718 263.716 155.718H236.089C235.756 155.718 235.436 155.586 235.201 155.35C234.965 155.115 234.833 154.795 234.833 154.462C234.833 154.129 234.965 153.81 235.201 153.574C235.436 153.339 235.756 153.206 236.089 153.206ZM237.344 160.741H390.551C391.217 160.741 391.856 161.006 392.327 161.477C392.798 161.948 393.062 162.587 393.062 163.253V193.392C393.062 194.058 392.798 194.697 392.327 195.168C391.856 195.639 391.217 195.903 390.551 195.903H237.344C236.678 195.903 236.039 195.639 235.568 195.168C235.097 194.697 234.833 194.058 234.833 193.392V163.253C234.833 161.871 235.963 160.741 237.344 160.741ZM237.344 163.253V193.392H390.551V163.253H237.344ZM292.599 90.4169H335.296C335.962 90.4169 336.601 90.6816 337.072 91.1526C337.543 91.6236 337.808 92.2624 337.808 92.9285V105.486C337.808 106.153 337.543 106.791 337.072 107.262C336.601 107.733 335.962 107.998 335.296 107.998H292.599C291.933 107.998 291.294 107.733 290.823 107.262C290.352 106.791 290.088 106.153 290.088 105.486V92.9285C290.088 91.5472 291.218 90.4169 292.599 90.4169ZM292.599 92.9285V105.486H335.296V92.9285H292.599ZM347.854 90.4169H390.551C391.217 90.4169 391.856 90.6816 392.327 91.1526C392.798 91.6236 393.062 92.2624 393.062 92.9285V105.486C393.062 106.153 392.798 106.791 392.327 107.262C391.856 107.733 391.217 107.998 390.551 107.998H347.854C347.188 107.998 346.549 107.733 346.078 107.262C345.607 106.791 345.342 106.153 345.342 105.486V92.9285C345.342 91.5472 346.473 90.4169 347.854 90.4169ZM347.854 92.9285V105.486H390.551V92.9285H347.854ZM414.411 781.102H411.899V763.521C411.899 762.189 411.37 760.911 410.428 759.969C409.486 759.027 408.208 758.498 406.876 758.498H221.019C219.687 758.498 218.409 759.027 217.467 759.969C216.525 760.911 215.996 762.189 215.996 763.521V781.102H213.484V763.521C213.484 761.523 214.278 759.606 215.691 758.193C217.104 756.78 219.021 755.986 221.019 755.986H406.876C408.875 755.986 410.791 756.78 412.204 758.193C413.617 759.606 414.411 761.523 414.411 763.521V781.102ZM236.089 778.59H313.948C314.281 778.59 314.6 778.723 314.836 778.958C315.071 779.194 315.203 779.513 315.203 779.846C315.203 780.179 315.071 780.499 314.836 780.734C314.6 780.97 314.281 781.102 313.948 781.102H236.089C235.756 781.102 235.436 780.97 235.201 780.734C234.965 780.499 234.833 780.179 234.833 779.846C234.833 779.513 234.965 779.194 235.201 778.958C235.436 778.723 235.756 778.59 236.089 778.59Z"/></g><defs><linearGradient id="paint0_linear" x1="326.506" x2="326.506" y1="0" y2="781.102" gradientUnits="userSpaceOnUse"><stop stop-color="#fff" stop-opacity="0"/><stop offset="1" stop-color="#fff"/></linearGradient><linearGradient id="paint1_linear" x1="313.948" x2="313.948" y1="0" y2="781.102" gradientUnits="userSpaceOnUse"><stop stop-color="#fff" stop-opacity="0"/><stop offset="1" stop-color="#fff"/></linearGradient><clipPath id="clip0"><rect width="653.011" height="781.102" fill="#fff"/></clipPath></defs></svg>