<?xml version="1.0" encoding="utf-8"?>
<!-- Generator: Adobe Illustrator 19.1.1, SVG Export Plug-In . SVG Version: 6.00 Build 0)  -->
<svg version="1.1" id="Layer_1" xmlns="http://www.w3.org/2000/svg" xmlns:xlink="http://www.w3.org/1999/xlink" x="0px" y="0px"
	 viewBox="349 200 1309 394" style="enable-background:new 349 200 1309 394;" xml:space="preserve">
<style type="text/css">
	.st0{fill:url(#SVGID_1_);}
	.st1{fill:url(#SVGID_2_);}
	.st2{fill:url(#SVGID_3_);}
</style>
<g>
	<g>
		
			<linearGradient id="SVGID_1_" gradientUnits="userSpaceOnUse" x1="1202.52" y1="384.81" x2="1202.52" y2="497.16" gradientTransform="matrix(1 0 0 -1 0 796)">
			<stop  offset="5.618000e-003" style="stop-color:#3900AC"/>
			<stop  offset="0.1652" style="stop-color:#2D14BC"/>
			<stop  offset="0.534" style="stop-color:#153DDC"/>
			<stop  offset="0.825" style="stop-color:#0657F1"/>
			<stop  offset="1" style="stop-color:#0060F8"/>
		</linearGradient>
		<path class="st0" d="M845.7,300.5h23.2l47.4,108.8h-23.8L885,392h-55.3l-7.4,17.3h-24L845.7,300.5z M877.6,373.7L865,342.7
			c-3.4-8.2-7.6-19.1-7.7-19.5c-0.2,0.3-4.4,11.3-7.7,19.5l-12.6,31.1H877.6L877.6,373.7z M923.3,366v-65.5h23.5v64.3
			c0,16.3,9.2,24.9,23.5,24.9s23.5-8.6,23.5-24.9v-64.3h23.5V366c0,28.7-19.2,45.2-47,45.2C942.4,411.2,923.3,394.7,923.3,366z
			 M1067.7,320.7h-36.9v-20.1h97.4v20.1h-37v88.7h-23.5L1067.7,320.7L1067.7,320.7z M1142.4,300.5h23.5V343h46.5v-42.5h23.5v108.8
			h-23.5v-46.2h-46.5v46.2h-23.5V300.5z M1257.6,300.5h43.7c35.8,0,58.3,24.7,58.3,54.4s-22.5,54.4-58.3,54.4h-43.7V300.5z
			 M1300.3,389.2c20.8,0,34.6-14.4,34.6-34.3c0-19.6-13.8-34.3-34.6-34.3h-19.2v68.5H1300.3z M1373.3,354.9
			c0-31.1,24-56.1,57.6-56.1s57.6,25,57.6,56.1c0,31.2-24,56.3-57.6,56.3S1373.3,386.2,1373.3,354.9z M1464,354.9
			c0-19.3-13.9-34.8-32.9-34.8c-19,0-33.3,15.5-33.3,34.8c0,19.5,14.1,34.9,33.3,34.9C1450,389.9,1464,374.4,1464,354.9z
			 M1502.3,354.9c0-31.1,23.8-56.1,57.4-56.1c15.3,0,28.7,5.4,38.6,13.9l-14.6,15.9c-7.6-6.7-15.3-8.6-23.5-8.6
			c-19,0-33.4,15.5-33.4,34.8c0,19.5,14.1,34.9,33.4,34.9c10.4,0,19.1-4.7,25-10.9v-16h-18.5v-17.1h40v42.3
			c-9.6,14.3-27.2,23-46.8,23C1526.3,411.2,1502.3,386.2,1502.3,354.9z"/>
	</g>
	<g>
		
			<linearGradient id="SVGID_2_" gradientUnits="userSpaceOnUse" x1="568.7431" y1="250.7955" x2="568.7431" y2="556.3408" gradientTransform="matrix(1 0 0 -1 0 796)">
			<stop  offset="5.618000e-003" style="stop-color:#3900AC"/>
			<stop  offset="0.1652" style="stop-color:#2D14BC"/>
			<stop  offset="0.534" style="stop-color:#153DDC"/>
			<stop  offset="0.825" style="stop-color:#0657F1"/>
			<stop  offset="1" style="stop-color:#0060F8"/>
		</linearGradient>
		<path class="st1" d="M712.4,417.3c-18.6,64.7-67.8,88.8-85.9,95.6l-41.7-41.7l-84.9,13.1c-12.9,2-25.8-2.6-34.6-12.3l-36.8-40.9
			c-2.1-2.3-2.9-5.4-2.3-8.4c0.6-3,2.6-5.5,5.4-6.8l64.2-30l-0.2-8.4c-0.7-32.8,19.6-54,60.3-63.4v9.1c0,49.3,27.4,93.6,71.5,115.6
			l5.8,2.9l5.8-2.9c44.1-22,71.5-66.4,71.5-115.6v-32.5L633.2,252l-68.3,34.2c-58.7,9.1-92,38.5-94.8,83.3l-49.4,23.1
			c-10.3,4.8-17.4,13.9-19.7,25c-2.3,11.1,0.8,22.3,8.4,30.7l36.8,40.9c14.6,16.2,36.1,23.9,57.7,20.5l72-11.1l43.3,43.3l7.1-1.8
			c3.4-0.9,84.3-22.8,110.9-115.7L712.4,417.3z M633.2,412.7c-31.9-18.5-51.5-52.2-51.5-89.5v-16.6l51.5-25.7V412.7z"/>
		
			<linearGradient id="SVGID_3_" gradientUnits="userSpaceOnUse" x1="536.36" y1="278.5171" x2="536.36" y2="633.5427" gradientTransform="matrix(1 0 0 -1 0 796)">
			<stop  offset="5.618000e-003" style="stop-color:#3900AC"/>
			<stop  offset="0.1652" style="stop-color:#2D14BC"/>
			<stop  offset="0.534" style="stop-color:#153DDC"/>
			<stop  offset="0.825" style="stop-color:#0657F1"/>
			<stop  offset="1" style="stop-color:#0060F8"/>
		</linearGradient>
		<path class="st2" d="M525.7,377.6c0,5.9,4.8,10.7,10.7,10.7s10.7-4.8,10.7-10.7s-4.8-10.7-10.7-10.7
			C530.5,367,525.7,371.8,525.7,377.6z"/>
	</g>
</g>
<g>
	<path d="M873.7,438.4v66.7h-8.8v-66.7H873.7z"/>
	<path d="M900,484.2l-7.1,21h-9.1l23.1-66.7h10.6l23.2,66.7h-9.4l-7.3-21H900z M922.3,477.4l-6.7-19.2c-1.5-4.4-2.5-8.3-3.5-12.2
		H912c-1,4-2.1,8-3.4,12.1l-6.7,19.3H922.3z"/>
	<path d="M1007.7,475.9c-0.5-9.3-1.1-20.5-1-28.8h-0.3c-2.3,7.8-5.1,16.1-8.6,25.3l-12,32.4h-6.7l-11-31.8c-3.2-9.4-6-18-7.9-25.9
		h-0.2c-0.2,8.3-0.7,19.5-1.3,29.5l-1.8,28.6h-8.4l4.7-66.7h11.2l11.6,32.3c2.8,8.2,5.1,15.5,6.9,22.5h0.3
		c1.7-6.7,4.1-14.1,7.2-22.5l12.1-32.3h11.2l4.2,66.7h-8.6L1007.7,475.9z"/>
	<path d="M1051.7,494.7c3.9,2.4,9.7,4.4,15.7,4.4c9,0,14.2-4.7,14.2-11.4c0-6.2-3.6-9.8-12.8-13.3c-11.1-3.9-18-9.5-18-18.9
		c0-10.4,8.8-18.1,22-18.1c7,0,12,1.6,15,3.3l-2.4,7c-2.2-1.2-6.8-3.2-12.9-3.2c-9.3,0-12.8,5.4-12.8,10c0,6.2,4.1,9.3,13.5,12.9
		c11.5,4.4,17.4,9.8,17.4,19.6c0,10.3-7.8,19.2-23.8,19.2c-6.6,0-13.7-1.9-17.4-4.3L1051.7,494.7z"/>
	<path d="M1112.7,443.5v13.8h12.7v6.6h-12.7v25.8c0,5.9,1.7,9.3,6.7,9.3c2.3,0,4-0.3,5.1-0.6l0.4,6.5c-1.7,0.7-4.4,1.2-7.9,1.2
		c-4.1,0-7.5-1.3-9.6-3.7c-2.5-2.6-3.4-6.8-3.4-12.5v-26.1h-7.6v-6.6h7.6v-11.5L1112.7,443.5z"/>
	<path d="M1135.4,472.2c0-5.6-0.1-10.5-0.4-14.9h7.8l0.3,9.4h0.4c2.2-6.4,7.6-10.5,13.5-10.5c1,0,1.7,0.1,2.5,0.3v8.2
		c-0.9-0.2-1.8-0.3-3-0.3c-6.3,0-10.7,4.7-11.9,11.2c-0.2,1.2-0.4,2.6-0.4,4.1v25.5h-8.8V472.2z"/>
	<path d="M1172.3,482.8c0.2,11.8,7.9,16.6,16.7,16.6c6.4,0,10.2-1.1,13.5-2.5l1.5,6.2c-3.1,1.4-8.5,3-16.2,3c-15,0-24-9.7-24-24.2
		c0-14.5,8.7-25.8,22.9-25.8c15.9,0,20.2,13.8,20.2,22.6c0,1.8-0.2,3.2-0.3,4.1H1172.3z M1198.4,476.6c0.1-5.5-2.3-14.2-12.3-14.2
		c-9,0-12.9,8.1-13.6,14.2H1198.4z"/>
	<path d="M1245,505.2l-0.7-6h-0.3c-2.7,3.8-8,7.1-14.9,7.1c-9.9,0-14.9-6.8-14.9-13.8c0-11.6,10.5-17.9,29.4-17.8v-1
		c0-4-1.1-11.1-11.1-11.1c-4.5,0-9.3,1.4-12.7,3.6l-2-5.7c4-2.6,9.9-4.3,16-4.3c14.9,0,18.6,10,18.6,19.6v17.9
		c0,4.2,0.2,8.2,0.8,11.5H1245z M1243.7,480.7c-9.7-0.2-20.7,1.5-20.7,10.8c0,5.6,3.8,8.3,8.4,8.3c6.4,0,10.4-4,11.8-8
		c0.3-0.9,0.5-1.9,0.5-2.8V480.7z"/>
	<path d="M1266.6,470.2c0-5-0.1-9-0.4-13h7.8l0.4,7.7h0.3c2.7-4.6,7.3-8.8,15.3-8.8c6.7,0,11.7,4,13.8,9.6h0.2
		c1.5-2.7,3.4-4.8,5.4-6.2c2.9-2.2,6.2-3.4,10.8-3.4c6.5,0,16,4.2,16,20.8v28.2h-8.7V478c0-9.2-3.4-14.8-10.6-14.8
		c-5,0-9,3.7-10.5,7.9c-0.4,1.2-0.7,2.8-0.7,4.4v29.6h-8.7v-28.7c0-7.6-3.4-13.2-10.2-13.2c-5.5,0-9.6,4.4-11,8.7
		c-0.5,1.3-0.7,2.8-0.7,4.3v28.9h-8.7V470.2z"/>
	<path d="M1350.7,434.9h8.9v70.3h-8.9V434.9z"/>
	<path d="M1384.4,443.8c0.1,3-2.1,5.3-5.6,5.3c-3.1,0-5.3-2.4-5.3-5.3c0-3.1,2.3-5.4,5.5-5.4
		C1382.3,438.3,1384.4,440.7,1384.4,443.8z M1374.5,505.2v-47.9h8.9v47.9H1374.5z"/>
	<path d="M1398.1,470.2c0-5-0.1-9-0.4-13h7.9l0.5,7.9h0.2c2.4-4.6,8.1-9,16.1-9c6.8,0,17.3,4,17.3,20.4v28.6h-8.9v-27.6
		c0-7.7-2.9-14.2-11.3-14.2c-5.9,0-10.4,4.1-11.9,8.9c-0.4,1.1-0.6,2.6-0.6,4.1v28.8h-8.9V470.2z"/>
	<path d="M1459.1,482.8c0.2,11.8,7.9,16.6,16.7,16.6c6.4,0,10.2-1.1,13.5-2.5l1.5,6.2c-3.1,1.4-8.5,3-16.2,3c-15,0-24-9.7-24-24.2
		c0-14.5,8.7-25.8,22.9-25.8c15.9,0,20.2,13.8,20.2,22.6c0,1.8-0.2,3.2-0.3,4.1H1459.1z M1485.1,476.6c0.1-5.5-2.3-14.2-12.3-14.2
		c-9,0-12.9,8.1-13.6,14.2H1485.1z"/>
	<path d="M1546.9,434.9v57.9c0,4.3,0.1,9.1,0.4,12.4h-8l-0.4-8.3h-0.2c-2.7,5.3-8.7,9.4-16.6,9.4c-11.8,0-20.9-9.8-20.9-24.4
		c-0.1-15.9,10-25.7,21.9-25.7c7.5,0,12.5,3.5,14.7,7.3h0.2v-28.6H1546.9z M1538,476.8c0-1.1-0.1-2.6-0.4-3.7
		c-1.3-5.5-6.2-10.1-12.8-10.1c-9.2,0-14.6,7.9-14.6,18.5c0,9.7,4.8,17.7,14.4,17.7c6,0,11.4-3.9,13-10.4c0.3-1.2,0.4-2.4,0.4-3.8
		V476.8z"/>
</g>
</svg>
