<?xml version="1.0" encoding="UTF-8"?>
<svg enable-background="new 0 0 934 214" version="1.1" viewBox="0 0 934 214" xml:space="preserve" xmlns="http://www.w3.org/2000/svg" xmlns:xlink="http://www.w3.org/1999/xlink">
<style type="text/css">
	.st0{clip-path:url(#h);fill:url(#g);}
	.st1{clip-path:url(#e);fill:url(#d);}
	.st2{clip-path:url(#b);fill:url(#a);}
	.st3{clip-path:url(#q);fill:url(#p);}
	.st4{clip-path:url(#n);fill:url(#m);}
	.st5{clip-path:url(#k);fill:url(#j);}
	.st6{fill:#414142;}
</style>

	<defs>
		<path id="i" d="m119.83 124.63c0 0.02 0 0.05 0.01 0.07 0.99 7.85-4.56 15.02-12.42 16.02-7.85 1-15.02-4.56-16.02-12.41v-0.06l-21.56 2.73v0.06c2.51 19.76 20.55 33.74 40.31 31.24 9.75-1.24 18.08-6.26 23.74-13.4 5.8-7.33 8.77-16.9 7.5-26.91 0-0.02-0.01-0.04-0.01-0.06l-21.55 2.72zm-61.01-80.29 5.84 46.08 21.59-2.74-5.84-46.08-21.59 2.74z"/>
	</defs>
	<clipPath id="h">
		<use xlink:href="#i"/>
	</clipPath>
	
		<linearGradient id="g" x1="42.061" x2="44.26" y1="405.56" y2="405.56" gradientTransform="matrix(37.685 0 0 37.685 -1526.3 -15181)" gradientUnits="userSpaceOnUse">
		<stop stop-color="#B9D332" offset="0"/>
		<stop stop-color="#90A933" offset=".4015"/>
		<stop stop-color="#6F8735" offset=".79"/>
		<stop stop-color="#627A35" offset="1"/>
	</linearGradient>
	<rect class="st0" x="58.82" y="41.6" width="83.84" height="123.17"/>


	<defs>
		<path id="f" d="m150.78 82.05c-9.75 1.24-18.09 6.26-23.73 13.4-7.24-5.46-16.54-8.23-26.25-7-5.05 0.64-9.72 2.3-13.84 4.75l-0.41-3.25-21.59 2.74 4.56 35.96h0.03c0.01 0.02 0.01 0.04 0.01 0.06l21.56-2.73c-0.95-7.83 4.59-14.96 12.42-15.95 7.83-1 14.98 4.53 16.01 12.35l21.56-2.73c-0.99-7.85 4.56-15.03 12.41-16.02 7.85-1 15.03 4.56 16.02 12.41l5.84 46.08 9.65-1.22 10.38-13.86-4.28-33.73-0.03 0.01c-2.31-18.22-17.83-31.53-35.73-31.53-1.52-0.03-3.05 0.06-4.59 0.26"/>
	</defs>
	<clipPath id="e">
		<use xlink:href="#f"/>
	</clipPath>
	
		<linearGradient id="d" x1="48.261" x2="50.46" y1="410.06" y2="410.06" gradientTransform="matrix(0 36.536 -36.536 0 15112 -1681.5)" gradientUnits="userSpaceOnUse">
		<stop stop-color="#555557" offset="0"/>
		<stop stop-color="#414142" offset="1"/>
	</linearGradient>
	<rect class="st1" x="64.95" y="81.76" width="130.45" height="80.34"/>


	<defs>
		<path id="c" d="m178.7 152.8c-1.24 0.91-2.53 1.76-3.84 2.58-13.47 15.16-33.11 24.72-54.98 24.72-31.6 0-58.53-19.93-68.94-47.89 0.04 0.42 0.05 0.85 0.09 1.28 0.58 6.01 2 12.04 4.31 17.94 8.01 20.41 24.94 35.09 44.6 40.4 6.41 1.5 13.08 2.31 19.94 2.31 36.23 0 67.33-22 80.66-53.38 0.04-0.09 0.08-0.19 0.12-0.28 0.47-1.12 0.91-2.25 1.34-3.39 0.11-0.3 0.22-0.6 0.33-0.9 0.35-0.96 0.67-1.93 0.99-2.91 0.14-0.44 0.28-0.88 0.41-1.32 0.27-0.88 0.51-1.76 0.75-2.65 0.14-0.51 0.27-1.03 0.4-1.54 0.21-0.86 0.41-1.72 0.59-2.58 0.12-0.53 0.23-1.07 0.34-1.61 0.17-0.88 0.33-1.77 0.47-2.66 0.09-0.51 0.17-1.03 0.25-1.54 0.14-0.95 0.26-1.9 0.36-2.85 0.05-0.47 0.11-0.94 0.16-1.42 0.1-1 0.17-2.01 0.23-3.01 0.03-0.45 0.07-0.9 0.09-1.35 0.05-0.96 0.06-1.92 0.07-2.88 0.01-0.54 0.03-1.08 0.02-1.61 0-0.62-0.03-1.22-0.05-1.84-0.24-9.36-1.98-18.84-5.41-28.08 10.31 28.34 0.13 59.38-23.3 76.46"/>
	</defs>
	<clipPath id="b">
		<use xlink:href="#c"/>
	</clipPath>
	
		<linearGradient id="a" x1="48.969" x2="51.168" y1="405.94" y2="405.94" gradientTransform="matrix(-77.243 77.243 -77.243 -77.243 35337 27642)" gradientUnits="userSpaceOnUse">
		<stop stop-color="#B9D332" offset="0"/>
		<stop stop-color="#90A933" offset=".4015"/>
		<stop stop-color="#6F8735" offset=".79"/>
		<stop stop-color="#627A35" offset="1"/>
	</linearGradient>
	<polygon class="st2" points="131.62 -4.37 -7.98 135.23 131.62 274.83 271.22 135.23"/>


	<defs>
		<path id="r" d="m117.88 19c-0.28 0.01-0.55 0.02-0.83 0.02-1.17 0.04-2.34 0.1-3.51 0.18-0.23 0.02-0.47 0.04-0.7 0.05-1.26 0.1-2.51 0.22-3.77 0.38-0.09 0.01-0.19 0.03-0.28 0.04-7.03 0.9-14.07 2.67-20.97 5.38-3.71 1.45-7.26 3.14-10.65 5.02-0.02 0.01-0.05 0.03-0.07 0.04-1.22 0.68-2.41 1.4-3.6 2.13-0.71 0.44-1.42 0.89-2.11 1.36-0.28 0.18-0.56 0.37-0.84 0.56-5.85 4-11.18 8.7-15.89 13.96 6.66-7.33 15.06-13.28 24.9-17.15 17.74-6.96 36.67-5.79 52.65 1.72 1.42 0.67 2.81 1.41 4.18 2.18 32.67 7.5 57.03 36.73 57.03 71.67 0 18.55-6.88 35.49-18.22 48.43-0.12 0.13-0.24 0.27-0.35 0.41 1.31-0.82 2.6-1.68 3.84-2.58 23.42-17.08 33.61-48.12 23.3-76.48 1.85 5 3.2 10.06 4.1 15.14-6.65-38.26-38.09-67.98-77.19-71.99-0.47-0.05-0.94-0.1-1.41-0.14-0.64-0.06-1.28-0.11-1.92-0.15-1.22-0.08-2.43-0.14-3.65-0.18-0.16 0-0.31-0.01-0.46-0.01-0.49-0.01-0.99-0.02-1.48-0.02-0.69 0.01-1.4 0.02-2.1 0.03"/>
	</defs>
	<clipPath id="q">
		<use xlink:href="#r"/>
	</clipPath>
	
		<linearGradient id="p" x1="45.774" x2="47.973" y1="406.85" y2="406.85" gradientTransform="matrix(52.97 52.97 -52.97 52.97 19200 -23948)" gradientUnits="userSpaceOnUse">
		<stop stop-color="#B9D332" offset="0"/>
		<stop stop-color="#90A933" offset=".4015"/>
		<stop stop-color="#6F8735" offset=".79"/>
		<stop stop-color="#627A35" offset="1"/>
	</linearGradient>
	<polygon class="st3" points="-13.54 87.19 133.49 234.21 280.51 87.19 133.49 -59.84"/>


	<defs>
		<path id="o" d="m79.56 30.98c-11.52 4.52-21.07 11.9-28.16 21.01l-0.01-0.01c-11.28 14.14-18.28 31.84-19.02 51.15-0.04 0.94-0.07 1.88-0.07 2.82 0 0.27-0.01 0.54-0.01 0.81 0.01 1.39 0.04 2.77 0.11 4.15 0.01 0.11 0.01 0.23 0.02 0.33 0.15 2.89 0.44 5.74 0.87 8.55l0.03 0.21c0.43 2.8 1 5.57 1.69 8.28 0.03 0.12 0.06 0.24 0.1 0.37 8.14 31.33 33.2 55.82 64.83 63.18-19.66-5.31-36.59-19.99-44.6-40.4-2.32-5.9-3.73-11.93-4.31-17.94-0.04-0.42-0.06-0.85-0.09-1.28-2.98-7.99-4.61-16.64-4.61-25.66 0-40.62 32.93-73.56 73.55-73.56 5.57 0 10.99 0.64 16.2 1.81 0.11 0.02 0.21 0.05 0.32 0.07-1.37-0.77-2.76-1.51-4.18-2.18-8.79-4.13-18.47-6.34-28.35-6.34-8.09 0.01-16.32 1.49-24.31 4.63"/>
	</defs>
	<clipPath id="n">
		<use xlink:href="#o"/>
	</clipPath>
	
		<linearGradient id="m" x1="45.748" x2="47.947" y1="402.68" y2="402.68" gradientTransform="matrix(36.495 -63.212 63.212 36.495 -27074 -11634)" gradientUnits="userSpaceOnUse">
		<stop stop-color="#B9D332" offset="0"/>
		<stop stop-color="#90A933" offset=".4015"/>
		<stop stop-color="#6F8735" offset=".79"/>
		<stop stop-color="#627A35" offset="1"/>
	</linearGradient>
	<polygon class="st4" points="110.37 236.91 208.05 67.72 58.32 -18.72 -39.36 150.46"/>


	<defs>
		<path id="l" d="m687.15 47.7-29.27 49.23-29.68-49.23h-5.07v73.96h5.91v-61.92l26.41 44.79h4.76l25.99-44.69v61.81h6.02v-73.95h-5.07zm45.22 9.4 14.47 35.82h-30.01l15.54-35.82zm-2.01-9.4-32.86 73.96h6.66l10.57-23.88h34.13l10.04 23.88h6.65l-31.07-73.96h-4.12zm52.4 5.91h24.3c11.94 0 18.7 6.23 18.7 15.53s-6.65 15.74-18.7 15.74h-24.3v-31.27zm-5.91-5.91v73.96h5.92v-30.75h26.31l17.96 30.75h6.97l-18.91-31.7c10.35-2.64 16.59-10.56 16.59-20.81 0-12.58-9.3-21.45-24.62-21.45h-30.22zm115.16 0-38.46 38.03v-38.03h-5.92v73.96h5.92v-27.9l10.46-10.35 31.59 38.25h7.61l-34.97-42.37 31.8-31.59h-8.03z"/>
	</defs>
	<clipPath id="k">
		<use xlink:href="#l"/>
	</clipPath>
	
		<linearGradient id="j" x1="48.658" x2="50.857" y1="405.09" y2="405.09" gradientTransform="matrix(127.37 0 0 127.37 -5574.7 -51513)" gradientUnits="userSpaceOnUse">
		<stop stop-color="#B9D332" offset="0"/>
		<stop stop-color="#90A933" offset=".4015"/>
		<stop stop-color="#6F8735" offset=".79"/>
		<stop stop-color="#627A35" offset="1"/>
	</linearGradient>
	<rect class="st5" x="623.13" y="47.7" width="280.08" height="73.96"/>


	<path class="st6" d="m296.91 100c0-5.28-3.38-9.93-11.1-9.93h-20.91v19.86h20.92c7.82 0.11 11.09-4.86 11.09-9.93m-32.01-40.68v19.76h17.12c8.03 0 11.31-4.76 11.31-9.83 0-4.76-2.96-9.93-11.31-9.93h-17.12zm45.96 42.37c0 13.52-9.51 19.97-25.57 19.97h-34.55v-73.96h29.27c15.85 0 25.78 5.81 25.78 19.76 0 8.14-3.49 13-9.62 15.74 8.98 2.32 14.69 8.03 14.69 18.49"/>
	<polygon class="st6" points="378.58 108.13 378.58 121.66 322.79 121.66 322.79 47.7 378.16 47.7 378.16 61.12 336.95 61.12 336.95 78.34 372.03 78.34 372.03 90.38 336.95 90.38 336.95 108.13"/>
	<polygon class="st6" points="458.34 47.7 458.34 121.66 447.57 121.66 406.47 73.48 406.47 121.66 392.31 121.66 392.31 47.7 402.66 47.7 444.19 96.3 444.19 47.7"/>
	<path class="st6" d="m471.96 85c0-23.24 14.58-37.93 36.14-37.93 14.16 0 23.77 6.34 29.05 17.54l-12.78 5.81c-3.07-6.55-8.77-10.04-16.69-10.04-12.47 0-20.81 8.56-20.81 24.51 0 16.17 8.45 24.51 20.6 24.62 7.08 0 13.21-2.75 16.48-9.09l12.15 6.97c-5.49 9.93-14.69 15.42-27.89 15.42-21.67 0.01-36.25-14.68-36.25-37.81"/>
	<polygon class="st6" points="608.78 47.7 608.78 121.66 594.52 121.66 594.52 90.38 561.56 90.38 561.56 121.66 547.29 121.66 547.29 47.7 561.56 47.7 561.56 77.7 594.52 77.7 594.52 47.7"/>
	<path class="st6" d="m272.74 150.6c0-7.92-4.52-12.19-11.04-12.19h-8.66v24.09h8.66c6.81 0 11.04-4.27 11.04-11.9m2.34 0.04c0 8.82-5.25 14.2-13.38 14.2h-10.96v-28.72h10.96c7.84 0 13.38 5.41 13.38 14.52"/>
	<rect class="st6" x="296.74" y="136.12" width="2.3" height="28.72"/>
	<path class="st6" d="m346.75 149.7v9.68c0 0.33-0.04 0.41-0.16 0.57-2.75 3.57-6.44 5.25-10.96 5.25-8.08 0-13.74-5.38-13.74-14.4 0-9.27 5.75-14.86 13.74-14.86 4.88 0 8.66 2.09 10.83 5.87l-2.01 0.99c-1.93-3.2-4.96-4.56-8.62-4.56-6.81 0-11.61 4.51-11.61 12.47 0 7.92 4.92 12.19 11.61 12.19 3.57 0 6.52-1.19 8.62-3.94v-6.94h-7.63v-2.34h9.93z"/>
	<rect class="st6" x="368.2" y="136.12" width="2.3" height="28.72"/>
	<polygon class="st6" points="415.67 138.41 404.64 138.41 404.64 164.84 402.3 164.84 402.3 138.41 391.26 138.41 391.26 136.11 415.67 136.11"/>
	<path class="st6" d="m439.47 153.68h11.65l-5.62-13.91-6.03 13.91zm12.43 1.89h-13.25l-4.11 9.27h-2.58l12.76-28.72h1.6l12.07 28.72h-2.59l-3.9-9.27z"/>
	<polygon class="st6" points="498.59 162.5 498.59 164.84 479.14 164.84 479.14 136.12 481.43 136.12 481.43 162.5"/>
	<path class="st6" d="m559.05 162.91c4.31 0 7.02-2.05 7.02-5.87 0-4.19-3.4-5.09-7.47-5.95-3.98-0.9-8.86-1.81-8.86-7.43 0-4.72 3.53-7.71 9.68-7.71 3.94 0 6.65 1.27 8.99 3.65l-1.23 1.6c-2.46-2.46-5.01-3.12-7.63-3.12-4.84 0-7.39 1.89-7.39 5.38 0 3.28 2.26 4.35 6.77 5.25 3.12 0.62 9.56 1.72 9.56 8.45 0 5.13-3.57 8.09-9.36 8.09-4.14 0-7.75-1.56-9.89-4.06l1.72-1.56c1.69 2.01 4.77 3.28 8.09 3.28"/>
	<path class="st6" d="m613.62 150.56c0-8-4.76-12.56-11.53-12.56-6.85 0-11.53 4.6-11.53 12.56 0 7.92 4.68 12.6 11.53 12.6 6.77 0 11.53-4.64 11.53-12.6m-25.4-0.04c0-9.11 5.79-14.65 13.83-14.65 8.08 0 13.87 5.54 13.87 14.65 0 9.07-5.75 14.77-13.83 14.77-8.12 0-13.87-5.7-13.87-14.77"/>
	<polygon class="st6" points="657.03 162.5 657.03 164.84 637.58 164.84 637.58 136.12 639.87 136.12 639.87 162.5"/>
	<path class="st6" d="m677.54 152v-15.88h2.3v15.88c0 6.89 3.32 10.92 9.07 10.92 5.71 0 8.99-3.98 8.99-10.92v-15.88h2.34v15.88c0 8.21-4.27 13.25-11.33 13.25-7.11 0-11.37-5.09-11.37-13.25"/>
	<polygon class="st6" points="743.06 138.41 732.02 138.41 732.02 164.84 729.68 164.84 729.68 138.41 718.64 138.41 718.64 136.11 743.06 136.11"/>
	<rect class="st6" x="763.81" y="136.12" width="2.3" height="28.72"/>
	<path class="st6" d="m814.36 150.56c0-8-4.76-12.56-11.53-12.56-6.85 0-11.54 4.6-11.54 12.56 0 7.92 4.68 12.6 11.54 12.6 6.77 0 11.53-4.64 11.53-12.6m-25.4-0.04c0-9.11 5.79-14.65 13.83-14.65 8.08 0 13.87 5.54 13.87 14.65 0 9.07-5.75 14.77-13.83 14.77-8.13 0-13.87-5.7-13.87-14.77"/>
	<polygon class="st6" points="862.93 136.12 862.93 164.84 861.01 164.84 840.61 140.59 840.61 164.84 838.31 164.84 838.31 136.12 840 136.12 860.6 160.53 860.6 136.12"/>
	<path class="st6" d="m894.56 162.91c4.31 0 7.02-2.05 7.02-5.87 0-4.19-3.4-5.09-7.47-5.95-3.98-0.9-8.86-1.81-8.86-7.43 0-4.72 3.53-7.71 9.68-7.71 3.94 0 6.65 1.27 8.99 3.65l-1.23 1.6c-2.46-2.46-5.01-3.12-7.63-3.12-4.84 0-7.39 1.89-7.39 5.38 0 3.28 2.26 4.35 6.77 5.25 3.12 0.62 9.56 1.72 9.56 8.45 0 5.13-3.57 8.09-9.36 8.09-4.14 0-7.75-1.56-9.89-4.06l1.72-1.56c1.69 2.01 4.77 3.28 8.09 3.28"/>

</svg>
