<?xml version="1.0" encoding="utf-8"?>
<!-- Generator: Adobe Illustrator 24.3.0, SVG Export Plug-In . SVG Version: 6.00 Build 0)  -->
<svg version="1.1" id="Layer_1" xmlns="http://www.w3.org/2000/svg" xmlns:xlink="http://www.w3.org/1999/xlink" x="0px" y="0px"
	 viewBox="0 0 934 220" style="enable-background:new 0 0 934 220;" xml:space="preserve">
<style type="text/css">
	.st0{fill:#345BA9;}
</style>
<g>
	<path id="XMLID_1282_" class="st0" d="M162.6,79.7C137.1,50.3,91,58.1,91,58.1C69.2-5.1,37.2,5,37.2,5
		C21.5,6.8,12.6,22.7,12.6,22.7c-32.5,73.3,8,150.1,8,150.1s3.9,11.9,9.8,22.7c14.9,27.1,38,19.1,38,19.1
		c29.3-5.3,25.3-5.7,45.7-11.5c1.3-0.4,11.4-4.5,15.7-6.3c11.9-5.1,23.1-15,23.1-15C206.6,127,162.6,79.7,162.6,79.7z M117.8,148.1
		c-11.9-1.6-20.3-12.6-18.7-24.5c1.6-11.9,12.6-20.3,24.5-18.7c11.9,1.6,20.3,12.6,18.7,24.5C140.8,141.3,129.8,149.7,117.8,148.1z"
		/>
	<path id="XMLID_242_" class="st0" d="M198.9,79.2c0-4.6,3.7-8.4,8.4-8.4c4.6,0,8.4,3.8,8.4,8.4v22.2c4.1-5.5,9.7-9.6,18.4-9.6
		c13.8,0,26.9,10.8,26.9,30.5v0.2c0,19.7-12.9,30.5-26.9,30.5c-8.9,0-14.4-4.1-18.4-8.8v0.1c0,4.5-3.7,8.3-8.4,8.3
		c-4.6,0-8.4-3.8-8.4-8.4V79.2z M244.3,122.6v-0.2c0-9.8-6.6-16.3-14.4-16.3c-7.8,0-14.3,6.5-14.3,16.3v0.2
		c0,9.8,6.5,16.3,14.3,16.3C237.6,138.9,244.3,132.5,244.3,122.6z"/>
	<path id="XMLID_239_" class="st0" d="M281.5,122.8v-0.2c0-17,13.7-30.8,32.1-30.8c18.3,0,31.9,13.6,31.9,30.5v0.2
		c0,17-13.7,30.8-32.1,30.8C295.1,153.3,281.5,139.8,281.5,122.8z M328.9,122.8v-0.2c0-8.7-6.3-16.3-15.5-16.3
		c-9.6,0-15.3,7.4-15.3,16.1v0.2c0,8.7,6.3,16.3,15.5,16.3C323.2,138.9,328.9,131.5,328.9,122.8z"/>
	<path id="XMLID_236_" class="st0" d="M365.7,122.8v-0.2c0-17,13.7-30.8,32.1-30.8c18.3,0,31.9,13.6,31.9,30.5v0.2
		c0,17-13.7,30.8-32.1,30.8C379.3,153.3,365.7,139.8,365.7,122.8z M413.1,122.8v-0.2c0-8.7-6.3-16.3-15.5-16.3
		c-9.6,0-15.3,7.4-15.3,16.1v0.2c0,8.7,6.3,16.3,15.5,16.3C407.4,138.9,413.1,131.5,413.1,122.8z"/>
	<path id="XMLID_234_" class="st0" d="M452.8,79.2c0-4.6,3.7-8.4,8.4-8.4c4.6,0,8.4,3.8,8.4,8.4v36.6L490.5,96
		c2.4-2.3,4.4-3.7,7.4-3.7c4.5,0,7.4,3.6,7.4,7.5c0,2.9-1.5,5.1-3.9,7.3l-13.2,11.4l15.8,21.3c1.4,2,2.1,3.5,2.1,5.4
		c0,4.5-3.6,7.6-7.8,7.6c-3.3,0-5.3-1.1-7.3-3.9l-14.7-20.2l-6.7,6.1v9.6c0,4.6-3.7,8.4-8.4,8.4c-4.6,0-8.4-3.8-8.4-8.4V79.2z"/>
	<path id="XMLID_231_" class="st0" d="M528.4,78.8c0-4.9,4.1-7.8,9.4-7.8c5.3,0,9.4,3,9.4,7.8V79c0,4.9-4.1,7.9-9.4,7.9
		c-5.3,0-9.4-3.1-9.4-7.9V78.8z M529.4,100.6c0-4.6,3.8-8.4,8.4-8.4c4.6,0,8.4,3.7,8.4,8.4v43.7c0,4.6-3.7,8.4-8.4,8.4
		c-4.6,0-8.4-3.8-8.4-8.4V100.6z"/>
	<path id="XMLID_229_" class="st0" d="M572.9,100.6c0-4.6,3.7-8.4,8.4-8.4c4.6,0,8.4,3.7,8.4,8.4v0.7c3.9-5,8.8-9.5,17.3-9.5
		c12.7,0,20.1,8.4,20.1,21.9v30.5c0,4.6-3.7,8.4-8.4,8.4c-4.6,0-8.4-3.8-8.4-8.4V119c0-7.9-3.7-12-10.1-12s-10.5,4.1-10.5,12v25.2
		c0,4.6-3.7,8.4-8.4,8.4c-4.6,0-8.4-3.8-8.4-8.4L572.9,100.6L572.9,100.6z"/>
	<path id="XMLID_226_" class="st0" d="M657.5,165.8c-2.9-1.1-4.7-3.4-4.7-6.5c0-3.7,3.1-6.8,6.8-6.8c1.1,0,2,0.2,2.8,0.6
		c4.8,2.2,10,3.5,16.3,3.5c11.5,0,16.9-5.5,16.9-16.1v-2.9c-5,6-10.4,9.6-19.3,9.6c-13.8,0-26.2-10-26.2-27.6v-0.2
		c0-17.6,12.7-27.6,26.2-27.6c9.2,0,14.6,3.9,19.1,8.8v-0.1c0-4.5,3.7-8.3,8.4-8.3c4.6,0,8.4,3.7,8.4,8.4v38
		c0,10.6-2.5,18.3-7.5,23.3c-5.5,5.5-14,7.9-25.5,7.9C671.3,169.9,664.4,168.5,657.5,165.8z M695.5,119.6v-0.2
		c0-8-6.3-13.7-14.4-13.7c-8.2,0-14.3,5.6-14.3,13.7v0.2c0,8.2,6.2,13.7,14.3,13.7C689.2,133.3,695.5,127.6,695.5,119.6z"/>
	<path id="XMLID_223_" class="st0" d="M746.6,170c-5.4,0-9.4-2.2-9.4-6.8c0-4.1,3-6.7,6.5-6.7h0.1c2.4,0,4.1-1.5,4.1-5.5v-50.3
		c0-4.6,3.7-8.4,8.4-8.4c4.6,0,8.4,3.7,8.4,8.4V151c0,13-6.8,19-17.9,19H746.6z M746.9,78.8c0-4.9,4.1-7.8,9.4-7.8
		c5.3,0,9.4,3,9.4,7.8V79c0,4.9-4.1,7.9-9.4,7.9c-5.3,0-9.4-3.1-9.4-7.9V78.8z"/>
	<path id="XMLID_220_" class="st0" d="M791.2,78.8c0-4.9,4.1-7.8,9.4-7.8c5.3,0,9.4,3,9.4,7.8V79c0,4.9-4.1,7.9-9.4,7.9
		c-5.3,0-9.4-3.1-9.4-7.9V78.8z M792.2,100.6c0-4.6,3.7-8.4,8.4-8.4c4.6,0,8.4,3.7,8.4,8.4v43.7c0,4.6-3.7,8.4-8.4,8.4
		c-4.6,0-8.4-3.8-8.4-8.4V100.6z"/>
	<path id="XMLID_218_" class="st0" d="M835.8,100.6c0-4.6,3.7-8.4,8.4-8.4c4.6,0,8.4,3.7,8.4,8.4v0.7c3.9-5,8.8-9.5,17.3-9.5
		c12.7,0,20.1,8.4,20.1,21.9v30.5c0,4.6-3.7,8.4-8.4,8.4c-4.6,0-8.4-3.8-8.4-8.4V119c0-7.9-3.7-12-10.1-12c-6.4,0-10.5,4.1-10.5,12
		v25.2c0,4.6-3.7,8.4-8.4,8.4c-4.6,0-8.4-3.8-8.4-8.4L835.8,100.6L835.8,100.6z"/>
	<path id="XMLID_215_" class="st0" d="M915.3,78.8c0-4.9,4.1-7.8,9.4-7.8c5.3,0,9.4,3,9.4,7.8V79c0,4.9-4.1,7.9-9.4,7.9
		c-5.3,0-9.4-3.1-9.4-7.9V78.8z M916.2,100.6c0-4.6,3.7-8.4,8.4-8.4c4.6,0,8.4,3.7,8.4,8.4v43.7c0,4.6-3.7,8.4-8.4,8.4
		c-4.6,0-8.4-3.8-8.4-8.4V100.6z"/>
</g>
</svg>
