<svg xmlns="http://www.w3.org/2000/svg" xmlns:xlink="http://www.w3.org/1999/xlink" version="1.1" viewBox="0 0 1474 256"><title>brightwheel logo</title><g id="Page-1" fill="none" fill-rule="evenodd" stroke="none" stroke-width="1"><path id="lettering" fill="#5363D6" d="M274.000187,199.437098 L300.765497,199.437098 L300.850285,182.434214 L301.327007,182.434214 C305.418356,189.35254 310.925271,194.385922 317.850561,197.529117 C324.775851,200.672312 332.251046,202.246719 340.275773,202.246719 C348.932385,202.246719 356.720341,200.710333 363.645631,197.646364 C370.570921,194.579399 376.472578,190.371053 381.35079,185.021516 C386.229001,179.671978 389.925421,173.379969 392.443607,166.142679 C394.961605,158.908386 396.222194,151.121009 396.222194,142.780548 C396.222194,134.442896 394.882806,126.655519 392.209644,119.418416 C389.536669,112.184123 385.799072,105.892114 381.002841,100.542576 C376.203615,95.1930388 370.421934,90.9846936 363.657423,87.9177278 C356.890104,84.8507621 349.49689,83.3143761 341.474784,83.3143761 C336.125839,83.3143761 331.405599,83.8646506 327.317058,84.9648251 C323.225709,86.0651868 319.6079,87.4817036 316.461198,89.2111914 C313.314496,90.9406791 310.638527,92.7874139 308.436285,94.7540179 C306.234042,96.7206219 304.426729,98.6462081 303.011349,100.530964 L302.262669,100.530964 L302.262669,21 L274,21 L274,199.437098 L274.000187,199.437098 L274.000187,199.437098 Z M365.713485,155.528075 C364.216125,159.61936 362.011075,163.23941 359.098149,166.388224 C356.185409,169.537225 352.678779,172.053916 348.584436,173.941482 C344.487097,175.832044 339.840041,176.774328 334.643266,176.774328 C329.443496,176.774328 324.79644,175.832044 320.702096,173.941482 C316.604757,172.053916 313.098315,169.537225 310.185388,166.388224 C307.272649,163.23941 305.067412,159.619173 303.570052,155.528075 C302.072692,151.436977 301.327007,147.187614 301.327007,142.78036 C301.327007,138.373107 302.072692,134.123744 303.570052,130.032646 C305.067412,125.941548 307.272461,122.324308 310.185388,119.175306 C313.098315,116.026305 316.604757,113.509614 320.702096,111.619052 C324.79644,109.731487 329.443496,108.786206 334.643266,108.786206 C339.840228,108.786206 344.487285,109.731487 348.584436,111.619052 C352.678779,113.509614 356.185222,116.026305 359.098149,119.175306 C362.011075,122.324308 364.216125,125.941361 365.713485,130.032646 C367.210845,134.123932 367.959525,138.373107 367.959525,142.78036 C367.959525,147.187614 367.210845,151.436789 365.713485,155.528075 L365.713485,155.528075 L365.713485,155.528075 Z M408.348377,199.437098 L436.611046,199.437098 L436.611046,138.823553 C436.611046,137.251956 436.964985,134.893342 437.672675,131.747337 C438.380364,128.60433 439.792936,125.458325 441.916193,122.312321 C444.039449,119.169313 447.104358,116.377297 451.113914,113.939645 C455.123469,111.504802 460.431423,110.284383 467.034968,110.284383 C469.234215,110.284383 471.474453,110.477485 473.755494,110.857882 C476.033727,111.23828 478.352763,111.735924 480.712977,112.344635 L480.712977,84.9994748 C478.981654,84.5196234 477.291322,84.1186235 475.641793,83.7966623 C473.992451,83.4747011 472.301931,83.3138142 470.570609,83.3138142 C463.025412,83.3138142 456.342695,85.1283342 450.525825,88.7569995 C444.705962,92.3858521 440.225673,97.5100729 437.084774,104.132846 L436.611046,104.132846 L436.611046,86.1232485 L408.348377,86.1232485 L408.348377,199.437098 L408.348377,199.437098 L408.348377,199.437098 Z M492.973547,199.437098 L521.236217,199.437098 L521.236217,86.1232485 L492.973547,86.1232485 L492.973547,199.437098 L492.973547,199.437098 L492.973547,199.437098 Z M494.111166,59.5244612 C497.491831,62.8987791 501.773532,64.5844396 506.96151,64.5844396 C512.149488,64.5844396 516.510174,62.9778178 520.04881,59.7585807 C523.584639,56.5423404 525.353957,52.5008755 525.353957,47.6341862 C525.353957,42.7703062 523.584639,38.7288414 520.04881,35.5097916 C516.510174,32.2935512 512.149675,30.6839327 506.96151,30.6839327 C501.773345,30.6839327 497.491831,32.37259 494.111166,35.7467205 C490.730502,39.1210384 489.042977,43.0834645 489.042977,47.6341862 C489.042977,52.1877172 490.730502,56.1501433 494.111166,59.5244612 L494.111166,59.5244612 L494.111166,59.5244612 Z M632.713356,86.1232485 L632.628568,103.126132 L632.151846,103.126132 C628.057502,96.2078065 622.550587,91.1772335 615.625297,88.031229 C608.700007,84.8882212 601.227806,83.3136269 593.202893,83.3136269 C584.388309,83.3136269 576.559363,84.8500129 569.713058,87.9199754 C562.866754,90.9927473 557.0059,95.2040893 552.127876,100.556623 C547.249851,105.912154 543.550249,112.20997 541.032251,119.453066 C538.514253,126.696162 537.256658,134.489345 537.256658,142.832803 C537.256658,150.863103 538.593239,158.422167 541.266214,165.507185 C543.939188,172.595201 547.74997,178.734938 552.703985,183.929395 C557.658188,189.126849 563.592038,193.258964 570.511526,196.328927 C577.431013,199.401699 585.134182,200.935275 593.62702,200.935275 C600.701484,200.935275 607.617977,199.556967 614.379493,196.808966 C621.14101,194.057968 626.565945,189.928848 630.654486,184.42704 L631.215996,184.42704 L631.215996,192.659244 C631.215996,198.304521 630.625288,203.437545 629.446678,208.064309 C628.265261,212.688263 626.299976,216.647692 623.550823,219.942971 C620.798863,223.235254 617.105063,225.822368 612.466803,227.706937 C607.828544,229.585699 602.128656,230.527983 595.369947,230.527983 C587.350836,230.527983 580.273564,229.111654 574.143747,226.281617 C568.010934,223.445774 562.11508,219.436524 556.456182,214.244877 L539.476307,237.367083 C547.495418,244.443298 556.219225,249.315981 565.653716,251.99075 C575.085399,254.662709 585.069608,256 595.60391,256 C606.608944,256 616.119426,254.425593 624.135729,251.282398 C632.151846,248.133584 638.790579,243.691119 644.05174,237.952194 C649.310094,232.207463 653.196679,225.210286 655.708875,216.951673 C658.22107,208.69306 659.478665,199.451145 659.478665,189.228925 L659.478665,86.1226866 L632.713356,86.1226866 L632.713356,86.1232485 L632.713356,86.1232485 Z M623.720399,118.007518 C629.715641,124.156059 632.713356,132.195161 632.713356,142.124826 C632.713356,146.85404 631.923686,151.270096 630.34734,155.367188 C628.768,159.46428 626.52196,162.973076 623.603418,165.887957 C620.684689,168.805836 617.137256,171.132422 612.958124,172.864719 C608.775998,174.597204 604.085144,175.463446 598.879385,175.463446 C594.14754,175.463446 589.728456,174.597204 585.62831,172.864719 C581.528164,171.132422 577.977737,168.767815 574.983017,165.770898 C571.985302,162.774168 569.657469,159.306202 568.002137,155.367188 C566.346806,151.428174 565.51914,147.170008 565.51914,142.598871 C565.51914,137.553502 566.346806,132.944344 568.002137,128.765404 C569.657469,124.589273 571.944312,121.042456 574.863041,118.127575 C577.78177,115.212693 581.291207,112.927124 585.391353,111.270869 C589.491499,109.614427 594.068367,108.786206 599.116155,108.786206 C609.524678,108.786018 617.725157,111.861787 623.720399,118.007518 L623.720399,118.007518 L623.720399,118.007518 Z M707.541487,21 L679.278818,21 L679.278818,199.437098 L707.541487,199.437098 L707.541487,137.585716 C707.541487,133.810586 708.012407,130.190536 708.954059,126.728377 C709.895711,123.266405 711.425265,120.196442 713.542719,117.521673 C715.659986,114.846905 718.330153,112.722223 721.547231,111.147816 C724.764309,109.573409 728.724077,108.786206 733.432526,108.786206 C738.295951,108.786206 742.141733,109.927585 744.966877,112.210157 C747.79202,114.492729 749.871292,117.325575 751.204878,120.708696 C752.538464,124.091816 753.360328,127.711866 753.676084,131.568845 C753.989032,135.426011 754.147003,138.926004 754.147003,142.072008 L754.147003,199.437098 L782.409673,199.437098 L782.409673,127.922386 C782.409673,122.101613 781.701983,116.514959 780.289411,111.165235 C778.876839,105.81551 776.522615,101.095098 773.226738,97.0040002 C769.927867,92.9127147 765.652156,89.6088199 760.393989,87.0919414 C755.135822,84.5750629 748.736855,83.3138142 741.203262,83.3138142 C732.412075,83.3138142 725.232421,85.2423972 719.658311,89.0935697 C714.084202,92.9447422 710.200424,97.2293168 708.003984,101.946732 L707.541862,101.946732 L707.541862,21 L707.541487,21 L707.541487,21 Z M813.147665,110.284383 L813.147665,162.159463 C813.147665,168.761634 813.65658,174.579411 814.677218,179.610171 C815.697856,184.640931 817.581348,188.846092 820.330314,192.226216 C823.079467,195.60634 826.846076,198.120222 831.636505,199.770671 C836.423939,201.42112 842.591752,202.246532 850.137136,202.246532 C853.436007,202.246532 857.249596,201.968585 861.572099,201.421308 C865.894603,200.868224 869.550221,199.884922 872.539138,198.471402 L872.539138,174.632228 C870.807816,175.861262 868.450597,176.7423 865.464674,177.280775 C862.475756,177.81925 859.72679,178.085585 857.2116,178.085585 C850.921004,178.085585 846.715481,176.437945 844.592225,173.142666 C842.468968,169.847574 841.410335,165.372894 841.410335,159.721811 L841.410335,110.284383 L872.538951,110.284383 L872.538951,86.1232485 L841.410335,86.1232485 L841.410335,53.3202938 L813.147665,53.3202938 L813.147665,86.1234358 L789.801203,86.1234358 L789.801203,110.284571 L813.147665,110.284571 L813.147665,110.284383 L813.147665,110.284383 Z M919.709908,199.437098 L948.952225,199.437098 L972.772602,122.004969 L973.243521,122.004969 L1000.12881,199.437098 L1028.1927,199.437098 L1066.63573,86.1232485 L1038.09811,86.1232485 L1014.51469,165.442943 L1014.04377,165.442943 L989.515706,86.1232485 L958.857823,86.1232485 L935.982093,165.442943 L935.511173,165.442943 L910.983107,86.1232485 L880.325223,86.1232485 L919.709908,199.437098 L919.709908,199.437098 L919.709908,199.437098 Z M1103.08878,21 L1074.82611,21 L1074.82611,199.437098 L1103.08878,199.437098 L1103.08878,137.585716 C1103.08878,133.810586 1103.5597,130.190536 1104.50135,126.728377 C1105.443,123.266405 1106.97255,120.196442 1109.09001,117.521673 C1111.20727,114.846905 1113.87744,112.722223 1117.09452,111.147816 C1120.3116,109.573409 1124.27137,108.786206 1128.97981,108.786206 C1133.84324,108.786206 1137.68902,109.927585 1140.51416,112.210157 C1143.33931,114.492729 1145.41858,117.325575 1146.75217,120.708696 C1148.08575,124.091816 1148.90762,127.711866 1149.22337,131.568845 C1149.53632,135.426011 1149.69429,138.926004 1149.69429,142.072008 L1149.69429,199.437098 L1177.95696,199.437098 L1177.95696,127.922386 C1177.95696,122.101613 1177.24927,116.514959 1175.8367,111.165235 C1174.42413,105.81551 1172.0699,101.095098 1168.77403,97.0040002 C1165.47516,92.9127147 1161.19944,89.6088199 1155.94128,87.0919414 C1150.68311,84.5750629 1144.28414,83.3138142 1136.75055,83.3138142 C1127.95936,83.3138142 1120.77971,85.2423972 1115.2056,89.0935697 C1109.63149,92.9447422 1105.74771,97.2293168 1103.55127,101.946732 L1103.08915,101.946732 L1103.08915,21 L1103.08878,21 L1103.08878,21 Z M1306.02335,152.613193 L1306.02335,144.834619 C1306.02335,134.937169 1304.72477,126.175293 1302.12797,118.554796 C1299.53117,110.934299 1295.91037,104.52804 1291.26631,99.342386 C1286.62225,94.1567322 1281.03634,90.1913093 1274.5058,87.4403113 C1267.97244,84.6893132 1260.7722,83.3140015 1252.90526,83.3140015 C1244.40661,83.3140015 1236.37871,84.730331 1228.82471,87.5633645 C1221.26772,90.3962107 1214.73718,94.4054607 1209.23026,99.597108 C1203.72035,104.788755 1199.35405,111.042556 1196.12836,118.358885 C1192.89968,125.675026 1191.28833,133.81377 1191.28833,142.780548 C1191.28833,151.747325 1192.89687,159.888879 1196.11676,167.20502 C1199.33383,174.521162 1203.69134,180.77234 1209.18646,185.9638 C1214.68159,191.15526 1221.20334,195.167694 1228.74872,198.00054 C1236.29392,200.83039 1244.31303,202.246907 1252.80306,202.246907 C1261.76382,202.246907 1270.33265,200.514422 1278.50974,197.055259 C1286.68382,193.593287 1294.07404,187.769517 1300.67778,179.584137 L1280.39622,164.246311 C1276.7786,168.653752 1272.57308,172.311635 1267.77685,175.220711 C1262.98062,178.129599 1257.04677,179.584137 1249.9753,179.584137 C1241.95618,179.584137 1235.11568,177.21953 1229.45679,172.487318 C1223.79489,167.755107 1220.49303,161.129525 1219.55137,152.613568 L1306.02335,152.613568 L1306.02335,152.613193 L1306.02335,152.613193 Z M1219.55081,131.448788 C1220.65343,123.248799 1223.68895,116.702255 1228.66075,111.811966 C1233.62955,106.924674 1240.37348,104.478219 1248.8927,104.478219 C1257.88267,104.478219 1264.90454,106.883844 1269.95232,111.694907 C1275.00011,116.505969 1277.6029,123.090721 1277.76087,131.448788 L1219.55081,131.448788 L1219.55081,131.448788 L1219.55081,131.448788 Z M1432.03143,152.613193 L1432.03143,144.834619 C1432.03143,134.937169 1430.73285,126.175293 1428.13605,118.554796 C1425.53925,110.934299 1421.91845,104.52804 1417.27439,99.342386 C1412.63033,94.1567322 1407.04443,90.1913093 1400.51388,87.4403113 C1393.98052,84.6893132 1386.78028,83.3140015 1378.91334,83.3140015 C1370.4147,83.3140015 1362.38679,84.730331 1354.83279,87.5633645 C1347.27581,90.3962107 1340.74526,94.4054607 1335.23834,99.597108 C1329.72843,104.788755 1325.36213,111.042556 1322.13644,118.358885 C1318.90776,125.675026 1317.29641,133.81377 1317.29641,142.780548 C1317.29641,151.747325 1318.90495,159.888879 1322.12484,167.20502 C1325.34192,174.521162 1329.69942,180.77234 1335.19454,185.9638 C1340.68967,191.15526 1347.21142,195.167694 1354.7568,198.00054 C1362.302,200.83039 1370.32111,202.246907 1378.81114,202.246907 C1387.77191,202.246907 1396.34074,200.514422 1404.51782,197.055259 C1412.69191,193.593287 1420.08213,187.769517 1426.68586,179.584137 L1406.4043,164.246311 C1402.78668,168.653752 1398.58116,172.311635 1393.78493,175.220711 C1388.9887,178.129599 1383.05485,179.584137 1375.98338,179.584137 C1367.96427,179.584137 1361.12376,177.21953 1355.46487,172.487318 C1349.80297,167.755107 1346.50111,161.129525 1345.55946,152.613568 L1432.03143,152.613568 L1432.03143,152.613193 L1432.03143,152.613193 Z M1345.5589,131.448788 C1346.66151,123.248799 1349.69704,116.702255 1354.66883,111.811966 C1359.63764,106.924674 1366.38156,104.478219 1374.90079,104.478219 C1383.89075,104.478219 1390.91262,106.883844 1395.96041,111.694907 C1401.00819,116.505969 1403.61098,123.090721 1403.76895,131.448788 L1345.5589,131.448788 L1345.5589,131.448788 L1345.5589,131.448788 Z M1445.73733,199.437098 L1474,199.437098 L1474,21.0264087 L1445.73733,21.0264087 L1445.73733,199.437098 L1445.73733,199.437098 L1445.73733,199.437098 Z"/><g id="wheel"><path id="green" fill="#4FA06A" d="M142.755918,28.3681633 C150.028571,35.6408163 150.269388,47.3444898 143.285714,54.3281633 C136.302041,61.3118367 124.598367,61.1191837 117.325714,53.7983673 L94.5926531,31.0653061 C87.32,23.7926531 87.0791837,12.0889796 94.0628571,5.10530612 C101.046531,-1.87836735 112.750204,-1.68571429 120.022857,5.63510204 L142.755918,28.3681633 L142.755918,28.3681633 Z"/><path id="yellow" fill="#FECC38" d="M72.1485714,37.1338776 C82.4555102,37.1338776 90.8840816,45.2253061 90.8840816,55.0987755 C90.8840816,64.9722449 82.4555102,73.0636735 72.1485714,73.0636735 L39.9273469,73.0636735 C29.6204082,73.0636735 21.1918367,64.9722449 21.1918367,55.0987755 C21.1918367,45.2253061 29.6204082,37.1338776 39.9273469,37.1338776 L72.1485714,37.1338776 L72.1485714,37.1338776 Z"/><path id="orange" fill="#FBA32A" d="M28.3681633,93.2440816 C35.6408163,85.9714286 47.3444898,85.7306122 54.3281633,92.7142857 C61.3118367,99.6979592 61.1191837,111.401633 53.7983673,118.674286 L31.0653061,141.407347 C23.7926531,148.68 12.0889796,148.920816 5.10530612,141.937143 C-1.87836735,134.953469 -1.68571429,123.249796 5.63510204,115.977143 L28.3681633,93.2440816 L28.3681633,93.2440816 Z"/><path id="red" fill="#FF593D" d="M37.1338776,163.851429 C37.1338776,153.54449 45.2253061,145.115918 55.0987755,145.115918 C64.9722449,145.115918 73.0636735,153.54449 73.0636735,163.851429 L73.0636735,196.02449 C73.0636735,206.331429 64.9722449,214.76 55.0987755,214.76 C45.2253061,214.76 37.1338776,206.331429 37.1338776,196.02449 L37.1338776,163.851429 L37.1338776,163.851429 Z"/><path id="pink" fill="#FE47AD" d="M93.2440816,207.631837 C85.9714286,200.359184 85.7306122,188.65551 92.7142857,181.671837 C99.6979592,174.688163 111.401633,174.880816 118.674286,182.201633 L141.407347,204.934694 C148.68,212.207347 148.920816,223.91102 141.937143,230.894694 C134.953469,237.878367 123.249796,237.685714 115.977143,230.364898 L93.2440816,207.631837 L93.2440816,207.631837 Z"/><path id="dark-purple" fill="#60678E" d="M163.851429,198.866122 C153.54449,198.866122 145.115918,190.774694 145.115918,180.901224 C145.115918,170.979592 153.54449,162.936327 163.851429,162.936327 L196.02449,162.936327 C206.331429,162.936327 214.76,171.027755 214.76,180.901224 C214.76,190.822857 206.331429,198.866122 196.02449,198.866122 L163.851429,198.866122 L163.851429,198.866122 Z"/><path id="purple" fill="#5463D6" d="M207.631837,142.755918 C200.359184,150.028571 188.65551,150.269388 181.671837,143.285714 C174.688163,136.302041 174.880816,124.598367 182.201633,117.325714 L204.934694,94.5926531 C212.207347,87.32 223.91102,87.0791837 230.894694,94.0628571 C237.878367,101.046531 237.685714,112.750204 230.364898,120.022857 L207.631837,142.755918 L207.631837,142.755918 Z"/><path id="teal" fill="#28B9BB" d="M198.866122,72.1485714 C198.866122,82.4555102 190.774694,90.8840816 180.901224,90.8840816 C170.979592,90.8840816 162.936327,82.4555102 162.936327,72.1485714 L162.936327,39.9273469 C162.936327,29.6204082 171.027755,21.1918367 180.901224,21.1918367 C190.822857,21.1918367 198.866122,29.6204082 198.866122,39.9273469 L198.866122,72.1485714 L198.866122,72.1485714 Z"/></g></g></svg>