<svg xmlns="http://www.w3.org/2000/svg" fill="#222" viewBox="0 0 810 180"><path d="M85.44 113.23V81H180v11.35C180 141.6 143.59 180 92.63 180 38.94 180 0 140.47 0 90 0 39.34 39.18 0 91.2 0c35.49 0 65.17 17.1 81.13 44.9l.92 1.6-32.53 19.37-1-1.75C129.22 45 113.25 35.51 91.44 35.51A54.34 54.34 0 0 0 36.89 90c0 30.89 23.76 54.49 55.74 54.49 23.07 0 40.21-11.17 46.94-31.26z"/><path d="M266.57 56.56a37.17 37.17 0 0 0-9.69-1.19c-9.69 0-24.95 3.82-31.24 17.19v-16H190v118.71h36.82v-51.83c0-23.65 13.32-32.25 28.09-32.25a50.41 50.41 0 0 1 11.63 1.2V56.56z"/><path d="M390.19 113.88c0-38.21-23-60.9-60.31-60.9-31.25 0-60.07 24.36-60.07 62.58 0 39.88 29.55 63.29 62.73 63.29 30.52 0 49.66-17.2 55.47-37.74l-30.76-8.6C353.86 141.83 346.35 148 333 148c-14.29 0-26.65-9.55-27.37-22.93h83.8a74.93 74.93 0 0 0 .76-11.19zm-83.67-12.18c.73-8.83 8.48-20.06 24-20.06 17.44 0 23.74 11 24.22 20.06z"/><path d="M436.44 175.27V107c0-10.75 7-20.54 19.86-20.54 13.32 0 19.37 8.83 19.37 20.06v68.79H512v-68.59c0-10.51 7-20.3 20.11-20.3s19.13 8.83 19.13 20.06v68.79h35.61V98.36c0-32.24-21.8-45.38-44.57-45.38-16.23 0-27.85 5.25-37.3 18.63-6.06-11.7-18.41-18.61-35.6-18.61-13.08 0-28.59 6.69-34.64 17.2V56.56h-35.12v118.71z"/><path d="M636.1 175.31v-173h-37v173h37z"/><path d="M684.71 175.25V56.55h-36.63v118.7h36.63z"/><path d="M645.11 21.67a21.29 21.29 0 1 0 21-21.29 21.28 21.28 0 0 0-21 21.29z"/><path d="M733.7 107.2c0-12 7.76-20.78 19.87-20.78 13.32 0 19.61 8.83 19.61 20.54v68.31H810v-74.52c0-26-13.56-47.29-43.84-47.29-12.35 0-27.13 5.49-33.67 16.72V56.56h-35.6v118.71h36.81V107.2z"/></svg>