<svg xmlns="http://www.w3.org/2000/svg" xmlns:xlink="http://www.w3.org/1999/xlink" width="208" height="35" version="1.1" viewBox="0 0 208 35"><title>Nokia_wordmark</title><desc>Created with Sketch.</desc><g id="Logos" fill="none" fill-rule="evenodd" stroke="none" stroke-width="1"><g id="Artboard-Copy" fill="#1C4598" fill-rule="nonzero" transform="translate(-126.000000, -209.000000)"><g id="Group-3" transform="translate(83.000000, 44.000000)"><g id="Nokia_wordmark" transform="translate(43.000000, 165.000000)"><path id="Shape" d="M10.0152,34.569119 L0,34.569119 L0,0.565855829 L17.3212,0.565855829 L37.193,25.9514981 L37.193,0.565855829 L47.2082,0.565855829 L47.2082,34.569119 L30.238,34.569119 L10.0152,8.75 L10.0152,34.569119 M95.1262,24.0540641 C95.1262,28.7807772 94.289,30.4108573 92.9032,31.97345 C90.779,34.2991694 87.6876,35 81.731,35 L64.6308,35 C58.6742,35 55.5776,34.2991694 53.456,31.97345 C52.0702,30.4108573 51.233,28.7807772 51.233,24.0540641 L51.233,10.9459359 C51.233,6.22181845 52.0702,4.59433403 53.456,3.02914565 C55.5802,0.700830614 58.6742,0 64.6308,0 L81.731,0 C87.6876,0 90.779,0.700830614 92.9032,3.02914565 C94.289,4.59433403 95.1262,6.22181845 95.1262,10.9459359 L95.1262,24.0540641 M81.3098,26.3849748 C83.5978,26.3849748 84.4038,26.25 84.9524,25.7516316 C85.4646,25.2870068 85.6908,24.6874073 85.6908,22.6887422 L85.6908,12.3112578 C85.6908,10.3125927 85.4646,9.71818451 84.9524,9.25096411 C84.4038,8.75 83.5978,8.61762088 81.3098,8.61762088 L65.0494,8.61762088 C62.7614,8.61762088 61.9554,8.75 61.4094,9.25096411 C60.8946,9.71818451 60.6684,10.3125927 60.6684,12.3112578 L60.6684,22.6887422 C60.6684,24.6874073 60.8946,25.2870068 61.4094,25.7516316 C61.9554,26.25 62.7614,26.3849748 65.0494,26.3849748 L81.3098,26.3849748 M109.681,0.565855829 L109.681,34.569119 L99.216,34.569119 L99.216,0.565855829 L109.681,0.565855829 M127.361,0.565855829 L141.1774,0.565855829 L122.5302,16.4695194 L143.5616,34.569119 L128.778,34.569119 L109.681,16.8355088 L127.361,0.565855829 M145.4908,0.565855829 L155.9584,0.565855829 L155.9584,34.569119 L145.4908,34.569119 M195.8606,34.569119 L192.764,28.6458024 L172.5126,28.6458024 L169.4524,34.5665233 L157.8902,34.5665233 L176.4412,0.565855829 L189.4516,0.565855829 L208,34.569119 L195.8606,34.569119 M176.15,21.2611243 L189.163,21.2611243 L182.6552,8.94986651 L176.15,21.2611243"/></g></g></g></g></svg>