<svg viewBox="0 0 596 99" fill="none" xmlns="http://www.w3.org/2000/svg"><path d="M389.28 52.53v27a1.591 1.591 0 0 1-1.59 1.59h-6.9a1.588 1.588 0 0 1-1.59-1.59v-26c0-7-4-10.82-10.45-10.82-7.09 0-11.84 4.38-11.84 13.43v23.41a1.591 1.591 0 0 1-1.59 1.59h-6.89a1.588 1.588 0 0 1-1.59-1.59V17.46a1.587 1.587 0 0 1 1.59-1.59h6.89a1.588 1.588 0 0 1 1.59 1.59v23c3.08-4.76 7.84-7.18 14.46-7.18 10.73.03 17.91 7.31 17.91 19.25zM546.56 52.53v27a1.59 1.59 0 0 1-1.59 1.59h-6.9a1.588 1.588 0 0 1-1.59-1.59v-26c0-7-4-10.82-10.45-10.82-7.09 0-11.84 4.38-11.84 13.43v23.41a1.59 1.59 0 0 1-1.59 1.59h-6.89a1.588 1.588 0 0 1-1.59-1.59V36.11a1.588 1.588 0 0 1 1.59-1.59h6.89a1.587 1.587 0 0 1 1.469.981c.08.193.121.4.121.609v4.38c3.08-4.76 7.84-7.18 14.46-7.18 10.72 0 17.91 7.28 17.91 19.22zM232.07 75.28a24.998 24.998 0 0 1-3.481-31.593A25 25 0 1 1 249.51 82.37a23.726 23.726 0 0 1-17.44-7.09zm17.44-2.7a14.072 14.072 0 0 0 10.35-4.2 15.329 15.329 0 0 0 0-21.08 14.87 14.87 0 0 0-20.71 0 15.338 15.338 0 0 0 0 21.08 14.067 14.067 0 0 0 10.36 4.2zM291.11 42.36c2.4-5.51 6.91-7.63 13.38-7.82a1.001 1.001 0 0 1 1 1v7.19a1.571 1.571 0 0 1-1.42 1.58 15.999 15.999 0 0 0-8.65 3.12c-2.89 2.05-4.29 5.5-4.29 10.26V79.6a1.591 1.591 0 0 1-1.59 1.59h-6.89a1.588 1.588 0 0 1-1.59-1.59V36.11a1.588 1.588 0 0 1 1.59-1.59h6.89a1.587 1.587 0 0 1 1.469.981c.08.193.121.4.121.609l-.02 6.25zM486.02 34.52h6.86a1.59 1.59 0 0 1 1.59 1.59v43.46a1.588 1.588 0 0 1-1.59 1.59h-6.89a1.592 1.592 0 0 1-1.59-1.59v-5.12c-3.82 5.31-9.23 7.93-16.32 7.93a21.834 21.834 0 0 1-16.42-7.09 25.741 25.741 0 0 1 0-34.88 21.828 21.828 0 0 1 16.42-7.09c7.09 0 12.5 2.61 16.32 7.83v-5a1.576 1.576 0 0 1 .462-1.161 1.587 1.587 0 0 1 1.158-.47zm-16.33 38.24a14.34 14.34 0 0 0 10.54-4.2 14.773 14.773 0 0 0 4.2-10.73 14.414 14.414 0 0 0-4.2-10.63 15.092 15.092 0 0 0-21.08 0 14.406 14.406 0 0 0-4.2 10.63 14.773 14.773 0 0 0 4.2 10.73 14.35 14.35 0 0 0 10.54 4.21v-.01zM436.38 15.87h-6.89a1.59 1.59 0 0 0-1.59 1.59v62.11c0 .878.712 1.59 1.59 1.59h6.89a1.59 1.59 0 0 0 1.59-1.59V17.46a1.59 1.59 0 0 0-1.59-1.59zM207.26 17.46v46.69l-27.29-47.09a2.379 2.379 0 0 0-2.06-1.19h-9.83a1.592 1.592 0 0 0-1.59 1.59v62.11a1.59 1.59 0 0 0 1.59 1.59h7.55a1.59 1.59 0 0 0 1.59-1.59V32.94l27.15 47a2.384 2.384 0 0 0 2.06 1.19h10a1.59 1.59 0 0 0 1.59-1.59V17.46a1.591 1.591 0 0 0-1.59-1.59h-7.55a1.588 1.588 0 0 0-1.62 1.59zM594.16 81.16h-8.21a2.378 2.378 0 0 1-2.07-1.22l-9.75-17.87h-9.43V79.6a1.591 1.591 0 0 1-1.59 1.59h-6.9a1.588 1.588 0 0 1-1.59-1.59V17.46a1.587 1.587 0 0 1 1.59-1.59h6.9a1.588 1.588 0 0 1 1.59 1.59v35.32h8.53l9.78-17.05a2.38 2.38 0 0 1 2.07-1.2h8.37a1 1 0 0 1 .82 1.43l-12.43 21.42L595 79.73a.996.996 0 0 1-.04.938.997.997 0 0 1-.8.492zM421 23.26v-5.8a1.591 1.591 0 0 0-1.59-1.59h-10.45a6.702 6.702 0 0 0-6.7 6.7v11.95h-5.5a1.592 1.592 0 0 0-1.59 1.59v6.53a1.588 1.588 0 0 0 1.59 1.59h5.5v35.35a1.587 1.587 0 0 0 1.59 1.59h6.9a1.588 1.588 0 0 0 1.59-1.59V44.22h7.08a1.588 1.588 0 0 0 1.59-1.59V36.1a1.588 1.588 0 0 0-1.59-1.59h-7.08v-9.68h7.08a1.592 1.592 0 0 0 1.58-1.57zM328.37 52.8v-8.58h10a1.588 1.588 0 0 0 1.59-1.59v-6.52a1.588 1.588 0 0 0-1.59-1.59h-10V17.46a1.591 1.591 0 0 0-1.59-1.59h-6.9a1.588 1.588 0 0 0-1.59 1.59v17.06h-7a1.592 1.592 0 0 0-1.59 1.59v6.52a1.587 1.587 0 0 0 1.59 1.59h7v26.86a10.09 10.09 0 0 0 2.952 7.128 10.089 10.089 0 0 0 7.128 2.952h10a1.588 1.588 0 0 0 1.59-1.59v-5.8a1.588 1.588 0 0 0-1.59-1.59h-6.29a3.708 3.708 0 0 1-3.71-3.71V52.8z" fill="#02153E"/><path d="m96.04 46.64-10.06 2.48-5.74-10-3.55-6.16-4-6.88-9.3-16.11H48.35L10.73 75.14l7.53 13H24v10h-8.62a5 5 0 0 1-4.31-2.49l-10.4-18a5 5 0 0 1 0-5L41.18 2.49A5 5 0 0 1 45.49 0h20.8a5 5 0 0 1 4.31 2.49l13.62 23.57 1.77 3.09 4 6.87 1.78 3.08 4.27 7.54z" fill="url(#a)"/><path d="M54.11 72.11 40.5 95.68a5.002 5.002 0 0 1-4.31 2.5H24l-13.27-23 7.53 13h15L48.32 62.1l5.79 10.01z" fill="url(#b)"/><path d="m96.04 51.61-10.4 18a5 5 0 0 1-4.31 2.5H69.17l-4-6.88-1.78-3.08h15l7.52-13-1.43-2.48h11.49a5 5 0 0 1 .07 4.94z" fill="url(#c)"/><path d="M123.62 10.01h-15.06l-15 26.07-5.74-10 13.62-23.57a4.998 4.998 0 0 1 4.31-2.49h12.13l5.74 9.99z" fill="url(#d)"/><path d="m141.2 25.54-40.5 70.15a5 5 0 0 1-4.31 2.5h-20.8a5 5 0 0 1-4.31-2.5l-11.84-20.5-3.56-6.15-4-6.88-1.78-3.08-4.31-7.47 10.06-2.5 5.75 10 1.78 3.08 1.78 3.08 4 6.88 1.77 3.07 5.75 10 1.78 3.08h15l37.63-65.18-7.52-13H118l-.18-10h8.62a5.004 5.004 0 0 1 4.31 2.49l10.4 18a5.01 5.01 0 0 1 .675 2.458 5.012 5.012 0 0 1-.625 2.472z" fill="url(#e)"/><path d="m63.41 36.08-7.52 13 1.44 2.5h-11.5a5 5 0 0 1 0-5l10.4-18a5 5 0 0 1 4.32-2.5h12.17l4 6.88 1.78 3.08-15.09.04z" fill="url(#f)"/><defs><linearGradient id="a" x1="-3.35" y1="70.73" x2="81.64" y2="21.66" gradientUnits="userSpaceOnUse"><stop offset=".2" stop-color="#668CFF"/><stop offset=".49" stop-color="#0AF"/><stop offset=".8" stop-color="#00BFB5"/></linearGradient><linearGradient id="b" x1="19.05" y1="89.61" x2="52.92" y2="70.05" gradientUnits="userSpaceOnUse"><stop offset=".5" stop-color="#668CFF"/><stop offset="1" stop-color="#0AF" stop-opacity="0"/></linearGradient><linearGradient id="c" x1="67.26" y1="68.82" x2="98.45" y2="50.81" gradientUnits="userSpaceOnUse"><stop stop-color="#0AF" stop-opacity="0"/><stop offset=".4" stop-color="#00BFB5"/></linearGradient><linearGradient id="d" x1="87.07" y1="24.92" x2="120.94" y2="5.37" gradientUnits="userSpaceOnUse"><stop stop-color="#00BFB5" stop-opacity="0"/><stop offset=".5" stop-color="#00CC7C"/></linearGradient><linearGradient id="e" x1="60.24" y1="76.58" x2="145.22" y2="27.52" gradientUnits="userSpaceOnUse"><stop offset=".2" stop-color="#0AF"/><stop offset=".51" stop-color="#00BFB5"/><stop offset=".8" stop-color="#00CC7C"/></linearGradient><linearGradient id="f" x1="43.42" y1="47.44" x2="74.62" y2="29.42" gradientUnits="userSpaceOnUse"><stop offset=".6" stop-color="#0AF"/><stop offset="1" stop-color="#00BFB5" stop-opacity="0"/></linearGradient></defs></svg>