<svg width="260" height="66" viewBox="0 0 260 66" fill="none" xmlns="http://www.w3.org/2000/svg">
<path d="M23.8738 64.5815C24.4195 64.9677 25.0715 65.1751 25.74 65.1751C26.4084 65.1751 27.0604 64.9677 27.6061 64.5815C28.5842 63.8833 51.5729 47.287 51.4796 26.5658C51.4796 12.3731 39.9322 0.825195 25.74 0.825195C11.5477 0.825195 0.000283258 12.3731 0.000283258 26.5529C-0.093023 47.287 22.8957 63.8833 23.8738 64.5815Z" fill="url(#paint0_linear_12998_2714)"/>
<g style="mix-blend-mode:multiply">
<path fill-rule="evenodd" clip-rule="evenodd" d="M37.7006 16.9126H15.7342C14.521 16.9126 13.5375 17.7358 13.5375 18.7512V31.6211L8.2656 37.5046C7.72256 38.1106 8.23919 38.9754 9.14426 38.9754H13.7818L11.8048 41.1817C11.2617 41.7877 11.7784 42.6526 12.6834 42.6526H37.6855C38.5175 42.6526 39.2781 42.2591 39.6502 41.6362L43.4364 35.2983V22.4283C43.4364 21.4129 42.4529 20.5897 41.2397 20.5897H39.8972V18.7512C39.8972 17.7358 38.9137 16.9126 37.7006 16.9126ZM39.8972 20.5897H19.2733C18.0602 20.5897 17.0767 21.4129 17.0767 22.4283V35.2983L13.7818 38.9754H34.1463C34.9784 38.9754 35.739 38.582 36.1111 37.9591L39.8972 31.6211V20.5897Z" fill="#00ADBB"/>
</g>
<path fill-rule="evenodd" clip-rule="evenodd" d="M39.8966 20.5901V31.6215L36.1105 37.9594C35.7384 38.5823 34.9778 38.9758 34.1458 38.9758H13.7812L17.0762 35.2986V22.4287C17.0762 21.4132 18.0597 20.5901 19.2728 20.5901H39.8966Z" fill="#004E5E"/>
<path d="M75.3057 43.8591L71.0586 36.4589H68.6133V43.8591H63.4653V21.3367H72.4743C74.6193 21.3367 76.4426 22.0874 77.9441 23.5889C79.4456 25.0904 80.1963 26.9137 80.1963 29.0587C80.1963 30.4315 79.8102 31.7077 79.038 32.8875C78.2873 34.0458 77.2898 34.9467 76.0457 35.5902L80.8398 43.8591H75.3057ZM68.6133 26.1629V31.9544H72.4743C73.1822 31.9544 73.7828 31.6756 74.2761 31.1179C74.7909 30.5602 75.0483 29.8738 75.0483 29.0587C75.0483 28.2436 74.7909 27.5572 74.2761 26.9995C73.7828 26.4418 73.1822 26.1629 72.4743 26.1629H68.6133Z" fill="#004E5E"/>
<path d="M86.5941 37.7459C87.1518 39.2474 88.4388 39.9981 90.4551 39.9981C91.7635 39.9981 92.7931 39.5906 93.5439 38.7755L97.4049 40.9956C95.8176 43.2049 93.4795 44.3096 90.3907 44.3096C87.688 44.3096 85.5216 43.5052 83.8914 41.8965C82.2826 40.2877 81.4783 38.2607 81.4783 35.8154C81.4783 33.3916 82.2719 31.3753 83.8592 29.7665C85.468 28.1363 87.5272 27.3212 90.0368 27.3212C92.3749 27.3212 94.3161 28.1363 95.8605 29.7665C97.4263 31.3753 98.2092 33.3916 98.2092 35.8154C98.2092 36.5018 98.1449 37.1453 98.0162 37.7459H86.5941ZM86.4976 34.1423H93.4152C92.9433 32.4478 91.8064 31.6005 90.0046 31.6005C88.1385 31.6005 86.9695 32.4478 86.4976 34.1423Z" fill="#004E5E"/>
<path d="M118.965 27.3212C120.809 27.3212 122.289 27.9325 123.405 29.1552C124.52 30.3564 125.078 31.9651 125.078 33.9814V43.8591H120.252V34.3997C120.252 33.5846 120.048 32.9411 119.64 32.4692C119.254 31.9973 118.686 31.7614 117.935 31.7614C117.141 31.7614 116.519 32.0295 116.069 32.5657C115.64 33.102 115.425 33.842 115.425 34.7858V43.8591H110.599V34.3997C110.599 33.5846 110.395 32.9411 109.988 32.4692C109.602 31.9973 109.033 31.7614 108.283 31.7614C107.489 31.7614 106.867 32.0295 106.416 32.5657C105.987 33.102 105.773 33.842 105.773 34.7858V43.8591H100.947V27.7717H105.773V29.2517C106.652 27.9647 108.089 27.3212 110.084 27.3212C111.95 27.3212 113.355 28.0291 114.299 29.4448C115.286 28.0291 116.841 27.3212 118.965 27.3212Z" fill="#004E5E"/>
<path d="M142.148 41.8643C140.496 43.4945 138.48 44.3096 136.099 44.3096C133.718 44.3096 131.702 43.4945 130.05 41.8643C128.398 40.2126 127.573 38.1963 127.573 35.8154C127.573 33.4345 128.398 31.4289 130.05 29.7987C131.702 28.147 133.718 27.3212 136.099 27.3212C138.48 27.3212 140.496 28.147 142.148 29.7987C143.8 31.4289 144.625 33.4345 144.625 35.8154C144.625 38.1963 143.8 40.2126 142.148 41.8643ZM133.461 38.5503C134.169 39.2581 135.048 39.612 136.099 39.612C137.15 39.612 138.03 39.2581 138.737 38.5503C139.445 37.8424 139.799 36.9308 139.799 35.8154C139.799 34.7 139.445 33.7884 138.737 33.0805C138.03 32.3727 137.15 32.0188 136.099 32.0188C135.048 32.0188 134.169 32.3727 133.461 33.0805C132.753 33.7884 132.399 34.7 132.399 35.8154C132.399 36.9308 132.753 37.8424 133.461 38.5503Z" fill="#004E5E"/>
<path d="M156.468 32.4049H153.154V38.0998C153.154 38.7433 153.412 39.1509 153.926 39.3225C154.441 39.4941 155.289 39.5477 156.468 39.4833V43.8591C153.401 44.1809 151.277 43.8913 150.098 42.9904C148.918 42.0681 148.328 40.4379 148.328 38.0998V32.4049H145.754V27.7717H148.328V24.715L153.154 24.715V27.7717H156.468V32.4049Z" fill="#004E5E"/>
<path d="M163.198 37.7459C163.756 39.2474 165.043 39.9981 167.059 39.9981C168.368 39.9981 169.397 39.5906 170.148 38.7755L174.009 40.9956C172.422 43.2049 170.084 44.3096 166.995 44.3096C164.292 44.3096 162.126 43.5052 160.495 41.8965C158.887 40.2877 158.082 38.2607 158.082 35.8154C158.082 33.3916 158.876 31.3753 160.463 29.7665C162.072 28.1363 164.131 27.3212 166.641 27.3212C168.979 27.3212 170.92 28.1363 172.464 29.7665C174.03 31.3753 174.813 33.3916 174.813 35.8154C174.813 36.5018 174.749 37.1453 174.62 37.7459H163.198ZM163.102 34.1423H170.019C169.547 32.4478 168.41 31.6005 166.609 31.6005C164.743 31.6005 163.573 32.4478 163.102 34.1423Z" fill="#004E5E"/>
<path d="M184.966 44.3096C182.671 44.3096 180.751 43.8162 179.207 42.8295C177.684 41.8214 176.6 40.4593 175.957 38.7433L180.397 36.1693C181.298 38.25 182.875 39.2903 185.127 39.2903C187.165 39.2903 188.183 38.679 188.183 37.4563C188.183 36.7914 187.851 36.2766 187.186 35.9119C186.543 35.5258 185.32 35.0861 183.518 34.5928C182.574 34.3354 181.748 34.0458 181.041 33.724C180.333 33.4023 179.636 32.984 178.949 32.4692C178.284 31.933 177.769 31.268 177.405 30.4744C177.062 29.6807 176.89 28.7691 176.89 27.7395C176.89 25.6588 177.63 23.9965 179.11 22.7524C180.612 21.5083 182.392 20.8862 184.451 20.8862C186.296 20.8862 187.926 21.326 189.342 22.2054C190.757 23.0634 191.873 24.3182 192.688 25.9699L188.344 28.5117C187.937 27.6537 187.433 27.0102 186.832 26.5812C186.232 26.1307 185.438 25.9055 184.451 25.9055C183.679 25.9055 183.078 26.0771 182.649 26.4203C182.242 26.7421 182.038 27.1389 182.038 27.6108C182.038 28.1685 182.295 28.6511 182.81 29.0587C183.346 29.4662 184.44 29.9167 186.092 30.41C186.993 30.6889 187.69 30.9141 188.183 31.0857C188.677 31.2573 189.299 31.5469 190.05 31.9544C190.822 32.3405 191.401 32.7588 191.787 33.2092C192.195 33.6382 192.549 34.2174 192.849 34.9467C193.171 35.6545 193.331 36.4696 193.331 37.392C193.331 39.537 192.559 41.2315 191.015 42.4756C189.47 43.6983 187.454 44.3096 184.966 44.3096Z" fill="#004E5E"/>
<path d="M203.937 44.3096C201.491 44.3096 199.454 43.4945 197.823 41.8643C196.215 40.2341 195.41 38.2178 195.41 35.8154C195.41 33.413 196.215 31.3967 197.823 29.7665C199.454 28.1363 201.491 27.3212 203.937 27.3212C205.481 27.3212 206.897 27.6966 208.184 28.4473C209.492 29.1981 210.5 30.1955 211.208 31.4396L206.993 33.8849C206.414 32.6837 205.374 32.0831 203.872 32.0831C202.821 32.0831 201.952 32.437 201.266 33.1449C200.58 33.8313 200.236 34.7215 200.236 35.8154C200.236 36.9093 200.58 37.8102 201.266 38.5181C201.952 39.2045 202.821 39.5477 203.872 39.5477C205.395 39.5477 206.436 38.9471 206.993 37.7459L211.208 40.159C210.5 41.4246 209.503 42.4327 208.216 43.1835C206.929 43.9342 205.502 44.3096 203.937 44.3096Z" fill="#004E5E"/>
<path d="M226.607 41.8643C224.955 43.4945 222.939 44.3096 220.558 44.3096C218.177 44.3096 216.161 43.4945 214.509 41.8643C212.858 40.2126 212.032 38.1963 212.032 35.8154C212.032 33.4345 212.858 31.4289 214.509 29.7987C216.161 28.147 218.177 27.3212 220.558 27.3212C222.939 27.3212 224.955 28.147 226.607 29.7987C228.259 31.4289 229.085 33.4345 229.085 35.8154C229.085 38.1963 228.259 40.2126 226.607 41.8643ZM217.92 38.5503C218.628 39.2581 219.507 39.612 220.558 39.612C221.609 39.612 222.489 39.2581 223.197 38.5503C223.904 37.8424 224.258 36.9308 224.258 35.8154C224.258 34.7 223.904 33.7884 223.197 33.0805C222.489 32.3727 221.609 32.0188 220.558 32.0188C219.507 32.0188 218.628 32.3727 217.92 33.0805C217.212 33.7884 216.858 34.7 216.858 35.8154C216.858 36.9308 217.212 37.8424 217.92 38.5503Z" fill="#004E5E"/>
<path d="M242.207 27.7717H247.033V43.8591H242.207V42.3469C241.242 43.6554 239.708 44.3096 237.606 44.3096C235.89 44.3096 234.453 43.7197 233.294 42.54C232.158 41.3602 231.589 39.73 231.589 37.6494V27.7717H236.415V36.9415C236.415 37.8853 236.673 38.6146 237.188 39.1294C237.724 39.6228 238.4 39.8694 239.215 39.8694C240.137 39.8694 240.866 39.5906 241.403 39.0329C241.939 38.4752 242.207 37.6494 242.207 36.5554V27.7717Z" fill="#004E5E"/>
<path d="M260 32.4049H256.686V38.0998C256.686 38.7433 256.943 39.1509 257.458 39.3225C257.973 39.4941 258.82 39.5477 260 39.4833V43.8591C256.933 44.1809 254.809 43.8913 253.629 42.9904C252.45 42.0681 251.86 40.4379 251.86 38.0998V32.4049H249.286V27.7717H251.86V24.715L256.686 24.715V27.7717H260V32.4049Z" fill="#004E5E"/>
<defs>
<linearGradient id="paint0_linear_12998_2714" x1="25.74" y1="0.825195" x2="25.74" y2="65.1751" gradientUnits="userSpaceOnUse">
<stop stop-color="#E0FDE1"/>
<stop offset="1" stop-color="#DAF9F7"/>
</linearGradient>
</defs>
</svg>
