<?xml version="1.0" standalone="no"?>
<!DOCTYPE svg PUBLIC "-//W3C//DTD SVG 20010904//EN"
 "http://www.w3.org/TR/2001/REC-SVG-20010904/DTD/svg10.dtd">
<svg version="1.0" xmlns="http://www.w3.org/2000/svg"
 width="313.000000pt" height="313.000000pt" viewBox="0 0 313.000000 313.000000"
 preserveAspectRatio="xMidYMid meet">
<metadata>
Created by potrace 1.11, written by Peter Selinger 2001-2013
</metadata>
<g transform="translate(0.000000,313.000000) scale(0.100000,-0.100000)"
fill="#000000" stroke="none">
<path d="M72 2919 c-16 -6 -18 -26 -20 -185 -1 -99 1 -184 6 -190 4 -6 124
-71 267 -144 143 -73 262 -134 264 -136 2 -2 -112 -3 -254 -3 -164 0 -261 -4
-270 -11 -9 -7 -12 -56 -13 -178 -1 -92 1 -174 4 -184 4 -13 164 -99 484 -259
l55 -28 -261 0 c-197 -1 -264 -4 -271 -13 -10 -13 -16 -330 -7 -360 3 -10 61
-46 132 -82 70 -35 186 -95 259 -133 l132 -68 -252 -5 c-139 -3 -257 -8 -262
-12 -17 -10 -19 -362 -3 -376 7 -5 112 -60 233 -122 121 -62 267 -137 324
-167 l105 -53 558 0 c517 0 559 1 565 17 7 19 10 360 2 366 -6 6 -309 162
-505 260 -140 71 -179 86 -215 86 -24 -1 -115 -1 -201 0 l-158 1 0 130 0 130
838 0 c638 0 841 3 850 12 8 8 12 66 12 194 l0 182 -153 77 c-83 43 -234 120
-334 171 l-181 94 -527 0 -526 0 -238 120 c-130 66 -245 126 -254 133 -14 10
263 12 1390 11 775 0 1416 4 1426 8 15 8 17 27 17 186 0 97 -4 182 -8 188 -4
6 -155 87 -336 179 l-330 168 -1164 1 c-640 1 -1171 -2 -1180 -5z m2573 -188
c132 -68 244 -126 248 -131 4 -4 -477 -7 -1070 -7 l-1078 0 -245 125 c-135 68
-248 128 -253 131 -4 4 480 7 1075 7 l1083 -1 240 -124z m-2237 -42 c152 -78
280 -144 284 -148 9 -7 14 -239 6 -247 -4 -3 -134 60 -290 140 l-283 145 -3
125 c-1 69 0 126 3 126 4 0 131 -64 283 -141z m2610 -296 l3 -132 -1126 0
-1125 0 0 132 0 132 1123 0 1122 0 3 -132z m-2802 -269 c49 -25 178 -91 287
-146 116 -58 197 -105 197 -114 4 -135 0 -229 -10 -229 -6 0 -137 63 -290 140
l-279 140 -1 128 c0 70 2 127 3 127 2 0 44 -21 93 -46z m1817 -389 c138 -70
254 -129 256 -131 2 -2 -338 -4 -757 -4 l-762 0 0 128 c0 71 2 131 4 133 2 2
230 4 505 3 l501 -1 253 -128z m364 -209 c4 -4 7 -63 8 -131 l0 -125 -830 0
-830 0 -252 127 c-139 71 -253 130 -253 133 0 8 2150 4 2157 -4z m-1695 -350
c2 -23 2 -80 0 -128 l-3 -86 -290 146 -289 147 0 128 0 128 290 -147 289 -148
3 -40z m709 -432 c137 -70 247 -129 245 -133 -2 -3 -209 -6 -459 -5 l-454 1
-249 127 c-137 71 -251 130 -253 132 -2 2 204 4 458 4 l463 0 249 -126z m-712
-190 c2 -2 3 -18 3 -36 0 -18 0 -75 -1 -126 l-1 -93 -290 148 -290 148 0 127
0 127 288 -146 c158 -80 289 -147 291 -149z m1087 -143 c0 -123 -1 -130 -20
-133 -12 -2 -239 -3 -506 -2 l-485 0 -3 132 -3 132 509 0 508 0 0 -129z"/>
</g>
</svg>
